<svg width="196" height="80" viewBox="0 0 196 80" fill="none" xmlns="http://www.w3.org/2000/svg">
<g clip-path="url(#clip0_2197_5999)">
<path d="M50.834 41.032C50.5899 41.6533 50.1461 41.964 49.4581 41.964H43.7993C43.1558 41.964 42.9783 41.6533 43.2668 41.032L52.9644 16.9987C53.2085 16.3773 53.6301 16.0667 54.2515 16.0667H70.895C72.6037 16.0667 73.8021 16.6658 74.5122 17.842C75.2223 19.0181 75.2223 20.4605 74.5122 22.1693L71.8714 28.6936C70.9616 30.9571 69.8742 32.5327 68.6093 33.4425C67.3444 34.3524 65.5913 34.7962 63.3277 34.7962H55.8936C55.2501 34.7962 55.0726 34.4633 55.361 33.8198L57.2029 29.204C57.3805 28.8045 57.5358 28.5382 57.6911 28.4273C57.8465 28.3163 58.135 28.2719 58.5344 28.2719H64.0823C64.3264 28.2719 64.4817 28.161 64.5927 27.9391L66.5011 23.1901C66.5899 22.9682 66.5233 22.8572 66.2792 22.8572H58.4235C58.1794 22.8572 58.024 22.9682 57.9131 23.1901L50.7674 41.0764L50.834 41.032Z" fill="black"/>
<path d="M90.1124 35.1512C90.7559 35.1512 90.9556 35.4619 90.7337 36.0832L88.7587 40.9875C88.4702 41.6311 88.0042 41.9639 87.3828 41.9639H69.896C69.2525 41.9639 69.0749 41.6311 69.3634 40.9875L79.0611 16.9764C79.3495 16.3329 79.7934 16 80.3925 16H86.0957C86.7393 16 86.9168 16.3329 86.6283 16.9764L79.4161 34.7739C79.3495 35.018 79.4161 35.129 79.638 35.129H90.1346L90.1124 35.1512Z" fill="black"/>
<path d="M87.7827 40.921L107.688 16.7989C108.11 16.2663 108.62 16 109.175 16H114.878C115.433 16 115.699 16.2663 115.699 16.7989L116.121 40.921C116.121 41.6089 115.744 41.9639 115.012 41.9639H109.308C108.731 41.9639 108.465 41.6977 108.487 41.1651V37.9251C108.487 37.7032 108.376 37.5922 108.132 37.5922H102.074C101.297 37.5922 101.208 37.2372 101.785 36.5492L104.959 32.5548C105.225 32.2219 105.447 32 105.625 31.9334C105.802 31.8447 106.091 31.8003 106.468 31.8003H108.154C108.398 31.8003 108.509 31.6893 108.509 31.4674L108.465 25.9639L96.3486 41.1651C96.0823 41.4979 95.8604 41.7198 95.6828 41.8086C95.5053 41.8974 95.239 41.9418 94.8618 41.9418H88.0046C87.2501 41.9418 87.1835 41.5867 87.7605 40.8988L87.7827 40.921Z" fill="black"/>
<path d="M120.604 40.9875L123.71 33.0652C123.821 32.7767 123.866 32.5548 123.821 32.3773L120.825 17.0874C120.715 16.3773 121.047 16 121.824 16H128.859C129.391 16 129.68 16.2441 129.769 16.7101L131.721 31.5562C131.744 31.9334 131.655 32.3773 131.477 32.8433L128.193 40.9431C127.949 41.5867 127.527 41.9196 126.906 41.9196H121.247C120.604 41.9196 120.404 41.5867 120.626 40.9431L120.604 40.9875ZM132.964 22.7462L138.512 16.6879C138.934 16.2219 139.422 16 139.954 16H146.945C147.766 16 147.832 16.3329 147.167 16.9986L134.296 29.6033C133.985 29.914 133.696 30.0694 133.475 30.0694C133.253 30.0694 133.097 29.8918 133.075 29.559L132.387 24.1221C132.298 23.7226 132.476 23.2344 132.964 22.724V22.7462Z" fill="black"/>
</g>
<g clip-path="url(#clip1_2197_5999)">
<path d="M53.8519 58.9847C53.9851 58.6296 54.2292 58.4299 54.6286 58.4299H58.1349C58.4899 58.4299 58.6009 58.6074 58.4677 58.9847L57.9351 60.2496C57.3804 61.6255 56.7146 62.5797 55.9601 63.1345C55.1834 63.6893 54.1182 63.9556 52.7424 63.9556H45.5967C44.5537 63.9556 43.8214 63.6005 43.3998 62.8904C42.9782 62.1802 42.956 61.2926 43.3998 60.2496L46.7951 51.8612C47.3499 50.4854 48.0156 49.5311 48.7701 48.9764C49.5468 48.4216 50.612 48.1553 51.9879 48.1553H59.6883C60.0433 48.1553 60.1543 48.355 60.0211 48.7544L58.8228 51.7281C58.6675 52.1054 58.4233 52.3051 58.0239 52.3051H51.4331C51.2777 52.3051 51.1668 52.3716 51.1224 52.527L48.2375 59.5838C48.1931 59.7392 48.2375 59.8058 48.3707 59.8058H53.275C53.4303 59.8058 53.5413 59.7392 53.5856 59.5838L53.8519 58.9625V58.9847ZM52.2098 57.5644C51.8103 57.5644 51.6994 57.3647 51.8769 56.9875L52.8311 54.613C52.9865 54.2357 53.2528 54.036 53.6522 54.036H59.9102C60.2874 54.036 60.3984 54.2357 60.243 54.613L59.2888 57.0097C59.1335 57.3647 58.8672 57.5644 58.5121 57.5644H52.232H52.2098Z" fill="black"/>
<path d="M59.1559 63.3781L65.0588 48.7762C65.2363 48.3767 65.5026 48.177 65.8799 48.177H76.1989C77.2418 48.177 77.9742 48.5321 78.3958 49.2644C78.8174 49.9967 78.8396 50.8622 78.3958 51.883L76.443 56.5432C76.0657 57.4308 75.5775 58.0522 74.9561 58.4072C74.357 58.7623 73.4471 58.9398 72.271 58.9398L73.9575 63.3781C74.1351 63.7776 73.9575 63.9995 73.4027 63.9995H69.7634C69.4083 63.9995 69.1642 63.8663 69.0754 63.6222L67.3445 58.9398H67.1226C66.7453 58.9398 66.6344 58.7401 66.7675 58.3629L67.8993 55.5445C68.0768 55.1451 68.3431 54.9454 68.7204 54.9454H72.2932C72.4485 54.9454 72.5373 54.8788 72.6039 54.7235L73.4915 52.5265C73.5359 52.3712 73.4915 52.3046 73.3584 52.3046H68.4541C68.2987 52.3046 68.1878 52.3712 68.1434 52.5265L63.7495 63.3559C63.572 63.7554 63.3057 63.9551 62.9284 63.9551H59.4666C59.0671 63.9551 58.9562 63.7554 59.1337 63.3559L59.1559 63.3781Z" fill="black"/>
<path d="M77.3307 60.2496L80.726 51.8612C81.2807 50.4854 81.9465 49.5311 82.701 48.9764C83.4777 48.4216 84.5429 48.1553 85.9187 48.1553H93.3528C94.3958 48.1553 95.1503 48.5103 95.572 49.2205C95.9936 49.9306 96.0158 50.8182 95.572 51.8612L92.1767 60.2496C91.6219 61.6255 90.9562 62.5797 90.1795 63.1345C89.4028 63.6893 88.3376 63.9556 86.9617 63.9556H84.3432C83.9437 63.9556 83.8328 63.7558 84.0103 63.3564L85.2086 60.3827C85.364 60.0055 85.6081 59.8058 86.0075 59.8058H87.5165C87.6719 59.8058 87.7828 59.7392 87.8272 59.5838L90.6899 52.527C90.7343 52.3716 90.6899 52.3051 90.5567 52.3051H85.364C85.2086 52.3051 85.0977 52.3716 85.0533 52.527L82.1906 59.5838C82.1462 59.7392 82.1906 59.8058 82.3237 59.8058H83.8328C84.21 59.8058 84.321 60.0055 84.1878 60.3827L82.9895 63.3564C82.8119 63.7558 82.5457 63.9556 82.1684 63.9556H79.5054C78.4624 63.9556 77.7301 63.6005 77.3085 62.8904C76.8869 62.1802 76.8647 61.2926 77.3085 60.2496H77.3307Z" fill="black"/>
<path d="M94.6176 60.2496L99.2778 48.7544C99.4553 48.355 99.7216 48.1553 100.099 48.1553H103.561C103.96 48.1553 104.071 48.355 103.894 48.7544L99.5219 59.5838C99.4775 59.7392 99.5219 59.8058 99.6551 59.8058H104.914C105.07 59.8058 105.181 59.7392 105.225 59.5838L109.619 48.7544C109.797 48.355 110.063 48.1553 110.44 48.1553H113.88C114.279 48.1553 114.412 48.355 114.235 48.7544L109.575 60.2496C109.02 61.6255 108.354 62.5797 107.6 63.1345C106.823 63.6893 105.758 63.9556 104.36 63.9556H96.8589C95.816 63.9556 95.0836 63.6005 94.662 62.8904C94.2404 62.1802 94.2182 61.2926 94.662 60.2496H94.6176Z" fill="black"/>
<path d="M110.862 63.3781L116.765 48.7762C116.942 48.3767 117.208 48.177 117.586 48.177H121.048C121.358 48.177 121.558 48.3101 121.647 48.5764L124.11 55.8552C124.11 55.9218 124.11 55.944 124.154 55.944C124.199 55.944 124.221 55.8996 124.243 55.8108L127.106 48.7762C127.283 48.3767 127.55 48.177 127.927 48.177H131.367C131.766 48.177 131.899 48.3767 131.722 48.7762L125.819 63.3781C125.641 63.7776 125.375 63.9773 124.975 63.9773H121.536C121.225 63.9773 121.025 63.8441 120.937 63.5778L118.496 56.2769C118.496 56.2103 118.451 56.1881 118.429 56.1881C118.407 56.1881 118.385 56.2325 118.34 56.3212L115.478 63.3781C115.3 63.7776 115.034 63.9773 114.656 63.9773H111.195C110.795 63.9773 110.684 63.7776 110.862 63.3781Z" fill="black"/>
<path d="M128.415 63.3781L134.318 48.7762C134.496 48.3767 134.762 48.177 135.139 48.177H144.903C145.946 48.177 146.679 48.5321 147.1 49.2422C147.522 49.9523 147.544 50.84 147.1 51.883L143.705 60.2713C143.15 61.6472 142.484 62.6014 141.73 63.1562C140.953 63.711 139.888 63.9773 138.512 63.9773H134.34C133.941 63.9773 133.83 63.7776 134.007 63.3781L135.206 60.4045C135.361 60.0272 135.605 59.8275 136.005 59.8275H139.067C139.222 59.8275 139.333 59.7609 139.378 59.6056L142.263 52.5487C142.307 52.3934 142.263 52.3268 142.129 52.3268H137.669C137.514 52.3268 137.403 52.3934 137.358 52.5487L132.964 63.3781C132.787 63.7776 132.521 63.9773 132.143 63.9773H128.726C128.326 63.9773 128.215 63.7776 128.393 63.3781H128.415Z" fill="black"/>
</g>
<path d="M152.493 37.1038C152.892 37.1038 153.026 37.3035 152.848 37.7251L151.361 41.3645C151.184 41.764 150.895 41.9859 150.496 41.9859H133.697C133.297 41.9859 133.164 41.7861 133.342 41.3645L134.829 37.7251C135.006 37.3257 135.295 37.1038 135.694 37.1038H152.493Z" fill="black"/>
<defs>
<clipPath id="clip0_2197_5999">
<rect width="104.486" height="25.9641" fill="white" transform="translate(43.1328 16)"/>
</clipPath>
<clipPath id="clip1_2197_5999">
<rect width="104.35" height="15.8446" fill="white" transform="translate(43.0752 48.1553)"/>
</clipPath>
</defs>
</svg>
