<svg width="162" height="38" viewBox="0 0 162 38" fill="none" xmlns="http://www.w3.org/2000/svg">
<g id="Protofire" clip-path="url(#clip0_4373_18262)">
<path id="Vector" d="M2.88735 37.5537C1.41139 36.8498 0.436495 35.414 0.33861 33.7998C0.240726 32.1856 1.03514 30.6453 2.41552 29.7731C3.7959 28.9007 5.54656 28.8324 6.99243 29.5946C9.16623 30.7407 10.0113 33.3912 8.89366 35.5581C7.77604 37.7251 5.10641 38.612 2.88735 37.5537Z" fill="black"/>
<path id="Vector_2" d="M1.85328 7.23197C-1.07428 12.5825 0.0895294 19.2055 4.67348 23.2812C5.18254 23.7415 5.97668 23.7315 6.46537 23.2712C8.45415 21.4242 9.08134 18.5651 8.04347 16.077C6.90434 13.4967 7.58213 10.4891 9.72337 8.62276C11.9047 6.71642 15.0416 6.29351 17.6648 7.55215C20.2649 8.7632 21.7919 11.4668 21.4624 14.276C21.078 17.0905 18.9409 19.3667 16.1172 19.9693C13.4311 20.5943 11.3862 22.7378 10.9248 25.4123C10.8229 26.0628 11.2811 26.6732 11.9734 26.7932C18.9476 27.9938 25.7893 24.1316 28.019 17.7481C30.2589 11.3443 27.2045 4.37034 20.8617 1.36861C14.0199 -1.85324 5.37598 0.818294 1.85328 7.23197Z" fill="black"/>
<path id="Vector_3" fill-rule="evenodd" clip-rule="evenodd" d="M40.24 25.6393C40.5242 25.927 40.8998 26.0858 41.2956 26.0759C41.6916 26.0858 42.0672 25.9369 42.3514 25.6393C42.6255 25.3415 42.7675 24.9545 42.7573 24.5476V21.3523H44.9601C47.9139 21.3523 49.9848 19.4966 49.9848 16.7478C49.9848 14.0189 47.9749 12.1831 44.9601 12.1831H41.3159C40.92 12.1732 40.5343 12.322 40.2501 12.6197C39.9761 12.9075 39.8237 13.2945 39.8339 13.7113V24.5476C39.8237 24.9545 39.9659 25.3515 40.24 25.6393ZM44.9803 18.8318H42.7573V14.7136H44.9803C46.1986 14.7136 47.0107 15.5273 47.0107 16.7579C47.0411 17.3135 46.8381 17.8593 46.4522 18.2563C46.0564 18.6532 45.5287 18.8616 44.9803 18.8318Z" fill="black"/>
<path id="Vector_4" fill-rule="evenodd" clip-rule="evenodd" d="M62.2144 25.1506C62.501 25.6368 63.0434 25.9245 63.6269 25.9147C64.3912 25.9157 65.0217 25.3349 65.06 24.5948C65.0394 24.1483 64.8757 23.7216 64.5891 23.3744L62.4191 20.4072L62.7261 20.1989C63.9065 19.3643 64.591 18.0224 64.5584 16.6066C64.5584 13.8974 62.4294 12.0716 59.236 12.0716H55.3771C54.9558 12.0548 54.5463 12.209 54.2472 12.4971C53.948 12.7853 53.7863 13.1813 53.8009 13.5899V24.3965C53.8009 25.2239 54.493 25.8949 55.3465 25.8949C56.2001 25.8949 56.892 25.2239 56.892 24.3965V21.2011H59.502L62.2144 25.1506ZM59.2564 18.6908H56.9023V14.5923H59.2564C60.5359 14.5923 61.4058 15.4061 61.4058 16.6266C61.436 17.186 61.2186 17.7314 60.8082 18.1257C60.3975 18.5199 59.8331 18.7254 59.2564 18.6908Z" fill="black"/>
<path id="Vector_5" fill-rule="evenodd" clip-rule="evenodd" d="M67.2927 18.9374C67.2927 22.8837 70.5888 25.9664 74.8095 25.9664C79.0502 25.9664 82.3665 22.8837 82.3665 18.9374C82.3665 14.991 79.0201 11.9082 74.8095 11.9082C70.5988 11.9082 67.2927 14.991 67.2927 18.9374ZM71.679 15.7976C72.5126 14.9704 73.6561 14.5318 74.8295 14.5892C76.0012 14.5381 77.141 14.9786 77.9734 15.8044C78.8054 16.6303 79.2543 17.7662 79.2109 18.9372C79.2109 21.4978 77.4423 23.2854 74.8295 23.2854C73.6535 23.3523 72.5044 22.9168 71.6685 22.0874C70.8328 21.2581 70.389 20.1128 70.4479 18.9372C70.3985 17.7644 70.8453 16.6249 71.679 15.7976Z" fill="black"/>
<path id="Vector_6" d="M90.4617 25.966C90.0473 25.9717 89.6488 25.8107 89.3587 25.5203C89.0687 25.2301 88.9124 24.8358 88.9265 24.4295V14.5788H85.6715C84.9243 14.5788 84.3206 13.9763 84.3206 13.2432C84.3206 12.5002 84.9243 11.9077 85.6715 11.9077H95.2519C95.9991 11.9077 96.603 12.5102 96.603 13.2432C96.603 13.9763 95.9991 14.5788 95.2519 14.5788H92.0073V24.4195C92.0175 24.8312 91.864 25.2329 91.5672 25.5241C91.2703 25.8254 90.8711 25.976 90.4515 25.966H90.4617Z" fill="black"/>
<path id="Vector_7" fill-rule="evenodd" clip-rule="evenodd" d="M97.4399 18.9374C97.4399 22.8837 100.736 25.9664 104.957 25.9664C109.188 25.9664 112.514 22.8837 112.514 18.9374C112.514 14.991 109.168 11.9082 104.957 11.9082C100.746 11.9082 97.4399 14.991 97.4399 18.9374ZM101.826 15.7976C102.66 14.9704 103.803 14.5318 104.977 14.5892C106.149 14.5381 107.289 14.9786 108.121 15.8044C108.952 16.6303 109.402 17.7662 109.359 18.9372C109.359 21.4978 107.59 23.2854 104.977 23.2854C103.801 23.3523 102.652 22.9168 101.816 22.0874C100.98 21.2581 100.536 20.1128 100.595 18.9372C100.546 17.7644 100.993 16.6249 101.826 15.7976Z" fill="black"/>
<path id="Vector_8" d="M117.09 26.0695C116.682 26.0837 116.287 25.9274 116.005 25.6399C115.718 25.34 115.565 24.9404 115.596 24.5408V13.6091C115.574 13.1894 115.729 12.7997 116.015 12.5099C116.302 12.2102 116.701 12.0603 117.11 12.0703H123.477C124.203 12.0703 124.797 12.6698 124.797 13.3993C124.805 13.7473 124.67 14.0839 124.421 14.3337C124.174 14.5835 123.832 14.7257 123.477 14.7282H118.594V18.2256H122.331C123.067 18.2256 123.661 18.8251 123.661 19.5645C123.666 19.9125 123.529 20.248 123.278 20.496C123.028 20.7439 122.686 20.8836 122.331 20.8836H118.594V24.5308C118.614 24.9304 118.461 25.3301 118.174 25.6299C117.888 25.9197 117.499 26.0695 117.09 26.0595V26.0695Z" fill="black"/>
<path id="Vector_9" d="M130.381 26.0689C129.979 26.079 129.576 25.9291 129.296 25.6493C129.006 25.3656 128.854 24.9732 128.873 24.5701V13.6286C128.854 13.0889 129.134 12.5694 129.607 12.2896C130.084 12.0083 130.677 12.0083 131.154 12.2896C131.626 12.5694 131.908 13.0889 131.888 13.6286V24.5701C131.908 24.9697 131.757 25.3695 131.476 25.6493C131.185 25.9391 130.792 26.089 130.381 26.079V26.0689Z" fill="black"/>
<path id="Vector_10" fill-rule="evenodd" clip-rule="evenodd" d="M144.45 25.2498C144.723 25.7394 145.267 26.0292 145.833 26.0192C146.582 26.0147 147.198 25.4316 147.236 24.6901C147.216 24.2406 147.054 23.8109 146.772 23.4611L144.632 20.4734L144.924 20.2536C146.09 19.4175 146.767 18.0705 146.741 16.6465C146.741 13.9185 144.643 12.0799 141.493 12.0799H137.689C137.273 12.063 136.869 12.2182 136.574 12.5084C136.28 12.7985 136.119 13.1973 136.134 13.6087V24.4903C136.104 25.0469 136.388 25.5741 136.871 25.8594C137.353 26.1622 137.967 26.1707 138.456 25.8814C138.947 25.5922 139.232 25.0543 139.192 24.4903V21.2728H141.766L144.45 25.2498ZM141.513 18.7447H139.192V14.6179H141.513C142.785 14.6179 143.632 15.4373 143.632 16.6663C143.66 17.2287 143.445 17.7759 143.04 18.1722C142.636 18.5683 142.081 18.7764 141.513 18.7447Z" fill="black"/>
<path id="Vector_11" d="M151.724 26.0691C151.292 26.083 150.874 25.9226 150.568 25.6256C150.262 25.3287 150.095 24.9215 150.107 24.5003V13.6486C150.086 13.2249 150.25 12.8123 150.559 12.5132C150.867 12.2142 151.29 12.0567 151.724 12.0799H158.674C159.442 12.0799 160.065 12.6794 160.065 13.4288C160.065 14.1783 159.442 14.7878 158.674 14.7878H153.269V17.5856H156.851C157.559 17.5856 158.121 18.1252 158.121 18.8047C158.121 19.4841 157.559 20.0337 156.851 20.0337H153.269V23.3612H158.949C159.719 23.3612 160.342 23.9607 160.342 24.7101C160.342 25.4595 159.719 26.0591 158.949 26.0591L151.724 26.0691Z" fill="black"/>
</g>
<defs>
<clipPath id="clip0_4373_18262">
<rect width="161.5" height="38" fill="white" transform="translate(0.25)"/>
</clipPath>
</defs>
</svg>
