<svg width="146" height="32" viewBox="0 0 146 32" fill="none" xmlns="http://www.w3.org/2000/svg">
<g id="Palmera" clip-path="url(#clip0_4373_18149)">
<path id="Vector" d="M11.3893 11.8359V22.8492H17.5868C17.898 22.8492 18.1502 23.1015 18.1502 23.4126C18.1502 23.7238 17.898 23.976 17.5868 23.976H3.8148C3.50365 23.976 3.2514 23.7238 3.2514 23.4126C3.2514 23.1015 3.50365 22.8492 3.8148 22.8492H10.2V11.9098L9.47016 11.3023C8.00328 11.5636 6.69427 12.4439 5.79109 13.6831C5.60783 13.9346 5.25541 13.9898 5.00395 13.8066C4.7525 13.6234 4.69722 13.271 4.88049 13.0195C5.82675 11.7211 7.1786 10.7299 8.73633 10.312C8.53293 10.1978 8.31232 10.0919 8.07734 9.99775C6.92076 9.53451 5.48123 9.38379 4.12274 9.89281C3.83137 10.002 3.50665 9.85422 3.39748 9.56293C3.28831 9.27151 3.43602 8.9468 3.72739 8.83763C5.40116 8.2105 7.13576 8.4068 8.49631 8.95175C8.55276 8.97436 8.60867 8.99761 8.66403 9.02148C7.90244 7.9663 6.87406 7.12011 5.43824 6.76271C5.11888 6.68323 4.93417 6.3939 5.02569 6.1165C5.1172 5.8391 5.45028 5.67867 5.76964 5.75815C7.55653 6.20292 8.78669 7.23836 9.65654 8.43039C9.44677 6.78234 8.79971 5.47344 7.89114 4.73886C7.64787 4.54218 7.63181 4.20916 7.85525 3.99503C8.0787 3.78091 8.45704 3.76676 8.7003 3.96345C9.75245 4.81413 10.4466 6.14917 10.7503 7.72266C11.0539 6.14917 11.748 4.81413 12.8002 3.96345C13.0435 3.76676 13.4218 3.78091 13.6452 3.99503C13.8687 4.20916 13.8526 4.54218 13.6094 4.73886C12.7008 5.47344 12.0537 6.78234 11.8439 8.43039C12.7139 7.23836 13.944 6.20292 15.7309 5.75815C16.0502 5.67867 16.3833 5.8391 16.4748 6.1165C16.5664 6.3939 16.3816 6.68323 16.0623 6.76271C14.6264 7.12011 13.5981 7.9663 12.8365 9.02148C12.8918 8.99761 12.9477 8.97436 13.0042 8.95175C14.3648 8.4068 16.0994 8.2105 17.7732 8.83763C18.0645 8.9468 18.2122 9.27151 18.103 9.56293C17.9939 9.85422 17.6692 10.002 17.3778 9.89281C16.0193 9.38379 14.5797 9.53451 13.4231 9.99775C13.1882 10.0919 12.9676 10.1978 12.7642 10.312C14.3219 10.7299 15.6738 11.7211 16.62 13.0195C16.8033 13.271 16.748 13.6234 16.4965 13.8066C16.2451 13.9898 15.8927 13.9346 15.7094 13.6831C14.8062 12.4439 13.4972 11.5636 12.0304 11.3023L11.3893 11.8359Z" fill="black"/>
<path id="Vector_2" d="M4.31561 25.791C4.31561 25.4799 4.56786 25.2275 4.87901 25.2275H16.5225C16.8338 25.2275 17.086 25.4799 17.086 25.791C17.086 26.1022 16.8338 26.3544 16.5225 26.3544H4.87901C4.56786 26.3544 4.31561 26.1022 4.31561 25.791Z" fill="black"/>
<path id="Vector_3" d="M6.99022 27.5518C6.67906 27.5518 6.42682 27.804 6.42682 28.1151C6.42682 28.4263 6.67906 28.6785 6.99022 28.6785H14.6193C14.9306 28.6785 15.1828 28.4263 15.1828 28.1151C15.1828 27.804 14.9306 27.5518 14.6193 27.5518H6.99022Z" fill="black"/>
<path id="Vector_4" fill-rule="evenodd" clip-rule="evenodd" d="M10.7947 0C8.38594 0 6.16246 0.793278 4.37126 2.13284C3.56833 2.73331 2.85226 3.44356 2.2453 4.24133C0.873314 6.04463 0.0588379 8.29513 0.0588379 10.7359V20.9397C0.0588379 26.8689 4.86545 31.6755 10.7947 31.6755C16.724 31.6755 21.5306 26.8689 21.5306 20.9397V10.7359C21.5306 4.80661 16.724 0 10.7947 0ZM20.4038 20.9397V10.7359C20.4038 5.42892 16.1017 1.1268 10.7947 1.1268C5.48776 1.1268 1.18563 5.42893 1.18563 10.7359V20.9397C1.18563 26.2466 5.48776 30.5487 10.7947 30.5487C16.1017 30.5487 20.4038 26.2466 20.4038 20.9397Z" fill="black"/>
<path id="Vector_5" fill-rule="evenodd" clip-rule="evenodd" d="M25.5665 28.3981H27.0046V19.3521H33.1943C35.2959 19.3521 37.0357 18.6691 38.4049 17.3001C39.7959 15.9314 40.4907 14.2139 40.4907 12.155C40.4907 10.0965 39.7959 8.38963 38.4046 7.0429C37.0354 5.67404 35.2958 4.99121 33.1943 4.99121H25.5665V28.3981ZM37.3937 16.3546C36.2888 17.4596 34.8917 18.0134 33.1943 18.0134H27.0046V6.32988H33.1943C34.8917 6.32988 36.2888 6.88373 37.3937 7.98873C38.499 9.09401 39.0526 10.4801 39.0526 12.155C39.0526 13.8525 38.4988 15.2495 37.3937 16.3546Z" fill="black"/>
<path id="Vector_6" fill-rule="evenodd" clip-rule="evenodd" d="M59.5756 11.6179H58.2038V15.704C57.5368 14.4213 56.5859 13.3848 55.3521 12.5959C53.9867 11.7007 52.4534 11.2534 50.7549 11.2534C48.3414 11.2534 46.2822 12.1039 44.5833 13.8025C42.8838 15.4799 42.0337 17.5506 42.0337 20.0079C42.0337 22.4651 42.8838 24.5467 44.5831 26.246C46.2821 27.9226 48.3416 28.7622 50.7549 28.7622C52.453 28.7622 53.9862 28.3262 55.3516 27.4532L55.3527 27.4526C56.5861 26.6437 57.5368 25.5965 58.2038 24.312V28.3977H59.5756V11.6179ZM58.3098 23.8515C57.6471 25.3094 56.642 26.4802 55.2945 27.3638C56.5719 26.5262 57.5418 25.4304 58.2038 24.0764C58.2401 24.0022 58.2754 23.9272 58.3098 23.8515ZM56.0479 14.748C57.4848 16.1632 58.2038 17.9144 58.2038 20.0079C58.2038 22.1011 57.4855 23.8631 56.0482 25.3005C54.6107 26.7161 52.8595 27.4235 50.788 27.4235C48.7168 27.4235 46.9657 26.7162 45.5283 25.3008C44.1131 23.8636 43.4055 22.1015 43.4055 20.0079C43.4055 17.9138 44.1132 16.163 45.5283 14.748C46.9659 13.3104 48.7171 12.5921 50.788 12.5921C52.8591 12.5921 54.6103 13.3104 56.0479 14.748Z" fill="black"/>
<path id="Vector_7" fill-rule="evenodd" clip-rule="evenodd" d="M66.2796 3.99756H64.8747V28.3985H66.2796V3.99756Z" fill="black"/>
<path id="Vector_8" fill-rule="evenodd" clip-rule="evenodd" d="M94.0387 17.6221V28.3977H95.4433V17.6221C95.4433 15.5925 94.8852 14.0156 93.7554 12.9077C92.6504 11.8029 91.2083 11.2534 89.4396 11.2534C88.2047 11.2534 87.0696 11.5793 86.0363 12.2307C85.0696 12.8401 84.3208 13.7229 83.7883 14.8737C83.395 13.7463 82.7479 12.8751 81.8451 12.266C80.8758 11.59 79.7388 11.2534 78.4385 11.2534C77.0968 11.2534 75.9492 11.5584 75.0011 12.1735C74.1672 12.7145 73.4934 13.4918 72.9778 14.5007V11.6179H71.5729V28.3977H72.9778V19.0138C72.9778 16.9316 73.4818 15.3482 74.4744 14.2475C75.4916 13.1439 76.7772 12.5921 78.3391 12.5921C79.7064 12.5921 80.7808 13.0251 81.5749 13.8835L81.5759 13.8846C82.3906 14.7423 82.8058 15.9825 82.8058 17.6221V28.3977H84.2108V19.0138C84.2108 16.9308 84.7041 15.3469 85.6753 14.2462C86.6483 13.1435 87.9 12.5921 89.4396 12.5921C90.852 12.5921 91.9598 13.0257 92.7756 13.8846L92.7765 13.8855C93.6129 14.7433 94.0387 15.9832 94.0387 17.6221Z" fill="black"/>
<path id="Vector_9" fill-rule="evenodd" clip-rule="evenodd" d="M113.807 24.2646C113.288 25.2168 112.497 25.9872 111.431 26.575C110.388 27.1396 109.18 27.4235 107.804 27.4235C105.795 27.4235 104.11 26.8023 102.739 25.5626C101.395 24.325 100.646 22.7212 100.495 20.7434H115.876L115.893 20.6582C115.918 20.5364 115.928 20.3393 115.928 20.0741C115.928 17.6856 115.157 15.6173 113.615 13.8744C112.092 12.1266 110.096 11.2534 107.638 11.2534C105.159 11.2534 103.109 12.0921 101.498 13.7712C99.8866 15.4492 99.0818 17.5305 99.0818 20.0079C99.0818 22.551 99.8979 24.6552 101.532 26.3118C103.167 27.9464 105.261 28.7622 107.804 28.7622C109.409 28.7622 110.841 28.4275 112.095 27.7555L112.095 27.7553C113.37 27.0619 114.346 26.1318 115.02 24.9649L115.072 24.8733L113.859 24.169L113.807 24.2646ZM112.335 14.4835L112.335 14.4842C113.615 15.7217 114.344 17.3699 114.515 19.4379H100.461C100.59 17.4362 101.307 15.8097 102.608 14.5504C103.957 13.2455 105.631 12.5921 107.638 12.5921C109.488 12.5921 111.052 13.2224 112.335 14.4835Z" fill="black"/>
<path id="Vector_10" fill-rule="evenodd" clip-rule="evenodd" d="M127.08 11.3862C125.779 11.3862 124.59 11.7227 123.512 12.3959C122.568 12.9665 121.85 13.8099 121.354 14.9204V11.6181H119.95V28.3979H121.354V19.0803C121.354 17.0228 121.912 15.4633 123.012 14.3844L123.013 14.3837C124.119 13.2775 125.472 12.7249 127.08 12.7249H127.186V11.3862H127.08Z" fill="black"/>
<path id="Vector_11" fill-rule="evenodd" clip-rule="evenodd" d="M145.941 11.6179H144.569V15.704C143.903 14.4214 142.952 13.385 141.718 12.5961C140.352 11.7008 138.819 11.2534 137.12 11.2534C134.707 11.2534 132.648 12.1038 130.949 13.8023C129.249 15.4797 128.4 17.5505 128.4 20.0079C128.4 22.4651 129.249 24.5467 130.948 26.246L130.949 26.2465C132.648 27.9231 134.707 28.7622 137.12 28.7622C138.818 28.7622 140.352 28.3262 141.717 27.4532L141.718 27.4526C142.952 26.6437 143.903 25.5965 144.569 24.312V28.3977H145.941V11.6179ZM137.153 12.5921C139.225 12.5921 140.976 13.3104 142.414 14.748C143.851 16.1632 144.569 17.9144 144.569 20.0079C144.569 22.1011 143.851 23.8631 142.414 25.3005C140.976 26.7161 139.225 27.4235 137.153 27.4235C135.083 27.4235 133.331 26.7162 131.894 25.3009C130.479 23.8637 129.771 22.1015 129.771 20.0079C129.771 17.9138 130.479 16.163 131.894 14.748C133.331 13.3104 135.083 12.5921 137.153 12.5921Z" fill="black"/>
</g>
<defs>
<clipPath id="clip0_4373_18149">
<rect width="145.882" height="32" fill="white" transform="translate(0.0588379)"/>
</clipPath>
</defs>
</svg>
