<svg width="196" height="80" viewBox="0 0 196 80" fill="none" xmlns="http://www.w3.org/2000/svg">
<g clip-path="url(#clip0_4373_18299)">
<g clip-path="url(#clip1_4373_18299)">
<path d="M43.6007 21H51.3335C52.3884 21 53.3322 21.6126 53.7006 22.5363L60.4879 39.5606C60.5402 39.6919 60.5408 39.8363 60.4896 39.968L60.4516 40.0659L60.4512 40.0669L53.6924 57.4459C53.3296 58.3789 52.3807 59 51.3183 59H43.5867C43.152 59 42.8473 58.599 42.9906 58.2155L49.9597 39.5606L43.0076 21.7927C42.8569 21.4077 43.1621 21 43.6007 21Z" fill="black"/>
<path d="M23.4153 21H31.148C32.2029 21 33.1468 21.6126 33.5151 22.5363L40.3024 39.5606C40.3547 39.6919 40.3553 39.8363 40.3041 39.968L40.2661 40.0659L40.2657 40.0669L33.5069 57.4459C33.1441 58.3789 32.1952 59 31.1328 59H23.4013C22.9665 59 22.6618 58.599 22.8051 58.2155L29.7743 39.5606L22.8222 21.7927C22.6715 21.4077 22.9766 21 23.4153 21Z" fill="black"/>
<path d="M48.8478 35.9302H37.9318V44.1657H48.8478L50.6315 39.9303L48.8478 35.9302Z" fill="black"/>
</g>
<g clip-path="url(#clip2_4373_18299)">
<path d="M71.3474 46.3152V29.8057H74.6955V36.271H81.1839V29.8057H84.532V46.3152H81.1839V39.0417H74.6955V46.3152H71.3474Z" fill="black"/>
<path d="M87.0643 50.1946V47.724H88.1726C89.3425 47.724 89.9274 47.1852 89.9274 46.1076C89.9274 45.5843 89.6273 44.5144 89.027 42.8981L85.8405 34.4702H89.1424L90.8972 39.804L91.6592 42.3901H91.7054C91.9209 41.3896 92.1518 40.5276 92.3981 39.804L94.0606 34.4702H97.224L93.0909 46.6156C92.6291 47.9703 92.1056 48.9016 91.5207 49.4096C90.9512 49.933 90.0814 50.1946 88.9115 50.1946H87.0643Z" fill="black"/>
<path d="M98.2878 50.1947V34.4702H101.313V35.948H101.382C102.259 34.7473 103.422 34.147 104.869 34.147C106.423 34.147 107.67 34.7242 108.609 35.8787C109.548 37.0332 110.018 38.5418 110.018 40.4044C110.018 42.3132 109.548 43.8371 108.609 44.9763C107.67 46.1 106.431 46.6619 104.892 46.6619C103.352 46.6619 102.213 46.1 101.474 44.9763H101.428V50.1947H98.2878ZM104.222 44.0527C105.022 44.0527 105.654 43.7371 106.115 43.106C106.592 42.4748 106.831 41.6051 106.831 40.4968C106.831 39.3115 106.608 38.3801 106.161 37.7028C105.715 37.0255 105.03 36.6868 104.107 36.6868C103.168 36.6868 102.475 37.0409 102.028 37.7491C101.582 38.4417 101.359 39.3576 101.359 40.4968C101.359 41.5897 101.605 42.4595 102.098 43.106C102.59 43.7371 103.298 44.0527 104.222 44.0527Z" fill="black"/>
<path d="M117.043 46.6619C115.134 46.6619 113.634 46.0769 112.541 44.907C111.448 43.7217 110.901 42.2131 110.901 40.3814C110.901 38.611 111.448 37.1333 112.541 35.948C113.634 34.7473 115.034 34.147 116.743 34.147C118.606 34.147 120.046 34.7935 121.061 36.0865C122.077 37.3796 122.586 39.1114 122.586 41.2818H113.996C114.119 42.2208 114.435 42.952 114.942 43.4754C115.45 43.9834 116.143 44.2374 117.021 44.2374C118.175 44.2374 118.937 43.7524 119.306 42.7827H122.401C122.17 43.891 121.585 44.8147 120.645 45.5535C119.707 46.2924 118.506 46.6619 117.043 46.6619ZM116.79 36.5714C115.266 36.5714 114.35 37.4181 114.042 39.1114H119.306C119.26 38.3571 119.006 37.7491 118.544 37.2872C118.083 36.81 117.498 36.5714 116.79 36.5714Z" fill="black"/>
<path d="M127.063 34.4696V36.363H127.133C127.502 35.6704 127.91 35.1624 128.356 34.839C128.803 34.5004 129.365 34.3311 130.042 34.3311C130.365 34.3311 130.611 34.3619 130.781 34.4235V37.1712H130.711C129.649 37.0634 128.795 37.2943 128.149 37.8639C127.502 38.4335 127.179 39.3263 127.179 40.5423V46.3149H124.038V34.4696H127.063Z" fill="black"/>
<path d="M132.18 46.3152V29.8057H135.321V46.3152H132.18Z" fill="black"/>
<path d="M144.846 46.3153C144.692 46.1153 144.569 45.6765 144.476 44.9992H144.43C144.092 45.5072 143.661 45.8998 143.137 46.1769C142.614 46.4539 141.883 46.5924 140.943 46.5924C139.696 46.5924 138.697 46.2768 137.942 45.6458C137.188 45.0146 136.81 44.1218 136.81 42.9672C136.81 41.7666 137.226 40.8892 138.057 40.335C138.889 39.7655 140.059 39.3729 141.567 39.1574C142.675 39.0035 143.43 38.8495 143.83 38.6956C144.23 38.5262 144.43 38.2338 144.43 37.8182C144.43 37.3871 144.261 37.0485 143.922 36.8022C143.583 36.5405 143.091 36.4096 142.445 36.4096C141.013 36.4096 140.251 36.9639 140.159 38.0722H137.365C137.411 36.9485 137.865 36.0171 138.727 35.2782C139.589 34.5393 140.836 34.1699 142.468 34.1699C145.792 34.1699 147.455 35.6246 147.455 38.534V44.5605C147.455 45.4534 147.594 45.9998 147.871 46.1999V46.3153H144.846ZM141.705 44.3989C142.568 44.3989 143.245 44.1756 143.738 43.7292C144.245 43.2828 144.5 42.7517 144.5 42.136V40.3581C144.161 40.5582 143.43 40.7891 142.306 41.0508C141.413 41.2509 140.782 41.4818 140.412 41.7435C140.044 41.9898 139.859 42.3747 139.859 42.898C139.859 43.8986 140.475 44.3989 141.705 44.3989Z" fill="black"/>
<path d="M152.522 34.4702V36.0865H152.592C153.408 34.7935 154.577 34.147 156.102 34.147C157.317 34.147 158.303 34.5625 159.057 35.3939C159.811 36.2097 160.188 37.2718 160.188 38.5803V46.3155H157.049V39.042C157.049 38.3956 156.864 37.8721 156.494 37.4719C156.14 37.0717 155.639 36.8716 154.993 36.8716C154.3 36.8716 153.723 37.1256 153.262 37.6336C152.815 38.1416 152.592 38.7958 152.592 39.5963V46.3155H149.451V34.4702H152.522Z" fill="black"/>
<path d="M167.689 46.6619C165.78 46.6619 164.279 46.0769 163.186 44.907C162.094 43.7217 161.547 42.2131 161.547 40.3814C161.547 38.611 162.094 37.1333 163.186 35.948C164.279 34.7473 165.68 34.147 167.389 34.147C169.252 34.147 170.691 34.7935 171.707 36.0865C172.722 37.3796 173.231 39.1114 173.231 41.2818H164.641C164.764 42.2208 165.08 42.952 165.587 43.4754C166.096 43.9834 166.788 44.2374 167.666 44.2374C168.821 44.2374 169.583 43.7524 169.951 42.7827H173.046C172.815 43.891 172.23 44.8147 171.291 45.5535C170.352 46.2924 169.152 46.6619 167.689 46.6619ZM167.435 36.5714C165.911 36.5714 164.995 37.4181 164.688 39.1114H169.951C169.905 38.3571 169.652 37.7491 169.19 37.2872C168.728 36.81 168.143 36.5714 167.435 36.5714Z" fill="black"/>
</g>
</g>
<defs>
<clipPath id="clip0_4373_18299">
<rect width="150.461" height="38" fill="white" transform="translate(22.7693 21)"/>
</clipPath>
<clipPath id="clip1_4373_18299">
<rect width="37.7583" height="38" fill="white" transform="translate(22.7693 21)"/>
</clipPath>
<clipPath id="clip2_4373_18299">
<rect width="101.883" height="20.3888" fill="white" transform="translate(71.3474 29.8057)"/>
</clipPath>
</defs>
</svg>
