<svg width="104" height="36" viewBox="0 0 104 36" fill="none" xmlns="http://www.w3.org/2000/svg">
<g id="Dune" clip-path="url(#clip0_4373_18368)">
<path id="Vector" d="M18.6068 35.7483C28.5664 35.7483 36.6403 27.7458 36.6403 17.8742C36.6403 8.00253 28.5664 0 18.6068 0C8.64721 0 0.573364 8.00253 0.573364 17.8742C0.573364 27.7458 8.64721 35.7483 18.6068 35.7483Z" fill="#BFBFBF"/>
<path id="Vector_2" d="M29.1261 3.35737C26.2293 1.29486 22.7806 0.130061 19.2159 0.0102684C15.6513 -0.109524 12.1309 0.821068 9.09989 2.68437C6.06887 4.54766 3.66337 7.25999 2.18757 10.4784C0.711783 13.6967 0.231989 17.2765 0.808862 20.7651C1.38574 24.2537 2.99337 27.4944 5.42847 30.0775C7.86356 32.6605 11.0168 34.4698 14.4893 35.2766C17.9619 36.0834 21.5978 35.8515 24.9373 34.6101C28.2769 33.3687 31.1701 31.1736 33.251 28.3026C34.6327 26.3961 35.6219 24.2387 36.1625 21.9534C36.7029 19.668 36.7839 17.2995 36.4009 14.9832C36.0178 12.6669 35.1783 10.4479 33.93 8.45314C32.6819 6.45838 31.0494 4.72683 29.1261 3.35737Z" fill="#BFBFBF"/>
<path id="Vector_3" d="M3.71039 27.9563C3.71039 27.9563 15.627 24.0869 36.6296 17.2983C36.6296 17.2983 37.7801 28.4156 26.1537 34.2144C26.1537 34.2144 20.4204 36.9383 14.1305 35.191C14.1305 35.191 7.86724 34.0191 3.71039 27.9563Z" fill="black"/>
<path id="Vector_4" d="M47.4885 8.94434H53.7417C54.8577 8.94434 55.8671 9.1291 56.7698 9.49861C57.6888 9.86814 58.4685 10.4224 59.1085 11.1614C59.7651 11.8837 60.2656 12.7991 60.6103 13.9077C60.9714 14.9994 61.1519 16.276 61.1519 17.7373C61.1519 19.1986 60.9714 20.4835 60.6103 21.5921C60.2656 22.6838 59.7651 23.5992 59.1085 24.3382C58.4685 25.0605 57.6888 25.6064 56.7698 25.9759C55.8671 26.3454 54.8577 26.5302 53.7417 26.5302H47.4885V8.94434ZM53.7417 23.5824C54.9562 23.5824 55.9163 23.2213 56.6221 22.4991C57.3442 21.76 57.7053 20.6347 57.7053 19.123V16.3516C57.7053 14.8399 57.3442 13.7229 56.6221 13.0007C55.9163 12.2616 54.9562 11.8921 53.7417 11.8921H50.7381V23.5824H53.7417Z" fill="black"/>
<path id="Vector_5" d="M71.6999 24.3381H71.5769C71.462 24.674 71.3061 24.9931 71.1091 25.2954C70.9286 25.581 70.6906 25.8413 70.3952 26.0765C70.1161 26.3117 69.7714 26.4964 69.3612 26.6307C68.9672 26.7652 68.5077 26.8323 67.9825 26.8323C66.6531 26.8323 65.6355 26.3873 64.9298 25.497C64.2241 24.6068 63.8712 23.3387 63.8712 21.6927V13.3784H67.0224V21.3651C67.0224 22.2721 67.1947 22.9691 67.5393 23.4563C67.884 23.9265 68.4339 24.1618 69.1889 24.1618C69.5006 24.1618 69.8043 24.1197 70.0998 24.0358C70.4115 23.9517 70.6824 23.8258 70.9121 23.6579C71.1419 23.473 71.3307 23.2547 71.4784 23.0028C71.6261 22.734 71.6999 22.4233 71.6999 22.0706V13.3784H74.8512V26.53H71.6999V24.3381Z" fill="black"/>
<path id="Vector_6" d="M78.2458 26.5302V13.3786H81.3971V15.5705H81.5202C81.7828 14.8651 82.1931 14.2771 82.7511 13.8069C83.3255 13.3197 84.1133 13.0762 85.1145 13.0762C86.444 13.0762 87.4615 13.5213 88.1672 14.4116C88.873 15.3018 89.2259 16.5699 89.2259 18.2159V26.5302H86.0747V18.5434C86.0747 17.6028 85.9106 16.8974 85.5823 16.4272C85.254 15.9568 84.7125 15.7217 83.9575 15.7217C83.6292 15.7217 83.3092 15.7721 82.9973 15.8729C82.7019 15.9568 82.4311 16.0912 82.1849 16.276C81.9551 16.4439 81.7663 16.6623 81.6186 16.9311C81.4709 17.1829 81.3971 17.4852 81.3971 17.838V26.5302H78.2458Z" fill="black"/>
<path id="Vector_7" d="M97.6674 26.8325C96.7156 26.8325 95.8621 26.673 95.1071 26.3538C94.3685 26.0179 93.7366 25.5559 93.2115 24.9681C92.7026 24.3634 92.3088 23.6411 92.0297 22.8013C91.7508 21.9447 91.6112 20.9873 91.6112 19.9291C91.6112 18.8878 91.7426 17.9472 92.0051 17.1073C92.2841 16.2675 92.678 15.5537 93.1869 14.9659C93.6956 14.3612 94.3193 13.8992 95.0578 13.5801C95.7965 13.2441 96.6335 13.0762 97.569 13.0762C98.5702 13.0762 99.4401 13.2526 100.179 13.6053C100.917 13.9581 101.524 14.4368 102 15.0414C102.476 15.6461 102.829 16.3516 103.059 17.1577C103.305 17.9472 103.428 18.7954 103.428 19.7024V20.7606H94.8856V21.0881C94.8856 22.0455 95.1481 22.8182 95.6733 23.406C96.1985 23.9771 96.9782 24.2626 98.0121 24.2626C98.7999 24.2626 99.4401 24.0946 99.9324 23.7587C100.441 23.4228 100.893 22.9945 101.286 22.4738L102.985 24.4138C102.46 25.1697 101.738 25.766 100.819 26.2026C99.916 26.6226 98.8656 26.8325 97.6674 26.8325ZM97.6183 15.4949C96.7812 15.4949 96.1164 15.7805 95.6241 16.3516C95.1317 16.9226 94.8856 17.6616 94.8856 18.5686V18.7702H100.154V18.5434C100.154 17.6364 99.9324 16.9059 99.4892 16.3516C99.0626 15.7805 98.4389 15.4949 97.6183 15.4949Z" fill="black"/>
</g>
<defs>
<clipPath id="clip0_4373_18368">
<rect width="102.857" height="36" fill="white" transform="translate(0.571411)"/>
</clipPath>
</defs>
</svg>
