<svg width="116" height="40" viewBox="0 0 116 40" fill="none" xmlns="http://www.w3.org/2000/svg">
<g id="Ormi" clip-path="url(#clip0_2197_6029)">
<path id="Vector" d="M48.3451 14.1176C50.1246 12.3478 52.2946 11.4629 54.8549 11.4629C57.3722 11.4629 59.5312 12.3586 61.3325 14.15C63.1334 15.9414 64.0341 18.089 64.0341 20.5926C64.0341 23.1179 63.1334 25.2762 61.3325 27.0676C59.5312 28.8591 57.3722 29.7548 54.8549 29.7548C52.2946 29.7548 50.1137 28.8591 48.3128 27.0676C46.5333 25.2762 45.6436 23.1179 45.6436 20.5926C45.6436 18.0674 46.5442 15.9091 48.3451 14.1176ZM49.5821 20.5926C49.5821 22.0603 50.092 23.3013 51.112 24.3158C52.1316 25.3302 53.3795 25.8374 54.8549 25.8374C56.309 25.8374 57.546 25.3302 58.5656 24.3158C59.5857 23.2798 60.0955 22.0387 60.0955 20.5926C60.0955 19.1466 59.5857 17.9163 58.5656 16.9019C57.546 15.8875 56.309 15.3803 54.8549 15.3803C53.3795 15.3803 52.1316 15.8875 51.112 16.9019C50.092 17.9163 49.5821 19.1466 49.5821 20.5926Z" fill="black"/>
<path id="Vector_2" d="M67.3726 11.3922H71.2998V14.1965C72.4409 12.2602 74.2758 11.292 76.8043 11.292C76.8491 11.292 76.9048 11.292 76.9723 11.292C77.5315 11.292 77.7104 11.292 77.7104 11.292V15.1981C77.5541 15.1759 77.3413 15.1647 77.0728 15.1647C75.4169 15.1647 74.0521 15.6766 72.978 16.7005C71.9039 17.702 71.3669 19.3602 71.3669 21.6749V29.7542H67.3726V11.3922Z" fill="black"/>
<path id="Vector_3" d="M81.0493 29.7551V11.3931H84.995V14.1572C85.4646 13.2002 86.0951 12.4948 86.9903 11.9606C87.8855 11.4042 88.8364 11.126 89.8431 11.126C91.1635 11.126 92.2937 11.4487 93.2333 12.0941C94.1733 12.7396 94.867 13.5965 95.3144 14.6649C95.7618 13.6188 96.4442 12.773 97.3621 12.1276C98.2795 11.4599 99.3309 11.126 100.517 11.126C102.643 11.126 104.321 11.8605 105.552 13.3294C106.805 14.7761 107.431 17.0241 107.431 20.0733V29.7551H103.437V20.0733C103.437 18.3372 103.102 17.0686 102.43 16.2674C101.759 15.4439 100.897 15.0321 99.8458 15.0321C98.8165 15.0321 97.9548 15.4439 97.2611 16.2674C96.5674 17.0686 96.2205 18.3372 96.2205 20.0733V29.7551H92.2262V20.0733C92.2262 18.315 91.8907 17.0352 91.2196 16.2339C90.5481 15.4327 89.6868 15.0321 88.6349 15.0321C87.6057 15.0321 86.744 15.4884 86.0503 16.4009C85.3792 17.2911 85.0436 18.6266 85.0436 20.4071V29.7551H81.0493Z" fill="black"/>
<path id="Vector_4" d="M111.475 4.70228C111.005 5.16969 110.77 5.72615 110.77 6.37165C110.77 7.01715 111.005 7.57357 111.475 8.04103C111.945 8.50844 112.504 8.74215 113.153 8.74215C113.802 8.74215 114.361 8.50844 114.831 8.04103C115.301 7.57357 115.536 7.01715 115.536 6.37165C115.536 5.72615 115.301 5.16969 114.831 4.70228C114.361 4.21261 113.802 3.96777 113.153 3.96777C112.504 3.96777 111.945 4.21261 111.475 4.70228Z" fill="black"/>
<path id="Vector_5" d="M111.194 29.7549V11.4307H115.052V29.7549H111.194Z" fill="black"/>
<path id="Vector_6" fill-rule="evenodd" clip-rule="evenodd" d="M12.0187 0C5.60179 0 0.399902 5.17404 0.399902 11.5566V28.4452C0.399902 34.8277 5.60179 40.0017 12.0187 40.0017H28.9982C35.415 40.0017 40.6169 34.8277 40.6169 28.4452V11.5566C40.6169 5.17404 35.415 0 28.9982 0H12.0187ZM20.5084 33.7515C28.1435 33.7515 34.333 27.5951 34.333 20.0009C34.333 12.4066 28.1435 6.25025 20.5084 6.25025C12.8733 6.25025 6.68379 12.4066 6.68379 20.0009C6.68379 27.5951 12.8733 33.7515 20.5084 33.7515Z" fill="black"/>
<path id="Vector_7" d="M20.5595 28.7537C19.5731 28.7537 18.7277 28.593 18.0232 28.2716C17.3187 27.9341 16.7316 27.4199 16.2619 26.7288C15.8079 26.0217 15.4713 25.1218 15.2521 24.029C15.0329 22.9202 14.9233 21.5944 14.9233 20.0517C14.9233 18.5089 15.0329 17.1912 15.2521 16.0984C15.4713 14.9895 15.8079 14.0896 16.2619 13.3986C16.7316 12.6915 17.3187 12.1772 18.0232 11.8558C18.7277 11.5184 19.5731 11.3496 20.5595 11.3496C21.5458 11.3496 22.3912 11.5184 23.0957 11.8558C23.8002 12.1772 24.3795 12.6915 24.8336 13.3986C25.3032 14.0896 25.6476 14.9895 25.8668 16.0984C26.086 17.1912 26.1956 18.5089 26.1956 20.0517C26.1956 21.5944 26.086 22.9202 25.8668 24.029C25.6476 25.1218 25.3032 26.0217 24.8336 26.7288C24.3795 27.4199 23.8002 27.9341 23.0957 28.2716C22.3912 28.593 21.5458 28.7537 20.5595 28.7537ZM20.5595 25.861C20.9509 25.861 21.2797 25.8048 21.5458 25.6923C21.8119 25.5637 22.0233 25.3709 22.1799 25.1138C22.3364 24.8406 22.446 24.487 22.5087 24.0532C22.5869 23.6192 22.6261 23.0809 22.6261 22.4381V17.6652C22.6261 16.3957 22.4773 15.5118 22.1799 15.0137C21.8824 14.4994 21.3423 14.2423 20.5595 14.2423C19.7767 14.2423 19.2366 14.4994 18.9391 15.0137C18.6416 15.5118 18.4929 16.3957 18.4929 17.6652V22.4381C18.4929 23.0809 18.5242 23.6192 18.5868 24.0532C18.6651 24.487 18.7825 24.8406 18.9391 25.1138C19.0956 25.3709 19.307 25.5637 19.5731 25.6923C19.8393 25.8048 20.1681 25.861 20.5595 25.861Z" fill="black"/>
</g>
<defs>
<clipPath id="clip0_2197_6029">
<rect width="115.2" height="40" fill="white" transform="translate(0.399902)"/>
</clipPath>
</defs>
</svg>
