<svg width="114" height="40" viewBox="0 0 114 40" fill="none" xmlns="http://www.w3.org/2000/svg">
<g id="Salt" clip-path="url(#clip0_2232_528)">
<path id="Vector" d="M0.659862 39.9332C0.659862 39.4656 0.927097 39.1983 1.19432 38.8643C7.27365 32.785 13.4198 26.7724 19.4991 20.6931C19.6327 20.5595 19.7663 20.4927 19.7663 20.2923C19.4991 20.025 19.1651 20.1587 18.8311 20.1587C13.1526 20.1587 7.40726 20.1587 1.72876 20.1587C0.59306 20.1587 0.526262 20.1586 0.526262 19.0229C0.526262 17.1524 0.392646 15.3486 0.793481 13.4781C1.52835 10.2714 3.19849 7.59918 5.73711 5.5282C8.07532 3.59083 10.7475 2.32149 13.687 1.45301C16.7601 0.450927 19.9668 0.0501085 23.1734 0.0501085C28.5847 -0.0166974 34.0628 0.0501085 39.5409 0.0501085C39.8749 0.0501085 40.3425 -0.150317 40.543 0.250518C40.7434 0.651353 40.2757 0.918593 40.0085 1.18582C33.8624 7.26515 27.7831 13.3445 21.6369 19.4238C21.6369 19.4238 21.5701 19.5574 21.5033 19.6242C21.7705 19.8914 22.1045 19.8246 22.4386 19.8246C28.1171 19.8246 33.8624 19.8246 39.5409 19.8246C40.7434 19.8246 40.8102 19.8246 40.7434 21.0271C40.7434 22.8309 40.877 24.6347 40.543 26.4384C39.8749 29.6451 38.2048 32.3173 35.7329 34.3883C33.3947 36.3925 30.6557 37.6618 27.7162 38.5971C25.5116 39.2652 23.307 39.666 21.0356 39.8664C20.8352 39.8664 20.6348 40 20.3676 40H0.659862V39.9332Z" fill="black"/>
<path id="Vector_2" d="M113.428 15.0148C111.357 15.0148 109.286 15.0148 107.148 15.0148C106.347 15.0148 106.079 15.2153 106.079 16.0838C106.079 19.09 106.079 22.0963 106.079 25.1693C106.079 26.3718 106.413 27.5076 106.948 28.5765C107.75 30.113 109.152 30.6474 110.756 30.781C111.624 30.8479 112.493 30.781 113.361 30.781V32.5848C111.557 32.5848 109.754 32.852 108.017 32.1172C105.211 30.9147 104.209 28.5096 104.075 25.7038C103.942 22.4971 104.075 19.3572 104.075 16.1506C104.075 15.1485 104.075 15.0817 103.006 15.0817C102.739 15.0817 102.472 15.0817 102.205 15.0817C101.336 15.0817 101.136 14.8144 101.136 13.946C101.136 13.1443 101.603 13.0775 102.205 13.0775C104.142 13.0775 104.142 13.0775 104.142 11.1401C104.142 10.3384 104.008 9.53679 104.944 9.06915C105.679 8.73512 106.146 8.93553 106.146 9.7372C106.146 10.5389 106.146 11.3405 106.146 12.1422C106.146 12.8103 106.347 13.0775 107.081 13.0775C109.219 13.0775 111.357 13.0775 113.495 13.0775V14.8813L113.428 15.0148Z" fill="black"/>
<path id="Vector_3" d="M88.6434 17.6197C88.5766 16.484 88.6434 15.4151 88.6434 14.2794C88.6434 13.3442 88.8439 13.2105 89.7791 13.1437C90.5808 13.1437 90.848 13.4778 90.848 14.2794C90.848 20.0247 90.848 25.7701 90.848 31.5822C90.848 32.317 90.7144 32.7178 89.8459 32.7178C88.8438 32.7178 88.6434 32.5843 88.7102 31.5822C88.7102 30.4465 88.6434 29.3107 88.7771 28.175C86.9065 30.9809 84.4346 32.5174 81.0275 32.7847C77.7541 33.0519 74.8146 32.2502 72.5432 29.8452C68.5349 25.6364 68.9357 19.6239 72.7436 15.8828C75.0819 13.6114 77.9545 12.6093 81.1612 13.0101C84.3679 13.4109 86.8397 14.9475 88.6434 17.6865V17.6197ZM80.2259 30.8473C82.8313 30.9809 84.0338 30.3797 85.3031 29.4444C87.9086 27.6406 88.8439 25.0352 88.5766 21.8953C88.2426 18.6886 85.9712 16.2168 83.2322 15.3483C80.9608 14.6135 78.7562 14.6803 76.4848 15.6823C71.5411 17.8869 70.1382 24.2335 73.8794 28.3087C75.5495 30.1792 77.7541 31.0477 80.2259 30.8473Z" fill="black"/>
<path id="Vector_4" d="M58.447 32.718C55.9752 32.8516 53.5702 32.0499 51.4324 30.313C50.9648 29.9121 50.4303 29.5781 50.898 28.9101C51.3656 28.242 51.9669 28.1752 52.6349 28.7096C55.0399 30.5802 57.779 31.1814 60.7184 30.7138C62.923 30.3798 64.4596 28.576 64.5932 26.505C64.7268 24.3672 63.3907 22.6303 61.1861 21.8954C59.1819 21.2274 57.1109 20.8265 55.2404 19.8244C53.637 19.0228 52.3009 18.0207 51.6328 16.2837C50.564 13.4779 51.6328 10.5384 54.1047 9.00189C57.5117 6.93091 62.255 7.59898 65.0608 9.93718C65.3281 10.1376 65.6621 10.4048 65.9293 10.6052C66.2633 10.9393 66.6642 11.2733 66.1965 11.6741C65.7957 12.0082 65.2612 12.6762 64.5932 12.0082C63.8583 11.3401 62.9898 10.8057 62.0546 10.4048C60.3844 9.66997 58.7142 9.46953 56.9773 10.004C56.4428 10.1376 55.9084 10.2044 55.4408 10.5385C53.971 11.3401 53.3698 12.6094 53.303 14.1459C53.303 15.7493 54.1715 16.9518 55.5744 17.7535C57.0441 18.622 58.7142 18.956 60.3176 19.4236C62.6558 20.0917 64.7936 21.027 65.9961 23.2316C68.1339 27.0395 65.4617 31.2483 62.0546 32.2504C60.9857 32.5844 59.85 32.5844 58.447 32.5844V32.718Z" fill="black"/>
<path id="Vector_5" d="M98.1296 19.6912C98.1296 23.6327 98.1296 27.5743 98.1296 31.5158C98.1296 32.6515 97.996 32.7852 96.8603 32.7183C96.259 32.7183 96.0586 32.4512 96.0586 31.9167C96.0586 30.9814 96.0586 30.1129 96.0586 29.1776C96.0586 22.0294 96.0586 14.948 96.0586 7.79977C96.0586 6.73088 96.1254 6.66406 97.1943 6.66406C97.9292 6.66406 98.1296 6.99809 98.1296 7.66615C98.1296 11.6745 98.1296 15.6829 98.1296 19.6912Z" fill="black"/>
</g>
<defs>
<clipPath id="clip0_2232_528">
<rect width="112.99" height="40" fill="white" transform="translate(0.504883)"/>
</clipPath>
</defs>
</svg>
