<svg width="196" height="80" viewBox="0 0 196 80" fill="none" xmlns="http://www.w3.org/2000/svg">
<g clip-path="url(#clip0_2232_460)">
<path d="M27.8634 54.34C27.8634 54.34 30.7468 50.4282 35.0259 47.7285V27.288L41.3251 46.0757L48.3039 27.288V38.9132C48.3039 38.9132 47.8081 42.825 46.7062 44.0004C49.3324 42.1088 51.7199 41.0619 52.583 40.8232V22.4029C52.583 22.4029 53.3176 20.2542 57.7804 20.2542H88.5054C88.5054 20.2542 90.397 20.75 91.2602 22.0907C90.5256 17.9952 87.2198 18.0503 87.2198 18.0503H49.2038L41.4353 38.8581L33.777 18.0503H25.5127C25.5127 18.0503 29.9203 19.8318 29.9754 21.7785C30.0305 23.7252 29.9754 47.1776 29.9754 47.1776" fill="black"/>
<path d="M61.3981 21.0444H60.2411L53.1338 36.1957H57.2292C56.2559 35.7917 56.9905 33.9001 56.9905 33.9001L58.0924 32.1187H62.445C71.8112 54.7079 77.082 58.0136 82.8303 60.5847C69.9747 47.3618 61.3981 21.0444 61.3981 21.0444ZM58.4046 29.5475L60.2411 25.801L62.0042 29.5475H58.4046Z" fill="black"/>
<path d="M64.3553 21.3926C64.3553 21.3926 67.9732 22.1639 67.9732 25.0289V34.0829L67.3672 35.3501L67.9732 36.4153H78.5883L80.3514 33.6054V31.6404L78.4781 33.9728H71.9952C71.9952 33.9728 71.0953 33.8442 71.0953 32.2097C71.0953 30.5752 71.1688 29.2345 71.1688 29.2345H75.7784L77.615 31.071C77.615 31.071 77.4497 28.9407 77.615 25.5248C76.5498 26.4246 75.8152 27.0307 75.8152 27.0307H71.1137V23.7984C71.1137 23.7984 71.279 22.9903 73.3175 22.9903C75.356 22.9903 77.9272 23.1189 77.9272 23.1189L80.333 25.3227V23.7801L78.5332 21.4109H64.3369L64.3553 21.3926Z" fill="black"/>
<path d="M80.37 21.3926C80.37 21.3926 81.9494 21.7599 81.9494 22.972V33.9728L80.168 36.2133H91.2973C91.2973 36.2133 101.784 36.8194 105.383 45.2674C104.116 38.1233 98.5148 33.7707 92.6747 33.7707H85.8612C85.8612 33.7707 85.0898 33.8442 85.0898 31.4934C85.0898 29.1427 85.2551 22.7149 85.2551 22.7149C85.2551 22.7149 85.6224 21.4109 86.5591 21.4109H80.3884L80.37 21.3926Z" fill="black"/>
<path d="M100.81 13.0184V27.1412C100.81 27.1412 98.8454 22.5315 95.7417 22.5315C92.638 22.5315 93.3726 25.5985 96.2743 27.38C99.176 29.1614 109.901 37.8665 109.901 50.5936C109.901 63.3207 96.2828 71.1049 86.8982 64.7268C81.0397 57.8031 80.9393 52.0628 86.0816 46.6818C91.2789 43.0088 100.204 45.3779 98.5699 53.8626C97.67 57.5356 92.6563 57.7744 91.2789 55.4053C89.9016 53.0362 92.3992 50.6671 92.8767 53.3667C94.401 55.644 95.9988 54.1014 95.9804 52.1363C95.9621 50.1712 94.8234 47.9674 90.4158 47.8939C86.0081 47.8204 82.8309 56.7827 88.9466 61.0434C95.0622 65.3041 104.447 61.374 105.604 51.567C106.761 41.7599 103.473 37.4441 96.7885 31.9713C90.1036 26.4984 90.0301 24.919 90.5811 23.156C91.132 21.3929 93.1889 19.2442 97.5231 20.2175C98.827 20.4563 99.0658 20.4563 100.829 13L100.81 13.0184Z" fill="black"/>
<path d="M101.674 21.3928L102.17 18.3809H154.327L148.524 20.3459H110.82C110.82 20.3459 109.92 20.1807 109.92 21.4111V33.5873C109.92 33.5873 109.957 36.2135 111.316 36.2135H105.604L105.071 35.2034C105.071 35.2034 106.669 34.8361 106.724 32.7608C106.779 30.6856 106.724 21.4111 106.724 21.4111C106.724 21.4111 106.908 20.0154 105.071 20.0154C103.235 20.0154 102.537 19.8501 101.692 21.4111L101.674 21.3928Z" fill="black"/>
<path d="M123.84 29.5475C123.84 29.5475 126.779 28.8864 126.779 25.801C126.779 22.7157 122.132 21.0444 122.132 21.0444H110.617L113.152 22.9728H115.668V37.4997C115.668 43.7255 114.015 48.5372 112.123 53.9549C120.608 49.235 119.194 30.4842 119.194 30.4842H121.03C131.682 48.427 145.768 46.0946 152.674 45.4151C128.799 43.0827 123.84 29.5659 123.84 29.5659V29.5475ZM119.157 28.115V22.6422C119.157 22.6422 123.565 22.5504 123.565 25.3786C123.565 28.2069 119.157 28.115 119.157 28.115Z" fill="black"/>
<path d="M135.502 21.0438C135.08 21.0438 127.458 20.7132 127.458 29.0694C127.458 37.4256 135.502 37.1868 135.502 37.1868C135.502 37.1868 142.977 37.7929 142.977 28.7939C142.977 19.795 136.053 21.0438 135.502 21.0438ZM135.208 34.4504C135.208 34.4504 130.837 34.9463 130.837 29.1061C130.837 23.266 135.484 22.6232 135.484 22.6232C135.484 22.6232 139.744 22.6232 139.744 28.3532C139.744 34.0831 135.19 34.4504 135.19 34.4504H135.208Z" fill="black"/>
<path d="M141.085 21.0439H148.927L155.502 39.3724L163.546 18.5278H170.488C170.488 18.5278 166.815 19.6665 166.815 22.2009V46.8654L169.202 53.2565L169.019 54.5053C169.019 54.5053 165.474 48.7202 162.462 47.6183V27.2513L155.3 45.9838L148.927 27.2513V42.6597L149.607 44.1289C149.607 44.1289 146.576 44.0922 144.336 42.9719V23.5048C144.336 23.5048 144.391 22.6049 142.959 22.6049C141.526 22.6049 141.067 21.0255 141.067 21.0255L141.085 21.0439Z" fill="black"/>
</g>
<defs>
<clipPath id="clip0_2232_460">
<rect width="144.975" height="54" fill="white" transform="translate(25.5127 13)"/>
</clipPath>
</defs>
</svg>
