<svg width="168" height="26" viewBox="0 0 168 26" fill="none" xmlns="http://www.w3.org/2000/svg">
<g id="Standard" clip-path="url(#clip0_2232_309)">
<path id="Vector" d="M41.4563 25.0043C47.6814 25.0043 51.0653 22.657 51.0653 18.4385C51.0653 14.8859 48.5114 12.6973 43.3717 11.8409L39.7963 11.2699C37.1467 10.8576 35.9335 10.0963 35.9335 8.41519C35.9335 6.86095 37.7532 5.62391 41.0413 5.62391H41.552C44.8721 5.62391 47.011 6.9561 47.3621 9.33505H51.0664C51.3051 9.33505 51.4922 9.12781 51.4561 8.89128C50.8167 4.71331 47.2191 2.1665 41.2967 2.1665C34.7843 2.1665 31.975 5.30671 31.975 8.60551C31.975 12.507 34.1778 14.2198 39.1897 15.0762L42.6693 15.6472C45.8617 16.1547 47.1067 17.1062 47.1067 18.6288C47.1067 20.3416 45.5425 21.547 41.6797 21.547H41.1689C37.402 21.547 35.0078 20.1513 34.88 17.36H31.1407C30.9152 17.36 30.7326 17.5466 30.7469 17.7723C31.0502 22.5742 35.0605 25.0043 41.4563 25.0043Z" fill="black"/>
<path id="Vector_2" d="M63.6351 24.6876V21.9199C63.6351 21.6965 63.4547 21.5156 63.2321 21.5156H60.5279C59.5702 21.5156 59.251 21.1984 59.251 20.2469V11.9047H63.1949C63.4175 11.9047 63.5979 11.7238 63.5979 11.5005V9.33548H59.251V4.09366C59.251 3.87042 59.0704 3.68945 58.848 3.68945H55.4841V9.33548H51.9284C51.7059 9.33548 51.5254 9.51645 51.5254 9.73969V11.9047H55.4841V21.1984C55.4841 23.4189 56.729 24.6876 59.3467 24.6876H63.6351Z" fill="black"/>
<path id="Vector_3" d="M71.6659 25.0047C74.6667 25.0047 76.8056 23.6091 77.5399 22.1817C77.5399 22.3207 77.5888 23.5306 77.7083 24.3615C77.7356 24.552 77.9012 24.6876 78.0931 24.6876H81.2749C81.1472 23.5774 81.0515 22.1501 81.0515 21.1984V14.5374C81.0515 11.0166 78.306 8.51074 73.1663 8.51074C69.1372 8.51074 66.2579 10.4532 65.7018 13.1724C65.6535 13.408 65.8417 13.6175 66.0815 13.6175H69.4633C69.6547 12.2853 71.0594 11.5558 72.9429 11.5558H73.4537C75.9118 11.5558 77.3803 12.5074 77.3803 14.3471V14.7594L71.6659 15.1401C68.0266 15.3621 65.1855 16.7895 65.1855 20.3102C65.1855 23.0382 67.484 25.0047 71.6659 25.0047ZM71.9851 21.9598C69.8462 21.9598 68.9844 21.1984 68.9844 19.9932C68.9844 18.8195 69.9421 18.0265 72.6875 17.8362L77.3803 17.5507V18.6608C77.3803 20.9447 74.7944 21.9598 72.4321 21.9598H71.9851Z" fill="black"/>
<path id="Vector_4" d="M86.1829 24.6876V16.6943C86.1829 13.6175 88.5773 11.5558 91.0993 11.5558H91.5462C94.0043 11.5558 95.1215 13.3004 95.1215 15.8062V24.2833C95.1215 24.5065 95.3021 24.6876 95.5245 24.6876H98.8886V15.0449C98.8886 11.2703 96.5582 8.51074 92.057 8.51074C89.0561 8.51074 87.2365 9.81123 86.1829 11.2703V9.23215C86.1829 9.00891 86.0026 8.82794 85.7799 8.82794H82.416V24.2833C82.416 24.5065 82.5964 24.6876 82.819 24.6876H86.1829Z" fill="black"/>
<path id="Vector_5" d="M108.819 25.0044C111.309 25.0044 113.64 24.0529 114.821 22.5621V24.6874H118.185C118.408 24.6874 118.588 24.5063 118.588 24.2831V2.48389H115.224C115.001 2.48389 114.821 2.66486 114.821 2.8881V11.0481C113.799 9.65243 111.629 8.51053 108.756 8.51053C103.999 8.51053 100.328 11.3335 100.328 16.7575C100.328 21.896 103.967 25.0044 108.819 25.0044ZM109.107 21.9595C106.202 21.9595 104.127 20.1197 104.127 16.7575C104.127 13.3953 106.202 11.5556 109.107 11.5556H109.554C112.523 11.5556 114.821 13.3953 114.821 16.7575C114.821 20.1197 112.523 21.9595 109.554 21.9595H109.107Z" fill="black"/>
<path id="Vector_6" d="M126.806 25.0047C129.806 25.0047 131.945 23.6091 132.68 22.1817C132.68 22.3207 132.728 23.5306 132.848 24.3615C132.875 24.552 133.041 24.6876 133.233 24.6876H136.414C136.287 23.5774 136.191 22.1501 136.191 21.1984V14.5374C136.191 11.0166 133.446 8.51074 128.306 8.51074C124.277 8.51074 121.398 10.4532 120.841 13.1724C120.793 13.408 120.981 13.6175 121.221 13.6175H124.603C124.794 12.2853 126.199 11.5558 128.083 11.5558H128.593C131.051 11.5558 132.52 12.5074 132.52 14.3471V14.7594L126.806 15.1401C123.166 15.3621 120.325 16.7895 120.325 20.3102C120.325 23.0382 122.624 25.0047 126.806 25.0047ZM127.125 21.9598C124.986 21.9598 124.124 21.1984 124.124 19.9932C124.124 18.8195 125.082 18.0265 127.827 17.8362L132.52 17.5507V18.6608C132.52 20.9447 129.934 21.9598 127.572 21.9598H127.125Z" fill="black"/>
<path id="Vector_7" d="M141.988 24.6873V16.7257C141.988 13.7758 143.521 12.2533 146.234 12.2533H149.107V8.82764H146.457C143.84 8.82764 142.595 9.87437 141.829 11.9678V9.23185C141.829 9.00861 141.648 8.82764 141.426 8.82764H138.221V24.283C138.221 24.5062 138.402 24.6873 138.624 24.6873H141.988Z" fill="black"/>
<path id="Vector_8" d="M157.37 25.0044C159.86 25.0044 162.19 24.0529 163.372 22.5621V24.6874H166.736C166.958 24.6874 167.139 24.5063 167.139 24.2831V2.48389H163.775C163.552 2.48389 163.372 2.66486 163.372 2.8881V11.0481C162.35 9.65243 160.179 8.51053 157.306 8.51053C152.55 8.51053 148.878 11.3335 148.878 16.7575C148.878 21.896 152.518 25.0044 157.37 25.0044ZM157.657 21.9595C154.752 21.9595 152.677 20.1197 152.677 16.7575C152.677 13.3953 154.752 11.5556 157.657 11.5556H158.104C161.073 11.5556 163.372 13.3953 163.372 16.7575C163.372 20.1197 161.073 21.9595 158.104 21.9595H157.657Z" fill="black"/>
<path id="Vector_9" d="M14.8481 23.3287C14.8481 24.0592 14.2491 24.6514 13.5101 24.6514H0.76416C0.764161 23.706 0.76416 24.0541 0.76416 23.3236L0.799481 12.0855C0.799481 11.3549 1.39851 10.7627 2.13744 10.7627C2.13744 10.7627 14.2746 10.7626 14.8482 10.7627C14.8485 11.0885 14.8481 11.3549 14.8481 12.0855V23.3287ZM12.1723 22.0059V13.4082H3.47559V22.0059H12.1723Z" fill="black"/>
<path id="Vector_10" d="M16.8576 0.664384C17.5573 0.664384 18.1306 1.2083 18.1813 1.89821L18.1849 1.99772C18.1849 1.99772 18.1849 15.7047 18.1849 16.441C18.1849 17.1774 17.5907 17.0018 16.8576 17.0018C16.1578 17.0018 15.5846 16.4579 15.5339 15.7679L15.5303 15.6684C15.5303 15.6684 15.5303 1.96939 15.5303 1.23301C15.5303 0.496632 16.1245 0.664384 16.8576 0.664384Z" fill="black"/>
<path id="Vector_11" d="M22.3974 2.81674C22.9187 3.28188 22.9817 4.0682 22.5578 4.61586L22.4939 4.69242C22.4939 4.69242 17.7801 10.1779 17.2872 10.7266C16.7943 11.2752 16.4691 10.7493 15.923 10.262C15.4017 9.79683 15.3387 9.01053 15.7627 8.46285L15.8266 8.3863C15.8266 8.3863 20.535 2.90667 21.0279 2.35805C21.5208 1.80943 21.8513 2.32945 22.3974 2.81674Z" fill="black"/>
<path id="Vector_12" d="M11.0111 3.10768C11.5016 2.61036 12.2927 2.5842 12.822 3.03177L12.8957 3.09894C12.8957 3.09894 22.7054 12.7071 23.2324 13.2232C23.7594 13.7394 23.2171 14.0387 22.7032 14.5597C22.2128 15.057 21.4216 15.0832 20.8924 14.6356L20.8186 14.5684C20.8186 14.5684 11.0146 4.96581 10.4876 4.44964C9.96063 3.93347 10.4972 3.62869 11.0111 3.10768Z" fill="black"/>
<path id="Vector_13" d="M8.65985 8.76855C8.66546 8.07124 9.21583 7.50434 9.90854 7.45938L10.0084 7.45654C10.0084 7.45654 23.7625 7.56636 24.5015 7.57226C25.2403 7.57817 25.0594 8.16894 25.0534 8.89945C25.0478 9.59674 24.4975 10.1637 23.8047 10.2086L23.7049 10.2115C23.7049 10.2115 9.95871 10.1017 9.21981 10.0958C8.48088 10.0899 8.65398 9.49906 8.65985 8.76855Z" fill="black"/>
</g>
<defs>
<clipPath id="clip0_2232_309">
<rect width="166.472" height="26" fill="white" transform="translate(0.763672)"/>
</clipPath>
</defs>
</svg>
