<svg width="156" height="26" viewBox="0 0 156 26" fill="none" xmlns="http://www.w3.org/2000/svg">
<g id="Otamata" clip-path="url(#clip0_2232_413)">
<path id="Vector" d="M141.23 25.9455C140.748 25.9455 140.378 25.5748 140.378 25.093V23.0915C140.378 22.6097 140.007 22.239 139.525 22.239H137.449C136.968 22.239 136.597 21.8684 136.597 21.3865V11.9721C136.597 11.4903 136.968 11.1196 137.449 11.1196H139.525C140.007 11.1196 140.378 10.749 140.378 10.2671V8.26558C140.378 7.78374 140.748 7.41309 141.23 7.41309H150.867C151.349 7.41309 151.719 7.78374 151.719 8.26558V10.2671C151.719 10.749 152.09 11.1196 152.572 11.1196H154.647C155.129 11.1196 155.5 11.4903 155.5 11.9721V21.3865C155.5 21.8684 155.129 22.239 154.647 22.239H152.572C152.09 22.239 151.719 22.6097 151.719 23.0915V25.093C151.719 25.5748 151.349 25.9455 150.867 25.9455H141.23Z" fill="black"/>
<path id="Vector_2" d="M120.454 25.9453C119.972 25.9453 119.601 25.5747 119.601 25.0928V23.0913C119.601 22.6095 119.231 22.2388 118.749 22.2388H116.673C116.191 22.2388 115.821 21.8682 115.821 21.3863V11.9719C115.821 11.4901 116.191 11.1194 116.673 11.1194H118.749C119.231 11.1194 119.601 10.7488 119.601 10.2669V8.26543C119.601 7.78359 119.231 7.41294 118.749 7.41294H116.673C116.191 7.41294 115.821 7.0423 115.821 6.56046V0H119.601V6.56046C119.601 7.0423 119.972 7.41294 120.454 7.41294H129.053V11.1194H120.454C119.972 11.1194 119.601 11.4901 119.601 11.9719V21.3863C119.601 21.8682 119.972 22.2388 120.454 22.2388H132.833V25.9453H120.454Z" fill="black"/>
<path id="Vector_3" d="M96.9061 15.6786C96.9061 15.1967 97.2767 14.8261 97.7586 14.8261H106.358V18.5325H97.7586C97.2767 18.5325 96.9061 18.9032 96.9061 19.385V21.3865C96.9061 21.8684 97.2767 22.239 97.7586 22.239H107.395C107.877 22.239 108.248 21.8684 108.248 21.3865V11.9721C108.248 11.4903 107.877 11.1196 107.395 11.1196H93.1255V7.41309H107.395C107.877 7.41309 108.248 7.78374 108.248 8.26558V10.2671C108.248 10.749 108.619 11.1196 109.1 11.1196H111.176C111.658 11.1196 112.028 11.4903 112.028 11.9721V21.3865C112.028 21.8684 111.658 22.239 111.176 22.239H109.1C108.619 22.239 108.248 22.6097 108.248 23.0915V25.093C108.248 25.5748 107.877 25.9455 107.395 25.9455H97.7586C97.2767 25.9455 96.9061 25.5748 96.9061 25.093V23.0915C96.9061 22.6097 96.5354 22.239 96.0536 22.239H93.978C93.4961 22.239 93.1255 21.8684 93.1255 21.3865V19.385C93.1255 18.9032 93.4961 18.5325 93.978 18.5325H96.0536C96.5354 18.5325 96.9061 18.1619 96.9061 17.6801V15.6786Z" fill="black"/>
<path id="Vector_4" d="M70.4471 8.26558C70.4471 7.78374 70.8177 7.41309 71.2995 7.41309H75.2655C75.7473 7.41309 76.118 7.78374 76.118 8.26558V10.2671C76.118 10.749 76.4886 11.1196 76.9704 11.1196H79.0461C79.5279 11.1196 79.8986 10.749 79.8986 10.2671V8.26558C79.8986 7.78374 80.2692 7.41309 80.751 7.41309H84.717C85.1988 7.41309 85.5695 7.78374 85.5695 8.26558V10.2671C85.5695 10.749 85.9401 11.1196 86.4219 11.1196H88.4976C88.9794 11.1196 89.3501 11.4903 89.3501 11.9721V25.9455H85.5695V11.9721C85.5695 11.4903 85.1988 11.1196 84.717 11.1196H80.751C80.2692 11.1196 79.8986 11.4903 79.8986 11.9721V25.9455H76.118V11.9721C76.118 11.4903 75.7473 11.1196 75.2655 11.1196H71.2995C70.8177 11.1196 70.4471 11.4903 70.4471 11.9721V25.9455H66.6665V11.9721C66.6665 11.4903 67.0371 11.1196 67.5189 11.1196H69.5946C70.0764 11.1196 70.4471 10.749 70.4471 10.2671V8.26558Z" fill="black"/>
<path id="Vector_5" d="M48.6043 25.9455C48.1225 25.9455 47.7518 25.5748 47.7518 25.093V23.0915C47.7518 22.6097 47.3812 22.239 46.8993 22.239H44.8237C44.3419 22.239 43.9712 21.8684 43.9712 21.3865V11.9721C43.9712 11.4903 44.3419 11.1196 44.8237 11.1196H46.8993C47.3812 11.1196 47.7518 10.749 47.7518 10.2671V8.26558C47.7518 7.78374 48.1225 7.41309 48.6043 7.41309H58.2412C58.723 7.41309 59.0936 7.78374 59.0936 8.26558V10.2671C59.0936 10.749 59.4643 11.1196 59.9461 11.1196H62.0218C62.5036 11.1196 62.8742 11.4903 62.8742 11.9721V21.3865C62.8742 21.8684 62.5036 22.239 62.0218 22.239H59.9461C59.4643 22.239 59.0936 22.6097 59.0936 23.0915V25.093C59.0936 25.5748 58.723 25.9455 58.2412 25.9455H48.6043Z" fill="black"/>
<path id="Vector_6" d="M27.8279 25.9453C27.3461 25.9453 26.9754 25.5747 26.9754 25.0928V23.0913C26.9754 22.6095 26.6048 22.2388 26.1229 22.2388H24.0473C23.5655 22.2388 23.1948 21.8682 23.1948 21.3863V11.9719C23.1948 11.4901 23.5655 11.1194 24.0473 11.1194H26.1229C26.6048 11.1194 26.9754 10.7488 26.9754 10.2669V8.26543C26.9754 7.78359 26.6048 7.41294 26.1229 7.41294H24.0473C23.5655 7.41294 23.1948 7.0423 23.1948 6.56046V0H26.9754V6.56046C26.9754 7.0423 27.3461 7.41294 27.8279 7.41294H36.4269V11.1194H27.8279C27.3461 11.1194 26.9754 11.4901 26.9754 11.9719V21.3863C26.9754 21.8682 27.3461 22.2388 27.8279 22.2388H40.2075V25.9453H27.8279Z" fill="black"/>
<path id="Vector_7" d="M5.13309 25.9455C4.65125 25.9455 4.2806 25.5748 4.2806 25.093V23.0915C4.2806 22.6097 3.90995 22.239 3.42811 22.239H1.35249C0.870647 22.239 0.5 21.8684 0.5 21.3865V11.9721C0.5 11.4903 0.870647 11.1196 1.35249 11.1196H3.42811C3.90995 11.1196 4.2806 10.749 4.2806 10.2671V8.26558C4.2806 7.78374 4.65125 7.41309 5.13309 7.41309H14.7699C15.2518 7.41309 15.6224 7.78374 15.6224 8.26558V10.2671C15.6224 10.749 15.993 11.1196 16.4749 11.1196H18.5505C19.0324 11.1196 19.403 11.4903 19.403 11.9721V21.3865C19.403 21.8684 19.0324 22.239 18.5505 22.239H16.4749C15.993 22.239 15.6224 22.6097 15.6224 23.0915V25.093C15.6224 25.5748 15.2518 25.9455 14.7699 25.9455H5.13309ZM4.2806 21.3865C4.2806 21.8684 4.65125 22.239 5.13309 22.239H14.7699C15.2518 22.239 15.6224 21.8684 15.6224 21.3865V11.9721C15.6224 11.4903 15.2518 11.1196 14.7699 11.1196H5.13309C4.65125 11.1196 4.2806 11.4903 4.2806 11.9721V21.3865Z" fill="black"/>
</g>
<defs>
<clipPath id="clip0_2232_413">
<rect width="155" height="26" fill="white" transform="translate(0.5)"/>
</clipPath>
</defs>
</svg>
