<svg width="196" height="80" viewBox="0 0 196 80" fill="none" xmlns="http://www.w3.org/2000/svg">
<g clip-path="url(#clip0_2875_1608)">
<path d="M91.3427 50.6869C91.2267 52.0235 90.8731 53.3212 90.6997 54.652C90.5779 55.5882 90.4045 56.542 90.0382 57.4314C89.7284 58.1845 89.5686 59.0175 89.5189 59.7735C89.4507 60.8071 89.3397 61.8554 89.3708 62.9095C89.4225 64.6641 89.5004 66.4303 89.2754 68.181C89.2228 68.5892 89.0464 68.9818 88.9958 69.4027C88.9714 69.6082 88.759 69.7203 88.5593 69.8167C88.003 70.0846 87.6231 70.8231 87.7069 71.433C87.7108 71.4602 87.779 71.4788 87.8179 71.5012H87.3318C87.5344 71.4291 87.474 71.2888 87.3639 71.2186C87.1116 71.0579 87.1253 70.8251 87.1223 70.5786C87.1136 69.8654 87.0756 69.1582 86.7336 68.5045C86.6683 68.3807 86.643 68.2219 86.643 68.0797C86.6469 66.3631 86.304 64.668 86.3741 62.9455C86.4345 61.4579 86.3712 59.9625 86.4755 58.4787C86.5592 57.2902 86.6927 56.1007 86.8262 54.9131C86.9811 53.5336 87.023 52.1395 87.0853 50.7502C87.1311 49.7312 87.1379 48.7102 87.1477 47.6902C87.1545 46.9936 86.9596 46.8874 86.2806 47.0423C85.2021 47.2879 84.1237 47.546 83.0179 47.6512C82.9634 47.697 82.8611 47.6941 82.865 47.8003C82.7266 47.8344 82.5873 47.8695 82.45 47.9036C82.2727 47.7389 82.1791 47.8471 82.1031 48.0127C81.5995 48.0585 81.2575 48.4257 80.9409 48.7287C80.5044 49.1476 80.0505 49.5412 79.5468 49.8569C79.1824 50.0848 78.9447 50.3927 78.6758 50.7025C77.6821 51.8433 76.9242 53.1809 75.7132 54.1415C75.2622 54.499 75.1764 55.1235 74.9475 55.6301C74.6737 56.2361 74.2538 56.6579 73.6654 56.8615C72.5353 57.2522 71.6244 58.0179 71.45 59.1081C71.3058 60.0083 70.4816 60.2811 70.2897 61.0254C70.2527 61.1705 70.0569 61.2864 69.8874 61.2231C69.6877 61.1491 69.7383 60.9494 69.7861 60.8003C70.0861 59.8573 70.5119 58.9629 70.9473 58.0793C71.1539 57.6594 71.3292 57.2347 71.4773 56.7963C72.1018 54.9374 73.2202 53.3407 74.1964 51.668C74.6435 50.9003 75.1521 50.1686 75.5515 49.3707C75.6976 49.0794 75.6801 48.9236 75.3596 48.7628C74.8978 48.53 74.4526 48.3722 73.9216 48.4832C73.4959 48.5719 73.2484 48.303 73.1393 47.923C73.0273 47.5334 72.8928 47.1144 72.4184 47.167C71.9342 47.2206 71.827 47.6707 71.8007 48.0887C71.7735 48.5027 71.7121 48.8671 71.2191 48.9664C71.1646 48.9772 71.109 49.0395 71.0759 49.0921C70.6268 49.8218 70.09 50.5154 69.7578 51.2958C69.3642 52.2233 68.807 52.9987 68.1299 53.7187C67.822 54.046 67.4996 54.2682 67.0699 54.463C66.4152 54.7601 65.8093 55.2755 65.7372 56.1192C65.7167 56.3579 65.6476 56.5352 65.3923 56.5702C65.0923 56.6112 64.9072 56.807 64.7259 57.0184C64.1979 57.6341 63.4526 58.014 62.9548 58.6677C62.8126 58.8548 62.5115 58.8129 62.2914 58.9308C60.9947 59.6264 59.6483 60.1184 58.1295 59.9255C57.5683 59.8543 57.0023 59.9138 56.4373 60.017C54.9623 60.2888 53.8556 59.7063 53.2292 58.355C52.7401 57.2999 52.1945 56.2702 51.9646 55.1079C51.6743 53.6417 51.9373 52.2155 52.1371 50.7678C52.5063 48.0935 53.2292 45.5002 54.029 42.9438C54.8337 40.3718 55.8985 37.8691 57.3482 35.5767C57.921 34.6707 58.7257 33.9128 59.4174 33.0808C59.8509 32.5586 60.2708 32.0247 60.6956 31.4957C60.8446 31.3096 60.9411 31.1109 60.8086 30.8722C61.9923 29.1225 63.5004 27.7001 65.2228 26.4902C65.9262 25.9962 66.6637 25.8209 67.5161 26.044C68.088 26.194 68.6793 26.3401 69.2843 26.1852C69.6078 26.3392 69.9176 26.5476 70.3063 26.4249C70.7272 26.4911 71.0935 26.7035 71.4715 26.876C71.8056 27.0279 72.0443 27.2803 72.0209 27.7031C72.0063 27.969 72.0998 28.2311 72.2995 28.4026C73.0604 29.0572 73.379 29.8873 73.3381 30.8732C73.1345 31.0281 72.9659 31.2327 73.0146 31.486C73.0741 31.7919 73.0068 32.0608 72.9201 32.3404C72.6707 33.1412 72.4038 33.9381 72.4048 34.7925C72.4048 34.9191 72.395 35.0565 72.2927 35.1549C71.8202 35.6089 71.6887 36.1895 71.6926 36.812C71.6936 36.9952 71.677 37.19 71.5825 37.3157C71.1178 37.9402 70.8567 38.6455 70.6814 39.3908C70.6434 39.5535 70.583 39.722 70.431 39.7805C70.0501 39.9266 69.9166 40.215 69.8533 40.5862C69.8318 40.7138 69.7237 40.8482 69.6195 40.9379C68.7807 41.6627 67.7606 42.029 66.6929 41.9783C66.0499 41.9472 65.5609 41.9735 65.0552 42.3953C64.6129 42.7645 64.1521 42.5911 63.9553 42.066C63.8638 41.8215 63.6903 41.6715 63.4897 41.5282C62.8691 41.086 62.8574 40.668 63.4468 40.1673C63.7439 39.914 64.0352 39.649 64.2349 39.3148C64.723 38.4965 65.1868 37.6635 65.6622 36.8374C66.615 35.1831 67.3047 33.3993 68.1903 31.712C68.3199 31.4645 68.4182 31.2064 68.2585 30.9297C68.6813 30.7504 68.7982 30.3539 68.9093 29.9711C68.9755 29.7402 68.8381 29.5989 68.5887 29.6164C68.1484 29.6476 67.3466 30.4241 67.2492 30.9034C67.0426 30.9472 66.8225 30.9774 66.6783 31.1479C65.9427 32.013 64.9753 32.6375 64.2418 33.5075C63.8842 33.9322 63.6416 34.432 63.286 34.8509C62.1939 36.1398 61.4623 37.6655 60.5319 39.0596C59.924 39.9714 59.3356 40.9009 58.7189 41.8108C58.6536 41.9062 58.5845 41.9832 58.4705 42.029C58.0691 42.1907 57.3677 43.3286 57.5294 43.731C57.7388 44.2541 57.5693 44.7432 57.6005 45.243C57.6804 46.5085 57.1105 47.4934 56.2639 48.2913C55.6881 48.8349 55.5595 49.4282 55.5127 50.1404C55.4338 51.3338 55.3871 52.5223 55.5205 53.7138C55.6287 54.6832 55.766 55.6389 56.3476 56.4699C56.7724 57.0759 57.0666 57.1889 57.7427 56.9336C59.0716 56.4319 60.1227 55.4966 61.21 54.6413C63.0922 53.1605 64.8068 51.4829 66.576 49.8695C67.0183 49.4662 67.4869 49.0921 67.8795 48.6371C67.9613 48.5417 68.086 48.4306 67.9915 48.3001C67.9068 48.1832 67.7529 48.2114 67.6301 48.2591C67.2979 48.3897 66.9676 48.5767 66.6062 48.528C65.7615 48.4141 64.9257 48.5845 64.0859 48.569C63.4195 48.5563 63.1623 48.3731 62.9412 47.8081C62.7356 47.284 63.0717 47.0102 63.403 46.753C64.5438 45.8655 65.6992 45.0014 66.9092 44.2035C68.3432 43.2585 69.8572 42.481 71.4091 41.765C71.8972 41.5399 72.4301 41.3977 72.8909 41.1288C73.493 40.7781 74.1233 40.4868 74.7409 40.1731C76.5306 39.2661 78.3368 38.3932 80.1342 37.5018C80.3817 37.379 80.6233 37.2446 80.9068 37.2319C81.1903 37.2193 81.3325 37.382 81.202 37.6255C80.9565 38.0844 80.824 38.6007 80.3905 38.969C79.9764 39.3197 79.4133 39.5623 79.2954 40.1936C79.2808 40.2705 79.1707 40.3378 79.0938 40.3952C78.5122 40.8288 77.9588 41.2964 77.3587 41.7075C76.9349 41.9978 76.3981 42.295 76.214 42.7197C75.9967 43.2195 75.6119 43.4348 75.2787 43.7651C74.9865 44.0554 74.5276 44.1548 74.3532 44.56C74.2227 44.864 74.0346 45.0715 73.7131 45.1718C73.265 45.3121 73.2085 45.7233 73.2338 46.0788C73.2592 46.4325 73.6225 46.4159 73.8943 46.4072C74.8812 46.375 75.8681 46.3127 76.856 46.2932C77.3304 46.2844 77.6607 46.0798 77.8955 45.696C78.1575 45.2683 78.4001 44.8299 78.6612 44.4022C79.2798 43.389 79.9063 42.3807 80.5259 41.3675C80.9243 40.7167 81.428 40.1351 81.8313 39.4951C82.8046 37.949 83.7885 36.4107 84.8202 34.9045C85.5948 33.7734 86.2894 32.5781 87.288 31.6126C87.475 31.4314 87.6143 31.2083 87.6357 30.9346C88.1355 30.614 88.4931 30.1922 88.6977 29.6194C88.9266 28.9803 89.175 28.3266 89.9846 28.1999C90.5691 28.0421 91.0358 27.4771 91.0329 26.9149C91.0299 26.3937 91.292 25.9465 91.4206 25.4614C91.9934 25.4419 92.5955 25.6124 93.0407 25.0201C93.2434 24.7502 93.6389 24.9265 93.7266 25.286C93.7977 25.5744 93.672 25.7907 93.4489 25.9592C93.183 26.1609 93.1138 26.3957 93.2249 26.724C93.3388 27.0591 93.3866 27.4118 93.3096 27.7742C93.2346 28.1278 93.3116 28.4474 93.599 28.6978C93.7928 28.8663 93.8523 29.0933 93.8971 29.3407C93.9633 29.7012 93.8795 30.05 93.861 30.4036C93.8493 30.6296 93.8454 30.8303 94.1231 30.8927C93.6788 31.259 93.5454 31.7899 93.4411 32.3082C93.3077 32.9697 93.1226 33.6361 93.2268 34.3239C93.297 34.7886 93.068 35.2026 93.0329 35.6566C92.956 36.6659 92.994 37.6781 92.7748 38.6913C92.614 39.4356 92.4708 40.2033 92.389 40.9759C92.3032 41.7874 92.0792 42.5853 91.9028 43.3861C91.7937 43.881 91.8989 43.9989 92.3997 43.9521C93.108 43.8859 93.8182 43.8284 94.5293 43.7923C95.3302 43.7514 95.5357 43.6014 95.789 42.8551C95.978 42.2959 96.1388 41.7445 96.5265 41.2438C96.772 40.9272 96.7048 40.3572 96.7457 39.8984C96.7632 39.7045 96.7252 39.4989 96.8519 39.3392C97.5855 38.4127 98.0648 37.3333 98.6376 36.3132C99.0809 35.5261 99.3975 34.6327 99.9957 33.9751C100.811 33.0779 100.915 31.937 101.349 30.9102C101.407 30.8917 101.485 30.8897 101.523 30.8508C102.201 30.1454 102.676 30.3198 103.379 30.7417C103.558 30.8488 103.731 31.0593 103.992 30.9268C104.047 31.0895 104 31.257 104.092 31.4334C104.616 32.4251 105.008 33.4685 105.195 34.5801C105.448 36.0824 105.65 37.5963 106.132 39.0498C106.692 40.7352 107.168 42.445 107.568 44.1723C107.712 44.788 107.936 45.4066 107.797 46.0788C107.705 46.526 107.946 46.9303 108.12 47.3677C108.343 47.1709 108.344 46.9683 108.381 46.7832C108.799 44.6867 108.905 42.5502 109.182 40.4352C109.336 39.2612 109.635 38.1204 109.837 36.9582C110.013 35.9469 110.482 34.9912 110.374 33.9235C110.353 33.7072 110.434 33.4763 110.49 33.2581C110.638 32.6794 110.798 32.1036 110.954 31.5269C111.022 31.2755 111.021 31.0447 110.779 30.8771C111.089 30.6043 111.141 30.2107 111.265 29.8503C111.713 28.5565 111.776 27.1634 112.289 25.8871C112.421 25.7965 112.422 25.6358 112.49 25.512C113.333 23.9981 114.001 22.4043 114.657 20.8046C114.699 20.7013 114.738 20.5386 114.856 20.563C115.049 20.602 115.045 20.8036 115.043 20.9595C115.028 22.2698 115.01 23.5802 114.983 24.8905C114.976 25.213 114.917 25.5364 115.049 25.8482C114.778 26.0878 114.769 26.4161 114.756 26.7386C114.718 27.7547 114.665 28.7679 114.495 29.7743C114.44 30.1016 114.306 30.4747 114.582 30.7914C114.612 30.9794 114.516 31.1372 114.457 31.3038C114.322 31.6818 114.233 32.0491 114.565 32.3881C114.694 32.5186 114.69 32.7174 114.715 32.8927C114.921 34.3404 114.743 35.7628 114.423 37.1754C114.208 38.1243 114.028 39.081 114.055 40.0562C114.069 40.5852 114.183 41.1064 114.199 41.6432C114.219 42.3349 114.145 42.9974 113.972 43.6569C113.89 43.9667 113.926 44.2444 114.069 44.5454C114.382 45.2011 114.184 45.8976 114.056 46.5474C113.931 47.1748 113.954 47.7974 113.912 48.4199C113.893 48.7092 113.928 48.9392 113.576 49.0697C113.324 49.1632 113.179 49.4496 113.236 49.7127C113.308 50.04 113.169 50.2787 113.043 50.5379C113.001 50.6255 112.928 50.7093 112.92 50.7999C112.81 51.8823 112.246 52.763 111.697 53.6612C111.45 54.0665 111.184 54.4084 110.719 54.5448C110.019 54.7504 109.538 55.2034 109.247 55.8522C109.07 56.2478 108.776 56.4465 108.374 56.5459C107.838 56.6784 107.322 56.8489 106.85 57.1596C106.421 57.4431 106.138 57.2892 105.862 56.8537C105.399 56.1221 105.351 55.2667 105.092 54.4776C104.166 51.6602 103.6 48.7482 102.965 45.8557C102.691 44.6087 102.418 43.3617 102.13 42.1186C102.087 41.9355 102.097 41.6237 101.806 41.6656C101.568 41.6997 101.53 41.9696 101.539 42.181C101.553 42.522 101.487 42.8094 101.234 43.0636C101.037 43.2614 101.056 43.5439 101.088 43.804C101.156 44.3642 101.107 44.9 100.842 45.4105C100.777 45.5372 100.746 45.6872 100.727 45.8304C100.296 49.0541 99.7288 52.2544 99.1403 55.4528C98.9172 56.6638 98.6815 57.8728 98.4097 59.0701C98.1271 60.3113 97.2796 61.1958 96.1992 61.834C95.4724 62.2636 94.7758 62.7098 94.204 63.3518C93.6574 63.9646 92.0236 63.7278 91.6505 63.002C91.4508 62.6153 91.4674 62.2519 91.7372 61.8291C92.0236 61.3809 92.3344 60.926 92.351 60.3064C92.3753 59.3896 92.539 58.4729 92.6851 57.563C92.9375 55.9808 93.1411 54.3909 93.4616 52.8185C93.747 51.4224 93.975 50.0147 94.2127 48.6099C94.3589 47.7457 94.6122 46.9118 94.8557 46.074C94.9814 45.6395 94.9268 45.5518 94.4758 45.5732C93.2853 45.6307 92.5117 46.1957 92.1104 47.3716C91.974 47.772 91.8083 48.1539 91.6379 48.5368C91.6262 48.5475 91.6135 48.5592 91.6018 48.5709C91.6145 48.5748 91.6262 48.5777 91.6388 48.5816C91.33 49.2227 91.2599 49.8988 91.3407 50.5973C91.2725 50.6265 91.2715 50.6577 91.3407 50.6879L91.3427 50.6869ZM87.6513 41.2584C87.6513 40.5949 87.6494 39.9315 87.6523 39.2681C87.6533 39.0372 87.628 38.815 87.5101 38.6124C87.4312 38.476 87.323 38.3913 87.1516 38.4331C86.872 38.5023 86.1988 39.385 86.1822 39.6918C86.1549 40.1906 86.1374 40.6758 85.775 41.0996C84.9644 42.0485 83.9493 42.821 83.3248 43.9297C83.2634 44.0378 83.1563 44.0554 83.0384 44.0778C82.3944 44.1996 82.2308 44.3983 82.3165 44.9244C82.4159 45.542 82.5133 45.6327 83.2625 45.5031C84.5212 45.2839 85.7711 45.015 87.0249 44.7695C87.3649 44.7032 87.4974 44.486 87.5422 44.1596C87.6728 43.1951 87.7156 42.2277 87.6513 41.2564V41.2584ZM80.6837 45.5742C80.7012 45.7359 80.8084 45.7934 80.9506 45.7788C81.1085 45.7622 81.2283 45.6794 81.2273 45.505C81.2273 45.3423 81.1104 45.2819 80.9672 45.2975C80.8094 45.3151 80.7032 45.4037 80.6837 45.5742Z" fill="black"/>
<path d="M135.814 30.8351C135.649 30.952 135.488 31.1069 135.491 31.2998C135.514 32.2428 135.047 33.0865 134.965 33.9993C134.917 34.5469 134.826 35.0223 134.456 35.4665C134.242 35.7237 134.111 36.1115 134.128 36.468C134.161 37.1977 133.813 37.7676 133.446 38.3405C133.329 38.5227 133.298 38.7302 133.253 38.9367C133.164 39.3381 133.036 39.721 132.654 39.9509C132.504 40.0405 132.439 40.1915 132.383 40.3435C132.143 40.9894 131.649 41.345 131.018 41.5428C130.631 41.6636 130.243 41.7805 129.858 41.9052C129.559 42.0016 129.253 42.0698 128.951 41.9675C128.47 41.8038 128.066 41.8798 127.708 42.2491C127.549 42.4147 127.337 42.5082 127.101 42.5296C126.777 42.5589 126.516 42.4838 126.446 42.1136C126.391 41.8233 126.232 41.6441 125.961 41.4999C125.423 41.2135 125.328 40.6523 125.793 40.2558C127.213 39.0429 127.802 37.3068 128.672 35.7539C129.327 34.5849 129.874 33.3554 130.437 32.1376C130.663 31.6476 130.978 31.1731 130.92 30.5867C130.905 30.4288 130.968 30.2496 130.783 30.158C130.616 30.0762 130.445 30.1395 130.331 30.2505C129.968 30.6032 129.476 30.7854 129.119 31.1273C127.706 32.4786 126.282 33.8181 125.232 35.5006C124.239 37.0896 123.274 38.697 122.257 40.2694C121.613 41.2661 120.989 42.251 120.575 43.3655C120.297 44.1137 120.063 44.8551 120.056 45.6696C120.049 46.5882 119.513 47.314 119.026 48.0369C118.82 48.3428 118.532 48.5922 118.292 48.8757C117.965 49.2615 117.934 49.736 117.954 50.2046C117.968 50.5475 117.954 50.8797 117.894 51.2168C117.8 51.7428 117.755 52.2563 117.933 52.795C118.116 53.3464 117.884 53.9495 118.041 54.5272C118.266 55.3572 118.469 56.1882 119.103 56.8293C119.336 57.065 119.592 57.103 119.902 57.0231C120.637 56.8322 121.277 56.4532 121.88 56.0119C123.736 54.6529 125.48 53.1594 127.141 51.5685C128.169 50.5845 129.311 49.7243 130.29 48.6877C130.394 48.5776 130.612 48.4773 130.51 48.3019C130.398 48.108 130.179 48.2171 130.026 48.2805C128.744 48.8153 127.404 48.488 126.092 48.5396C125.619 48.5581 125.521 48.071 125.357 47.732C125.205 47.4183 125.353 47.1757 125.596 46.9672C126.791 45.9453 128.082 45.0519 129.382 44.1741C131.241 42.9193 133.288 42.0308 135.313 41.0878C137.086 40.2626 138.846 39.4024 140.566 38.4652C141.374 38.0248 142.225 37.6624 143.063 37.2786C143.277 37.1802 143.542 37.0409 143.739 37.2659C143.921 37.4744 143.697 37.6868 143.64 37.8962C143.533 38.284 143.283 38.5714 143.005 38.849C142.534 39.3167 141.997 39.6849 141.608 40.2821C141.224 40.8715 140.492 41.2417 139.894 41.6821C139.619 41.8847 139.391 42.0844 139.385 42.4517C139.382 42.6728 139.231 42.7849 139.06 42.8979C138.374 43.3538 137.55 43.6958 137.074 44.3446C136.613 44.971 135.783 45.2292 135.547 46.0758C135.439 46.4645 135.071 46.8055 134.761 47.1085C134.474 47.3891 134.313 47.694 134.28 48.0798C134.244 48.488 134.053 48.7471 133.724 49.0287C133.311 49.3833 133.03 49.9084 132.747 50.3926C132.284 51.1856 131.921 52.04 131.414 52.8018C131.008 53.4136 130.526 53.9631 130.226 54.6548C130.095 54.9558 129.627 54.9139 129.319 55.0484C128.758 55.2919 128.281 55.5784 128.208 56.2564C128.193 56.3987 128.092 56.4844 127.973 56.5467C127.032 57.0407 126.29 57.7752 125.588 58.5497C125.352 58.8099 125.053 58.9121 124.756 59.0242C123.884 59.3535 123.053 59.7977 122.104 59.9166C121.645 59.9741 121.196 59.9867 120.752 59.8912C120.247 59.7821 119.758 59.7987 119.262 59.9253C117.619 60.3462 116.303 59.8757 115.536 58.0948C115.094 57.0689 114.643 56.0548 114.399 54.9549C114.201 54.0644 114.213 53.1866 114.364 52.3021C114.622 50.8027 114.819 49.2888 115.17 47.8109C115.662 45.7339 116.111 43.6237 116.923 41.6538C117.769 39.5982 118.489 37.4588 119.764 35.6058C120.307 34.8138 120.989 34.1094 121.655 33.409C122.237 32.7952 122.689 32.084 123.233 31.442C123.383 31.2647 123.432 31.0358 123.339 30.801C123.48 30.8185 123.525 30.7094 123.589 30.6178C124.755 28.9558 126.138 27.512 127.83 26.3741C128 26.2601 128.264 26.2046 128.276 25.9231C128.863 25.7194 129.463 25.8461 130.058 25.8519C130.267 25.8539 130.48 25.8938 130.682 25.8032C131.047 26.0731 131.482 26.1072 131.91 26.1763C133.009 26.3546 133.96 26.8008 134.651 27.7156C134.888 28.0303 134.93 28.4726 135.178 28.7366C135.754 29.3513 135.856 30.0606 135.814 30.8361V30.8351Z" fill="black"/>
<path d="M89.9876 28.1978C89.177 28.3244 88.9286 28.9781 88.7006 29.6172C88.496 30.1901 88.1385 30.6119 87.6387 30.9305C87.4322 30.799 87.2003 30.834 86.9762 30.834C85.2918 30.8321 83.6074 30.834 81.923 30.834C81.2225 30.834 81.1903 30.798 81.1903 30.0868C81.1903 27.9182 81.1894 25.7486 81.1903 23.58C81.1903 23.2059 81.1699 22.8347 81.0491 22.4781C80.865 21.9345 80.1216 21.5351 79.4981 21.6598C78.862 21.7864 79.0782 22.3067 79.0753 22.6866C79.0607 25.2118 79.0636 27.737 79.0734 30.2612C79.0753 30.683 78.9418 30.8876 78.4888 30.8837C76.7722 30.8681 75.0557 30.873 73.3391 30.8701C73.38 29.8842 73.0614 29.0551 72.3006 28.3995C72.1009 28.228 72.0073 27.9659 72.0219 27.7C72.0453 27.2772 71.8057 27.0248 71.4725 26.8728C71.0945 26.7004 70.7282 26.489 70.3073 26.4218C70.3151 23.3121 70.3258 20.2014 70.3297 17.0907C70.3336 14.4827 70.3258 11.8737 70.3297 9.26574C70.3307 8.53118 70.3736 8.5 71.1062 8.5C75.7591 8.5 80.4119 8.50292 85.0638 8.5C85.965 8.5 86.8457 8.64029 87.6796 8.96568C89.1799 9.55021 89.7167 10.8401 89.9252 12.2917C90.1025 13.5289 90.0947 14.772 89.7713 16.0035C89.4615 17.1862 88.8351 18.0854 87.6826 18.5715C87.5637 18.6212 87.44 18.6728 87.3387 18.7508C87.0873 18.9437 87.0396 19.1258 87.3825 19.2866C87.778 19.4707 88.1512 19.6919 88.5155 19.9364C89.3231 20.48 89.6242 21.2798 89.782 22.1868C89.9408 23.1026 89.9535 24.0213 89.9525 24.9449C89.9525 26.0292 89.9749 27.1145 89.9876 28.1988V28.1978ZM79.0227 15.1344C79.0227 15.1344 79.0198 15.1344 79.0188 15.1344C79.0188 15.5066 79.0208 15.8788 79.0188 16.2519C79.0178 16.4458 79.0782 16.6016 79.2663 16.6844C79.731 16.89 80.7422 16.6455 81.0013 16.2129C81.4115 15.53 81.467 14.775 81.0832 14.0833C80.7636 13.5065 80.1382 13.4705 79.5342 13.4997C79.199 13.5163 79.0285 13.6858 79.0246 14.018C79.0208 14.3901 79.0246 14.7623 79.0246 15.1354L79.0227 15.1344Z" fill="#BFBFBF"/>
<path d="M69.2854 26.1821C68.6804 26.337 68.089 26.1909 67.5172 26.0409C66.6647 25.8178 65.9272 25.9931 65.2238 26.4871C63.5014 27.697 61.9933 29.1184 60.8096 30.8691C58.5095 30.7756 56.2074 30.8769 53.9063 30.8165C52.9311 30.7912 52.0465 30.4794 51.2593 29.8705C50.3153 29.1399 49.9373 28.1345 49.8136 27.0161C49.7444 26.3916 49.7863 25.7535 49.7863 25.1212C49.7853 21.0694 49.7912 17.0186 49.7834 12.9668C49.7814 11.9185 49.9743 10.9424 50.6319 10.0938C51.3792 9.12837 52.4255 8.65685 53.5809 8.63347C57.5362 8.5565 61.4945 8.54092 65.4499 8.63736C67.486 8.68705 68.8518 10.01 69.2035 12.0471C69.3877 13.112 69.2396 14.1826 69.336 15.2475C69.3545 15.4559 69.2133 15.5787 69.0165 15.6099C68.8733 15.6323 68.7252 15.6284 68.58 15.6284C66.1805 15.6284 63.78 15.6284 61.3805 15.6284C60.722 15.6284 60.719 15.6196 60.6742 14.9737C60.6625 14.7974 60.6167 14.622 60.569 14.4515C60.3975 13.8426 60.0351 13.5163 59.5422 13.5163C59.0365 13.5163 58.5504 13.9176 58.4043 14.4807C58.3478 14.698 58.3156 14.9279 58.3156 15.152C58.3098 18.1984 58.3049 21.2457 58.3156 24.2921C58.3176 24.8884 58.416 25.467 59.0658 25.7476C59.6747 26.0097 60.2816 25.732 60.5057 25.1095C60.6927 24.5902 60.6197 24.0496 60.6577 23.5215C60.684 23.1542 60.3673 22.935 59.9981 22.9662C59.4525 23.011 59.3386 22.748 59.3464 22.2696C59.3678 21.0548 59.3493 19.839 59.3541 18.6231C59.3561 18.0717 59.4584 17.9733 60.0127 17.9733C62.8019 17.9714 65.5911 17.9733 68.3803 17.9753C68.5576 17.9753 68.7349 18.0055 68.9122 18.0162C69.1928 18.0328 69.3117 18.1877 69.3107 18.4595C69.3019 21.0343 69.2941 23.6092 69.2863 26.1841L69.2854 26.1821Z" fill="#BFBFBF"/>
<path d="M135.814 30.8351C135.856 30.0596 135.754 29.3504 135.178 28.7357C134.93 28.4716 134.888 28.0293 134.651 27.7147C133.961 26.8009 133.009 26.3547 131.91 26.1754C131.483 26.1062 131.047 26.0721 130.682 25.8023C130.962 24.9372 131.425 24.1529 131.802 23.3316C132.889 20.9653 134.017 18.6174 135.125 16.2607C135.449 15.5729 135.762 14.8803 136.072 14.1857C136.276 13.7307 136.169 13.5631 135.655 13.5612C134.31 13.5544 132.964 13.5592 131.618 13.5592C130.987 13.5592 130.912 13.4871 130.911 12.8685C130.909 11.6371 130.921 10.4057 130.905 9.17426C130.899 8.7115 131.089 8.54199 131.543 8.54199C136.228 8.54881 140.914 8.54881 145.599 8.54004C146.061 8.54004 146.231 8.72319 146.225 9.1801C146.206 10.395 146.21 11.6108 146.225 12.8256C146.229 13.2183 146.079 13.5592 145.926 13.8914C145.232 15.4044 144.507 16.9037 143.804 18.4128C142.948 20.2453 142.105 22.0827 141.251 23.9152C141.074 24.2961 140.855 24.6585 140.684 25.0424C140.41 25.661 140.559 25.8822 141.221 25.8822C142.632 25.8822 144.042 25.8773 145.452 25.8763C146.135 25.8763 146.221 25.9582 146.221 26.6157C146.222 27.8472 146.214 29.0786 146.225 30.31C146.228 30.6987 146.068 30.8799 145.68 30.8799C142.453 30.876 139.228 30.875 136.001 30.8712C135.938 30.8712 135.874 30.8468 135.812 30.8341L135.814 30.8351Z" fill="#BFBFBF"/>
<path d="M103.994 30.9265C103.733 31.059 103.56 30.8485 103.381 30.7414C102.678 30.3195 102.203 30.1461 101.525 30.8505C101.487 30.8895 101.41 30.8904 101.351 30.9099C101.236 30.5524 101.206 30.1832 101.206 29.811C101.208 23.1386 101.208 16.4661 101.213 9.79366C101.214 8.54666 101.224 8.54666 102.482 8.54666C104.702 8.54666 106.922 8.54471 109.143 8.54568C109.883 8.54568 109.953 8.6168 109.953 9.34065C109.954 14.5712 109.955 19.8028 109.957 25.0334C109.957 25.7943 110.016 25.8469 110.793 25.8537C111.293 25.8576 111.793 25.8761 112.292 25.8888C111.779 27.165 111.716 28.5581 111.268 29.8519C111.144 30.2124 111.091 30.606 110.782 30.8778C109.959 30.8943 109.135 30.9216 108.312 30.9265C106.873 30.9343 105.434 30.9275 103.995 30.9265H103.994Z" fill="#BFBFBF"/>
<path d="M128.277 25.922C128.264 26.2036 128.001 26.2591 127.831 26.3731C126.139 27.5119 124.756 28.9548 123.59 30.6168C123.526 30.7084 123.481 30.8175 123.34 30.7999C121.576 30.8126 119.812 30.8223 118.048 30.8389C117.579 30.8428 117.109 30.8535 116.641 30.8857C116.256 30.912 116.082 30.7892 116.083 30.3703C116.093 26.9206 116.085 23.4718 116.086 20.0221C116.087 16.4779 116.093 12.9337 116.095 9.38849C116.095 8.60229 116.149 8.54383 116.955 8.54383C119.305 8.54189 121.655 8.54383 124.004 8.54383C124.688 8.54383 124.758 8.60911 124.758 9.29009C124.758 14.4729 124.764 19.6548 124.747 24.8377C124.744 25.7125 124.823 25.9064 125.917 25.8665C126.706 25.8372 127.492 25.8587 128.278 25.923L128.277 25.922Z" fill="#BFBFBF"/>
<path d="M94.1261 30.8916C93.8484 30.8292 93.8523 30.6285 93.864 30.4025C93.8825 30.0489 93.9663 29.7011 93.9 29.3396C93.8552 29.0922 93.7958 28.8652 93.6019 28.6966C93.3145 28.4463 93.2376 28.1267 93.3126 27.7731C93.3895 27.4107 93.3418 27.058 93.2278 26.7229C93.1168 26.3946 93.1859 26.1598 93.4519 25.9581C93.674 25.7896 93.7997 25.5723 93.7295 25.2849C93.6419 24.9254 93.2463 24.7501 93.0437 25.019C92.5985 25.6103 91.9964 25.4408 91.4236 25.4603C91.3008 25.3034 91.3456 25.1183 91.3456 24.9439C91.3437 19.6929 91.3456 14.4428 91.3456 9.19175C91.3456 8.5965 91.3963 8.54487 91.976 8.54487C94.3433 8.54487 96.7107 8.54389 99.078 8.54487C99.9061 8.54487 99.9363 8.57214 99.9363 9.37393C99.9412 16.3104 99.9441 23.2459 99.947 30.1823C99.947 30.7844 99.9061 30.8273 99.3265 30.8341C97.5923 30.8545 95.8592 30.8721 94.1251 30.8906L94.1261 30.8916Z" fill="#BFBFBF"/>
<path d="M114.585 30.7913C114.309 30.4757 114.443 30.1016 114.498 29.7743C114.668 28.7669 114.721 27.7547 114.759 26.7386C114.771 26.4171 114.78 26.0878 115.052 25.8481C115.313 25.9222 115.386 26.0966 115.384 26.3606C115.371 27.4274 115.381 28.4941 115.374 29.5619C115.372 29.8161 115.408 30.1162 114.97 30.0227C114.763 29.9788 114.706 30.1571 114.669 30.3247C114.635 30.4786 114.705 30.653 114.583 30.7904L114.585 30.7913Z" fill="#BFBFBF"/>
<path d="M68.2604 30.9265C67.9282 30.7268 67.5853 30.9675 67.2511 30.9002C67.3495 30.4209 68.1513 29.6445 68.5907 29.6133C68.8401 29.5958 68.9774 29.736 68.9112 29.9679C68.8011 30.3508 68.6832 30.7473 68.2604 30.9265Z" fill="#BFBFBF"/>
</g>
<defs>
<clipPath id="clip0_2875_1608">
<rect width="96.4528" height="63" fill="white" transform="translate(49.7736 8.5)"/>
</clipPath>
</defs>
</svg>
