<svg width="142" height="32" viewBox="0 0 142 32" fill="none" xmlns="http://www.w3.org/2000/svg">
<g id="ForuAI" clip-path="url(#clip0_2232_535)">
<path id="Vector" d="M19.5463 0.0737141C21.1577 1.17237 21.0112 2.41755 20.059 3.95567C16.1038 10.4744 12.1487 16.993 8.26676 23.5117C6.72864 26.0752 7.53432 27.3937 10.4641 27.3937C16.2503 27.3937 22.0366 27.3937 27.8228 27.3937C29.1412 27.3937 30.4596 27.2472 30.4596 25.6358C30.4596 24.0977 29.2145 23.7315 27.8961 23.7315C24.1606 23.7315 20.4985 23.7315 16.763 23.7315C14.1263 23.7315 13.3938 22.4863 14.7122 20.2157C16.9095 16.5536 19.1068 12.8181 21.3041 9.15596C22.5493 7.10513 24.0874 7.03189 25.3325 9.15596C29.1412 15.4549 32.9499 21.7539 36.7586 28.0528C37.9305 30.0304 37.2713 31.2756 34.8542 31.2756C24.4536 31.2756 14.053 31.2756 3.65241 31.2756C2.48051 31.2756 1.74806 30.6896 0.942383 30.1036C0.942383 29.5177 0.942383 28.9317 0.942383 28.2726C3.21294 24.5371 5.48349 20.7285 7.82729 16.993C11.2697 11.3533 14.4192 5.49377 18.1547 0.000488281H19.6195L19.5463 0.0737141ZM23.2817 19.9228C24.3804 19.7031 25.9185 20.5087 26.5044 19.4833C27.0904 18.4579 25.772 17.5057 25.1861 16.5536C23.1352 12.9646 23.2817 13.3308 21.3774 16.5536C20.7914 17.5057 19.4731 18.5311 20.059 19.4833C20.645 20.5087 22.1831 19.7763 23.2817 19.996V19.9228Z" fill="black"/>
<path id="Vector_2" d="M85.0997 19.4094C85.0997 26.5873 80.0458 31.7144 72.7215 31.7877C65.3971 31.7877 60.1235 26.6606 60.1235 19.4827C60.1235 12.3048 65.3971 7.17773 72.6482 7.17773C79.9726 7.17773 85.0997 12.2316 85.0997 19.4094ZM63.7125 19.3362C63.7125 24.683 67.3747 28.4917 72.575 28.5649C77.7753 28.5649 81.6572 24.7562 81.6572 19.4827C81.6572 14.2091 77.9218 10.4005 72.6482 10.4005C67.4479 10.4005 63.7125 14.1359 63.7125 19.3362Z" fill="black"/>
<path id="Vector_3" d="M90.0068 19.4831C90.0068 16.2604 90.0068 13.1109 90.0068 9.88822C90.0068 8.20362 90.7393 7.39794 92.4239 7.47119C94.6212 7.47119 96.8185 7.32471 99.0158 7.61768C102.165 8.13039 104.436 9.81499 105.242 12.9645C106.047 16.1139 105.388 18.9704 102.458 20.948C101.579 21.534 101.726 21.9002 102.165 22.6327C103.41 24.4637 104.509 26.2948 105.681 28.1259C106.34 29.2246 107.073 30.3232 105.535 31.2021C104.07 32.0078 103.337 30.9824 102.605 29.8838C101.286 27.7597 99.8948 25.5624 98.5031 23.4383C97.9172 22.4861 94.7677 21.9002 93.8888 22.4862C93.4493 22.7791 93.5958 23.2186 93.5958 23.658C93.5958 25.5624 93.5958 27.3935 93.5958 29.2978C93.5958 30.543 93.1563 31.4951 91.7647 31.4951C90.4463 31.4951 89.9336 30.543 89.9336 29.2978C89.9336 26.0751 89.9336 22.7791 89.9336 19.5564L90.0068 19.4831ZM93.669 14.7956C93.669 15.8942 93.669 16.9928 93.669 18.0183C93.669 18.531 93.669 19.0437 94.4014 19.0437C96.086 19.0437 97.8439 19.3366 99.4553 18.7507C102.019 17.8718 102.898 14.8688 101.36 12.5982C100.261 11.0601 96.4523 9.88821 94.3282 10.8404C92.9366 11.4996 93.962 13.1842 93.669 14.4293C93.669 14.5758 93.669 14.6491 93.669 14.7956Z" fill="black"/>
<path id="Vector_4" d="M130.218 16.8466C130.218 18.7509 130.144 20.582 130.218 22.4863C130.584 27.7599 126.995 31.0559 122.454 31.7883C119.89 32.2278 117.327 32.008 114.983 30.9094C111.76 29.4445 110.002 26.9542 109.929 23.3653C109.929 18.8242 109.929 14.2831 109.929 9.81519C109.929 8.4968 110.369 7.47136 111.907 7.5446C113.298 7.5446 113.591 8.64327 113.518 9.88841C113.518 14.1365 113.518 18.3114 113.518 22.5596C113.518 25.6358 114.763 27.4669 117.473 28.3458C120.476 29.3713 124.065 28.5656 125.677 26.5147C126.482 25.4893 126.702 24.2442 126.702 22.9258C126.702 18.8241 126.702 14.7225 126.702 10.6208C126.702 10.1081 126.702 9.66868 126.702 9.15597C126.849 8.13056 127.508 7.47136 128.533 7.5446C129.559 7.5446 130.218 8.20381 130.218 9.30247C130.218 11.866 130.218 14.3563 130.218 16.9198V16.8466Z" fill="black"/>
<path id="Vector_5" d="M42.9844 19.4099C42.9844 16.1872 42.9844 13.0377 42.9844 9.81501C42.9844 7.91067 43.5703 7.32471 45.4747 7.32471C49.6496 7.32471 53.8977 7.32471 58.0726 7.32471C59.3177 7.32471 60.4896 7.47121 60.4896 9.08257C60.4896 10.6207 59.2445 10.6207 58.0726 10.6207C54.7766 10.6207 51.4807 10.6207 48.1847 10.5474C46.9395 10.5474 46.3536 10.7672 46.5001 12.0856C46.6466 13.8434 45.7676 16.0407 46.7931 17.1394C47.8185 18.238 50.1623 17.4324 51.8469 17.5056C53.0188 17.5788 54.1907 17.5056 55.2893 17.5788C56.3148 17.5788 56.9007 18.238 56.8274 19.1902C56.8274 20.2156 56.1683 20.7283 55.1428 20.7283C52.7258 20.7283 50.3088 20.7283 47.8185 20.7283C46.7198 20.7283 46.2803 21.0213 46.3536 22.12C46.3536 24.3173 46.3536 26.4413 46.3536 28.6386C46.3536 29.957 46.0606 31.1289 44.4493 31.1289C42.9111 31.1289 42.6914 29.957 42.6914 28.7119C42.6914 25.5624 42.6914 22.4129 42.6914 19.3367C42.6914 19.3367 42.6914 19.3367 42.7647 19.3367L42.9844 19.4099Z" fill="black"/>
<path id="Vector_6" d="M134.539 7.25127C133.514 7.03154 131.829 7.91046 131.097 6.73856C130.365 5.49341 131.976 4.46799 132.489 3.29609C132.855 2.56366 133.368 1.83122 133.807 1.09878C134.466 0.0733682 135.125 0.146612 135.711 1.09878C136.59 2.56366 137.469 4.02855 138.348 5.42018C139.154 6.73857 138.568 7.178 137.249 7.178C136.37 7.178 135.565 7.178 134.539 7.178V7.25127ZM134.832 5.56663C135.199 5.3469 136.151 5.93286 135.931 4.98069C135.785 4.3215 135.418 3.22285 134.686 3.29609C134.027 3.29609 133.514 4.39475 133.514 5.12719C133.514 5.85962 134.393 5.42014 134.832 5.56663Z" fill="black"/>
<path id="Vector_7" d="M139.3 3.80866C139.3 3.00298 139.3 2.27054 139.3 1.46486C139.3 0.878905 139.593 0.512695 140.179 0.512695C140.691 0.512695 141.058 0.878905 141.058 1.46486C141.058 3.00297 141.058 4.54111 141.058 6.15247C141.058 6.66518 140.765 7.10463 140.179 7.10463C139.593 7.10463 139.3 6.73842 139.3 6.15247C139.3 5.34679 139.3 4.61435 139.3 3.80866Z" fill="black"/>
</g>
<defs>
<clipPath id="clip0_2232_535">
<rect width="140.115" height="31.9999" fill="white" transform="translate(0.942383 0.000488281)"/>
</clipPath>
</defs>
</svg>
