<svg width="180" height="24" viewBox="0 0 180 24" fill="none" xmlns="http://www.w3.org/2000/svg">
<g id="Lootmogul" clip-path="url(#clip0_2232_548)">
<path id="Vector" d="M4.49623 20.2857C4.69176 20.2857 4.83841 20.2857 4.98506 20.2857C6.91598 20.2857 8.84689 20.2857 10.8022 20.2857C11.0467 20.2857 11.34 20.1635 11.5355 19.9924C12.8065 18.8436 14.053 17.6704 15.324 16.4972C15.4462 16.375 15.5684 16.2772 15.7395 16.155C16.3017 16.6683 16.815 17.1571 17.3771 17.6948C16.6194 18.4037 15.8617 19.1125 15.104 19.8213C14.0775 20.7745 13.0509 21.7522 11.9999 22.681C11.8044 22.8765 11.4622 22.9988 11.1933 22.9988C7.94254 22.9988 4.69176 22.9988 1.44099 23.0232C0.634402 23.0232 0.145566 22.5588 0.438869 21.6545C2.56532 14.9329 4.64288 8.18693 6.696 1.4654C6.81821 1.07433 6.9893 0.976562 7.38037 0.976562C14.8107 0.976562 22.2411 0.976562 29.6959 0.976562C30.6002 0.976562 30.9179 1.17211 31.1379 1.90537C33.3377 8.77355 35.5375 15.6662 37.7372 22.5344C37.7861 22.6566 37.8106 22.8032 37.8595 22.9499C37.6884 22.9499 37.5662 22.9499 37.4439 22.9499C34.0954 22.9499 30.7469 22.9499 27.3983 22.9988C26.885 22.9988 26.5184 22.8521 26.1273 22.4855C24.4653 20.8723 22.8032 19.308 21.0679 17.6704C21.6789 17.1082 22.2655 16.5461 22.8766 15.9839C24.4897 17.4993 26.054 18.9658 27.6427 20.4568C27.7894 20.579 27.9849 20.7012 28.156 20.7012C30.1358 20.7012 32.1156 20.7012 34.0954 20.7012C34.1443 20.7012 34.1932 20.7012 34.2909 20.6523C34.2665 20.4812 34.2421 20.3346 34.1932 20.1879C32.4578 14.7863 30.7224 9.40903 29.0115 4.00737C28.8893 3.64074 28.7182 3.51853 28.3271 3.51853C22.2655 3.51853 16.1795 3.51853 10.1179 3.51853C9.80012 3.51853 9.62903 3.56741 9.50682 3.90959C7.86921 9.23793 6.20716 14.5418 4.56955 19.8702C4.54511 19.968 4.52067 20.0657 4.49623 20.2368V20.2857Z" fill="black"/>
<path id="Vector_2" d="M19.2105 15.9839C17.9395 14.7863 16.693 13.6131 15.4464 12.4643C14.6399 11.7066 13.8577 10.9489 13.0511 10.2157C12.6601 9.84902 12.5623 9.87346 12.3912 10.3623C11.6091 12.4399 10.8514 14.5419 10.0937 16.6194C9.97145 16.9616 9.80036 17.1083 9.43373 17.0838C8.84712 17.0594 8.26052 17.0838 7.60059 17.0838C7.7228 16.7416 7.79612 16.4483 7.91833 16.1795C9.01821 13.0754 10.1425 9.97122 11.2669 6.84266C11.5846 5.96275 12.049 5.865 12.7334 6.50049C14.8354 8.48029 16.9374 10.4356 19.015 12.4154C19.1372 12.5132 19.2349 12.611 19.3816 12.7576C20.1882 12.0244 20.9703 11.2911 21.7525 10.5823C23.1456 9.28686 24.5388 7.99143 25.932 6.69601C26.592 6.08496 27.4719 6.30495 27.7407 7.16041C28.7673 10.3867 29.7694 13.6375 30.796 16.8638C30.796 16.9127 30.796 16.9616 30.8204 17.1083C30.3805 17.1083 29.9405 17.1083 29.5006 17.1083C29.2806 17.1083 29.0606 17.1083 28.8406 17.1083C28.4984 17.1571 28.3518 16.9861 28.254 16.6683C27.643 14.6885 27.0075 12.7332 26.372 10.7534C26.3231 10.6312 26.2742 10.4845 26.2253 10.3623C26.0542 9.92234 25.8831 9.84904 25.5165 10.1668C24.9299 10.6801 24.3677 11.2178 23.8056 11.731C22.2902 13.1487 20.7748 14.5419 19.2105 15.9839Z" fill="black"/>
<path id="Vector_3" d="M111.259 16.9863C111.381 16.7174 111.479 16.5463 111.576 16.3752C112.774 13.7599 113.972 11.1446 115.169 8.52936C115.707 7.35615 116.709 6.84286 117.956 7.08728C119.056 7.30726 119.838 8.23607 119.838 9.45816C119.862 12.5134 119.838 15.5931 119.838 18.6483C119.838 18.7216 119.838 18.795 119.813 18.9172H118.151C118.151 18.7216 118.127 18.5261 118.127 18.3306C118.127 15.5197 118.127 12.7334 118.127 9.92257C118.127 9.75147 118.127 9.58036 118.127 9.40926C118.102 9.04263 117.858 8.74934 117.516 8.77378C117.271 8.77378 116.954 8.94487 116.807 9.16484C116.563 9.53147 116.416 9.97143 116.22 10.3625C115.121 12.7578 114.021 15.1776 112.921 17.5729C112.799 17.8417 112.652 18.0861 112.481 18.3306C111.87 19.2105 110.648 19.2349 110.086 18.3306C109.621 17.5973 109.279 16.8152 108.912 16.033C107.886 13.8333 106.908 11.6335 105.882 9.40926C105.637 8.89598 105.344 8.67601 105.002 8.77378C104.611 8.87155 104.415 9.18929 104.415 9.75146C104.415 12.6112 104.415 15.4709 104.415 18.3306C104.415 18.5261 104.415 18.6972 104.415 18.9172H102.729C102.729 18.7705 102.729 18.5994 102.729 18.4528C102.729 15.5686 102.729 12.7089 102.729 9.82479C102.729 9.43372 102.777 9.04263 102.875 8.67601C103.168 7.69833 104.024 7.0873 105.075 7.01397C106.053 6.94065 106.957 7.47836 107.397 8.40715C108.619 11.0713 109.841 13.7355 111.063 16.4241C111.137 16.5708 111.21 16.7174 111.332 16.9618L111.259 16.9863Z" fill="black"/>
<path id="Vector_4" d="M144.377 14.4198V12.7822H150.854C150.854 12.9288 150.879 13.0755 150.879 13.2221C150.879 14.4198 150.879 15.593 150.879 16.7907C150.879 18.1594 149.974 19.0393 148.606 19.0393C146.479 19.0393 144.328 19.0393 142.202 19.0393C139.758 19.0393 137.802 17.1328 137.778 14.6642C137.778 13.5643 137.778 12.4644 137.778 11.3645C137.802 8.99367 139.66 7.08721 142.031 7.03833C144.597 6.98944 147.164 7.03833 149.73 7.03833C149.828 7.03833 149.95 7.03832 150.072 7.0872V8.74926C149.877 8.74926 149.681 8.74926 149.51 8.74926C147.115 8.74926 144.744 8.74926 142.348 8.74926C140.735 8.74926 139.587 9.67807 139.464 11.2668C139.367 12.5133 139.391 13.8088 139.513 15.0553C139.611 16.3018 140.809 17.3039 142.055 17.3039C144.108 17.3039 146.161 17.3039 148.239 17.3039C148.85 17.3039 149.143 17.0106 149.168 16.3996C149.168 15.8863 149.168 15.3486 149.168 14.8353C149.168 14.5176 149.046 14.3953 148.728 14.4198C147.432 14.4198 146.161 14.4198 144.866 14.4198C144.695 14.4198 144.524 14.4198 144.304 14.4198H144.377Z" fill="black"/>
<path id="Vector_5" d="M128.808 19.0149C127.806 19.0149 126.828 19.0637 125.826 19.0149C123.846 18.8682 122.16 17.2795 121.964 15.2508C121.817 13.8087 121.817 12.2933 121.964 10.8513C122.184 8.77369 123.773 7.2583 125.85 7.13609C127.83 7.01388 129.81 7.01388 131.79 7.13609C133.892 7.28274 135.48 8.87146 135.676 10.9735C135.798 12.4644 135.774 14.0043 135.603 15.4952C135.383 17.475 133.452 19.0393 131.447 19.0393C130.568 19.0393 129.688 19.0393 128.808 19.0393V19.0149ZM128.808 17.3284C129.639 17.3284 130.47 17.3284 131.325 17.3284C132.816 17.3284 134.014 16.1307 134.014 14.6642C134.014 13.5887 134.014 12.5133 134.014 11.4134C134.014 10.0202 132.841 8.79813 131.447 8.77369C129.712 8.74925 127.977 8.74925 126.241 8.77369C124.848 8.77369 123.699 9.92246 123.65 11.3157C123.602 12.4889 123.602 13.6621 123.65 14.8353C123.699 16.204 124.873 17.3284 126.266 17.3284C127.121 17.3284 127.977 17.3284 128.808 17.3284Z" fill="black"/>
<path id="Vector_6" d="M78.6285 18.9659C77.553 18.9659 76.4776 19.0637 75.4266 18.9659C73.349 18.7215 71.7603 16.815 71.7358 14.7374C71.7358 13.7109 71.7358 12.6599 71.7358 11.6333C71.7358 9.16467 73.3246 7.28265 75.7932 7.11155C77.7241 6.98934 79.7039 7.01379 81.6348 7.11155C83.7124 7.2582 85.3255 8.84693 85.4966 10.9001C85.6189 12.4155 85.5944 13.9553 85.4233 15.4707C85.2033 17.426 83.2724 18.9903 81.2926 18.9903C80.3883 18.9903 79.5084 18.9903 78.604 18.9903C78.604 18.9903 78.604 18.9659 78.604 18.9414L78.6285 18.9659ZM78.6529 17.3038C79.5084 17.3038 80.3883 17.3038 81.2437 17.3038C82.6125 17.3038 83.8102 16.0817 83.8102 14.713C83.8102 13.6131 83.8102 12.5132 83.8102 11.4133C83.8102 9.97125 82.6369 8.74916 81.1704 8.72471C79.4839 8.72471 77.7974 8.72471 76.1109 8.72471C74.62 8.72471 73.4468 9.9468 73.4468 11.4378C73.4468 12.5132 73.4468 13.5642 73.4468 14.6396C73.4468 16.1306 74.6444 17.3038 76.1354 17.3038C76.9664 17.3038 77.7974 17.3038 78.6529 17.3038Z" fill="black"/>
<path id="Vector_7" d="M62.7658 19.0149C61.8614 19.0149 60.9815 19.0149 60.0771 19.0149C58.0974 19.0149 56.142 17.3773 55.9465 15.4219C55.7998 13.9554 55.7754 12.4889 55.8976 11.0224C56.0931 8.77371 57.7307 7.18497 59.9549 7.06276C61.9347 6.96499 63.9145 6.98945 65.8943 7.11166C67.8252 7.23387 69.5606 9.11589 69.6095 11.0712C69.6584 12.3667 69.6584 13.6621 69.6095 14.9575C69.5362 17.1573 67.5808 19.0149 65.3811 19.0149C64.5011 19.0149 63.6212 19.0149 62.7413 19.0149H62.7658ZM62.7902 17.3039C63.6457 17.3039 64.5011 17.3039 65.3322 17.3039C66.6031 17.3039 67.8008 16.3018 67.8986 15.0308C67.9963 13.711 67.9963 12.3667 67.8986 11.0468C67.8008 9.75139 66.6031 8.74927 65.3077 8.72482C63.6212 8.72482 61.9347 8.72482 60.2482 8.72482C58.7817 8.72482 57.5841 9.92248 57.5596 11.389C57.5596 12.4889 57.5596 13.5888 57.5596 14.6887C57.5596 16.1063 58.8062 17.3039 60.2238 17.3039C61.0793 17.3039 61.9347 17.3039 62.7658 17.3039H62.7902Z" fill="black"/>
<path id="Vector_8" d="M164.689 7.0625H166.399C166.399 7.23359 166.399 7.38025 166.399 7.5269C166.399 9.89777 166.399 12.2686 166.399 14.6151C166.399 17.0593 164.469 18.9902 162 18.9902C160.484 18.9902 158.969 18.9902 157.454 18.9902C154.985 18.9902 153.054 17.2059 152.981 14.7373C152.908 12.2442 152.981 9.72669 152.981 7.23361C152.981 7.18473 152.981 7.13583 153.005 7.0625H154.692V7.60024C154.692 9.8489 154.741 12.122 154.692 14.3706C154.643 16.106 156.012 17.4014 157.649 17.3281C159.067 17.2548 160.509 17.3281 161.927 17.3281C163.54 17.3281 164.689 16.1793 164.689 14.5417C164.689 12.2442 164.689 9.92222 164.689 7.62468V7.0625Z" fill="black"/>
<path id="Vector_9" d="M93.2691 18.9902V18.3791C93.2691 15.3728 93.2691 12.342 93.2691 9.33561C93.2691 8.749 93.2691 8.749 92.658 8.749C90.996 8.749 89.3584 8.749 87.6475 8.749V7.08694C87.7941 7.08694 87.9652 7.0625 88.1363 7.0625C92.1203 7.0625 96.1288 7.0625 100.113 7.0625C100.577 7.0625 100.699 7.20916 100.675 7.64911C100.651 8.01574 100.675 8.38236 100.675 8.77343C98.9885 8.77343 97.3754 8.77343 95.7866 8.77343C94.8823 8.77343 94.98 8.6268 94.98 9.58003C94.98 12.5131 94.98 15.4461 94.98 18.4036V19.039H93.2935L93.2691 18.9902Z" fill="black"/>
<path id="Vector_10" d="M44.2876 7.03809V7.60026C44.2876 9.8978 44.2876 12.1953 44.2876 14.5173C44.2876 16.1549 45.4608 17.3281 47.0984 17.3281C49.1515 17.3281 51.2046 17.3281 53.2822 17.3281C53.4533 17.3281 53.6244 17.3281 53.8199 17.3281V19.0391C53.4044 19.0391 53.0378 19.0391 52.6712 19.0391C50.7891 19.0391 48.9315 19.0391 47.0495 19.0391C44.5564 19.0391 42.6011 17.0837 42.6011 14.6151C42.6011 12.2687 42.6011 9.92222 42.6011 7.5758C42.6011 7.16028 42.6988 7.01364 43.1144 7.06252C43.5054 7.08696 43.8721 7.06252 44.312 7.06252L44.2876 7.03809Z" fill="black"/>
<path id="Vector_11" d="M168.477 7.08694H170.115C170.115 7.28247 170.139 7.45358 170.139 7.62468C170.139 9.87333 170.164 12.1464 170.139 14.3951C170.115 16.2038 171.581 17.377 173.072 17.3281C175.247 17.2548 177.447 17.3281 179.647 17.3281V19.039H179.158C177.105 19.039 175.027 19.0146 172.974 19.039C170.384 19.0879 168.355 16.8637 168.453 14.5173C168.526 12.2197 168.453 9.94665 168.453 7.64911V7.0625L168.477 7.08694Z" fill="black"/>
</g>
<defs>
<clipPath id="clip0_2232_548">
<rect width="179.294" height="22.0466" fill="white" transform="translate(0.353027 0.976562)"/>
</clipPath>
</defs>
</svg>
