<svg width="98" height="40" viewBox="0 0 98 40" fill="none" xmlns="http://www.w3.org/2000/svg">
<g id="Sogni" clip-path="url(#clip0_2232_397)">
<path id="Vector" d="M4.925 26.7474C6.2575 27.3199 7.75 27.5999 9.4125 27.5999C11.17 27.5999 12.69 27.2674 13.97 26.6049C15.2775 25.9174 16.2625 25.0199 16.925 23.9024C17.615 22.7924 17.955 21.6049 17.955 20.3524C17.955 18.7924 17.5875 17.5474 16.8475 16.6224C16.1325 15.6724 15.2575 14.9799 14.215 14.5299C13.1925 14.0799 11.865 13.6324 10.225 13.1824C8.99 12.8474 8.0175 12.5399 7.3025 12.2574C6.5875 11.9749 5.995 11.5974 5.52 11.1224C5.07 10.6274 4.845 9.99994 4.845 9.24244C4.845 8.13244 5.2125 7.27744 5.945 6.68744C6.68 6.09744 7.6325 5.80244 8.7975 5.80244C10.0775 5.80244 11.115 6.12244 11.895 6.75994C12.68 7.40244 13.105 8.16494 13.175 9.06994H17.6625C17.495 6.98494 16.64 5.35244 15.1 4.16494C13.58 2.95744 11.625 2.35494 9.2225 2.35494C7.535 2.35494 6.055 2.63744 4.7675 3.20744C3.4875 3.77994 2.49 4.59494 1.775 5.65994C1.0575 6.72744 0.7025 7.97244 0.7025 9.38994C0.7025 10.9299 1.0575 12.1624 1.77 13.0799C2.485 14.0049 3.34 14.6899 4.3325 15.1399C5.355 15.5624 6.67 15.9949 8.285 16.4174C9.565 16.7524 10.5625 17.0599 11.2775 17.3424C12.0125 17.6249 12.6175 18.0299 13.0925 18.5499C13.5875 19.0699 13.84 19.7449 13.84 20.5724C13.84 21.6374 13.4475 22.5099 12.6625 23.1974C11.8775 23.8574 10.79 24.1924 9.385 24.1924C7.98 24.1924 6.9775 23.8524 6.2175 23.1649C5.4825 22.4774 5.065 21.6049 4.9675 20.5399H0.625C0.625 21.9574 1.005 23.2049 1.765 24.2699C2.525 25.3349 3.5675 26.1624 4.9 26.7549L4.925 26.7474ZM26.245 26.4274C27.7375 27.2549 29.4125 27.6724 31.265 27.6724C33.1175 27.6724 34.85 27.2549 36.395 26.4274C37.965 25.5724 39.195 24.3799 40.1025 22.8399C41.0025 21.2999 41.455 19.5349 41.455 17.5499C41.455 15.5649 41.0175 13.7949 40.135 12.2599C39.2525 10.7249 38.055 9.53744 36.5375 8.70994C35.0175 7.88244 33.32 7.46494 31.445 7.46494C29.57 7.46494 27.8725 7.88244 26.3525 8.70994C24.8325 9.53744 23.635 10.7249 22.755 12.2599C21.8725 13.7999 21.435 15.5649 21.435 17.5499C21.435 19.5349 21.86 21.3374 22.715 22.8774C23.57 24.3924 24.7425 25.5799 26.2425 26.4274H26.245ZM34.1875 23.4099C33.285 23.9049 32.315 24.1549 31.265 24.1549C29.63 24.1549 28.2575 23.5824 27.17 22.4474C26.1025 21.2849 25.5675 19.6549 25.5675 17.5424C25.5675 16.1249 25.8325 14.9224 26.3525 13.9549C26.8725 12.9599 27.575 12.2149 28.45 11.7149C29.3525 11.2199 30.3225 10.9699 31.3725 10.9699C32.4225 10.9699 33.3925 11.2199 34.295 11.7149C35.195 12.2099 35.9225 12.9599 36.47 13.9549C37.0175 14.9249 37.2875 16.1249 37.2875 17.5424C37.2875 18.9599 37.005 20.1674 36.4325 21.1624C35.86 22.1574 35.1125 22.9024 34.185 23.4024V23.4099H34.1875ZM57.4 8.38244C56.235 7.76744 54.895 7.45744 53.3775 7.45744C51.665 7.45744 50.1 7.87994 48.6775 8.73494C47.275 9.56244 46.16 10.7374 45.33 12.2524C44.525 13.7674 44.12 15.5074 44.12 17.4724C44.12 19.4374 44.525 21.2024 45.33 22.7624C46.16 24.3024 47.275 25.5099 48.6775 26.3824C50.1 27.2374 51.67 27.6599 53.3775 27.6599C54.87 27.6599 56.2025 27.3524 57.3675 26.7349C58.5525 26.0924 59.4925 25.3174 60.18 24.3924V27.6599C60.18 29.5524 59.6725 30.9974 58.6475 31.9924C57.65 32.9874 56.33 33.4824 54.695 33.4824C53.2925 33.4824 52.0825 33.1624 51.065 32.5249C50.0675 31.9099 49.4175 31.0949 49.1075 30.0724H45.085C45.3225 32.2049 46.32 33.8849 48.0775 35.1174C49.835 36.3749 52.0425 36.9974 54.7025 36.9974C56.6975 36.9974 58.405 36.5924 59.8325 35.7899C61.28 34.9874 62.3875 33.8699 63.1475 32.4524C63.9075 31.0524 64.2875 29.4549 64.2875 27.6574V7.76744H60.1925V10.6099C59.53 9.71244 58.6025 8.96744 57.4125 8.36994L57.4 8.38244ZM59.325 14.0324C59.8975 15.0274 60.18 16.2024 60.18 17.5499C60.18 18.8974 59.8975 20.0849 59.325 21.0999C58.7775 22.0949 58.0575 22.8524 57.15 23.3724C56.2475 23.8924 55.2775 24.1549 54.2275 24.1549C53.1775 24.1549 52.2325 23.8924 51.305 23.3724C50.405 22.8274 49.6625 22.0424 49.0975 21.0299C48.55 20.0099 48.28 18.8274 48.28 17.4799C48.28 16.1324 48.55 14.9699 49.0975 13.9999C49.67 13.0049 50.405 12.2599 51.305 11.7599C52.205 11.2399 53.1775 10.9774 54.2275 10.9774C55.2775 10.9774 56.2475 11.2399 57.15 11.7599C58.05 12.2799 58.7775 13.0374 59.325 14.0324ZM83.645 8.42244C82.435 7.77994 81.0575 7.46494 79.5125 7.46494C78.3475 7.46494 77.2475 7.68994 76.1975 8.13994C75.175 8.58994 74.33 9.21744 73.6675 10.0199V7.77994H69.605V27.3524H73.6675V16.4149C73.6675 14.6624 74.105 13.3274 74.9875 12.4024C75.89 11.4524 77.1 10.9849 78.6175 10.9849C80.135 10.9849 81.335 11.4599 82.215 12.4024C83.09 13.3274 83.535 14.6624 83.535 16.4149V27.3524H87.5575V15.8099C87.5575 14.0324 87.215 12.5174 86.5275 11.2649C85.8375 10.0074 84.88 9.06244 83.6425 8.42244H83.645ZM92.96 4.44244C93.455 4.93744 94.0725 5.18744 94.815 5.18744C95.5575 5.18744 96.135 4.93744 96.63 4.44244C97.125 3.94744 97.3775 3.33244 97.3775 2.59494C97.3775 1.85744 97.1275 1.24744 96.63 0.747441C96.135 0.252441 95.5225 0.00244141 94.815 0.00244141C94.1075 0.00244141 93.4625 0.252441 92.96 0.747441C92.465 1.24244 92.2125 1.85744 92.2125 2.59494C92.2125 3.33244 92.4625 3.94244 92.96 4.44244ZM96.8025 27.3524V7.77994H92.74V27.3524H96.8025Z" fill="black"/>
</g>
<defs>
<clipPath id="clip0_2232_397">
<rect width="96.75" height="40" fill="white" transform="translate(0.625)"/>
</clipPath>
</defs>
</svg>
