<svg width="120" height="52" viewBox="0 0 120 52" fill="none" xmlns="http://www.w3.org/2000/svg">
<g id="Yom" clip-path="url(#clip0_2232_505)">
<path id="Vector" d="M44.4476 0.542185C42.5305 -0.565057 40.0784 0.0924157 38.9727 2.00954L30.6646 16.3992C28.6982 19.8046 25.0657 21.9025 21.1328 21.9025H4.9067C2.63395 21.9025 0.790039 23.7449 0.790039 26.0192C0.790039 28.3846 2.70717 30.3017 5.07257 30.3017H21.1343C25.0657 30.3017 28.6997 32.3997 30.6661 35.8051L38.6962 49.7136C39.9559 51.8952 42.7457 52.6423 44.9273 51.3826C46.7622 50.3232 47.3913 47.9757 46.3319 46.1408L37.9387 31.6032C35.9722 28.1978 35.9722 24.0035 37.9387 20.598L46.0539 6.54011C47.2673 4.44069 46.547 1.75552 44.4476 0.542185Z" fill="black"/>
<path id="Vector_2" d="M73.5756 19.9487C73.737 19.9487 73.8759 20.01 73.9985 20.1325C74.121 20.258 74.1823 20.4075 74.1823 20.5853C74.1823 20.7541 74.1329 20.8946 74.0328 21.0052L69.952 26.1618V31.2318C69.952 31.4575 69.8848 31.6293 69.7578 31.7548C69.6293 31.8774 69.4634 31.9386 69.2632 31.9386C69.063 31.9386 68.8956 31.8774 68.7686 31.7548C68.6401 31.6293 68.5743 31.4575 68.5743 31.2318V26.1454L64.4935 21.0052C64.383 20.8826 64.3262 20.7437 64.3262 20.5853C64.3262 20.4075 64.3934 20.2565 64.5204 20.1325C64.6489 20.01 64.7984 19.9487 64.9657 19.9487C65.1555 19.9487 65.3154 20.0324 65.4543 20.1983L69.2796 25.086L73.093 20.1983C73.2259 20.0324 73.3873 19.9487 73.5756 19.9487Z" fill="black"/>
<path id="Vector_3" d="M87.2095 31.2511C86.3981 30.7565 85.775 30.0587 85.3357 29.1502C84.9023 28.2447 84.6797 27.1763 84.6797 25.942C84.6797 24.6988 84.8964 23.6229 85.3297 22.7114C85.757 21.7969 86.3801 21.0991 87.1915 20.6105C88.0029 20.1234 88.9652 19.8828 90.071 19.8828C91.1767 19.8828 92.139 20.1249 92.9504 20.6105C93.7618 21.0991 94.3849 21.7969 94.8122 22.7114C95.2455 23.6229 95.4622 24.6928 95.4622 25.9256C95.4622 27.1598 95.2396 28.2297 94.8062 29.1412C94.3669 30.0557 93.7438 30.7565 92.9325 31.2511C92.1211 31.7427 91.1647 31.9878 90.0695 31.9878C88.9772 31.9878 88.0208 31.7442 87.2095 31.2511ZM93.0027 29.5446C93.7035 28.6989 94.0531 27.493 94.0531 25.9256C94.0531 24.3611 93.7035 23.1567 93.0087 22.317C92.3198 21.4772 91.3351 21.0543 90.0725 21.0543C88.8158 21.0543 87.843 21.4802 87.1422 22.3244C86.4414 23.1702 86.0918 24.3701 86.0918 25.9241C86.0918 27.4811 86.4414 28.684 87.1422 29.5357C87.843 30.3859 88.8158 30.8118 90.0725 30.8118C91.3231 30.8118 92.3019 30.3904 93.0027 29.5446Z" fill="black"/>
<path id="Vector_4" d="M119.033 20.1234C119.149 20.2534 119.21 20.4237 119.21 20.6344V31.2675C119.21 31.4678 119.149 31.6291 119.039 31.7547C118.928 31.8772 118.771 31.9384 118.571 31.9384C118.371 31.9384 118.215 31.8772 118.115 31.7547C118.015 31.6291 117.966 31.4678 117.966 31.2675V22.683L114.324 29.6717C114.163 29.9944 113.936 30.1588 113.635 30.1588C113.341 30.1588 113.112 29.9944 112.946 29.6717L109.283 22.7697V31.2675C109.283 31.4678 109.233 31.6291 109.127 31.7547C109.017 31.8772 108.866 31.9384 108.665 31.9384C108.459 31.9384 108.304 31.8772 108.193 31.7547C108.083 31.6291 108.026 31.4678 108.026 31.2675V20.6359C108.026 20.4252 108.087 20.2549 108.21 20.1249C108.332 19.9964 108.498 19.9336 108.716 19.9336C108.994 19.9336 109.217 20.095 109.383 20.4207L113.653 28.5988L117.867 20.4207C117.957 20.2429 118.057 20.1144 118.161 20.0427C118.267 19.971 118.394 19.9336 118.539 19.9336C118.749 19.9321 118.916 19.9964 119.033 20.1234Z" fill="black"/>
</g>
<defs>
<clipPath id="clip0_2232_505">
<rect width="118.644" height="52" fill="white" transform="translate(0.678223)"/>
</clipPath>
</defs>
</svg>
