<svg width="126" height="28" viewBox="0 0 126 28" fill="none" xmlns="http://www.w3.org/2000/svg">
<g id="privy">
<path id="Vector" fill-rule="evenodd" clip-rule="evenodd" d="M92.008 14.8742H91.631L86.7267 0.652344H80.9824V1.24034L87.9006 21.101H95.5295L102.45 1.24034V0.652344H96.9553L92.0058 14.8742H92.008Z" fill="black"/>
<path id="Vector_2" d="M79.4532 0.652344H73.7412V21.0988H79.4532V0.652344Z" fill="black"/>
<path id="Vector_3" fill-rule="evenodd" clip-rule="evenodd" d="M119.418 0.650591H119.422L114.472 14.8768H114.095L109.191 0.652745H103.447V1.24505L110.962 22.8223H103.845V27.5586H110.8C113.77 27.5586 116.083 26.5571 117.206 23.3608C117.356 22.9343 124.912 1.24075 124.912 1.24075V0.648438H119.418V0.650591Z" fill="black"/>
<path id="Vector_4" fill-rule="evenodd" clip-rule="evenodd" d="M44.632 0.097168C42.0344 0.097168 39.607 1.41963 38.0929 3.90516H37.7418V0.674399H32.2969V27.5522H38.0821V18.4975H38.4375C38.4763 18.5513 38.515 18.6073 38.5538 18.6525C39.5295 19.8393 41.8083 21.6485 44.6427 21.6485C49.8012 21.6485 53.3292 17.1901 53.3292 10.875C53.3292 4.55993 49.6267 0.097168 44.632 0.097168ZM42.9046 17.2159C40.2123 17.2159 38.3535 15.1181 38.3535 10.8772C38.3535 6.63624 40.2123 4.53839 42.9046 4.53839C45.5969 4.53839 47.5461 6.68147 47.5461 10.8772C47.5461 15.0729 45.6421 17.2159 42.9046 17.2159Z" fill="black"/>
<path id="Vector_5" fill-rule="evenodd" clip-rule="evenodd" d="M67.678 0.650391C64.9965 0.650391 63.2756 1.09839 62.2697 3.90485H61.9251V0.652544H53.6436V5.34793H55.4916C56.1011 5.34793 56.4005 5.56331 56.478 6.063V9.96577H56.4996V21.1012H62.2848V10.2544C62.2848 7.44577 63.0472 5.72485 65.8559 5.72485H71.9168V0.650391H67.6802H67.678Z" fill="black"/>
<path id="Vector_6" d="M11.8566 21.642C17.8034 21.642 22.6259 16.8195 22.6259 10.8728C22.6259 4.92598 17.8034 0.103516 11.8566 0.103516C5.90985 0.103516 1.0874 4.92598 1.0874 10.8728C1.0874 16.8195 5.90985 21.642 11.8566 21.642Z" fill="black"/>
<path id="Vector_7" d="M11.8568 27.9031C15.9211 27.9031 19.2165 27.2095 19.2165 26.3588C19.2165 25.508 15.9232 24.8145 11.8568 24.8145C7.7903 24.8145 4.49707 25.508 4.49707 26.3588C4.49707 27.2095 7.7903 27.9031 11.8568 27.9031Z" fill="black"/>
</g>
</svg>
