<svg width="144" height="40" viewBox="0 0 144 40" fill="none" xmlns="http://www.w3.org/2000/svg">
<g id="Calque_1" clip-path="url(#clip0_2533_2020)">
<g id="Group">
<path id="Vector" d="M29.4301 39.9998L26.9883 37.0665L30.0105 32.9985L30.4183 39.6809L29.4301 39.9998Z" fill="#BFBFBF"/>
<path id="Vector_2" d="M4.85515 33.2024L0.39502 28.7423V6.96973L4.85515 10.9802V33.2024Z" fill="#777777"/>
<path id="Vector_3" d="M7.58456 0L0.39502 6.96993L4.85515 10.9804L11.4748 3.66013L7.58456 0Z" fill="#9A9A9A"/>
<path id="Vector_4" d="M29.9531 3.66013L26.293 0H7.58447L11.4747 3.8902L26.9884 5.40131L29.9531 3.66013Z" fill="#777777"/>
<path id="Vector_5" d="M37.1845 18.0389L33.378 13.9448H16.8237L21.0172 18.0389H37.1845Z" fill="#777777"/>
<path id="Vector_6" d="M16.8237 13.9448V21.4952L21.0172 25.7932V18.0389L16.8237 13.9448Z" fill="#9A9A9A"/>
<path id="Vector_7" d="M28.0344 28.2351L23.6318 23.8325L20.5991 27.5397L24.8553 32.4495L28.0344 28.2351Z" fill="#BFBFBF"/>
<path id="Vector_8" d="M14.3296 27.5396H20.5989L24.8551 31.4141H14.3296V27.5396Z" fill="#777777"/>
<path id="Vector_9" d="M25.5923 25.7935L28.6302 28.8314V25.417L25.5923 25.7935Z" fill="black"/>
<path id="Vector_10" d="M29.3413 16.6432L36.1386 9.84578L29.953 3.66016H11.4746L4.85498 10.9804V33.2026L11.6524 40H25.5922L29.4301 35.9896V40H37.1844V18.0392H21.0171V25.7935H28.0341V28.2353L24.855 31.4144H16.2694L14.3295 29.4798V14.8131L16.6929 12.4497H25.5086L29.3413 16.6432Z" fill="black"/>
</g>
<g id="Group_2">
<path id="Vector_11" d="M81.9115 15.9893H78.9468V33.4638H81.9115V15.9893Z" fill="black"/>
<path id="Vector_12" d="M90.5176 33.4691V30.5044H81.911V33.4691H90.5176Z" fill="black"/>
</g>
<g id="Group_3">
<path id="Vector_13" d="M98.6434 15.9893H95.6787V33.4638H98.6434V15.9893Z" fill="black"/>
<path id="Vector_14" d="M107.25 33.4691V30.5044H98.6435V33.4691H107.25Z" fill="black"/>
<path id="Vector_15" d="M107.25 18.9593V15.9946H98.6435V18.9593H107.25Z" fill="black"/>
<path id="Vector_16" d="M104.635 26.7137V23.749H98.6431V26.7137H104.635Z" fill="black"/>
</g>
<g id="Group_4">
<path id="Vector_17" d="M131.757 15.9893H128.792V33.4638H131.757V15.9893Z" fill="black"/>
<path id="Vector_18" d="M134.722 19.5767H131.757V22.5414H134.722V19.5767Z" fill="black"/>
<path id="Vector_19" d="M137.681 22.541H134.717V25.5057H137.681V22.541Z" fill="black"/>
<path id="Vector_20" d="M140.646 25.5059H137.681V28.4706H140.646V25.5059Z" fill="black"/>
<path id="Vector_21" d="M143.611 15.9893H140.646V33.4638H143.611V15.9893Z" fill="black"/>
</g>
<g id="Group_5">
<path id="Vector_22" d="M115.082 18.9546H112.118V30.4997H115.082V18.9546Z" fill="black"/>
<path id="Vector_23" d="M124.181 18.9546H121.216V30.4997H124.181V18.9546Z" fill="black"/>
<path id="Vector_24" d="M121.216 18.9593V15.9946H115.051V18.9593H121.216Z" fill="black"/>
<path id="Vector_25" d="M121.216 33.4691V30.5044H115.051V33.4691H121.216Z" fill="black"/>
</g>
<g id="Group_6">
<path id="Vector_26" d="M65.4979 18.9546H62.5332V33.4644H65.4979V18.9546Z" fill="black"/>
<path id="Vector_27" d="M74.5912 18.9546H71.6265V33.4644H74.5912V18.9546Z" fill="black"/>
<path id="Vector_28" d="M71.6265 18.954V15.9893H65.4618V18.954H71.6265Z" fill="black"/>
<path id="Vector_29" d="M71.6313 26.7084V23.7437H65.4666V26.7084H71.6313Z" fill="black"/>
</g>
<g id="Group_7">
<path id="Vector_30" d="M48.7762 19.4355H45.8115V30.5048H48.7762V19.4355Z" fill="black"/>
<path id="Vector_31" d="M57.8378 19.4355H54.873V22.4003H57.8378V19.4355Z" fill="black"/>
<path id="Vector_32" d="M57.8378 25.229H54.873V30.4996H57.8378V25.229Z" fill="black"/>
<path id="Vector_33" d="M54.8784 33.4691V30.5044H48.7137V33.4691H54.8784Z" fill="black"/>
<path id="Vector_34" d="M54.8784 18.9593V15.9946H48.7137V18.9593H54.8784Z" fill="black"/>
<path id="Vector_35" d="M54.873 28.1937V25.229H51.9083V28.1937H54.873Z" fill="black"/>
</g>
</g>
<defs>
<clipPath id="clip0_2533_2020">
<rect width="143.21" height="40" fill="white" transform="translate(0.39502)"/>
</clipPath>
</defs>
</svg>
