<svg width="186" height="40" viewBox="0 0 186 40" fill="none" xmlns="http://www.w3.org/2000/svg">
<g id="Glacis" clip-path="url(#clip0_2448_1986)">
<path id="Vector" d="M179.692 27.1998C177.729 27.1998 176.305 26.9153 175.422 26.3464C174.551 25.7657 174.115 24.9819 174.115 23.9947V23.8206H176.293V23.96C176.293 24.4593 176.555 24.86 177.078 25.1619C177.6 25.4638 178.472 25.6147 179.692 25.6147C180.981 25.6147 181.87 25.5044 182.359 25.2838C182.859 25.0515 183.108 24.7496 183.108 24.3779C183.108 24.0528 182.951 23.8147 182.637 23.6638C182.335 23.5012 181.952 23.3908 181.488 23.3328C181.023 23.2747 180.371 23.2283 179.535 23.1934C178.42 23.147 177.501 23.0715 176.782 22.967C176.072 22.8508 175.462 22.6187 174.951 22.2702C174.452 21.9102 174.202 21.3761 174.202 20.6676C174.202 19.8548 174.62 19.1987 175.457 18.6993C176.305 18.2 177.717 17.9502 179.692 17.9502C181.552 17.9502 182.923 18.2523 183.805 18.8561C184.688 19.46 185.147 20.2496 185.182 21.2251H183.02C182.951 20.0987 181.841 19.5355 179.692 19.5355C177.485 19.5355 176.38 19.9534 176.38 20.7896C176.38 21.08 176.526 21.3006 176.816 21.4515C177.118 21.5908 177.49 21.6838 177.932 21.7302C178.374 21.7768 178.995 21.8174 179.796 21.8521C180.959 21.8987 181.899 21.98 182.62 22.096C183.341 22.2006 183.962 22.4387 184.484 22.8102C185.008 23.1702 185.269 23.7219 185.269 24.4651C185.269 25.3128 184.845 25.9804 183.997 26.4683C183.16 26.956 181.725 27.1998 179.692 27.1998Z" fill="black"/>
<path id="Vector_2" d="M167.288 27.1999C166.034 27.1999 165.023 26.9618 164.256 26.4856C163.489 26.0095 162.967 25.3592 162.688 24.5347H162.427L162.757 26.9907H160.614V14.7974H162.757V17.4624C162.757 17.9851 162.728 18.4786 162.67 18.9431C162.624 19.4077 162.542 19.9709 162.427 20.6328H162.688C162.967 19.8083 163.489 19.1579 164.256 18.6818C165.034 18.1941 166.045 17.9503 167.288 17.9503C168.323 17.9503 169.223 18.1477 169.99 18.5424C170.757 18.9373 171.343 19.489 171.75 20.1973C172.168 20.8941 172.378 21.6896 172.378 22.5837C172.378 23.4779 172.168 24.2792 171.75 24.9875C171.343 25.6843 170.757 26.2301 169.99 26.625C169.223 27.0082 168.323 27.1999 167.288 27.1999ZM166.505 25.4754C167.677 25.4754 168.59 25.2082 169.24 24.6741C169.891 24.1282 170.217 23.4315 170.217 22.5837C170.217 21.736 169.891 21.045 169.24 20.5109C168.59 19.965 167.677 19.6922 166.505 19.6922C165.319 19.6922 164.402 19.965 163.752 20.5109C163.1 21.045 162.775 21.736 162.775 22.5837C162.775 23.4315 163.1 24.1282 163.752 24.6741C164.402 25.2082 165.319 25.4754 166.505 25.4754Z" fill="black"/>
<path id="Vector_3" d="M150.88 27.1998C149.475 27.1998 148.441 26.9617 147.778 26.4857C147.116 26.0096 146.785 25.3651 146.785 24.5521C146.785 23.7393 147.116 23.0947 147.778 22.6187C148.441 22.1425 149.475 21.9044 150.88 21.9044C151.949 21.9044 152.838 22.0089 153.547 22.218C154.256 22.4153 154.947 22.7057 155.621 23.0889V22.3225C155.621 21.5096 155.325 20.8651 154.732 20.3889C154.139 19.9012 153.268 19.6574 152.118 19.6574C151.072 19.6574 150.265 19.8315 149.695 20.18C149.138 20.5168 148.795 20.9347 148.667 21.434H146.523C146.651 20.4238 147.18 19.5936 148.109 18.9432C149.039 18.2812 150.381 17.9502 152.135 17.9502C153.994 17.9502 155.394 18.3508 156.335 19.1521C157.277 19.9419 157.747 21.0219 157.747 22.3921V24.6566C157.747 25.1676 157.979 25.4232 158.444 25.4232C158.63 25.4232 158.81 25.3998 158.984 25.3534V27.0432C158.671 27.1476 158.322 27.1998 157.939 27.1998C157.3 27.1998 156.806 27.0489 156.457 26.747C156.121 26.4451 155.952 26.0385 155.952 25.5276V25.4406H155.691V25.4579C155.691 25.7366 155.505 26.0096 155.133 26.2766C154.761 26.5438 154.209 26.7644 153.477 26.9385C152.745 27.1128 151.88 27.1998 150.88 27.1998ZM151.647 25.667C153.146 25.667 154.471 25.3476 155.621 24.7089V24.1515C155.005 23.8728 154.395 23.6579 153.791 23.507C153.187 23.356 152.472 23.2806 151.647 23.2806C150.636 23.2806 149.933 23.3851 149.539 23.594C149.143 23.8032 148.946 24.0934 148.946 24.4651C148.946 24.8483 149.143 25.1444 149.539 25.3534C149.933 25.5625 150.636 25.667 151.647 25.667Z" fill="black"/>
<path id="Vector_4" d="M145.357 26.9907H134.168V14.7974H136.591V24.9528H145.357V26.9907Z" fill="black"/>
<path id="Vector_5" d="M121.468 27.1998C119.505 27.1998 118.081 26.9153 117.198 26.3464C116.327 25.7657 115.891 24.9819 115.891 23.9947V23.8206H118.069V23.96C118.069 24.4593 118.331 24.86 118.854 25.1619C119.377 25.4638 120.248 25.6147 121.468 25.6147C122.758 25.6147 123.647 25.5044 124.135 25.2838C124.634 25.0515 124.884 24.7496 124.884 24.3779C124.884 24.0528 124.727 23.8147 124.413 23.6638C124.111 23.5012 123.728 23.3908 123.263 23.3328C122.798 23.2747 122.148 23.2283 121.311 23.1934C120.196 23.147 119.278 23.0715 118.558 22.967C117.849 22.8508 117.239 22.6187 116.728 22.2702C116.228 21.9102 115.978 21.3761 115.978 20.6676C115.978 19.8548 116.396 19.1987 117.233 18.6993C118.081 18.2 119.493 17.9502 121.468 17.9502C123.327 17.9502 124.698 18.2523 125.581 18.8561C126.464 19.46 126.923 20.2496 126.958 21.2251H124.797C124.727 20.0987 123.618 19.5355 121.468 19.5355C119.26 19.5355 118.157 19.9534 118.157 20.7896C118.157 21.08 118.302 21.3006 118.592 21.4515C118.894 21.5908 119.266 21.6838 119.708 21.7302C120.149 21.7768 120.771 21.8174 121.573 21.8521C122.735 21.8987 123.676 21.98 124.396 22.096C125.116 22.2006 125.738 22.4387 126.261 22.8102C126.784 23.1702 127.045 23.7219 127.045 24.4651C127.045 25.3128 126.621 25.9804 125.773 26.4683C124.936 26.956 123.501 27.1998 121.468 27.1998Z" fill="black"/>
<path id="Vector_6" d="M112.048 25.2138H114.976V26.9906H106.593V25.2138H109.974V21.0332C109.974 20.6036 109.881 20.3017 109.695 20.1274C109.521 19.9417 109.224 19.8487 108.806 19.8487C108.411 19.8487 108.039 19.9242 107.691 20.0751V18.2636C108.225 18.0546 108.824 17.95 109.486 17.95C110.392 17.95 111.043 18.1359 111.438 18.5074C111.844 18.8791 112.048 19.4655 112.048 20.2668V25.2138ZM110.688 16.6087C110.27 16.6087 109.939 16.4985 109.695 16.2778C109.451 16.0572 109.329 15.7726 109.329 15.4243C109.329 15.0759 109.451 14.7914 109.695 14.5707C109.939 14.3501 110.27 14.2397 110.688 14.2397C111.095 14.2397 111.42 14.3501 111.664 14.5707C111.908 14.7914 112.03 15.0759 112.03 15.4243C112.03 15.7726 111.908 16.0572 111.664 16.2778C111.42 16.4985 111.095 16.6087 110.688 16.6087Z" fill="black"/>
<path id="Vector_7" d="M99.8081 27.1998C98.565 27.1998 97.496 26.9966 96.6014 26.5902C95.7182 26.1838 95.0444 25.6321 94.5796 24.9353C94.1265 24.2385 93.8999 23.4547 93.8999 22.5838C93.8999 21.7128 94.1265 20.9289 94.5796 20.2321C95.0444 19.5238 95.7182 18.9664 96.6014 18.56C97.496 18.1536 98.565 17.9502 99.8081 17.9502C100.935 17.9502 101.923 18.1187 102.771 18.4555C103.631 18.7923 104.305 19.2568 104.793 19.8489C105.292 20.4412 105.594 21.1147 105.699 21.8696H103.538C103.41 21.254 103.026 20.7374 102.387 20.3193C101.748 19.9012 100.889 19.6921 99.8081 19.6921C99.0181 19.6921 98.3383 19.82 97.7689 20.0755C97.1997 20.3308 96.7699 20.6793 96.4793 21.1206C96.1888 21.5619 96.0437 22.0496 96.0437 22.5838C96.0437 23.118 96.1888 23.6057 96.4793 24.047C96.7699 24.4883 97.1997 24.8366 97.7689 25.0921C98.3383 25.3476 99.0181 25.4753 99.8081 25.4753C100.889 25.4753 101.748 25.2664 102.387 24.8483C103.026 24.4302 103.41 23.9134 103.538 23.298H105.699C105.594 24.0528 105.292 24.7264 104.793 25.3185C104.305 25.8992 103.631 26.3579 102.771 26.6947C101.923 27.0315 100.935 27.1998 99.8081 27.1998Z" fill="black"/>
<path id="Vector_8" d="M84.7594 27.1998C83.3535 27.1998 82.3195 26.9617 81.6572 26.4857C80.9949 26.0096 80.6637 25.3651 80.6637 24.5521C80.6637 23.7393 80.9949 23.0947 81.6572 22.6187C82.3195 22.1425 83.3535 21.9044 84.7594 21.9044C85.8283 21.9044 86.7171 22.0089 87.4258 22.218C88.1347 22.4153 88.8259 22.7057 89.4997 23.0889V22.3225C89.4997 21.5096 89.2034 20.8651 88.611 20.3889C88.0184 19.9012 87.147 19.6574 85.9968 19.6574C84.9511 19.6574 84.1436 19.8315 83.5742 20.18C83.0165 20.5168 82.6738 20.9347 82.546 21.434H80.4023C80.5302 20.4238 81.0589 19.5936 81.9883 18.9432C82.9179 18.2812 84.2597 17.9502 86.0141 17.9502C87.8731 17.9502 89.2733 18.3508 90.2144 19.1521C91.1555 19.9419 91.6261 21.0219 91.6261 22.3921V24.6566C91.6261 25.1676 91.8585 25.4232 92.3231 25.4232C92.509 25.4232 92.6891 25.3998 92.8635 25.3534V27.0432C92.5497 27.1476 92.2012 27.1998 91.8178 27.1998C91.1787 27.1998 90.6849 27.0489 90.3363 26.747C89.9994 26.4451 89.831 26.0385 89.831 25.5276V25.4406H89.5696V25.4579C89.5696 25.7366 89.3836 26.0096 89.0119 26.2766C88.64 26.5438 88.0881 26.7644 87.3561 26.9385C86.6242 27.1128 85.7585 27.1998 84.7594 27.1998ZM85.5263 25.667C87.0251 25.667 88.3496 25.3476 89.4997 24.7089V24.1515C88.8841 23.8728 88.274 23.6579 87.6699 23.507C87.0657 23.356 86.3511 23.2806 85.5263 23.2806C84.5153 23.2806 83.8124 23.3851 83.4174 23.594C83.0224 23.8032 82.8248 24.0934 82.8248 24.4651C82.8248 24.8483 83.0224 25.1444 83.4174 25.3534C83.8124 25.5625 84.5153 25.667 85.5263 25.667Z" fill="black"/>
<path id="Vector_9" d="M76.3146 25.214H79.6258V26.9908H70.4238V25.214H74.1708V17.6542C74.1708 17.2244 74.0722 16.9225 73.8747 16.7484C73.6887 16.5625 73.3575 16.4697 72.8812 16.4697C72.6373 16.4697 72.4164 16.4929 72.2189 16.5393C72.033 16.5742 71.824 16.6438 71.5916 16.7484V14.9542C72.1376 14.7103 72.8058 14.5884 73.5959 14.5884C74.5834 14.5884 75.2804 14.7684 75.6871 15.1284C76.1054 15.4884 76.3146 16.0691 76.3146 16.8703V25.214Z" fill="black"/>
<path id="Vector_10" d="M59.9349 22.4444V20.807H68.6665V26.9908H66.5227L66.9586 24.047H66.7145C66.331 24.8947 65.6455 25.6321 64.658 26.2593C63.6821 26.8863 62.3633 27.1999 60.7018 27.1999C59.1915 27.1999 57.8785 26.927 56.7631 26.3812C55.6477 25.8238 54.788 25.0689 54.1838 24.1167C53.5912 23.1644 53.2949 22.0902 53.2949 20.8942C53.2949 19.698 53.597 18.6238 54.2011 17.6716C54.8169 16.7078 55.7116 15.9529 56.8851 15.4071C58.0702 14.8613 59.4818 14.5884 61.1201 14.5884C62.6886 14.5884 64.0249 14.8148 65.1285 15.2677C66.2439 15.709 67.1154 16.3071 67.7427 17.0619C68.3818 17.8167 68.8059 18.6703 69.015 19.6225H66.5926C66.302 18.7167 65.6979 17.9851 64.78 17.4278C63.8738 16.8587 62.6539 16.5742 61.1201 16.5742C59.9816 16.5742 58.9998 16.7657 58.1748 17.1491C57.3614 17.5206 56.7456 18.0316 56.3274 18.6819C55.9091 19.3323 55.6999 20.0695 55.6999 20.8942C55.6999 21.7419 55.9091 22.5025 56.3274 23.1761C56.7456 23.838 57.3672 24.3606 58.1922 24.7438C59.0172 25.1153 60.0048 25.3012 61.1549 25.3012C62.5725 25.3012 63.7169 25.0225 64.5883 24.4651C65.4598 23.9076 66.0464 23.2342 66.3485 22.4444H59.9349Z" fill="black"/>
<path id="Vector_11" d="M31.06 31.9381L38.8767 0L1.40234 39.6944L24.62 26.132L31.06 19.619V31.9381Z" fill="#9A9A9A"/>
<path id="Vector_12" d="M38.8776 39.6944V0L31.0609 31.9381H19.4507L38.8776 39.6944Z" fill="#BFBFBF"/>
<path id="Vector_13" d="M38.8767 39.694H1.40234L31.06 19.6187L19.4498 31.9377L38.8767 39.694Z" fill="#777777"/>
<path id="Vector_14" d="M19.4614 31.9297L38.8805 36.2262V39.6945H26.6638L19.4614 31.9297Z" fill="#777777"/>
<path id="Vector_15" d="M38.876 36.3225V25.5317L31.0159 31.9381H19.4614L38.876 36.3225Z" fill="#BFBFBF"/>
</g>
<defs>
<clipPath id="clip0_2448_1986">
<rect width="185" height="40" fill="white" transform="translate(0.5)"/>
</clipPath>
</defs>
</svg>
