<svg width="144" height="36" viewBox="0 0 144 36" fill="none" xmlns="http://www.w3.org/2000/svg">
<g id="Coin98" clip-path="url(#clip0_2448_2025)">
<path id="Vector" d="M93.1836 8.66064H90.8398V26.9095H93.1836V8.66064Z" fill="black"/>
<path id="Vector_2" d="M99.4986 8.66064H97.1548V26.9095H99.4986V8.66064Z" fill="black"/>
<path id="Vector_3" d="M113.774 8.66064H111.43V26.9095H113.774V8.66064Z" fill="black"/>
<path id="Vector_4" d="M78.2442 8.26172C73.0238 8.26172 68.7603 12.5292 68.7603 17.7982C68.7603 23.0671 73.0226 27.2954 78.2442 27.2954C83.4656 27.2954 87.7084 23.0476 87.7084 17.7982C87.7084 12.5488 83.4646 8.26172 78.2442 8.26172ZM78.2464 24.7935C74.3806 24.7935 71.246 21.6496 71.246 17.8028C71.246 13.9559 74.3806 10.7637 78.2464 10.7637C82.1121 10.7637 85.2226 13.9156 85.2226 17.8028C85.2226 21.69 82.0962 24.7935 78.2464 24.7935Z" fill="black"/>
<path id="Vector_5" d="M100.218 8.66895L112.363 24.8504V26.9018H110.707L98.4565 10.7065L99.0972 8.66895H100.218Z" fill="black"/>
<path id="Vector_6" d="M63.9658 20.6965C62.8655 23.1087 60.437 24.7935 57.6186 24.7935C53.7529 24.7935 50.6183 21.6496 50.6183 17.8028C50.6183 13.9559 53.7529 10.7637 57.6186 10.7637C60.4278 10.7637 62.8506 12.4428 63.9554 14.8607H66.62C65.3891 11.031 61.8203 8.26172 57.6153 8.26172C52.3949 8.26172 48.1313 12.5292 48.1313 17.7982C48.1313 23.0671 52.3937 27.2954 57.6153 27.2954C61.8306 27.2954 65.4064 24.5262 66.6292 20.6965H63.9658Z" fill="black"/>
<path id="Vector_7" d="M123.51 8.26172C120.147 8.26172 117.401 11.0103 117.401 14.4042C117.401 17.7982 120.147 20.5214 123.51 20.5214C126.873 20.5214 129.606 17.7854 129.606 14.4042C129.606 11.023 126.873 8.26172 123.51 8.26172ZM123.51 18.0068C121.518 18.0068 119.903 16.3864 119.903 14.4042C119.903 12.422 121.518 10.7775 123.51 10.7775C125.502 10.7775 127.105 12.4013 127.105 14.4042C127.105 16.4071 125.494 18.0068 123.51 18.0068Z" fill="black"/>
<path id="Vector_8" d="M124.445 26.9095H121.867L126.351 17.2061H128.93L124.445 26.9095Z" fill="black"/>
<path id="Vector_9" d="M140.966 16.5559C141.898 15.6766 142.473 14.4665 142.473 13.1308C142.473 10.441 140.376 8.26172 137.499 8.26172C134.623 8.26172 132.525 10.4421 132.525 13.1308C132.525 14.4676 133.102 15.6788 134.036 16.5593C132.577 17.6564 131.397 19.384 131.397 21.3282C131.397 24.6334 134.143 27.307 137.506 27.307C140.869 27.307 143.602 24.6334 143.602 21.3282C143.602 19.3806 142.425 17.6518 140.967 16.5559H140.966ZM137.506 24.7935C135.513 24.7935 133.897 23.1606 133.897 21.1611C133.897 19.1616 135.513 17.5032 137.506 17.5032C139.499 17.5032 141.102 19.1407 141.102 21.1611C141.102 23.1813 139.491 24.7935 137.506 24.7935ZM140.073 13.2541C140.073 14.6831 138.921 15.8424 137.499 15.8424C136.077 15.8424 134.925 14.6843 134.925 13.2541C134.925 11.8239 136.077 10.6657 137.499 10.6657C138.921 10.6657 140.073 11.8239 140.073 13.2541Z" fill="black"/>
<path id="Vector_10" d="M29.5532 0H7.04409C3.37318 0 0.397949 2.99174 0.397949 6.68301V29.3169C0.397949 33.0082 3.37318 36 7.04409 36H29.5532C33.2242 36 36.1993 33.0082 36.1993 29.3169V6.68301C36.1993 2.99174 33.2242 0 29.5532 0Z" fill="black"/>
<path id="Vector_11" d="M29.7526 13.8229V13.8252C29.7526 13.8759 29.7526 13.9255 29.7502 13.9785C29.748 14.0649 29.7435 14.1525 29.7353 14.2401C29.7274 14.3323 29.717 14.4245 29.7057 14.5155C29.6701 14.7864 29.6128 15.0525 29.5348 15.313C29.5086 15.4018 29.4797 15.4905 29.4477 15.577C28.8037 15.033 28.0656 14.5962 27.2632 14.2954C27.2909 14.1433 27.3046 13.9866 27.3046 13.8264C27.3046 13.6397 27.2851 13.4599 27.2495 13.2836C27.2416 13.2409 27.2312 13.1971 27.2197 13.1545C27.198 13.0692 27.1727 12.9862 27.1429 12.9056C27.1131 12.8238 27.0789 12.7431 27.0409 12.6636C26.837 12.2348 26.5206 11.8695 26.1297 11.6045C25.8835 11.4362 25.6049 11.3094 25.3069 11.2322C25.2645 11.2207 25.221 11.2103 25.1786 11.2023C25.0066 11.1665 24.8268 11.1481 24.6422 11.1481C24.5529 11.1481 24.4634 11.1527 24.3763 11.1619C23.0308 11.2956 21.9798 12.4365 21.9798 13.8264C21.9798 13.9923 21.9947 14.1548 22.0245 14.3115C21.2268 14.6158 20.4923 15.0537 19.8528 15.6001C19.7026 15.1931 19.6028 14.7691 19.5592 14.3358C19.5592 14.3231 19.5571 14.3104 19.5559 14.2966C19.5467 14.1975 19.5397 14.0984 19.5364 14.0004C19.5364 13.9935 19.5364 13.9854 19.5364 13.9785C19.5364 13.9266 19.5342 13.8759 19.5342 13.8252V13.8229C19.5342 13.6362 19.5433 13.4518 19.5638 13.2697C19.5708 13.2052 19.5787 13.1418 19.5869 13.0761C19.6314 12.7673 19.7036 12.4665 19.8023 12.1772C19.8252 12.1069 19.8504 12.0366 19.8779 11.9675C19.9582 11.7589 20.0521 11.5572 20.1575 11.3625C20.1953 11.2921 20.2355 11.223 20.2769 11.155C20.3192 11.0859 20.3616 11.019 20.4063 10.9533C20.4533 10.8853 20.5014 10.8162 20.5495 10.7505C20.6001 10.6848 20.6482 10.6226 20.6997 10.558C20.6997 10.558 20.7019 10.558 20.7019 10.5557C20.7765 10.4647 20.8556 10.376 20.9358 10.2907C21.0171 10.2054 21.1009 10.1224 21.188 10.0429C21.2739 9.96223 21.362 9.88618 21.4549 9.81243C21.5009 9.77668 21.5478 9.73981 21.5959 9.70293C22.0212 9.38601 22.4967 9.13248 23.0103 8.95845C23.0904 8.93196 23.1696 8.9066 23.2509 8.88239C23.3299 8.86049 23.4102 8.83975 23.4904 8.82016C23.4926 8.82016 23.495 8.82016 23.4962 8.82016C23.7024 8.77292 23.9144 8.73833 24.1277 8.71643C24.17 8.71184 24.2136 8.70838 24.2571 8.70492C24.3854 8.69569 24.5173 8.68994 24.6492 8.68994C24.9998 8.68994 25.3437 8.72566 25.6749 8.79367C25.7574 8.81095 25.8388 8.83054 25.9201 8.85129C26.0015 8.87203 26.0806 8.89393 26.162 8.92042C26.2811 8.9573 26.3992 8.99994 26.515 9.04604C26.5653 9.06563 26.6146 9.08638 26.664 9.10828C26.7167 9.13018 26.7694 9.15436 26.8197 9.17857C27.3549 9.43327 27.8386 9.77899 28.2512 10.1939C28.3373 10.2803 28.422 10.3714 28.5022 10.4647C28.5286 10.4958 28.5561 10.5281 28.5835 10.5604C28.6283 10.6145 28.6706 10.6698 28.712 10.7252C28.8677 10.9314 29.0087 11.1493 29.1327 11.3797C29.1714 11.4523 29.2104 11.525 29.2448 11.5987C29.2448 11.6022 29.2484 11.6045 29.2484 11.6056C29.2816 11.6725 29.3125 11.7428 29.3411 11.8119C29.3813 11.9053 29.4191 11.9998 29.4523 12.0966C29.4638 12.1242 29.4742 12.1519 29.4821 12.1795C29.5796 12.4688 29.653 12.7684 29.6965 13.0784C29.7045 13.1441 29.7136 13.2075 29.7194 13.272C29.7411 13.4541 29.7502 13.6374 29.7502 13.8252L29.7526 13.8229Z" fill="white"/>
<path id="Vector_12" d="M17.0952 22.1895C17.0952 25.0187 14.803 27.3074 12.0008 27.3074C9.19862 27.3074 6.89844 25.0187 6.89844 22.1895H9.34075C9.34075 23.6611 10.5338 24.8642 12.0008 24.8642C13.4678 24.8642 14.6415 23.6611 14.6415 22.1895H17.0952Z" fill="white"/>
<path id="Vector_13" d="M11.9402 8.69092C8.65208 8.69092 5.9668 11.3784 5.9668 14.6974C5.9668 18.0164 8.65208 20.6787 11.9402 20.6787C15.2283 20.6787 17.9009 18.0037 17.9009 14.6974C17.9009 11.3911 15.2283 8.69092 11.9402 8.69092ZM11.9402 18.2193C9.99185 18.2193 8.41368 16.6359 8.41368 14.6974C8.41368 12.759 9.99299 11.1514 11.9402 11.1514C13.8874 11.1514 15.4553 12.7394 15.4553 14.6974C15.4553 16.6554 13.8805 18.2193 11.9402 18.2193Z" fill="white"/>
<path id="Vector_14" d="M24.6648 15.3257C21.3767 15.3257 18.6914 18.0132 18.6914 21.3321C18.6914 24.6513 21.3767 27.3133 24.6648 27.3133C27.953 27.3133 30.6257 24.6385 30.6257 21.3321C30.6257 18.0259 27.953 15.3257 24.6648 15.3257ZM24.6648 24.8539C22.7164 24.8539 21.1384 23.2705 21.1384 21.3321C21.1384 19.3937 22.7176 17.786 24.6648 17.786C26.612 17.786 28.1799 19.3742 28.1799 21.3321C28.1799 23.2902 26.6052 24.8539 24.6648 24.8539Z" fill="white"/>
</g>
<defs>
<clipPath id="clip0_2448_2025">
<rect width="143.204" height="36" fill="white" transform="translate(0.397949)"/>
</clipPath>
</defs>
</svg>
