<svg width="124" height="56" viewBox="0 0 124 56" fill="none" xmlns="http://www.w3.org/2000/svg">
<g id="Netherak Demons" clip-path="url(#clip0_2448_2063)">
<path id="Vector" d="M20.3837 55.974C20.3855 55.9648 20.3874 55.9561 20.3892 55.9452V55.936H20.3855C20.3855 55.936 20.3874 55.9398 20.3874 55.9431C20.3855 55.954 20.3837 55.9632 20.3818 55.9719L20.3837 55.974Z" fill="black"/>
<path id="Vector_2" d="M20.3837 55.974C20.3855 55.9648 20.3874 55.9561 20.3892 55.9452V55.936H20.3855C20.3855 55.936 20.3874 55.9398 20.3874 55.9431C20.3855 55.954 20.3837 55.9632 20.3818 55.9719L20.3837 55.974Z" fill="black"/>
<path id="Vector_3" d="M123.323 19.8996C123.319 19.6967 123.03 19.4048 123.025 19.3763C123.058 18.2835 121.833 16.4753 121.102 15.1974C120.904 14.8539 116.934 13.4942 116.143 13.1205C115.638 12.882 113.064 10.9403 112.985 10.878C112.414 10.4206 112.378 8.89181 112.065 8.74586C110.877 8.18878 108.869 5.96231 108.684 5.76477C108.315 5.37145 106.801 4.68624 106.624 4.74142C107.061 5.57077 107.671 8.75833 107.671 10.0469C107 11.3158 105.629 11.5739 104.199 12.1345C104.009 12.5741 102.78 13.7505 102.618 13.8306C102.31 13.9783 101.99 13.7808 101.672 13.9018C101.455 13.9854 99.4747 14.3396 99.3138 14.482C99.3998 14.6795 100.323 17.415 100.36 17.7656C100.447 18.595 100.835 21.5298 100.914 22.1723C100.946 22.4446 100.678 23.9841 100.718 24.1994C100.83 24.7956 100.921 26.7071 101.027 26.7463C101.074 26.7249 104.06 24.146 104.464 24.0428C104.536 24.0321 105.357 23.7153 105.666 23.6103C106.329 23.5623 110.513 24.3187 110.513 24.3187L109.335 24.6266C109.352 25.9133 109.394 27.4902 108.929 29.2753C109.421 29.795 109.268 29.9694 109.321 30.174C109.288 31.1476 109.514 34.2781 109.458 35.2499C109.414 36.0241 109.335 36.7983 109.319 37.5742C109.304 38.2737 108.763 40.2599 108.717 40.582C108.65 41.059 107.505 43.926 107.384 44.1363C107.333 44.1025 107.62 42.232 107.494 41.972C107.035 41.0198 105.21 37.681 104.964 36.4744C104.861 36.1273 104.638 34.8174 104.627 33.358C104.616 31.6139 104.889 29.8857 105.318 28.1914C105.35 28.065 102.484 29.4283 102.382 29.5155C102.312 29.5742 100.266 33.1943 100.124 33.2619C99.7359 33.4488 96.7631 34.4597 96.6825 34.5113C96.6697 34.3671 96.7759 29.6134 96.7759 26.4205C96.4212 23.5053 96.6644 18.3476 96.6788 16.5679C96.6788 16.5679 96.9898 15.5 97.1524 15.1245C96.5471 15.1814 94.8103 14.5799 94.6914 14.5728C94.0421 14.5407 92.2996 13.4586 91.7787 13.2397C90.3707 12.6488 89.3708 10.8086 88.8112 9.56278C88.2516 10.4242 87.8731 11.6255 87.6739 12.1559C87.4674 12.704 86.6938 13.5352 86.5474 13.7505L83.6934 12.2003C83.6934 12.2003 81.7349 11.5543 81.0054 10.5861C81.1646 11.8177 81.5469 12.6934 81.5469 12.6934L83.5215 15.8239C83.5215 15.8239 83.9107 18.3778 83.9346 18.7836C83.9913 19.7038 84.0189 20.6257 83.9876 21.5476C83.9638 22.272 83.951 22.9963 83.9383 23.7206C83.9329 23.9592 84.0243 24.8811 84.0683 25.6374C83.8979 26.5771 84.1905 29.0635 84.1963 29.6899C84.2144 31.7438 83.7041 36.3231 83.7136 36.704C83.7317 37.5155 82.973 41.2511 82.982 41.3383C83.9091 41.4646 84.3152 41.6518 85.2257 41.7123C85.2784 41.8189 86.4066 43.5487 86.5696 43.7231C86.9753 44.1609 88.1455 45.0225 88.3483 45.1917C88.8314 45.592 89.219 46.4606 89.9485 46.868C89.7876 45.5743 89.6119 43.5363 88.9811 42.0324C88.9301 41.4292 88.7125 38.9642 88.6302 38.3377C88.5553 37.7647 88.3483 36.5171 88.3483 36.4637C88.3594 35.3051 88.3594 34.1464 88.3886 32.9878C88.4162 31.8826 88.482 29.1418 88.5113 28.0366C88.5203 27.7091 88.2516 25.908 88.2113 25.3314C88.1475 24.3987 88.0101 20.4228 88.0138 19.9244C88.0175 19.5382 88.1019 18.5149 88.2734 18.1678C88.4672 17.7781 87.3686 16.7814 87.4966 16.3614C87.5019 16.3418 90.7677 18.134 91.3491 18.8299C91.4697 18.9759 92.3346 19.2375 92.2634 19.1093C92.3346 19.2375 92.3383 22.4606 92.3292 23.3576C92.1955 24.041 92.3033 30.3057 92.2868 33.0199C92.7806 34.4846 92.351 37.3446 92.2284 37.2272C92.2358 37.3589 92.788 41.8831 92.7769 41.972C92.7715 42.0148 92.3802 41.3116 92.1844 41.0109C92.1753 41.0341 92.3128 44.551 92.3181 44.6773C92.6855 44.8711 96.4377 47.2473 96.5455 47.3646C96.8964 47.7456 97.2367 48.139 97.6149 48.4912C98.0428 48.8899 99.0595 49.6589 99.129 49.6836C98.9756 47.1494 97.6971 44.4601 97.7502 43.0344C97.7724 42.4312 96.5619 37.9427 96.9368 35.8265C96.9734 35.8052 99.1508 37.5137 99.5076 37.964C100.398 39.0853 102.305 42.6501 102.305 42.6501C102.305 42.6501 104.09 47.8131 104.141 48.1851C104.164 48.3632 104.525 51.8512 104.601 52.017C104.819 52.4869 103.91 55.6692 103.859 55.9271C105.96 54.4784 107.017 51.4348 107.66 50.4596C108.18 49.6713 109.847 47.0548 110.604 46.4783C111.017 45.5706 112.107 43.6503 112.594 43.4224C114.128 42.6998 114.629 42.1057 115.051 41.8189C114.806 41.5144 114.243 40.5393 114.215 40.3364C114.152 39.8665 113.801 36.4832 113.786 36.2465C113.755 35.7482 113.919 30.5406 113.919 29.5921C113.919 29.3269 113.663 28.0116 113.687 27.6005C113.711 27.2072 113.626 25.9186 113.747 25.0466C113.683 24.5927 113.429 22.8806 113.469 22.2274C113.612 21.9783 114.466 21.4462 114.605 21.3091C114.135 21.2272 112.788 20.5154 112.261 20.5154C111.306 20.5154 109.295 19.1538 108.875 18.805C108.203 19.4315 107.617 20.3605 107.205 20.7823C106.973 21.0208 105.708 21.8057 105.413 21.9623C105.344 21.2575 105.199 20.4495 105.585 19.2464C105.598 18.9207 105.593 17.0698 105.55 16.3632H103.951C103.971 16.324 105.969 15.6139 106.174 15.7278C106.41 15.6068 108.73 15.8559 108.995 15.8613C109.27 15.8666 112.674 16.0161 112.831 16.13C113.175 16.3792 114.877 16.7743 115.278 16.9274C116.898 17.5431 118.562 17.3741 119.884 18.4312C120.247 18.7214 121.789 20.3481 122.058 20.4371C122.789 20.6808 123.343 22.0957 123.411 22.1242C123.403 21.7772 123.327 20.2181 123.321 19.9031L123.323 19.8996Z" fill="black"/>
<path id="Vector_4" d="M123.323 19.8996C123.319 19.6967 123.03 19.4048 123.025 19.3763C123.058 18.2835 121.833 16.4753 121.102 15.1974C120.904 14.8539 116.934 13.4942 116.143 13.1205C115.638 12.882 113.064 10.9403 112.985 10.878C112.414 10.4206 112.378 8.89181 112.065 8.74586C110.877 8.18878 108.869 5.96231 108.684 5.76477C108.315 5.37145 106.801 4.68624 106.624 4.74142C107.061 5.57077 107.671 8.75833 107.671 10.0469C107 11.3158 105.629 11.5739 104.199 12.1345C104.009 12.5741 102.78 13.7505 102.618 13.8306C102.31 13.9783 101.99 13.7808 101.672 13.9018C101.455 13.9854 99.4747 14.3396 99.3138 14.482C99.3998 14.6795 100.323 17.415 100.36 17.7656C100.447 18.595 100.835 21.5298 100.914 22.1723C100.946 22.4446 100.678 23.9841 100.718 24.1994C100.83 24.7956 100.921 26.7071 101.027 26.7463C101.074 26.7249 104.06 24.146 104.464 24.0428C104.536 24.0321 105.357 23.7153 105.666 23.6103C106.329 23.5623 110.513 24.3187 110.513 24.3187L109.335 24.6266C109.352 25.9133 109.394 27.4902 108.929 29.2753C109.421 29.795 109.268 29.9694 109.321 30.174C109.288 31.1476 109.514 34.2781 109.458 35.2499C109.414 36.0241 109.335 36.7983 109.319 37.5742C109.304 38.2737 108.763 40.2599 108.717 40.582C108.65 41.059 107.505 43.926 107.384 44.1363C107.333 44.1025 107.62 42.232 107.494 41.972C107.035 41.0198 105.21 37.681 104.964 36.4744C104.861 36.1273 104.638 34.8174 104.627 33.358C104.616 31.6139 104.889 29.8857 105.318 28.1914C105.35 28.065 102.484 29.4283 102.382 29.5155C102.312 29.5742 100.266 33.1943 100.124 33.2619C99.7359 33.4488 96.7631 34.4597 96.6825 34.5113C96.6697 34.3671 96.7759 29.6134 96.7759 26.4205C96.4212 23.5053 96.6644 18.3476 96.6788 16.5679C96.6788 16.5679 96.9898 15.5 97.1524 15.1245C96.5471 15.1814 94.8103 14.5799 94.6914 14.5728C94.0421 14.5407 92.2996 13.4586 91.7787 13.2397C90.3707 12.6488 89.3708 10.8086 88.8112 9.56278C88.2516 10.4242 87.8731 11.6255 87.6739 12.1559C87.4674 12.704 86.6938 13.5352 86.5474 13.7505L83.6934 12.2003C83.6934 12.2003 81.7349 11.5543 81.0054 10.5861C81.1646 11.8177 81.5469 12.6934 81.5469 12.6934L83.5215 15.8239C83.5215 15.8239 83.9107 18.3778 83.9346 18.7836C83.9913 19.7038 84.0189 20.6257 83.9876 21.5476C83.9638 22.272 83.951 22.9963 83.9383 23.7206C83.9329 23.9592 84.0243 24.8811 84.0683 25.6374C83.8979 26.5771 84.1905 29.0635 84.1963 29.6899C84.2144 31.7438 83.7041 36.3231 83.7136 36.704C83.7317 37.5155 82.973 41.2511 82.982 41.3383C83.9091 41.4646 84.3152 41.6518 85.2257 41.7123C85.2784 41.8189 86.4066 43.5487 86.5696 43.7231C86.9753 44.1609 88.1455 45.0225 88.3483 45.1917C88.8314 45.592 89.219 46.4606 89.9485 46.868C89.7876 45.5743 89.6119 43.5363 88.9811 42.0324C88.9301 41.4292 88.7125 38.9642 88.6302 38.3377C88.5553 37.7647 88.3483 36.5171 88.3483 36.4637C88.3594 35.3051 88.3594 34.1464 88.3886 32.9878C88.4162 31.8826 88.482 29.1418 88.5113 28.0366C88.5203 27.7091 88.2516 25.908 88.2113 25.3314C88.1475 24.3987 88.0101 20.4228 88.0138 19.9244C88.0175 19.5382 88.1019 18.5149 88.2734 18.1678C88.4672 17.7781 87.3686 16.7814 87.4966 16.3614C87.5019 16.3418 90.7677 18.134 91.3491 18.8299C91.4697 18.9759 92.3346 19.2375 92.2634 19.1093C92.3346 19.2375 92.3383 22.4606 92.3292 23.3576C92.1955 24.041 92.3033 30.3057 92.2868 33.0199C92.7806 34.4846 92.351 37.3446 92.2284 37.2272C92.2358 37.3589 92.788 41.8831 92.7769 41.972C92.7715 42.0148 92.3802 41.3116 92.1844 41.0109C92.1753 41.0341 92.3128 44.551 92.3181 44.6773C92.6855 44.8711 96.4377 47.2473 96.5455 47.3646C96.8964 47.7456 97.2367 48.139 97.6149 48.4912C98.0428 48.8899 99.0595 49.6589 99.129 49.6836C98.9756 47.1494 97.6971 44.4601 97.7502 43.0344C97.7724 42.4312 96.5619 37.9427 96.9368 35.8265C96.9734 35.8052 99.1508 37.5137 99.5076 37.964C100.398 39.0853 102.305 42.6501 102.305 42.6501C102.305 42.6501 104.09 47.8131 104.141 48.1851C104.164 48.3632 104.525 51.8512 104.601 52.017C104.819 52.4869 103.91 55.6692 103.859 55.9271C105.96 54.4784 107.017 51.4348 107.66 50.4596C108.18 49.6713 109.847 47.0548 110.604 46.4783C111.017 45.5706 112.107 43.6503 112.594 43.4224C114.128 42.6998 114.629 42.1057 115.051 41.8189C114.806 41.5144 114.243 40.5393 114.215 40.3364C114.152 39.8665 113.801 36.4832 113.786 36.2465C113.755 35.7482 113.919 30.5406 113.919 29.5921C113.919 29.3269 113.663 28.0116 113.687 27.6005C113.711 27.2072 113.626 25.9186 113.747 25.0466C113.683 24.5927 113.429 22.8806 113.469 22.2274C113.612 21.9783 114.466 21.4462 114.605 21.3091C114.135 21.2272 112.788 20.5154 112.261 20.5154C111.306 20.5154 109.295 19.1538 108.875 18.805C108.203 19.4315 107.617 20.3605 107.205 20.7823C106.973 21.0208 105.708 21.8057 105.413 21.9623C105.344 21.2575 105.199 20.4495 105.585 19.2464C105.598 18.9207 105.593 17.0698 105.55 16.3632H103.951C103.971 16.324 105.969 15.6139 106.174 15.7278C106.41 15.6068 108.73 15.8559 108.995 15.8613C109.27 15.8666 112.674 16.0161 112.831 16.13C113.175 16.3792 114.877 16.7743 115.278 16.9274C116.898 17.5431 118.562 17.3741 119.884 18.4312C120.247 18.7214 121.789 20.3481 122.058 20.4371C122.789 20.6808 123.343 22.0957 123.411 22.1242C123.403 21.7772 123.327 20.2181 123.321 19.9031L123.323 19.8996Z" fill="black"/>
<path id="Vector_5" d="M23.9066 36.7429C23.8774 36.1253 23.9285 34.4701 23.9432 34.2601C23.9779 33.776 24.0821 32.37 24.0858 32.1867C24.0858 32.1867 23.8847 31.9821 23.8371 31.8503C23.7749 31.2791 23.7731 30.7309 23.7951 30.2005C23.8152 29.6791 23.2045 24.5516 23.3892 23.9518C23.1661 23.8575 22.7492 23.6689 22.6907 23.425C23.0564 23.0726 23.1295 23.0531 23.3636 22.7968C23.4239 21.3498 23.53 19.1394 23.6561 17.696C23.7164 17.0055 23.817 15.6119 24.2357 14.7737C23.3051 14.5103 19.213 11.7997 19.149 11.7534C18.9973 11.6449 18.4889 11.1359 18.4414 11.127C18.4743 11.248 18.6115 11.7374 18.5968 11.7249C18.3097 11.4669 18.0007 11.2284 17.7448 10.9437C17.4248 10.5877 17.4833 9.81349 17.4102 9.73519C17.0884 9.39882 16.6953 9.41483 16.4649 9.01974C16.4868 8.80084 16.7355 7.47136 16.7958 7.23642C16.9841 6.51562 17.5455 5.12565 17.8472 4.75546C17.348 4.71098 16.5746 5.16836 16.0626 5.44598C15.5854 5.70405 15.3422 6.24512 14.9729 6.63844C14.7882 6.83598 12.9853 7.72231 12.6965 7.97504C12.2741 8.34523 11.998 8.43242 11.5281 8.74032C11.241 8.92897 10.3999 10.2976 10.1312 10.5129C9.97575 10.6375 8.09611 12.314 8.06501 12.3425C7.01368 12.4831 6.80338 13.4549 6.24207 13.4549C5.68075 13.4549 4.17044 14.8431 3.66214 15.0905C3.27817 15.2791 2.47914 16.4466 2.35847 16.6086C2.27435 16.7207 1.86296 17.7761 1.74959 17.9826C1.62343 18.2122 1.54664 19.2302 0.892057 20.2037C0.813434 20.3194 0.451404 21.9496 0.645218 22.3447C1.14987 21.4976 1.5247 20.6539 1.97632 20.6451C2.36029 20.6379 4.22896 18.2815 4.96764 17.995C5.77032 17.6835 6.94966 16.9627 7.47077 16.9218C8.20947 16.8631 10.9869 16.0569 12.1424 16.007C12.2156 16.0035 13.1938 16.0746 13.2944 16.096C13.0621 16.8239 9.65942 19.4135 8.16557 19.4135C8.16557 20.0844 8.36854 21.0045 8.56234 21.3819C8.74885 21.7449 8.94998 22.1027 9.07247 22.4942C9.10724 22.6028 9.49488 22.8679 9.53327 22.9676C9.66489 23.3075 9.97756 23.7667 10.1586 24.1245C9.79837 24.0604 9.56985 23.619 9.17122 23.5567C9.30104 24.2259 9.85688 26.8404 9.85688 27.4383C9.85688 29.0526 9.84594 35.8921 9.80751 37.1683C9.80022 37.4441 9.64477 39.8201 9.48023 40.3255C9.48023 40.3255 9.09991 40.7989 8.72507 40.952C8.22959 41.155 7.83463 41.3418 7.4927 41.7121C7.6902 41.7459 8.49655 41.8755 8.82382 42.1265C9.46377 42.6145 11.102 43.0432 11.102 43.0432C11.2227 43.1856 11.9632 44.1377 12.3893 44.4315C12.4862 44.4973 12.6581 44.9726 12.8592 45.2536C13.9453 46.7628 15.2142 48.6477 16.3167 50.6339C17.2237 52.2657 18.7961 54.4868 20.0852 55.9302C20.0157 55.5867 19.9535 55.1081 19.8438 54.8929C19.5915 54.3996 19.5001 52.9492 19.5513 52.4921C19.5915 52.1308 19.4781 52.0752 19.4836 51.8707C19.4909 51.5683 19.4123 50.0784 19.3995 49.6336C19.394 49.4217 19.4288 49.2226 19.5184 49.0214C19.661 48.6975 19.789 48.1244 19.8402 47.7701C19.8822 47.4784 21.1932 45.5527 21.2298 44.9228C21.2334 44.8495 22.8772 42.0964 22.8772 42.0964C23.4349 41.824 24.1736 41.5644 24.3528 41.4751C24.3528 41.4751 23.934 37.4085 23.903 36.7375L23.9066 36.7429ZM19.2148 35.198C19.1545 35.4223 19.2587 35.6786 19.0667 35.8744C19.0338 36.1573 18.2128 39.1776 18.1397 39.6456C18.1525 40.4893 17.6351 42.4737 15.9767 43.8867L16.6404 42.2725C16.112 41.1743 14.8851 39.3627 14.8851 37.873C14.8851 37.437 14.3987 37.3017 14.3987 36.8853C14.3987 36.6841 14.6785 36.4172 14.9216 36.4172C14.9125 36.3656 14.439 32.112 14.4262 31.4286C14.4042 30.2504 14.8083 27.0913 14.4956 26.0662C14.3932 25.7334 14.4554 23.8183 14.5285 23.6083C14.5487 23.5514 14.4024 22.8163 14.4024 22.1863C14.4024 21.3872 14.3969 17.9452 14.5615 16.9663C14.6126 16.6566 14.7589 15.9412 14.7827 15.8878C15.1393 15.8842 17.9112 16.2704 18.1233 16.484C18.6809 17.0446 18.7065 18.1943 18.7522 18.6251C18.8126 19.1981 18.5566 19.3761 18.7029 19.9385C18.9095 20.7305 18.4835 23.5122 18.531 23.6991C18.6681 24.2348 19.0356 26.1712 19.107 26.6001C19.3373 27.9705 19.3117 31.2061 19.3319 31.8486C19.3355 31.9536 19.4123 34.463 19.213 35.1963L19.2148 35.198Z" fill="black"/>
<path id="Vector_6" d="M23.9066 36.7429C23.8774 36.1253 23.9285 34.4701 23.9432 34.2601C23.9779 33.776 24.0821 32.37 24.0858 32.1867C24.0858 32.1867 23.8847 31.9821 23.8371 31.8503C23.7749 31.2791 23.7731 30.7309 23.7951 30.2005C23.8152 29.6791 23.2045 24.5516 23.3892 23.9518C23.1661 23.8575 22.7492 23.6689 22.6907 23.425C23.0564 23.0726 23.1295 23.0531 23.3636 22.7968C23.4239 21.3498 23.53 19.1394 23.6561 17.696C23.7164 17.0055 23.817 15.6119 24.2357 14.7737C23.3051 14.5103 19.213 11.7997 19.149 11.7534C18.9973 11.6449 18.4889 11.1359 18.4414 11.127C18.4743 11.248 18.6115 11.7374 18.5968 11.7249C18.3097 11.4669 18.0007 11.2284 17.7448 10.9437C17.4248 10.5877 17.4833 9.81349 17.4102 9.73519C17.0884 9.39882 16.6953 9.41483 16.4649 9.01974C16.4868 8.80084 16.7355 7.47136 16.7958 7.23642C16.9841 6.51562 17.5455 5.12565 17.8472 4.75546C17.348 4.71098 16.5746 5.16836 16.0626 5.44598C15.5854 5.70405 15.3422 6.24512 14.9729 6.63844C14.7882 6.83598 12.9853 7.72231 12.6965 7.97504C12.2741 8.34523 11.998 8.43242 11.5281 8.74032C11.241 8.92897 10.3999 10.2976 10.1312 10.5129C9.97575 10.6375 8.09611 12.314 8.06501 12.3425C7.01368 12.4831 6.80338 13.4549 6.24207 13.4549C5.68075 13.4549 4.17044 14.8431 3.66214 15.0905C3.27817 15.2791 2.47914 16.4466 2.35847 16.6086C2.27435 16.7207 1.86296 17.7761 1.74959 17.9826C1.62343 18.2122 1.54664 19.2302 0.892057 20.2037C0.813434 20.3194 0.451404 21.9496 0.645218 22.3447C1.14987 21.4976 1.5247 20.6539 1.97632 20.6451C2.36029 20.6379 4.22896 18.2815 4.96764 17.995C5.77032 17.6835 6.94966 16.9627 7.47077 16.9218C8.20947 16.8631 10.9869 16.0569 12.1424 16.007C12.2156 16.0035 13.1938 16.0746 13.2944 16.096C13.0621 16.8239 9.65942 19.4135 8.16557 19.4135C8.16557 20.0844 8.36854 21.0045 8.56234 21.3819C8.74885 21.7449 8.94998 22.1027 9.07247 22.4942C9.10724 22.6028 9.49488 22.8679 9.53327 22.9676C9.66489 23.3075 9.97756 23.7667 10.1586 24.1245C9.79837 24.0604 9.56985 23.619 9.17122 23.5567C9.30104 24.2259 9.85688 26.8404 9.85688 27.4383C9.85688 29.0526 9.84594 35.8921 9.80751 37.1683C9.80022 37.4441 9.64477 39.8201 9.48023 40.3255C9.48023 40.3255 9.09991 40.7989 8.72507 40.952C8.22959 41.155 7.83463 41.3418 7.4927 41.7121C7.6902 41.7459 8.49655 41.8755 8.82382 42.1265C9.46377 42.6145 11.102 43.0432 11.102 43.0432C11.2227 43.1856 11.9632 44.1377 12.3893 44.4315C12.4862 44.4973 12.6581 44.9726 12.8592 45.2536C13.9453 46.7628 15.2142 48.6477 16.3167 50.6339C17.2237 52.2657 18.7961 54.4868 20.0852 55.9302C20.0157 55.5867 19.9535 55.1081 19.8438 54.8929C19.5915 54.3996 19.5001 52.9492 19.5513 52.4921C19.5915 52.1308 19.4781 52.0752 19.4836 51.8707C19.4909 51.5683 19.4123 50.0784 19.3995 49.6336C19.394 49.4217 19.4288 49.2226 19.5184 49.0214C19.661 48.6975 19.789 48.1244 19.8402 47.7701C19.8822 47.4784 21.1932 45.5527 21.2298 44.9228C21.2334 44.8495 22.8772 42.0964 22.8772 42.0964C23.4349 41.824 24.1736 41.5644 24.3528 41.4751C24.3528 41.4751 23.934 37.4085 23.903 36.7375L23.9066 36.7429ZM19.2148 35.198C19.1545 35.4223 19.2587 35.6786 19.0667 35.8744C19.0338 36.1573 18.2128 39.1776 18.1397 39.6456C18.1525 40.4893 17.6351 42.4737 15.9767 43.8867L16.6404 42.2725C16.112 41.1743 14.8851 39.3627 14.8851 37.873C14.8851 37.437 14.3987 37.3017 14.3987 36.8853C14.3987 36.6841 14.6785 36.4172 14.9216 36.4172C14.9125 36.3656 14.439 32.112 14.4262 31.4286C14.4042 30.2504 14.8083 27.0913 14.4956 26.0662C14.3932 25.7334 14.4554 23.8183 14.5285 23.6083C14.5487 23.5514 14.4024 22.8163 14.4024 22.1863C14.4024 21.3872 14.3969 17.9452 14.5615 16.9663C14.6126 16.6566 14.7589 15.9412 14.7827 15.8878C15.1393 15.8842 17.9112 16.2704 18.1233 16.484C18.6809 17.0446 18.7065 18.1943 18.7522 18.6251C18.8126 19.1981 18.5566 19.3761 18.7029 19.9385C18.9095 20.7305 18.4835 23.5122 18.531 23.6991C18.6681 24.2348 19.0356 26.1712 19.107 26.6001C19.3373 27.9705 19.3117 31.2061 19.3319 31.8486C19.3355 31.9536 19.4123 34.463 19.213 35.1963L19.2148 35.198Z" fill="black"/>
<path id="Vector_7" d="M36.3991 21.3446C36.8763 19.6236 37.4687 19.022 37.7064 17.6748C37.9094 16.518 38.9681 15.5693 39.0997 14.6403C38.3665 14.0281 37.3005 13.0154 36.9312 12.8036C35.3386 11.8906 34.2178 9.55555 34.0495 9.15869C33.9563 9.33488 33.5339 10.4259 33.0275 10.853C32.8044 11.0417 32.6599 11.6592 31.6726 12.6078C31.0948 13.1631 28.5679 14.8076 28.4143 14.8877C28.0559 15.0781 26.9844 15.2881 26.1233 15.491C26.7815 16.0623 27.6134 17.8794 27.6445 18.392C27.6921 19.152 28.1346 20.6292 27.9517 20.9442C27.8018 21.2023 27.9115 23.4074 27.7926 24.6247C27.7743 24.8169 26.8309 25.5715 26.3299 25.9933C26.1763 26.1215 25.6534 27.1057 25.6936 27.248C26.2348 27.1217 26.6755 26.9704 27.3556 26.9526C27.469 26.949 28.705 26.7604 28.8385 26.8654C28.7891 26.9348 28.0431 27.0843 27.7524 27.4527C27.906 28.5063 27.725 34.5415 27.7305 35.1216C27.7415 36.4209 27.4617 39.087 27.1966 40.5019C27.4105 41.2103 26.2897 45.5759 26.0995 46.2791C26.0849 46.3359 25.9788 47.2061 25.9624 47.3094C26.6023 46.9444 27.48 46.019 27.7725 46.117C28.3174 45.9837 31.5281 43.2355 32.115 42.8191C32.5356 42.78 34.2031 43.5577 35.2984 43.8264C35.5068 43.8782 36.7483 44.8624 36.7483 44.8624C37.306 43.198 37.4285 41.8332 37.4084 41.1872C37.3462 39.0638 38.9644 34.4311 38.9644 34.4311C38.8803 34.2602 38.8785 32.5268 38.7468 31.555C38.7468 31.555 37.423 30.149 37.2822 29.8572C37.1963 32.3257 37.0244 33.8171 36.3698 34.6607C35.9621 35.1839 34.0569 37.9942 33.9947 38.1098C33.4206 39.1866 31.7347 40.1637 31.614 40.2491C31.4751 40.1868 30.9522 40.5374 30.5079 40.6923C30.5719 40.42 31.0198 40.0338 31.3691 39.8184C31.6506 39.3735 32.2961 37.8162 32.4424 37.3303C32.0474 34.5094 32.1278 28.6736 32.3381 28.0507C32.2796 27.4171 32.3144 26.9188 32.3144 26.9188C32.4716 26.8031 33.2469 27.0719 33.3072 27.1359C33.5485 27.1092 34.5816 26.9277 34.7133 26.9722C34.929 27.0452 35.6421 27.2641 35.792 27.3015C36.5234 25.8616 37.7631 24.6354 38.0027 24.3684C38.1873 24.1602 38.3427 23.9377 38.403 23.6316C36.1888 24.356 32.5301 24.0837 32.5301 24.0837C32.5301 23.7099 32.6782 21.4087 32.6873 21.2646C32.7111 20.8837 32.1699 19.4278 32.3857 18.1553C32.4496 17.778 31.583 16.6087 31.7275 15.5124C32.3802 15.9199 33.0311 16.6977 33.7241 16.8775C34.2525 17.0163 35.0149 18.3635 35.2051 18.538C35.3496 18.6714 35.505 19.4349 35.4922 19.6378C35.4337 20.6007 35.8414 20.9406 35.772 22.457C35.8469 22.3502 36.304 21.6988 36.4009 21.3482L36.3991 21.3446Z" fill="black"/>
<path id="Vector_8" d="M36.3991 21.3446C36.8763 19.6236 37.4687 19.022 37.7064 17.6748C37.9094 16.518 38.9681 15.5693 39.0997 14.6403C38.3665 14.0281 37.3005 13.0154 36.9312 12.8036C35.3386 11.8906 34.2178 9.55555 34.0495 9.15869C33.9563 9.33488 33.5339 10.4259 33.0275 10.853C32.8044 11.0417 32.6599 11.6592 31.6726 12.6078C31.0948 13.1631 28.5679 14.8076 28.4143 14.8877C28.0559 15.0781 26.9844 15.2881 26.1233 15.491C26.7815 16.0623 27.6134 17.8794 27.6445 18.392C27.6921 19.152 28.1346 20.6292 27.9517 20.9442C27.8018 21.2023 27.9115 23.4074 27.7926 24.6247C27.7743 24.8169 26.8309 25.5715 26.3299 25.9933C26.1763 26.1215 25.6534 27.1057 25.6936 27.248C26.2348 27.1217 26.6755 26.9704 27.3556 26.9526C27.469 26.949 28.705 26.7604 28.8385 26.8654C28.7891 26.9348 28.0431 27.0843 27.7524 27.4527C27.906 28.5063 27.725 34.5415 27.7305 35.1216C27.7415 36.4209 27.4617 39.087 27.1966 40.5019C27.4105 41.2103 26.2897 45.5759 26.0995 46.2791C26.0849 46.3359 25.9788 47.2061 25.9624 47.3094C26.6023 46.9444 27.48 46.019 27.7725 46.117C28.3174 45.9837 31.5281 43.2355 32.115 42.8191C32.5356 42.78 34.2031 43.5577 35.2984 43.8264C35.5068 43.8782 36.7483 44.8624 36.7483 44.8624C37.306 43.198 37.4285 41.8332 37.4084 41.1872C37.3462 39.0638 38.9644 34.4311 38.9644 34.4311C38.8803 34.2602 38.8785 32.5268 38.7468 31.555C38.7468 31.555 37.423 30.149 37.2822 29.8572C37.1963 32.3257 37.0244 33.8171 36.3698 34.6607C35.9621 35.1839 34.0569 37.9942 33.9947 38.1098C33.4206 39.1866 31.7347 40.1637 31.614 40.2491C31.4751 40.1868 30.9522 40.5374 30.5079 40.6923C30.5719 40.42 31.0198 40.0338 31.3691 39.8184C31.6506 39.3735 32.2961 37.8162 32.4424 37.3303C32.0474 34.5094 32.1278 28.6736 32.3381 28.0507C32.2796 27.4171 32.3144 26.9188 32.3144 26.9188C32.4716 26.8031 33.2469 27.0719 33.3072 27.1359C33.5485 27.1092 34.5816 26.9277 34.7133 26.9722C34.929 27.0452 35.6421 27.2641 35.792 27.3015C36.5234 25.8616 37.7631 24.6354 38.0027 24.3684C38.1873 24.1602 38.3427 23.9377 38.403 23.6316C36.1888 24.356 32.5301 24.0837 32.5301 24.0837C32.5301 23.7099 32.6782 21.4087 32.6873 21.2646C32.7111 20.8837 32.1699 19.4278 32.3857 18.1553C32.4496 17.778 31.583 16.6087 31.7275 15.5124C32.3802 15.9199 33.0311 16.6977 33.7241 16.8775C34.2525 17.0163 35.0149 18.3635 35.2051 18.538C35.3496 18.6714 35.505 19.4349 35.4922 19.6378C35.4337 20.6007 35.8414 20.9406 35.772 22.457C35.8469 22.3502 36.304 21.6988 36.4009 21.3482L36.3991 21.3446Z" fill="black"/>
<path id="Vector_9" d="M103.383 55.9345V55.9292H103.382V55.9362C103.383 55.9576 103.386 55.979 103.387 56.0004C103.387 55.9806 103.383 55.9613 103.382 55.9383V55.9345H103.383Z" fill="black"/>
<path id="Vector_10" d="M103.383 55.9345V55.9292H103.382V55.9362C103.383 55.9576 103.386 55.979 103.387 56.0004C103.387 55.9806 103.383 55.9613 103.382 55.9383V55.9345H103.383Z" fill="black"/>
<path id="Vector_11" d="M63.5913 16.1603L65.1087 14.005C65.1087 14.005 66.5295 11.969 66.6867 10.7374C65.9572 11.7056 64.2751 12.1612 64.2751 12.1612L60.6329 13.1472L58.3233 13.0191C56.4512 12.2021 54.5844 10.3726 54.5111 10.3085C54.4601 10.3939 53.7104 11.791 53.2512 12.3445C52.827 12.8571 51.7922 14.3841 51.6334 14.6084C51.5474 14.5799 48.77 12.3837 48.4388 12.0491C48.0569 11.6611 46.1169 9.36522 45.6762 8.62842C45.605 8.74408 44.4768 12.0651 44.1201 12.3125C43.8004 12.5332 42.8659 14.1937 42.3611 14.4874C42.2187 14.571 40.9003 14.8522 40.1141 14.6315C40.0117 15.0818 40.4834 16.8348 40.5511 17.2709C40.6425 17.8582 40.8711 21.9908 40.882 22.0993C41.0704 22.1954 41.2806 22.2097 41.3958 22.4321C41.3903 22.5123 41.0356 24.1728 41.01 24.5251C41.01 24.5251 41.1691 28.4602 41.2002 28.9941C41.2349 29.585 41.2093 33.7211 41.2093 35.1965C41.2093 35.8586 40.3518 41.5037 40.3024 41.7601C40.2512 42.0218 40.253 43.7376 40.4377 44.5189C40.6169 44.2021 40.8418 43.9795 41.0886 43.7783C41.2642 43.6343 42.3228 42.8208 42.6594 42.5382C43.0215 42.2337 43.8185 41.0786 44.0086 40.9255C44.1843 40.7849 44.8936 40.0018 44.8936 40.0018C45.0508 40.041 46.53 40.8205 46.6107 40.8259C46.5193 40.0516 45.8408 34.8281 45.8408 34.8281C45.784 34.5184 44.9467 26.4722 45.6672 21.5725C45.603 20.7716 45.4001 17.4684 45.5483 16.8704C45.6195 16.9078 46.7678 17.6428 47.8339 17.7728C49.0461 17.9205 49.9567 18.6484 49.9567 18.6484L51.2729 19.1076L49.6822 19.04C50.0279 20.1861 49.9328 21.5476 50.1542 21.9588C50.2875 24.7903 49.6658 31.8381 49.5781 32.4504C49.7666 32.7743 50.0608 33.1338 49.7974 33.6837C49.7007 35.8337 49.207 38.8503 49.207 38.8503L49.8324 41.6268C49.8324 41.6268 50.7117 43.501 51.4943 44.4815C51.4943 42.4579 52.1049 41.4898 52.1049 41.4898C52.3263 40.7636 52.6151 39.4875 52.6151 39.4875L53.5347 38.3734C53.7853 38.4552 55.1748 37.9658 55.1748 37.9658C54.9921 37.3073 54.844 34.837 54.6704 34.0468C54.6667 34.0343 54.2935 29.5316 54.2935 29.5316C54.4782 27.3229 54.3099 23.3274 54.3852 22.3396C54.4251 21.827 54.5934 17.908 54.6704 17.1445C55.2518 17.1623 57.1424 17.9667 58.1736 18.4188L60.5506 18.878L58.9817 19.1271C58.9451 20.0758 58.8319 22.6813 58.713 23.0622C58.8628 23.2224 59.0364 23.6869 59.108 23.8542C59.108 23.8542 58.9636 24.6212 58.6891 24.9754C58.8866 27.0132 58.9907 31.5373 58.8282 32.8615C58.7183 33.7496 58.8521 36.6666 58.4863 39.7189C58.7953 39.5943 59.9634 39.249 60.6658 38.6973C61.1431 38.3217 62.7593 37.9373 62.7593 37.9373C62.9951 37.9782 64.1673 38.7525 64.4562 38.7792C64.4615 38.3004 63.8838 35.0595 63.7814 34.5576C63.7649 34.4811 63.295 33.2762 63.295 33.2762C63.3296 33.1498 63.6205 32.6533 63.6003 32.4201C63.0041 25.5592 63.2308 19.896 63.2967 19.4956C63.6057 18.7712 63.553 16.995 63.5876 16.1585L63.5913 16.1603Z" fill="black"/>
<path id="Vector_12" d="M63.5913 16.1603L65.1087 14.005C65.1087 14.005 66.5295 11.969 66.6867 10.7374C65.9572 11.7056 64.2751 12.1612 64.2751 12.1612L60.6329 13.1472L58.3233 13.0191C56.4512 12.2021 54.5844 10.3726 54.5111 10.3085C54.4601 10.3939 53.7104 11.791 53.2512 12.3445C52.827 12.8571 51.7922 14.3841 51.6334 14.6084C51.5474 14.5799 48.77 12.3837 48.4388 12.0491C48.0569 11.6611 46.1169 9.36522 45.6762 8.62842C45.605 8.74408 44.4768 12.0651 44.1201 12.3125C43.8004 12.5332 42.8659 14.1937 42.3611 14.4874C42.2187 14.571 40.9003 14.8522 40.1141 14.6315C40.0117 15.0818 40.4834 16.8348 40.5511 17.2709C40.6425 17.8582 40.8711 21.9908 40.882 22.0993C41.0704 22.1954 41.2806 22.2097 41.3958 22.4321C41.3903 22.5123 41.0356 24.1728 41.01 24.5251C41.01 24.5251 41.1691 28.4602 41.2002 28.9941C41.2349 29.585 41.2093 33.7211 41.2093 35.1965C41.2093 35.8586 40.3518 41.5037 40.3024 41.7601C40.2512 42.0218 40.253 43.7376 40.4377 44.5189C40.6169 44.2021 40.8418 43.9795 41.0886 43.7783C41.2642 43.6343 42.3228 42.8208 42.6594 42.5382C43.0215 42.2337 43.8185 41.0786 44.0086 40.9255C44.1843 40.7849 44.8936 40.0018 44.8936 40.0018C45.0508 40.041 46.53 40.8205 46.6107 40.8259C46.5193 40.0516 45.8408 34.8281 45.8408 34.8281C45.784 34.5184 44.9467 26.4722 45.6672 21.5725C45.603 20.7716 45.4001 17.4684 45.5483 16.8704C45.6195 16.9078 46.7678 17.6428 47.8339 17.7728C49.0461 17.9205 49.9567 18.6484 49.9567 18.6484L51.2729 19.1076L49.6822 19.04C50.0279 20.1861 49.9328 21.5476 50.1542 21.9588C50.2875 24.7903 49.6658 31.8381 49.5781 32.4504C49.7666 32.7743 50.0608 33.1338 49.7974 33.6837C49.7007 35.8337 49.207 38.8503 49.207 38.8503L49.8324 41.6268C49.8324 41.6268 50.7117 43.501 51.4943 44.4815C51.4943 42.4579 52.1049 41.4898 52.1049 41.4898C52.3263 40.7636 52.6151 39.4875 52.6151 39.4875L53.5347 38.3734C53.7853 38.4552 55.1748 37.9658 55.1748 37.9658C54.9921 37.3073 54.844 34.837 54.6704 34.0468C54.6667 34.0343 54.2935 29.5316 54.2935 29.5316C54.4782 27.3229 54.3099 23.3274 54.3852 22.3396C54.4251 21.827 54.5934 17.908 54.6704 17.1445C55.2518 17.1623 57.1424 17.9667 58.1736 18.4188L60.5506 18.878L58.9817 19.1271C58.9451 20.0758 58.8319 22.6813 58.713 23.0622C58.8628 23.2224 59.0364 23.6869 59.108 23.8542C59.108 23.8542 58.9636 24.6212 58.6891 24.9754C58.8866 27.0132 58.9907 31.5373 58.8282 32.8615C58.7183 33.7496 58.8521 36.6666 58.4863 39.7189C58.7953 39.5943 59.9634 39.249 60.6658 38.6973C61.1431 38.3217 62.7593 37.9373 62.7593 37.9373C62.9951 37.9782 64.1673 38.7525 64.4562 38.7792C64.4615 38.3004 63.8838 35.0595 63.7814 34.5576C63.7649 34.4811 63.295 33.2762 63.295 33.2762C63.3296 33.1498 63.6205 32.6533 63.6003 32.4201C63.0041 25.5592 63.2308 19.896 63.2967 19.4956C63.6057 18.7712 63.553 16.995 63.5876 16.1585L63.5913 16.1603Z" fill="black"/>
<path id="Vector_13" d="M81.8081 15.6583C80.9194 15.7455 80.0438 15.4073 79.9998 15.3112C79.4073 15.4839 78.6963 15.2543 78.3687 14.5905C75.4634 13.1186 74.5162 10.3208 73.3004 9.55908C72.9531 10.5308 72.8012 11.4242 71.9915 12.3479C71.0772 13.3909 69.8136 14.9286 69.7132 14.9001C69.4022 14.8094 67.7329 14.3484 66.6795 14.222C67.1165 17.0127 67.3012 18.7266 67.3251 19.2249C67.3506 19.7748 67.4148 19.8407 67.2354 20.129C67.7695 23.6493 67.6086 29.9141 67.442 31.2649C67.4292 31.3717 67.6761 31.838 67.667 31.9964C67.6506 32.2331 66.9959 36.2696 66.6211 37.6275C67.5061 37.7699 69.554 38.2059 70.4061 38.9588C72.0865 40.4395 73.3699 40.6122 74.3516 42.4969C75.7012 41.1888 75.4634 39.4589 76.6591 38.0546C76.9245 37.9567 79.1715 37.3588 79.2283 37.3232C79.3637 37.2378 79.9689 37.0064 80.8042 37.0509C80.7713 36.9566 80.2759 33.7601 80.287 32.9948C80.3051 31.6636 80.0417 25.0856 80.0146 23.9412C79.9998 23.2845 79.9467 22.6242 80.0841 21.9728C80.0948 21.9212 79.9998 19.3459 80.029 18.7159C80.7112 17.9079 81.66 16.6389 81.8081 15.6583ZM76.0761 19.0523C75.9646 19.8229 75.7267 21.4603 75.7029 21.6596C75.8897 22.7381 76.2057 27.7268 75.8144 28.8996C75.9168 29.4834 76.1987 32.1031 76.2974 32.4591C76.5916 33.5252 75.8876 35.531 75.7251 35.967C75.6593 36.1432 75.7506 36.3016 75.7432 36.4707C73.4962 35.1234 72.593 35.3619 71.4356 34.1499L69.8667 33.3526L71.536 33.6604C71.6841 32.9414 71.9257 31.7045 71.8833 31.3717C71.801 30.7061 71.7627 26.7052 71.7627 26.4168C71.7627 25.6409 71.1978 20.8783 71.75 19.1466C71.6496 18.901 71.4591 15.5034 71.4591 15.5034C71.6018 15.4607 74.7742 18.1446 75.1894 18.3315C75.6407 18.5361 75.7815 18.4276 76.1308 18.6483L77.4475 19.1075L76.0724 19.0487L76.0761 19.0523Z" fill="black"/>
<path id="Vector_14" d="M81.8081 15.6583C80.9194 15.7455 80.0438 15.4073 79.9998 15.3112C79.4073 15.4839 78.6963 15.2543 78.3687 14.5905C75.4634 13.1186 74.5162 10.3208 73.3004 9.55908C72.9531 10.5308 72.8012 11.4242 71.9915 12.3479C71.0772 13.3909 69.8136 14.9286 69.7132 14.9001C69.4022 14.8094 67.7329 14.3484 66.6795 14.222C67.1165 17.0127 67.3012 18.7266 67.3251 19.2249C67.3506 19.7748 67.4148 19.8407 67.2354 20.129C67.7695 23.6493 67.6086 29.9141 67.442 31.2649C67.4292 31.3717 67.6761 31.838 67.667 31.9964C67.6506 32.2331 66.9959 36.2696 66.6211 37.6275C67.5061 37.7699 69.554 38.2059 70.4061 38.9588C72.0865 40.4395 73.3699 40.6122 74.3516 42.4969C75.7012 41.1888 75.4634 39.4589 76.6591 38.0546C76.9245 37.9567 79.1715 37.3588 79.2283 37.3232C79.3637 37.2378 79.9689 37.0064 80.8042 37.0509C80.7713 36.9566 80.2759 33.7601 80.287 32.9948C80.3051 31.6636 80.0417 25.0856 80.0146 23.9412C79.9998 23.2845 79.9467 22.6242 80.0841 21.9728C80.0948 21.9212 79.9998 19.3459 80.029 18.7159C80.7112 17.9079 81.66 16.6389 81.8081 15.6583ZM76.0761 19.0523C75.9646 19.8229 75.7267 21.4603 75.7029 21.6596C75.8897 22.7381 76.2057 27.7268 75.8144 28.8996C75.9168 29.4834 76.1987 32.1031 76.2974 32.4591C76.5916 33.5252 75.8876 35.531 75.7251 35.967C75.6593 36.1432 75.7506 36.3016 75.7432 36.4707C73.4962 35.1234 72.593 35.3619 71.4356 34.1499L69.8667 33.3526L71.536 33.6604C71.6841 32.9414 71.9257 31.7045 71.8833 31.3717C71.801 30.7061 71.7627 26.7052 71.7627 26.4168C71.7627 25.6409 71.1978 20.8783 71.75 19.1466C71.6496 18.901 71.4591 15.5034 71.4591 15.5034C71.6018 15.4607 74.7742 18.1446 75.1894 18.3315C75.6407 18.5361 75.7815 18.4276 76.1308 18.6483L77.4475 19.1075L76.0724 19.0487L76.0761 19.0523Z" fill="black"/>
<path id="Vector_15" d="M29.6172 6.17924V1.01646C29.6172 0.714386 29.6541 0.403152 29.9212 0.101074H28.65C28.7974 0.403152 28.8343 0.714386 28.8343 1.01646V4.29355L25.5089 0.101074H24.6982C24.9654 0.403152 25.0022 0.714386 25.0022 1.01646V5.04418C25.0022 5.34623 24.9654 5.65746 24.6982 5.95956H25.9694C25.822 5.65746 25.7852 5.34623 25.7852 5.04418V2.08747L28.2078 5.11738C28.604 5.61171 29.1474 6.11518 29.6172 6.17924Z" fill="black"/>
<path id="Vector_16" d="M29.6172 6.17924V1.01646C29.6172 0.714386 29.6541 0.403152 29.9212 0.101074H28.65C28.7974 0.403152 28.8343 0.714386 28.8343 1.01646V4.29355L25.5089 0.101074H24.6982C24.9654 0.403152 25.0022 0.714386 25.0022 1.01646V5.04418C25.0022 5.34623 24.9654 5.65746 24.6982 5.95956H25.9694C25.822 5.65746 25.7852 5.34623 25.7852 5.04418V2.08747L28.2078 5.11738C28.604 5.61171 29.1474 6.11518 29.6172 6.17924Z" fill="black"/>
<path id="Vector_17" d="M35.2295 5.95918H38.1772C38.3522 5.95918 38.601 5.97749 38.7667 6.07817L39.0339 4.63184C38.7575 4.98887 38.4444 5.28179 37.8272 5.28179H36.602V3.1947C36.7033 3.18555 36.8139 3.17639 36.9152 3.17639H37.4864C37.8732 3.17639 38.1404 3.26793 38.3062 3.39609V2.30678C38.1404 2.43493 37.8732 2.51731 37.4864 2.51731H36.9152C36.8139 2.51731 36.7033 2.50816 36.602 2.49901V0.778081H37.7443C38.2878 0.778081 38.5549 1.04354 38.7207 1.22662L38.6286 0C38.4628 0.0915386 38.2141 0.100692 38.039 0.100692H35.2295C35.4967 0.40277 35.5427 0.714004 35.5427 1.01608V5.0438C35.5427 5.34585 35.4967 5.65708 35.2295 5.95918Z" fill="black"/>
<path id="Vector_18" d="M35.2295 5.95918H38.1772C38.3522 5.95918 38.601 5.97749 38.7667 6.07817L39.0339 4.63184C38.7575 4.98887 38.4444 5.28179 37.8272 5.28179H36.602V3.1947C36.7033 3.18555 36.8139 3.17639 36.9152 3.17639H37.4864C37.8732 3.17639 38.1404 3.26793 38.3062 3.39609V2.30678C38.1404 2.43493 37.8732 2.51731 37.4864 2.51731H36.9152C36.8139 2.51731 36.7033 2.50816 36.602 2.49901V0.778081H37.7443C38.2878 0.778081 38.5549 1.04354 38.7207 1.22662L38.6286 0C38.4628 0.0915386 38.2141 0.100692 38.039 0.100692H35.2295C35.4967 0.40277 35.5427 0.714004 35.5427 1.01608V5.0438C35.5427 5.34585 35.4967 5.65708 35.2295 5.95918Z" fill="black"/>
<path id="Vector_19" d="M45.5676 5.95918H47.2624C46.9953 5.65708 46.9493 5.34585 46.9493 5.0438V0.778081H47.8425C48.2478 0.778081 48.561 1.04354 48.7268 1.35477V0C48.561 0.0823848 48.3861 0.100692 48.1651 0.100692H44.6554C44.4529 0.100692 44.2686 0.0823848 44.1118 0V1.35477C44.2776 1.04354 44.5908 0.778081 44.987 0.778081H45.8807V5.0438C45.8807 5.34585 45.8346 5.65708 45.5676 5.95918Z" fill="black"/>
<path id="Vector_20" d="M45.5676 5.95918H47.2624C46.9953 5.65708 46.9493 5.34585 46.9493 5.0438V0.778081H47.8425C48.2478 0.778081 48.561 1.04354 48.7268 1.35477V0C48.561 0.0823848 48.3861 0.100692 48.1651 0.100692H44.6554C44.4529 0.100692 44.2686 0.0823848 44.1118 0V1.35477C44.2776 1.04354 44.5908 0.778081 44.987 0.778081H45.8807V5.0438C45.8807 5.34585 45.8346 5.65708 45.5676 5.95918Z" fill="black"/>
<path id="Vector_21" d="M57.7364 5.95956H59.33C59.063 5.65746 59.0169 5.34623 59.0169 5.04418V1.01646C59.0169 0.714385 59.063 0.403152 59.33 0.101074H57.7364C57.9022 0.403152 57.9483 0.897462 57.9483 1.19954V2.38039H55.3968V1.19954C55.3968 0.897462 55.4429 0.403152 55.6087 0.101074H54.0151C54.2822 0.403152 54.3283 0.714385 54.3283 1.01646V5.04418C54.3283 5.34623 54.2822 5.65746 54.0151 5.95956H55.6087C55.4429 5.65746 55.3968 5.16317 55.3968 4.86108V3.03947H57.9483V4.86108C57.9483 5.16317 57.9022 5.65746 57.7364 5.95956Z" fill="black"/>
<path id="Vector_22" d="M57.7364 5.95956H59.33C59.063 5.65746 59.0169 5.34623 59.0169 5.04418V1.01646C59.0169 0.714385 59.063 0.403152 59.33 0.101074H57.7364C57.9022 0.403152 57.9483 0.897462 57.9483 1.19954V2.38039H55.3968V1.19954C55.3968 0.897462 55.4429 0.403152 55.6087 0.101074H54.0151C54.2822 0.403152 54.3283 0.714385 54.3283 1.01646V5.04418C54.3283 5.34623 54.2822 5.65746 54.0151 5.95956H55.6087C55.4429 5.65746 55.3968 5.16317 55.3968 4.86108V3.03947H57.9483V4.86108C57.9483 5.16317 57.9022 5.65746 57.7364 5.95956Z" fill="black"/>
<path id="Vector_23" d="M64.6987 5.95918H67.6464C67.8213 5.95918 68.0703 5.97749 68.2357 6.07817L68.5031 4.63184C68.2266 4.98887 67.9135 5.28179 67.2963 5.28179H66.071V3.1947C66.1726 3.18555 66.2829 3.17639 66.3845 3.17639H66.9556C67.3424 3.17639 67.6094 3.26793 67.7752 3.39609V2.30678C67.6094 2.43493 67.3424 2.51731 66.9556 2.51731H66.3845C66.2829 2.51731 66.1726 2.50816 66.071 2.49901V0.778081H67.2132C67.7567 0.778081 68.0242 1.04354 68.19 1.22662L68.0978 0C67.932 0.0915386 67.6831 0.100692 67.5082 0.100692H64.6987C64.9658 0.40277 65.0119 0.714004 65.0119 1.01608V5.0438C65.0119 5.34585 64.9658 5.65708 64.6987 5.95918Z" fill="black"/>
<path id="Vector_24" d="M64.6987 5.95918H67.6464C67.8213 5.95918 68.0703 5.97749 68.2357 6.07817L68.5031 4.63184C68.2266 4.98887 67.9135 5.28179 67.2963 5.28179H66.071V3.1947C66.1726 3.18555 66.2829 3.17639 66.3845 3.17639H66.9556C67.3424 3.17639 67.6094 3.26793 67.7752 3.39609V2.30678C67.6094 2.43493 67.3424 2.51731 66.9556 2.51731H66.3845C66.2829 2.51731 66.1726 2.50816 66.071 2.49901V0.778081H67.2132C67.7567 0.778081 68.0242 1.04354 68.19 1.22662L68.0978 0C67.932 0.0915386 67.6831 0.100692 67.5082 0.100692H64.6987C64.9658 0.40277 65.0119 0.714004 65.0119 1.01608V5.0438C65.0119 5.34585 64.9658 5.65708 64.6987 5.95918Z" fill="black"/>
<path id="Vector_25" d="M73.8618 5.95956H75.4188C75.2711 5.65746 75.2345 5.16317 75.2345 4.86108V0.760152H76.1002C77.0766 0.760152 77.3436 1.32769 77.3436 1.98677C77.3436 2.2797 77.316 2.53601 77.1321 2.96624C76.7725 3.06693 76.5425 3.1127 76.1187 3.1127H75.5661L76.8832 5.18148C77.0951 5.51102 77.1782 5.66664 77.0951 5.95956H78.9557C78.5599 5.77646 78.1176 5.3371 77.832 4.87939L76.9939 3.57039C77.8505 3.36901 78.4122 2.74654 78.4307 1.87692C78.4401 0.870001 77.7032 0.101074 76.3121 0.101074H73.8618C74.1289 0.403152 74.1659 0.714385 74.1659 1.01646V5.04418C74.1659 5.34623 74.1289 5.65746 73.8618 5.95956Z" fill="black"/>
<path id="Vector_26" d="M73.8618 5.95956H75.4188C75.2711 5.65746 75.2345 5.16317 75.2345 4.86108V0.760152H76.1002C77.0766 0.760152 77.3436 1.32769 77.3436 1.98677C77.3436 2.2797 77.316 2.53601 77.1321 2.96624C76.7725 3.06693 76.5425 3.1127 76.1187 3.1127H75.5661L76.8832 5.18148C77.0951 5.51102 77.1782 5.66664 77.0951 5.95956H78.9557C78.5599 5.77646 78.1176 5.3371 77.832 4.87939L76.9939 3.57039C77.8505 3.36901 78.4122 2.74654 78.4307 1.87692C78.4401 0.870001 77.7032 0.101074 76.3121 0.101074H73.8618C74.1289 0.403152 74.1659 0.714385 74.1659 1.01646V5.04418C74.1659 5.34623 74.1289 5.65746 73.8618 5.95956Z" fill="black"/>
<path id="Vector_27" d="M87.6815 5.95956H89.3492C88.9714 5.65746 88.8332 5.3371 88.7225 5.035L87.2026 1.01646C87.0923 0.723536 87.0092 0.403152 86.9725 0.101074H85.5168C85.8209 0.403152 85.7933 0.714385 85.6826 1.01646L84.1721 5.035C84.0615 5.3371 83.9232 5.65746 83.5459 5.95956H84.863C84.826 5.65746 84.8996 5.3371 85.0012 5.04418L85.2312 4.39423H87.3503L87.5712 5.04418C87.6724 5.34623 87.7185 5.65746 87.6815 5.95956ZM85.4431 3.80839L86.2998 1.39177L87.1384 3.80839H85.4431Z" fill="black"/>
<path id="Vector_28" d="M87.6815 5.95956H89.3492C88.9714 5.65746 88.8332 5.3371 88.7225 5.035L87.2026 1.01646C87.0923 0.723536 87.0092 0.403152 86.9725 0.101074H85.5168C85.8209 0.403152 85.7933 0.714385 85.6826 1.01646L84.1721 5.035C84.0615 5.3371 83.9232 5.65746 83.5459 5.95956H84.863C84.826 5.65746 84.8996 5.3371 85.0012 5.04418L85.2312 4.39423H87.3503L87.5712 5.04418C87.6724 5.34623 87.7185 5.65746 87.6815 5.95956ZM85.4431 3.80839L86.2998 1.39177L87.1384 3.80839H85.4431Z" fill="black"/>
<path id="Vector_29" d="M94.2666 5.95956H95.8511C95.7034 5.65746 95.6483 5.16317 95.6483 4.86108V3.62531L96.2103 2.9937L97.5735 5.13569C97.7669 5.44692 97.85 5.63002 97.7118 5.95956H99.7197C99.1581 5.67577 98.9552 5.40116 98.7343 5.04418L97.0485 2.3987L98.3751 0.897462C98.6882 0.531305 99.0198 0.265844 99.5539 0.101074H97.4999C97.6287 0.476383 97.546 0.714385 97.2694 1.01646L95.6483 2.84724V1.19954C95.6483 0.897462 95.7034 0.403152 95.8511 0.101074H94.2666C94.5336 0.403152 94.5797 0.714385 94.5797 1.01646V5.04418C94.5797 5.34623 94.5336 5.65746 94.2666 5.95956Z" fill="black"/>
<path id="Vector_30" d="M94.2666 5.95956H95.8511C95.7034 5.65746 95.6483 5.16317 95.6483 4.86108V3.62531L96.2103 2.9937L97.5735 5.13569C97.7669 5.44692 97.85 5.63002 97.7118 5.95956H99.7197C99.1581 5.67577 98.9552 5.40116 98.7343 5.04418L97.0485 2.3987L98.3751 0.897462C98.6882 0.531305 99.0198 0.265844 99.5539 0.101074H97.4999C97.6287 0.476383 97.546 0.714385 97.2694 1.01646L95.6483 2.84724V1.19954C95.6483 0.897462 95.7034 0.403152 95.8511 0.101074H94.2666C94.5336 0.403152 94.5797 0.714385 94.5797 1.01646V5.04418C94.5797 5.34623 94.5336 5.65746 94.2666 5.95956Z" fill="black"/>
</g>
<defs>
<clipPath id="clip0_2448_2063">
<rect width="122.821" height="56" fill="white" transform="translate(0.588867)"/>
</clipPath>
</defs>
</svg>
