<svg width="178" height="48" viewBox="0 0 178 48" fill="none" xmlns="http://www.w3.org/2000/svg">
<g id="Dark Table" clip-path="url(#clip0_2448_2127)">
<path id="Vector" d="M0.0410156 35.5229C0.195895 35.5251 0.35033 35.5295 0.505209 35.5295C28.2474 35.5295 55.9899 35.5295 83.7321 35.53C83.8291 35.53 83.9284 35.5233 84.0223 35.542C84.0645 35.5505 84.1291 35.6199 84.1242 35.6528C84.1162 35.7062 84.0659 35.7601 84.0209 35.7988C83.9973 35.8188 83.9462 35.809 83.9074 35.8095C83.8198 35.8108 83.7325 35.8095 83.6449 35.8095C55.9316 35.8095 28.2184 35.8095 0.505209 35.8095C0.35033 35.8095 0.19545 35.8121 0.0410156 35.8135C0.0410156 35.7165 0.0410156 35.619 0.0410156 35.522L0.0410156 35.5229Z" fill="black"/>
<path id="Vector_2" d="M154.257 47.9999C154.2 47.9657 154.147 47.9158 154.085 47.8998C152.343 47.4583 151.378 46.0413 151.255 44.4533C151.179 43.4755 151.293 42.5333 151.745 41.6503C152.458 40.26 153.585 39.5043 155.158 39.4486C156.007 39.4184 156.823 39.5666 157.584 39.9618C157.632 39.9867 157.687 40.0001 157.765 40.0281V39.47H158.394V42.1492H157.989C157.97 42.0438 157.951 41.9494 157.934 41.855C157.758 40.8902 157.084 40.1923 156.126 39.9836C154.891 39.7143 153.769 40.1856 153.074 41.2435C152.532 42.0669 152.361 42.9753 152.405 43.9388C152.44 44.6976 152.612 45.4182 153.032 46.0648C153.645 47.0079 154.496 47.5171 155.638 47.4944C156.25 47.4823 156.831 47.3448 157.368 47.0408C157.492 46.9705 157.587 46.898 157.586 46.7311C157.579 45.9736 157.582 45.2161 157.579 44.4586C157.579 44.431 157.566 44.4034 157.549 44.3345H156.789C156.778 44.1662 156.77 44.0372 156.762 43.9165C156.985 43.8342 159.071 43.8177 159.407 43.8916V44.1782C158.802 44.3612 158.725 44.4453 158.633 45.0644C158.604 45.2557 158.594 45.4511 158.591 45.6447C158.586 46.1303 158.59 46.6158 158.589 47.1014C158.589 47.2055 158.58 47.3097 158.575 47.4196C158.496 47.4361 158.44 47.4588 158.385 47.4574C157.919 47.4458 157.482 47.5731 157.048 47.7209C156.855 47.7863 156.657 47.8353 156.464 47.8998C156.404 47.9198 156.353 47.9661 156.299 48.0004H154.256L154.257 47.9999Z" fill="black"/>
<path id="Vector_3" d="M142.878 47.9999C142.824 47.9647 142.774 47.9131 142.714 47.8966C140.695 47.3283 139.651 45.4186 139.81 43.4803C139.883 42.5938 140.135 41.7624 140.666 41.037C141.338 40.1188 142.239 39.5799 143.381 39.4695C144.303 39.3805 145.185 39.506 145.999 39.9769C146.071 40.0187 146.151 40.0476 146.26 40.097V39.5843C146.429 39.4753 146.597 39.5256 146.756 39.5323C146.801 39.534 146.858 39.607 146.882 39.6595C146.904 39.7085 146.89 39.7739 146.89 39.8322C146.89 40.551 146.89 41.2697 146.889 41.9885C146.889 42.0637 146.88 42.1394 146.874 42.2351H146.465C146.444 42.1305 146.426 42.0455 146.411 41.9605C146.073 40.1295 144.496 39.6368 143.17 40.0334C142.445 40.2506 141.898 40.7152 141.545 41.3703C140.803 42.7482 140.73 44.1764 141.395 45.5993C142.21 47.3425 144.101 47.9193 145.827 46.991C146.156 46.8134 146.441 46.5846 146.692 46.3087C146.749 46.2459 146.812 46.1885 146.888 46.1133C146.984 46.1881 147.065 46.2513 147.159 46.3243C147.108 46.4075 147.074 46.476 147.029 46.5348C146.506 47.2139 145.817 47.643 145 47.8802C144.911 47.906 144.83 47.9594 144.746 48.0003H142.879L142.878 47.9999Z" fill="black"/>
<path id="Vector_4" d="M131.5 47.9997C131.423 47.9623 131.349 47.9151 131.268 47.8888C129.685 47.3766 128.746 46.2911 128.466 44.6631C128.247 43.3889 128.471 42.181 129.207 41.1017C129.766 40.2837 130.532 39.7367 131.515 39.5414C132.577 39.33 133.605 39.427 134.567 39.965C134.642 40.0069 134.719 40.0429 134.843 40.1061C134.846 39.9909 134.85 39.9121 134.851 39.8333C134.852 39.7479 134.851 39.6629 134.851 39.569C135.047 39.4906 135.233 39.5066 135.464 39.5614C135.472 40.4404 135.465 41.3198 135.468 42.2277H135.047C135.02 42.0911 134.997 41.9589 134.967 41.8285C134.555 40.0127 132.945 39.662 131.739 40.0372C130.895 40.3002 130.321 40.8836 129.972 41.6674C129.427 42.8949 129.39 44.1602 129.891 45.409C130.267 46.3467 130.936 47.0236 131.927 47.3116C132.781 47.5599 133.601 47.4104 134.382 47.0045C134.722 46.8274 135.02 46.5973 135.274 46.3102C135.331 46.2461 135.371 46.1674 135.427 46.0841C135.565 46.1843 135.648 46.2444 135.745 46.3142C135.703 46.3881 135.678 46.4491 135.639 46.4998C135.108 47.1981 134.409 47.6454 133.568 47.8817C133.477 47.9071 133.395 47.9587 133.309 47.9983H131.5L131.5 47.9997Z" fill="black"/>
<path id="Vector_5" d="M29.1466 13.632C28.1879 16.6415 27.2587 19.6599 26.2938 22.713C26.4447 22.7196 26.5573 22.729 26.6694 22.729C28.1866 22.7299 29.7034 22.7294 31.2206 22.7299C31.2984 22.7299 31.3803 22.7161 31.4524 22.7365C31.5179 22.7552 31.6082 22.8002 31.6265 22.854C31.792 23.3494 31.9442 23.8492 32.1156 24.3953C31.9705 24.4024 31.8601 24.4122 31.7493 24.4122C29.8725 24.4131 27.9957 24.4126 26.1189 24.4126C26.0606 24.4126 26.0023 24.4117 25.944 24.4126C25.6636 24.4162 25.6591 24.4148 25.5719 24.6792C25.2608 25.6196 24.9586 26.5631 24.6417 27.5018C24.4637 28.0287 24.3249 28.5614 24.2763 29.1169C24.2047 29.9353 24.5269 30.5584 25.2176 30.9834C25.4887 31.1503 25.7909 31.2674 26.0806 31.4027C26.2653 31.489 26.3868 31.9359 26.2457 32.0778C26.1945 32.129 26.0877 32.1406 26.0054 32.1428C25.4709 32.1566 24.9359 32.1704 24.4014 32.17C22.9915 32.1691 21.5815 32.161 20.1716 32.1557C20.0937 32.1557 20.0163 32.1508 19.9384 32.1495C19.8222 32.1468 19.7555 32.0947 19.7564 31.9728C19.7564 31.9341 19.7546 31.8949 19.755 31.8562C19.7608 31.5219 19.7021 31.4966 20.0973 31.3648C20.845 31.1165 21.4035 30.6096 21.849 29.9749C22.412 29.1729 22.8054 28.2833 23.1228 27.3633C23.6199 25.9218 24.0908 24.4714 24.5665 23.0227C25.1789 21.1588 25.7851 19.2927 26.3939 17.4279C27.0028 15.5631 27.6112 13.6979 28.2204 11.8331C28.5493 10.8268 28.8796 9.82145 29.2094 8.81517C29.3086 8.51209 29.3277 8.49518 29.6393 8.49474C30.3687 8.4934 31.0982 8.49296 31.8272 8.49474C32.0938 8.49563 32.112 8.51253 32.197 8.76889C32.9269 10.9724 33.6564 13.1763 34.3867 15.3798C34.9951 17.2143 35.6026 19.0488 36.2132 20.8824C36.9373 23.057 37.6628 25.2311 38.3918 27.4043C38.7238 28.3941 39.155 29.3372 39.755 30.197C39.8106 30.2767 39.868 30.355 39.9294 30.4302C39.9526 30.4587 39.9895 30.4756 40.0509 30.5206C40.119 30.42 40.1893 30.3323 40.2427 30.2348C40.5307 29.7101 40.6384 29.1364 40.6397 28.5494C40.6477 25.2845 40.6446 22.02 40.6446 18.7551C40.6446 16.6464 40.654 14.5382 40.6362 12.4295C40.6322 11.9377 40.561 11.4423 40.4755 10.9563C40.3549 10.2687 39.9321 9.80899 39.2828 9.56287C38.9013 9.41823 38.5141 9.29049 38.0909 9.1414C38.0909 8.96694 38.09 8.7858 38.0909 8.60466C38.0918 8.48316 38.1639 8.43287 38.2765 8.42709C38.3348 8.42397 38.3931 8.42219 38.4514 8.42219C41.6411 8.42397 44.8308 8.41774 48.0201 8.43154C49.2516 8.43688 50.4639 8.61223 51.6331 9.015C52.4591 9.2994 53.2117 9.71819 53.8615 10.3106C54.793 11.1597 55.3008 12.2274 55.4726 13.4616C55.6324 14.6085 55.5273 15.7269 55.0925 16.8102C54.6617 17.8836 53.9598 18.7315 52.9812 19.3399C52.6037 19.5744 52.1885 19.7489 51.7897 19.95C51.7061 19.9923 51.6197 20.0293 51.528 20.072C51.5583 20.1205 51.5676 20.1557 51.589 20.1663C52.2984 20.5197 52.7635 21.1223 53.1578 21.7721C53.5548 22.4272 53.9135 23.1077 54.2505 23.7962C54.947 25.2182 55.6052 26.6588 56.3039 28.0794C56.6337 28.7497 57.0142 29.3955 57.3854 30.0444C57.4954 30.2362 57.6431 30.4093 57.7913 30.5749C57.9711 30.7756 58.0121 30.7671 58.2141 30.5771C58.4099 30.3928 58.5541 30.1712 58.6249 29.9157C58.705 29.6269 58.7811 29.3314 58.8069 29.0345C58.8501 28.5419 58.8675 28.0452 58.8679 27.5503C58.8737 22.6435 58.8777 17.7363 58.8692 12.8296C58.8684 12.259 58.8092 11.6858 58.7393 11.1183C58.6538 10.4254 58.256 9.94383 57.6213 9.66345C57.2924 9.51836 56.9542 9.39508 56.6204 9.26068C56.5314 9.22507 56.4432 9.18591 56.3315 9.13829C56.3315 8.98207 56.3355 8.82808 56.3302 8.67453C56.3257 8.52989 56.3867 8.45735 56.534 8.45601C56.6894 8.45423 56.8451 8.44222 57.0005 8.44222C59.8007 8.444 62.6015 8.44666 65.4018 8.45067C65.5357 8.45067 65.6693 8.46536 65.825 8.47471V9.14051C65.7547 9.17255 65.6786 9.21216 65.5989 9.24376C65.4183 9.31542 65.238 9.3893 65.0542 9.45161C64.0021 9.80721 63.4587 10.5464 63.3999 11.6453C63.3745 12.1202 63.3568 12.5964 63.3554 13.0717C63.3505 14.9565 63.3532 16.8418 63.3541 18.7266C63.3541 18.8205 63.363 18.9144 63.3683 19.019C63.5228 19.0288 63.5659 18.9139 63.6305 18.8414C64.4311 17.9406 65.23 17.0389 66.0266 16.1346C67.3756 14.6031 68.7246 13.0721 70.0673 11.5354C70.3352 11.2287 70.5676 10.8909 70.8275 10.5772C71.0629 10.2932 71.3175 10.0257 71.5574 9.74534C71.86 9.39152 72.1675 9.04037 72.4515 8.67187C72.5908 8.49073 72.7439 8.41329 72.9691 8.41507C74.0969 8.42308 75.2251 8.41996 76.3533 8.42308C76.6693 8.42397 76.6791 8.43777 76.6822 8.75376C76.6822 8.79248 76.6826 8.83164 76.6822 8.87036C76.6777 9.1503 76.6679 9.15787 76.3862 9.18012C75.6888 9.23531 75.0306 9.42624 74.4133 9.75558C73.5468 10.218 72.7839 10.8188 72.1177 11.534C70.7069 13.0485 69.3125 14.5778 67.9128 16.103C67.6235 16.4181 67.3413 16.7394 67.0574 17.059C66.9938 17.1306 66.9359 17.2072 66.8718 17.2855C66.9043 17.3482 66.9257 17.4021 66.9577 17.4484C67.7837 18.6491 68.6102 19.8499 69.438 21.0498C70.3593 22.3858 71.2805 23.7214 72.2036 25.0562C73.237 26.5507 74.2691 28.0461 75.3096 29.5357C75.5317 29.8539 75.7836 30.1521 76.0302 30.4525C76.4508 30.9647 76.9768 31.3097 77.6351 31.4418C77.8602 31.4872 77.8616 31.497 77.8683 31.7329C77.8775 32.0424 77.7263 32.1974 77.4147 32.198C75.5865 32.1998 73.7582 32.1958 71.9303 32.2073C71.6352 32.2091 71.4483 32.1121 71.2841 31.8629C70.337 30.4276 69.3815 28.9976 68.4153 27.5747C67.5091 26.2405 66.5852 24.9182 65.6715 23.5888C64.9999 22.6119 64.3323 21.6324 63.6612 20.655C63.5931 20.5558 63.5134 20.4645 63.4004 20.319C63.3768 20.4512 63.3563 20.513 63.3563 20.5749C63.3563 23.0819 63.3523 25.5885 63.3657 28.0955C63.3679 28.5499 63.4293 29.0061 63.4898 29.4578C63.5793 30.124 63.9393 30.6034 64.5517 30.8904C64.9127 31.0595 65.2687 31.2389 65.635 31.396C65.7912 31.4632 65.862 31.5438 65.8575 31.72C65.8451 32.2238 65.8954 32.198 65.3835 32.198C61.9704 32.1993 58.5568 32.2007 55.1437 32.2024C54.7841 32.2024 54.424 32.1971 54.0644 32.2078C53.7707 32.2167 53.5682 32.0938 53.4155 31.8473C52.8823 30.9874 52.3932 30.1035 51.9762 29.1818C51.3068 27.7038 50.6544 26.2187 49.9801 24.7433C49.6935 24.1162 49.3851 23.498 49.0553 22.8927C48.8657 22.5452 48.6294 22.2194 48.3859 21.9056C47.9591 21.3542 47.3788 21.0662 46.6889 20.9901C46.4495 20.9639 46.2101 20.9349 45.931 20.9025C45.931 20.6101 45.9288 20.3417 45.931 20.0733C45.9359 19.5143 45.8567 19.5655 46.4379 19.5277C46.7962 19.5041 47.1563 19.472 47.5087 19.408C49.0166 19.1343 49.969 18.2481 50.3878 16.7763C50.6744 15.7701 50.6913 14.7447 50.6308 13.7126C50.5988 13.166 50.4826 12.6369 50.2877 12.1237C49.8364 10.9363 48.9854 10.2104 47.7446 9.96298C47.328 9.87975 46.8968 9.86105 46.4704 9.83613C46.1313 9.8161 45.7899 9.83079 45.4495 9.83213C45.1357 9.83346 45.1304 9.84014 45.1219 10.1641C45.1197 10.2514 45.1197 10.339 45.1197 10.4263C45.1197 15.8773 45.1197 21.3284 45.1197 26.7794C45.1197 27.2846 45.1028 27.791 45.1299 28.2948C45.1535 28.7292 45.1913 29.1694 45.2892 29.5917C45.4677 30.3608 45.9328 30.9096 46.6912 31.181C46.956 31.2758 47.2239 31.3653 47.4954 31.4396C47.644 31.4801 47.6948 31.5544 47.6992 31.7049C47.7139 32.1958 47.7188 32.1975 47.2359 32.1971C42.335 32.1909 37.4335 32.1842 32.5326 32.1775C32.0688 32.1771 32.0755 32.1753 32.0835 31.7013C32.0862 31.5371 32.1458 31.4543 32.3016 31.4102C32.6007 31.3257 32.9002 31.2393 33.1913 31.1316C34.153 30.7765 34.4757 30.2086 34.2754 29.2032C34.194 28.7942 34.0921 28.3874 33.9652 27.9904C33.339 26.0291 32.7102 24.0686 32.0666 22.113C31.262 19.6683 30.4426 17.2285 29.6295 14.7869C29.5191 14.4554 29.4083 14.1238 29.2961 13.7927C29.2783 13.7406 29.2512 13.6917 29.228 13.6409C29.2013 13.6378 29.1742 13.6347 29.1475 13.6316L29.1466 13.632Z" fill="black"/>
<path id="Vector_6" d="M85.6567 13.882C85.4693 14.21 85.2793 14.5362 85.095 14.8655C84.3416 16.2136 83.3593 17.3685 82.1608 18.3401C81.6824 18.7277 81.1576 19.0451 80.5897 19.2814C79.2461 19.8404 77.8406 20.1858 76.4151 20.4523C75.2246 20.6749 74.2566 20.2129 73.4421 19.3918C73.2227 19.1706 73.0674 18.8697 72.9366 18.5813C72.7487 18.167 72.5939 17.7357 72.4554 17.3018C72.2338 16.6057 72.41 15.9372 72.6517 15.2821C72.8596 14.7182 73.229 14.2638 73.7025 13.9113C74.1137 13.6051 74.5601 13.3426 75.0043 13.0844C75.2918 12.9171 75.6167 12.8432 75.9523 12.8223C76.1267 12.8116 76.3003 12.7809 76.4748 12.7742C76.5313 12.772 76.6194 12.8027 76.639 12.8445C76.6621 12.8926 76.6488 12.9932 76.6109 13.0284C76.5135 13.1196 76.3973 13.1935 76.282 13.2629C75.8499 13.5233 75.4115 13.7734 74.9825 14.0382C74.4311 14.3782 74.0461 14.8807 73.6927 15.4072C73.5116 15.6773 73.4947 15.9938 73.5214 16.3071C73.5699 16.8772 73.8195 17.3819 74.1489 17.8247C74.3701 18.122 74.7043 18.3552 75.0782 18.4536C76.2175 18.7531 77.3577 18.8319 78.4886 18.394C78.8327 18.2609 79.1843 18.1447 79.5376 18.0375C80.2867 17.8109 80.9302 17.4001 81.5328 16.9168C81.9556 16.5777 82.2876 16.158 82.5342 15.6787C82.7385 15.2817 82.9178 14.8718 83.095 14.4619C83.2165 14.1806 83.2436 13.8784 83.2187 13.5749C83.1488 12.7324 83.0643 11.8912 82.868 11.067C82.8039 10.7973 82.7394 10.5231 82.5711 10.2988C82.5342 10.3046 82.5084 10.3002 82.4981 10.3108C82.0918 10.7372 81.5982 11.0479 81.1096 11.3661C80.9391 11.4769 80.7767 11.6033 80.6253 11.739C80.2386 12.0862 80.0899 12.537 80.0837 13.0444C80.0833 13.0929 80.0868 13.1418 80.0957 13.1895C80.2132 13.8045 80.5412 14.1806 81.2845 13.8851C81.5439 13.7818 81.7598 13.6243 81.9245 13.3969C81.9667 13.3386 82.0157 13.2847 82.0954 13.1881C82.1207 13.5019 82.0206 13.7182 81.8484 13.8895C81.4465 14.2892 80.9618 14.477 80.3899 14.3911C79.9778 14.3293 79.6965 14.0983 79.555 13.7084C79.3827 13.2344 79.3827 12.7555 79.5505 12.2802C79.7557 11.699 80.0517 11.1649 80.4153 10.6682C80.4954 10.5583 80.5777 10.4501 80.6614 10.3424C81.4358 9.34418 81.8007 8.18837 81.9578 6.95556C82.0264 6.41615 82.07 5.87319 82.1363 5.33333C82.2685 4.25363 82.6886 3.30966 83.4029 2.47518C84.1159 1.64248 84.9397 0.982012 85.9865 0.65089C86.5673 0.467082 87.1757 0.365612 87.7761 0.248117C88.2523 0.154655 88.7325 0.0705379 89.2149 0.023807C89.6987 -0.023369 90.186 -0.00378654 90.664 0.112818C91.0232 0.200494 91.3846 0.276599 91.7424 0.369171C93.1995 0.746134 94.2832 1.57883 94.9263 2.96118C95.2294 3.6123 95.3919 4.29947 95.5076 4.99999C95.6371 5.78595 95.7671 6.57237 95.8605 7.36323C95.9793 8.36684 95.9126 9.3602 95.5948 10.3295C95.3585 11.0492 95.1328 11.7724 94.9028 12.4943C94.885 12.5499 94.8698 12.606 94.8511 12.6612C94.5814 13.4672 94.6246 14.2456 95.0363 15C95.1943 15.2897 95.3256 15.5937 95.4742 15.8887C95.6874 16.312 95.9829 16.6702 96.3599 16.9569C96.6385 17.1687 96.9273 17.3663 97.2113 17.5706C97.8339 18.0188 98.5455 18.2355 99.2892 18.3704C99.7427 18.4527 100.335 18.082 100.47 17.5889C100.651 16.9222 100.44 16.3868 100.088 15.8647C99.9795 15.7049 99.8393 15.5665 99.7152 15.4174C99.6564 15.3467 99.6021 15.2728 99.5033 15.145C99.6555 15.145 99.7383 15.1312 99.8144 15.1473C100.109 15.2096 100.365 15.356 100.556 15.5834C100.792 15.8656 101.017 16.1602 101.216 16.4691C101.494 16.9012 101.531 17.3801 101.399 17.871C101.308 18.2084 101.206 18.543 101.108 18.8782C101.048 19.0816 100.925 19.2391 100.758 19.3677C100.368 19.6686 99.931 19.8279 99.4334 19.8213C98.7979 19.8128 98.1739 19.7416 97.5651 19.5484C96.9438 19.3513 96.3309 19.1354 95.7528 18.8274C95.3127 18.5929 94.8947 18.3321 94.5431 17.9738C94.5 17.9298 94.4426 17.8999 94.3438 17.8928C94.3754 17.9898 94.403 18.0878 94.4386 18.183C94.7879 19.1136 95.2379 19.993 95.7541 20.8431C96.5775 22.1987 97.5949 23.3973 98.7204 24.5024C99.2318 25.0039 99.7997 25.4539 100.376 25.8811C101.149 26.4535 101.935 27.0134 102.752 27.5189C103.677 28.0908 104.641 28.5982 105.591 29.1301C106.489 29.6334 107.394 30.1261 108.29 30.6352C108.653 30.8413 108.999 31.0763 109.352 31.3001C109.865 31.6259 110.305 32.0349 110.713 32.4822C110.916 32.7047 111.118 32.9295 111.335 33.1387C111.762 33.5508 112.072 34.0341 112.297 34.5824C112.588 35.2927 112.895 35.9968 113.035 36.757C113.117 37.1989 113.062 37.6275 112.87 38.0361C112.837 38.1064 112.797 38.1758 112.778 38.2501C112.598 38.9649 112.073 39.3686 111.466 39.6877C111.051 39.9058 110.626 39.8906 110.206 39.6743C109.853 39.4923 109.567 39.2311 109.315 38.9329C108.819 38.3472 108.438 37.6956 108.274 36.9381C108.177 36.4864 108.23 36.0284 108.286 35.5749C108.294 35.5059 108.343 35.4418 108.398 35.3221C108.443 35.4218 108.476 35.4663 108.481 35.5139C108.497 35.639 108.502 35.7658 108.509 35.8918C108.529 36.2567 108.618 36.6039 108.808 36.9168C109.03 37.2817 109.242 37.6569 109.502 37.9934C109.838 38.4273 110.314 38.5786 110.854 38.4998C111.053 38.4709 111.209 38.3476 111.327 38.1829C111.54 37.8848 111.62 37.5519 111.576 37.1896C111.518 36.7209 111.349 36.2888 111.141 35.8678C110.831 35.2411 110.353 34.7395 109.931 34.1948C109.303 33.3861 108.504 32.7724 107.708 32.1471C106.862 31.4831 105.931 31.0082 104.91 30.6802C104.078 30.4123 103.254 30.1154 102.436 29.807C101.8 29.5671 101.163 29.3196 100.555 29.0188C100.114 28.8007 99.7111 28.5012 99.3048 28.2186C98.2985 27.5181 97.3296 26.769 96.428 25.9377C95.8921 25.4432 95.3718 24.9336 94.9263 24.3519C94.4305 23.7039 93.9152 23.0706 93.4292 22.415C92.9939 21.8285 92.6374 21.1929 92.3495 20.5195C92.2618 20.3144 92.1572 20.1168 92.0544 19.9187C92.0255 19.8626 91.9752 19.8177 91.8991 19.7233C91.8808 19.8431 91.8621 19.9125 91.8608 19.9824C91.8563 20.2058 91.867 20.4296 91.8555 20.6526C91.8448 20.8636 91.7647 20.9139 91.5439 20.8743C91.4104 20.8507 91.2778 20.8177 91.1429 20.803C91.0254 20.7906 90.9342 20.8498 90.8857 20.9575C90.8376 21.0647 90.843 21.1871 90.9391 21.2503C91.1767 21.4061 91.1732 21.6326 91.1603 21.8703C91.1549 21.9655 91.1594 22.0612 91.1594 22.1623C91.0904 22.1849 91.0472 22.2068 91.0018 22.2121C90.7486 22.2432 90.6996 22.2731 90.6867 22.5299C90.668 22.9077 90.6734 23.2873 90.6725 23.6661C90.6707 24.4102 90.6516 24.2558 91.0677 24.7284C91.1509 24.8232 91.2328 24.9203 91.3054 25.0235C91.3548 25.0938 91.4108 25.1726 91.4233 25.2536C91.4656 25.5309 91.4567 25.8099 91.4269 26.0957C91.3379 26.1112 91.2729 26.1219 91.2079 26.1344C90.8136 26.2096 90.5372 26.4326 90.3961 26.8073C90.2773 27.1233 90.344 27.4535 90.6155 27.648C90.8848 27.8412 90.9284 28.0859 90.928 28.3824C90.924 32.1426 90.9244 35.9029 90.9266 39.6632C90.9266 40.1252 90.8269 40.1563 91.4215 40.1443C91.547 40.1416 91.6765 40.1318 91.7963 40.0976C92.0597 40.0228 92.2235 39.7794 92.236 39.442C92.2475 39.1314 92.2382 38.8203 92.2413 38.5092C92.244 38.2212 92.2649 38.199 92.5609 38.1918C92.8328 38.1852 93.1056 38.1803 93.3775 38.1838C93.6281 38.1874 93.6584 38.2203 93.6561 38.4785C93.6521 38.9062 93.6366 39.3334 93.6357 39.7607C93.6321 41.8013 93.6321 43.8414 93.629 45.882C93.629 46.0271 93.6152 46.1726 93.6059 46.3177C93.597 46.4588 93.5231 46.5211 93.3784 46.5202C92.795 46.5166 92.2115 46.5162 91.628 46.5211C91.4905 46.522 91.4291 46.4445 91.41 46.3333C91.385 46.1904 91.3766 46.044 91.3712 45.8989C91.3646 45.7289 91.296 45.6034 91.1451 45.5193C90.9449 45.4075 90.7486 45.2896 90.5163 45.1539C90.4927 45.2709 90.4678 45.3417 90.4655 45.4133C90.4584 45.6559 90.4615 45.8989 90.4571 46.1419C90.4513 46.4703 90.4304 46.493 90.1095 46.4939C89.3022 46.4957 88.4953 46.4948 87.6879 46.4944C87.4156 46.4944 87.1432 46.4988 86.8713 46.4921C86.6612 46.4873 86.6443 46.4601 86.6292 46.2536C86.6096 45.9937 86.5789 45.7342 86.5628 45.4743C86.5584 45.4004 86.5722 45.3167 86.6047 45.2509C86.6866 45.0862 86.768 44.9175 86.8784 44.772C87.1054 44.472 87.2108 44.1387 87.2117 43.768C87.2135 43.1849 87.214 42.6019 87.2144 42.0189C87.2153 39.0455 87.2166 36.0725 87.2157 33.0991C87.2157 32.8761 87.2011 32.6531 87.1935 32.4301C87.1881 32.2664 87.222 32.2232 87.3884 32.2098C87.4921 32.2014 87.5972 32.2081 87.7262 32.2081C87.7373 32.0803 87.752 31.9869 87.7525 31.893C87.7556 30.5133 87.7551 29.1336 87.76 27.7539C87.7618 27.2488 87.6301 26.7699 87.4498 26.3088C87.3194 25.975 87.0511 25.7628 86.6786 25.72C86.5339 25.7036 86.3875 25.7049 86.242 25.6951C86.1387 25.688 86.0355 25.6764 85.8921 25.6631C85.9647 25.3983 86.027 25.1691 86.0929 24.9287C86.1926 24.9336 86.2687 24.9327 86.3439 24.9412C86.7929 24.991 87.1699 24.7227 87.2642 24.2829C87.3315 23.9692 87.3564 23.9483 87.6866 23.9336C87.9786 23.9202 88.0044 23.9118 88.0133 23.6154C88.0369 22.8463 87.999 22.0804 87.7965 21.3331C87.7022 20.9855 87.5268 20.6909 87.1922 20.5124C86.9856 20.402 86.894 20.2129 86.8855 19.9832C86.8815 19.8782 86.8846 19.7732 86.8846 19.6143C86.7996 19.6788 86.7498 19.702 86.7217 19.7407C86.1485 20.5373 85.5971 21.35 85.0002 22.128C84.605 22.6434 84.1457 23.1093 83.7149 23.5976C83.5672 23.7649 83.4158 23.9291 83.273 24.1005C82.4616 25.0738 81.5746 25.9728 80.5719 26.7477C80.0027 27.1874 79.3885 27.5715 78.6889 27.7775C77.9341 27.9996 77.1922 27.9711 76.4783 27.6013C76.2718 27.4945 76.0533 27.4086 75.8352 27.328C75.5419 27.2199 75.3278 27.0343 75.1414 26.7793C74.5508 25.9697 74.549 25.1557 74.9553 24.2558C75.3697 23.339 76.0608 22.7515 76.9207 22.3105C77.015 22.2619 77.1183 22.2272 77.2211 22.2005C77.9114 22.0221 78.4174 22.3078 78.6079 22.9941C78.7748 23.5958 78.6204 24.1089 78.1366 24.5099C77.9875 24.6332 77.8237 24.7405 77.6582 24.841C77.5669 24.8967 77.4383 24.9363 77.3662 24.8335C77.3212 24.7689 77.3226 24.6501 77.3439 24.566C77.3907 24.3786 77.4815 24.2015 77.5193 24.0128C77.5531 23.8468 77.5963 23.6389 77.4196 23.5317C77.2456 23.4262 77.056 23.505 76.9016 23.6167C76.4676 23.9314 76.1374 24.3381 75.9207 24.825C75.7431 25.2242 75.8864 25.8202 76.1957 26.1255C76.3265 26.2545 76.4788 26.3409 76.663 26.3289C77.1374 26.2986 77.6132 26.2706 78.0854 26.2154C78.4797 26.1695 78.8367 26 79.1397 25.7481C79.6921 25.2883 80.2422 24.8246 80.7687 24.3359C81.0299 24.0933 81.2511 23.8036 81.4656 23.5166C81.9899 22.8147 82.4394 22.0666 82.8279 21.2793C83.2062 20.5133 83.6086 19.7581 84.0225 19.0104C84.52 18.1118 84.8868 17.1643 85.1591 16.178C85.3403 15.5229 85.5107 14.8651 85.683 14.2078C85.7088 14.1094 85.7186 14.0066 85.7359 13.906C85.7097 13.8989 85.683 13.8922 85.6567 13.8851V13.882ZM85.9295 9.9993C86.5544 9.9993 86.9625 9.85866 87.335 9.57071C88.1272 8.95876 88.2834 7.85992 87.6937 7.05303C87.2019 6.38055 86.3448 6.09972 85.5152 6.33916C84.569 6.61242 84.0069 7.49942 84.1778 8.46697C84.2597 8.93072 84.5285 9.30101 84.8245 9.65083C84.8725 9.70735 84.9446 9.76031 85.0154 9.77856C85.3701 9.87113 85.7284 9.95124 85.93 9.9993H85.9295ZM92.357 6.34094C92.0864 6.41081 91.8074 6.45888 91.5461 6.55501C90.4393 6.96357 90.0984 8.40555 90.8946 9.2743C91.6258 10.0718 92.9009 10.1399 93.7131 9.42473C94.5031 8.72956 94.5084 7.59289 93.7283 6.88658C93.3411 6.53588 92.8831 6.38322 92.3566 6.3405L92.357 6.34094ZM90.3053 10.6802C90.2755 10.4773 90.2702 10.3091 90.2243 10.1528C90.1126 9.77099 89.9884 9.39225 89.8563 9.01707C89.8086 8.88221 89.7392 8.7478 89.6511 8.63565C89.3493 8.24889 89.1179 8.25068 88.8193 8.64366C88.2848 9.3473 88.0547 10.1368 88.1486 11.0216C88.1748 11.2677 88.2803 11.4359 88.4908 11.5579C88.6929 11.6754 88.9034 11.622 88.9871 11.4057C89.0178 11.3265 89.0142 11.2348 89.0302 11.1498C89.0529 11.0265 89.0747 10.9023 89.105 10.7808C89.1241 10.7043 89.1638 10.6126 89.2577 10.6491C89.3142 10.6713 89.3716 10.7555 89.3818 10.8195C89.405 10.9624 89.3907 11.1106 89.4068 11.2548C89.4317 11.4809 89.5372 11.6015 89.7125 11.6269C89.9097 11.6554 90.0592 11.5739 90.1349 11.3509C90.2123 11.1231 90.255 10.8841 90.3053 10.6807V10.6802Z" fill="black"/>
<path id="Vector_7" d="M122.847 32.1524C122.847 31.9481 122.842 31.7665 122.849 31.5854C122.853 31.4581 122.965 31.4457 123.056 31.4167C123.343 31.3255 123.632 31.2427 123.916 31.1421C124.08 31.0838 124.238 31.0051 124.392 30.9232C124.834 30.6877 125.067 30.3068 125.077 29.815C125.084 29.547 125.054 29.2671 124.978 29.0112C124.622 27.8104 124.256 26.6123 123.872 25.42C123.334 23.7466 122.777 22.079 122.229 20.4087C121.622 18.5631 121.017 16.7174 120.411 14.8718C120.302 14.5397 120.191 14.2082 120.078 13.8771C120.052 13.8001 120.014 13.7271 119.947 13.6523C119.55 14.6279 119.285 15.6364 118.96 16.6248C118.63 17.6307 118.333 18.6476 118.017 19.6579C117.704 20.657 117.386 21.6544 117.055 22.6976C117.233 22.7114 117.373 22.7319 117.513 22.7323C118.972 22.7346 120.431 22.7337 121.89 22.7341C121.987 22.7341 122.084 22.7363 122.181 22.7372C122.291 22.7386 122.368 22.7898 122.403 22.893C122.564 23.3697 122.723 23.8472 122.884 24.3274C122.746 24.4498 122.595 24.4191 122.456 24.4191C121.639 24.4204 120.822 24.4142 120.006 24.4133C118.917 24.412 117.828 24.4124 116.738 24.4133C116.414 24.4133 116.413 24.4169 116.31 24.7298C115.98 25.7356 115.649 26.741 115.318 27.7463C115.166 28.2096 115.062 28.6827 115.03 29.171C114.978 29.9525 115.288 30.5542 115.945 30.9663C116.207 31.1301 116.493 31.2614 116.78 31.378C116.96 31.4514 117.052 31.5449 117.035 31.7421C117.025 31.8658 117.034 31.9908 117.034 32.1462C116.892 32.1582 116.779 32.176 116.667 32.176C115.452 32.1782 114.236 32.1747 113.02 32.18C112.791 32.1809 112.61 32.1119 112.447 31.949C112.234 31.7363 112.002 31.5436 111.78 31.3397C111.696 31.2627 111.619 31.1777 111.532 31.0887C111.579 31.0335 111.604 30.9912 111.641 30.9645C112.388 30.4211 112.854 29.6645 113.254 28.8568C113.7 27.9573 114.022 27.0102 114.335 26.0596C114.96 24.1592 115.581 22.2575 116.201 20.3553C116.932 18.1113 117.659 15.8656 118.39 13.6216C118.917 12.0056 119.448 10.3909 119.977 8.77582C120.065 8.50478 120.074 8.49543 120.369 8.49499C121.069 8.49365 121.769 8.49454 122.47 8.49499C122.862 8.49499 122.859 8.49632 122.979 8.86038C123.503 10.4466 124.028 12.0327 124.555 13.6185C125.16 15.4437 125.766 17.2684 126.373 19.0931C127.188 21.5449 128 23.9976 128.82 26.4477C129.109 27.3133 129.394 28.1812 129.801 29.0023C130.087 29.5782 130.382 30.1465 130.846 30.6058C130.86 30.6196 130.874 30.6334 130.888 30.6468C131.222 30.969 131.296 30.9694 131.621 30.645C131.942 30.3241 132.124 29.9271 132.191 29.487C132.252 29.0846 132.299 28.6756 132.299 28.2697C132.307 22.9838 132.307 17.6983 132.307 12.4124C132.307 11.8868 132.276 11.3629 132.138 10.852C131.956 10.1751 131.543 9.70421 130.873 9.47678C130.525 9.35884 130.17 9.25782 129.789 9.13988C129.789 8.9534 129.786 8.77093 129.791 8.5889C129.793 8.48253 129.863 8.43535 129.962 8.42912C130.04 8.42422 130.118 8.42333 130.196 8.42333C133.599 8.42333 137.003 8.422 140.406 8.42378C141.481 8.42422 142.541 8.55017 143.57 8.87417C144.503 9.16791 145.335 9.63478 146.023 10.3393C146.636 10.9682 147.023 11.7181 147.218 12.5717C147.472 13.6852 147.439 14.7881 147.105 15.8816C146.736 17.0899 145.972 17.9889 144.93 18.6721C144.415 19.0094 143.865 19.2747 143.287 19.4865C143.19 19.5222 143.097 19.5698 143.002 19.6121C143 19.6339 142.999 19.6557 142.998 19.6775C143.093 19.7068 143.186 19.7425 143.283 19.7643C144.054 19.9418 144.794 20.2058 145.494 20.5756C146.494 21.1039 147.32 21.8177 147.885 22.816C148.226 23.4182 148.416 24.0675 148.53 24.7404C148.662 25.5211 148.682 26.3057 148.545 27.0899C148.167 29.2444 147.007 30.7825 144.978 31.6495C144.029 32.0545 143.039 32.1996 142.018 32.1987C137.525 32.1956 133.032 32.1965 128.54 32.1929C126.809 32.1916 125.078 32.184 123.347 32.1773C123.193 32.1769 123.04 32.1626 122.848 32.1524H122.847ZM137.908 20.649C137.908 20.2409 137.908 19.8737 137.908 19.5066C137.908 19.357 137.989 19.3041 138.13 19.3059C138.325 19.3085 138.519 19.3085 138.713 19.2987C140.05 19.2324 141.099 18.661 141.811 17.5145C142.198 16.8901 142.349 16.1847 142.458 15.4726C142.58 14.6684 142.544 13.865 142.369 13.0688C142.25 12.5259 142.106 11.9931 141.804 11.5169C141.243 10.633 140.418 10.1528 139.41 9.95344C138.67 9.80701 137.922 9.81102 137.173 9.84128C136.757 9.85775 136.778 9.83728 136.778 10.2521C136.777 13.7783 136.772 17.3049 136.773 20.8311C136.773 23.1529 136.775 25.4748 136.791 27.7966C136.794 28.2217 136.838 28.6512 136.913 29.0695C137.058 29.8751 137.519 30.4216 138.329 30.6392C138.498 30.6846 138.668 30.7318 138.84 30.7536C139.538 30.8426 140.236 30.8715 140.921 30.661C142.069 30.3085 142.854 29.5453 143.28 28.4464C143.919 26.8006 143.962 25.1161 143.346 23.4596C142.736 21.82 141.524 20.8858 139.766 20.714C139.293 20.6677 138.814 20.6829 138.338 20.6691C138.204 20.6651 138.07 20.657 137.908 20.6495V20.649Z" fill="black"/>
<path id="Vector_8" d="M9.58227 30.6721C9.82794 30.7006 10.0389 30.7229 10.249 30.7496C11.4537 30.9031 12.6327 30.8252 13.7827 30.4006C14.7552 30.0419 15.5723 29.4687 16.243 28.6867C17.2199 27.5474 17.8087 26.214 18.1478 24.7662C18.547 23.063 18.6846 21.3348 18.6093 19.5862C18.5515 18.2408 18.3797 16.9145 17.9845 15.6252C17.6169 14.4258 17.0739 13.3127 16.2701 12.3385C15.2002 11.0416 13.8428 10.2289 12.1783 9.9632C11.662 9.88086 11.1346 9.85238 10.6108 9.83724C9.90137 9.81633 9.19106 9.83057 8.4812 9.83369C8.34812 9.83413 8.21505 9.85193 8.04905 9.86395V32.1644C7.94357 32.1791 7.87013 32.1978 7.7967 32.1978C5.62794 32.1991 3.45963 32.1991 1.29087 32.1973C0.994458 32.1973 0.979771 32.1773 0.975765 31.8818C0.974875 31.8333 0.974875 31.7848 0.975765 31.7362C0.980216 31.4852 0.986001 31.4955 1.21165 31.4038C1.60686 31.2431 2.00207 31.0793 2.38615 30.8938C2.98163 30.6062 3.33278 30.1238 3.41512 29.4682C3.47876 28.9582 3.54864 28.4442 3.54953 27.9315C3.55932 23.2188 3.55932 18.5065 3.55086 13.7938C3.54819 12.2005 3.51392 10.6072 3.49434 9.01389C3.49345 8.92666 3.49211 8.83898 3.49256 8.75175C3.49523 8.44644 3.5117 8.42686 3.82947 8.42464C4.48103 8.42063 5.13259 8.4193 5.78415 8.42019C7.74863 8.42241 9.71311 8.41396 11.6771 8.43309C13.0252 8.44645 14.3551 8.63426 15.6457 9.0268C17.6676 9.64098 19.378 10.7429 20.7452 12.3638C22.1217 13.9963 22.9264 15.8824 23.2758 17.9791C23.5023 19.3392 23.5486 20.7051 23.436 22.075C23.2793 23.9776 22.7929 25.7845 21.7933 27.4317C20.832 29.0156 19.536 30.2395 17.8795 31.0802C16.3378 31.8626 14.6897 32.1777 12.9763 32.1964C11.9357 32.2076 10.8952 32.1995 9.85464 32.1987C9.56669 32.1987 9.55912 32.1902 9.5569 31.9058C9.55467 31.5854 9.55512 31.2645 9.5569 30.944C9.55734 30.8684 9.56981 30.7927 9.58093 30.673L9.58227 30.6721Z" fill="black"/>
<path id="Vector_9" d="M176.307 16.68C176.412 17.122 176.434 23.5348 176.336 23.9678C176.288 23.9816 176.234 24.0065 176.179 24.0114C175.745 24.0488 175.742 24.031 175.643 23.6104C175.558 23.2522 175.458 22.8948 175.325 22.5517C174.942 21.5614 174.204 21.0394 173.144 20.9913C172.64 20.9686 172.133 20.9775 171.628 20.9762C170.947 20.9744 170.266 20.9762 169.585 20.9779C169.286 20.9788 169.265 20.9957 169.265 21.2886C169.264 23.5815 169.256 25.8749 169.272 28.1678C169.275 28.5613 169.36 28.9591 169.448 29.3454C169.623 30.1105 170.149 30.5266 170.889 30.7033C171.003 30.7305 171.117 30.7607 171.233 30.7692C172.087 30.8306 172.946 30.8724 173.796 30.7647C174.597 30.6628 175.244 30.2302 175.785 29.6378C176.351 29.0174 176.728 28.2862 177.027 27.5109C177.114 27.2844 177.186 27.0521 177.266 26.8229C177.422 26.3716 177.44 26.3609 177.956 26.4415C177.956 26.5665 177.963 26.6991 177.955 26.8309C177.863 28.4607 177.769 30.09 177.674 31.7198C177.643 32.2655 177.634 32.1867 177.169 32.1871C173.172 32.1889 169.175 32.188 165.178 32.188H164.766C164.733 29.5301 164.785 26.911 164.778 24.2923C164.77 21.6589 164.776 19.0259 164.776 16.3925V8.495C164.894 8.48387 165.007 8.46428 165.119 8.46339C167.734 8.44737 170.35 8.42957 172.966 8.42156C174.25 8.41755 175.533 8.43268 176.817 8.44159C176.989 8.44292 177.162 8.45939 177.324 8.46829C177.439 8.87373 177.442 13.3341 177.33 13.7022H176.792C176.73 13.4787 176.666 13.2575 176.609 13.0346C176.461 12.4596 176.27 11.9028 176.02 11.3612C175.599 10.4483 174.876 9.99394 173.908 9.88179C173.628 9.8493 173.345 9.83461 173.064 9.83328C171.945 9.82794 170.827 9.83105 169.709 9.83105C169.661 9.83105 169.612 9.83016 169.563 9.83194C169.293 9.84218 169.268 9.86221 169.266 10.1417C169.262 10.8413 169.264 11.541 169.264 12.2406C169.264 14.5242 169.264 16.8073 169.264 19.0909C169.264 19.422 169.429 19.5876 169.758 19.5876C170.721 19.5876 171.684 19.5929 172.646 19.5845C172.947 19.5818 173.248 19.5529 173.546 19.5155C174.267 19.4256 174.808 19.0477 175.117 18.4006C175.33 17.9569 175.473 17.4789 175.622 17.008C175.732 16.6604 175.713 16.6538 176.064 16.6609C176.141 16.6622 176.217 16.672 176.306 16.6787L176.307 16.68Z" fill="black"/>
<path id="Vector_10" d="M147.664 9.14742C147.664 8.98809 147.661 8.84345 147.665 8.69925C147.671 8.48918 147.688 8.46604 147.903 8.45892C148.34 8.44423 148.778 8.43177 149.215 8.43266C151.754 8.43667 154.291 8.44468 156.829 8.45224C156.945 8.45224 157.06 8.46337 157.214 8.47138C157.217 8.67032 157.227 8.85057 157.221 9.03082C157.216 9.17991 157.083 9.20305 156.977 9.24489C156.66 9.36995 156.341 9.48745 156.027 9.61785C155.885 9.67704 155.747 9.75225 155.614 9.83281C155.135 10.1248 154.855 10.5556 154.791 11.1092C154.735 11.6006 154.682 12.0955 154.681 12.5886C154.67 16.8055 154.671 21.0229 154.67 25.2398C154.67 26.2309 154.663 27.2221 154.682 28.2128C154.689 28.5991 154.731 28.9889 154.802 29.369C154.913 29.9712 155.258 30.4024 155.864 30.5631C157.219 30.9227 158.57 30.9779 159.895 30.4238C160.399 30.2133 160.812 29.8786 161.158 29.4607C161.645 28.8732 162.02 28.215 162.354 27.5331C162.551 27.1322 162.736 26.7249 162.915 26.3155C163.003 26.1139 163.131 26.0035 163.355 26.0306C163.429 26.2465 163.444 31.8311 163.37 32.1644C163.294 32.172 163.211 32.1875 163.126 32.1875C158.079 32.1889 153.032 32.1889 147.985 32.188C147.689 32.188 147.655 32.1506 147.647 31.852C147.638 31.5231 147.661 31.5048 147.959 31.3847C148.336 31.232 148.716 31.0789 149.079 30.8938C149.583 30.6361 149.891 30.2159 150.009 29.6565C150.132 29.0735 150.175 28.4833 150.175 27.8896C150.176 22.7105 150.178 17.5314 150.17 12.3523C150.17 11.937 150.113 11.5191 150.051 11.1075C149.956 10.4799 149.607 10.0104 149.048 9.71976C148.714 9.54574 148.353 9.42247 148.003 9.27782C147.897 9.23376 147.789 9.19504 147.666 9.14787L147.664 9.14742Z" fill="black"/>
<path id="Vector_11" d="M110.032 29.9893C109.931 29.9399 109.861 29.915 109.801 29.8745C108.953 29.2999 108.018 28.8833 107.111 28.4174C106.584 28.1463 106.06 27.8691 105.528 27.6069C105.345 27.5166 105.266 27.3937 105.281 27.1939C105.29 27.0684 105.282 26.9416 105.282 26.8152C105.282 21.3939 105.282 15.9732 105.282 10.5519C105.282 10.377 105.275 10.2021 105.274 10.0276C105.273 9.90792 105.21 9.8514 105.096 9.84117C105.067 9.83849 105.038 9.83404 105.009 9.83449C104.173 9.84784 103.334 9.81579 102.503 9.88611C101.255 9.99203 100.284 10.5933 99.623 11.6779C99.3007 12.2062 99.0871 12.7754 98.902 13.3598C98.7952 13.6967 98.7907 13.6962 98.4338 13.6842C98.3679 13.682 98.3025 13.6678 98.1992 13.6544C98.2678 11.7651 98.3363 9.88656 98.4057 7.97549C98.6941 7.94478 98.9585 7.89671 99.2104 8.04981C99.6132 8.29459 100.061 8.37247 100.52 8.40674C100.675 8.41832 100.831 8.41832 100.987 8.41832C105.236 8.42054 109.485 8.42188 113.733 8.42321C113.918 8.42321 114.103 8.41654 114.288 8.41921C114.834 8.42766 115.35 8.30794 115.833 8.05693C116.09 7.92341 116.352 7.9292 116.618 7.96792C116.719 8.31595 116.876 13.3246 116.794 13.6611C116.726 13.6686 116.65 13.6824 116.575 13.6842C116.282 13.6918 116.277 13.6878 116.186 13.4105C115.969 12.7549 115.731 12.1105 115.345 11.5279C114.682 10.5248 113.738 9.98225 112.559 9.88967C111.727 9.8247 110.888 9.84917 110.052 9.83626C109.977 9.83493 109.902 9.85674 109.799 9.87187C109.792 10.0339 109.779 10.1861 109.779 10.3383C109.778 15.6523 109.778 20.9667 109.779 26.2807C109.779 26.9411 109.781 27.602 109.783 28.2625C109.784 28.7801 109.848 29.2892 109.999 29.7859C110.015 29.838 110.017 29.8945 110.032 29.9884L110.032 29.9893Z" fill="black"/>
<path id="Vector_12" d="M177.943 35.5304V35.784C177.86 35.7934 177.786 35.8054 177.711 35.8094C177.624 35.8139 177.537 35.8107 177.449 35.8107C157.155 35.8107 136.862 35.8107 116.568 35.8107C116.471 35.8107 116.37 35.8228 116.278 35.8005C116.228 35.7889 116.162 35.7182 116.16 35.6719C116.158 35.6278 116.224 35.5691 116.274 35.5397C116.31 35.5179 116.368 35.5317 116.417 35.5312C116.505 35.5304 116.592 35.5312 116.68 35.5312C136.944 35.5312 157.208 35.5312 177.473 35.5312H177.943L177.943 35.5304Z" fill="black"/>
<path id="Vector_13" d="M100.097 35.5302C101.895 35.5302 103.693 35.5302 105.49 35.5302C105.578 35.5302 105.668 35.5217 105.752 35.5409C105.796 35.5511 105.863 35.6156 105.859 35.6486C105.853 35.7024 105.808 35.7718 105.76 35.7954C105.703 35.8226 105.627 35.8101 105.559 35.8101C101.915 35.8101 98.2706 35.8101 94.6265 35.8101C94.5779 35.8101 94.5294 35.8088 94.4809 35.8075C94.3928 35.8048 94.3269 35.7678 94.322 35.6735C94.3171 35.576 94.383 35.5373 94.4711 35.5337C94.5584 35.5302 94.646 35.5302 94.7333 35.5302C96.5215 35.5302 98.3093 35.5302 100.098 35.5302H100.097Z" fill="black"/>
</g>
<defs>
<clipPath id="clip0_2448_2127">
<rect width="177.918" height="48" fill="white" transform="translate(0.0410156)"/>
</clipPath>
</defs>
</svg>
