<svg width="196" height="80" viewBox="0 0 196 80" fill="none" xmlns="http://www.w3.org/2000/svg">
<g clip-path="url(#clip0_2875_1631)">
<path d="M46.4044 48.4013V30.7295H49.8688V48.4013H46.3938H46.4044ZM66.4388 48.4013V38.0503L63.0803 44.7673H60.7495L57.2744 38.0503V48.4013H53.9583V30.7295H57.3168L61.9255 40.2646L66.5023 30.7295H69.9138V48.4013H66.4282H66.4388ZM80.8368 41.6101H77.4889V48.3907H74.0139V30.7401H80.8474C84.492 30.7401 86.6744 33.1768 86.6744 36.1751C86.6744 39.184 84.492 41.6207 80.8474 41.6207L80.8368 41.6101ZM80.6779 33.7277H77.4889V38.6118H80.6673C82.2353 38.6118 83.2312 37.6265 83.2312 36.1857C83.2312 34.7448 82.2353 33.7277 80.6779 33.7277ZM98.9324 48.4013L95.4891 41.3029H92.9676V48.4013H89.6515V30.7295H96.485C100.087 30.7295 102.206 33.1556 102.206 36.1115C102.235 37.1274 101.94 38.1261 101.362 38.9625C100.785 39.7989 99.9561 40.4295 98.996 40.7625L102.937 48.3907H98.9324V48.4013ZM96.252 33.7277H92.9464V38.4529H96.252C97.767 38.4529 98.7629 37.4464 98.7629 36.0903C98.7629 34.713 97.767 33.7277 96.252 33.7277ZM116.445 46.5366C115.83 47.1687 115.091 47.6663 114.274 47.9982C113.457 48.3301 112.58 48.489 111.699 48.4648C109.686 48.4648 108.16 47.7656 106.921 46.5366C105.13 44.7567 105.183 42.5424 105.183 39.5018C105.183 36.4505 105.13 34.2469 106.921 32.4564C107.542 31.8282 108.286 31.334 109.106 31.0042C109.926 30.6744 110.805 30.516 111.688 30.5388C113.701 30.5388 115.216 31.2274 116.456 32.4564C118.236 34.2469 118.204 36.4505 118.204 39.5018C118.204 42.5424 118.236 44.7567 116.445 46.5366ZM113.892 34.5435C113.615 34.233 113.273 33.9868 112.89 33.8221C112.508 33.6574 112.094 33.5782 111.678 33.59C110.735 33.59 109.951 33.9714 109.453 34.5435C108.796 35.2851 108.626 36.1115 108.626 39.5018C108.626 42.8921 108.796 43.7078 109.453 44.4601C109.737 44.7646 110.082 45.0059 110.465 45.1683C110.848 45.3308 111.261 45.4107 111.678 45.403C112.631 45.403 113.383 45.0216 113.892 44.4495C114.559 43.7078 114.761 42.8921 114.761 39.5018C114.761 36.1115 114.549 35.2851 113.892 34.5435ZM129.106 48.4013H121.69V30.7295H128.809C132.242 30.7295 134.255 32.6365 134.255 35.6665C134.259 36.4128 134.058 37.1458 133.673 37.7851C133.288 38.4244 132.734 38.945 132.072 39.2899C132.835 39.6314 133.475 40.1958 133.91 40.9088C134.345 41.6219 134.554 42.45 134.509 43.2841C134.509 46.5896 132.242 48.4013 129.106 48.4013ZM128.534 33.7277H125.165V37.8278H128.534C130.006 37.8278 130.812 36.9909 130.812 35.7725C130.812 34.5647 129.985 33.7277 128.534 33.7277ZM128.756 40.985H125.154V45.2441H128.756C130.324 45.2441 131.066 44.2905 131.066 43.0934C131.066 41.9174 130.324 40.9744 128.756 40.9744V40.985ZM148.06 48.4013L147.021 45.2441H140.749L139.679 48.4013H136.077L142.508 30.7295H145.199L151.641 48.4013H148.06ZM143.938 35.8255L141.713 42.2458H146.1L143.938 35.8255ZM161.207 48.4013H153.865V30.7295H160.9C164.343 30.7295 166.346 32.6365 166.346 35.6665C166.351 36.4117 166.152 37.144 165.769 37.7831C165.385 38.4223 164.834 38.9436 164.174 39.2899C164.936 39.6314 165.577 40.1958 166.012 40.9088C166.447 41.6219 166.656 42.45 166.611 43.2841C166.611 46.5896 164.365 48.4013 161.207 48.4013ZM160.635 33.7277H157.34V37.8278H160.635C162.108 37.8278 162.903 36.9909 162.903 35.7725C162.924 34.5647 162.108 33.7277 160.635 33.7277ZM160.847 40.985H157.34V45.2441H160.858C162.415 45.2441 163.157 44.2905 163.157 43.0934C163.157 41.9174 162.415 40.9744 160.858 40.9744L160.847 40.985ZM170.117 48.4013V30.7295H173.593V45.2441H181.644V48.4013H170.117ZM184.325 48.4013V30.7295H196V33.7277H187.789V37.8278H194.739V40.985H187.789V45.2441H196V48.4013H184.325Z" fill="black"/>
<g clip-path="url(#clip1_2875_1631)">
<path d="M0 22.519V56.4429H33.9239V22.519H0ZM30.6184 53.1374H3.47503V25.9941H30.6184V53.1374Z" fill="black"/>
<path d="M18.6253 33.0924H15.3091V46.0284H18.6253V33.0924ZM25.7872 33.0924C26.3857 33.0924 26.9597 32.8546 27.3829 32.4314C27.8061 32.0082 28.0438 31.4343 28.0438 30.8358C28.0438 30.2372 27.8061 29.6633 27.3829 29.2401C26.9597 28.8169 26.3857 28.5791 25.7872 28.5791C25.1887 28.5791 24.6147 28.8169 24.1915 29.2401C23.7683 29.6633 23.5305 30.2372 23.5305 30.8358C23.5305 31.4343 23.7683 32.0082 24.1915 32.4314C24.6147 32.8546 25.1887 33.0924 25.7872 33.0924ZM25.7872 29.6809C26.4229 29.6809 26.9208 30.1895 26.9208 30.8146C26.9208 31.4502 26.4123 31.9588 25.7872 31.9588C25.5132 31.9212 25.2621 31.7857 25.0803 31.5773C24.8985 31.3689 24.7983 31.1017 24.7983 30.8252C24.7983 30.5486 24.8985 30.2814 25.0803 30.073C25.2621 29.8646 25.5132 29.7291 25.7872 29.6915V29.6809Z" fill="black"/>
</g>
</g>
<defs>
<clipPath id="clip0_2875_1631">
<rect width="196" height="34.9622" fill="white" transform="translate(0 22.519)"/>
</clipPath>
<clipPath id="clip1_2875_1631">
<rect width="33.9239" height="33.9239" fill="white" transform="translate(0 22.519)"/>
</clipPath>
</defs>
</svg>
