<svg width="196" height="80" viewBox="0 0 196 80" fill="none" xmlns="http://www.w3.org/2000/svg">
<g clip-path="url(#clip0_2859_5834)">
<path d="M77.8183 30.6632C77.7741 29.9228 77.7741 29.178 77.6768 28.4464C77.5597 27.569 77.8359 26.8927 78.5189 26.3601C81.3854 26.1855 84.2519 26.2385 87.1184 26.3269C87.5759 26.8021 88.0224 26.6231 88.4666 26.3004C91.1939 26.285 93.9212 26.2695 96.6485 26.254C97.4375 26.7292 97.979 27.3723 98.0121 28.3359C98.0386 29.1227 98.7459 29.0034 99.1437 29.0542C99.7338 29.1294 99.4818 28.5282 99.4686 28.2542C99.4266 27.3259 99.9946 26.7955 100.613 26.2739C103.327 26.2474 106.044 26.2209 108.758 26.1943C109.195 26.5524 109.651 26.6275 110.135 26.2872C112.924 26.2872 115.715 26.1722 118.504 26.3513C119.212 26.8927 119.426 27.6619 119.497 28.5415C119.806 27.6552 120.096 26.7999 120.949 26.3203C123.672 26.296 126.394 26.2739 129.117 26.2496C129.703 26.7358 130.293 26.7712 130.885 26.2651C136.771 26.2761 142.659 26.2894 148.544 26.3004C148.916 26.6341 149.294 26.5899 149.674 26.3181C154.909 26.3004 160.143 26.2805 165.379 26.2717C165.587 26.2717 165.794 26.3711 166.002 26.4264C166.634 26.9303 167.33 27.379 167.176 28.3713C167.109 28.8001 167.498 28.6608 167.713 28.7006C169.127 28.9614 169.529 29.3857 169.507 30.8223C169.494 31.6003 169.726 32.2456 170.181 32.8424C170.164 37.6251 170.144 42.4056 170.126 47.1883C169.854 48.0436 169.258 48.6823 168.685 49.3343C168.247 49.8316 167.721 50.2692 167.37 50.8195C165.761 53.3434 163.538 53.9755 160.565 53.9181C150.48 53.7236 140.391 53.907 130.304 53.7965C128.969 53.781 127.645 53.9888 126.302 53.8672C124.914 53.7413 123.499 53.7567 122.109 53.8672C120.838 53.9667 119.972 53.5755 119.464 52.3997C119.38 52.2074 119.218 52.0483 119.094 51.8759C119.024 51.9157 118.975 51.9268 118.962 51.9533C118.058 53.9623 116.314 53.8827 114.502 53.8562C110.269 53.7965 106.037 53.7744 101.805 53.8694C99.999 53.9092 99.7294 53.1932 99.3293 51.7455C99.2166 51.3367 99.641 50.5499 98.7857 50.5653C98.0033 50.5808 97.9502 51.2107 97.8817 51.8737C97.7314 53.328 97.1038 53.8297 95.6274 53.8363C93.3819 53.8451 91.1342 53.8031 88.8887 53.865C87.9119 53.8916 87.3615 53.5401 87.1715 52.6053C87.1052 52.2826 87.0831 51.8627 86.6499 51.9047C86.241 51.9444 86.2609 52.3644 86.2233 52.6892C86.1239 53.5401 85.5095 53.8363 84.789 53.8385C80.3334 53.8584 75.8778 53.8429 71.4244 53.8385C70.0652 53.8385 69.6187 53.4296 69.4596 52.0395C69.422 51.708 69.4353 51.3499 69.1325 51.1444C68.8783 50.972 68.5689 50.8372 68.5711 51.3742C68.5711 51.6306 68.5844 51.8914 68.5623 52.1456C68.4672 53.2484 67.8926 53.8186 66.7831 53.8297C64.794 53.8518 62.8071 53.8363 60.818 53.8385C59.0234 53.8385 58.6985 53.5976 58.1371 51.7875C57.925 52.4594 57.5912 52.9832 57.1492 53.4429C56.6409 53.9711 55.9889 53.8208 55.3789 53.8341C53.3301 53.8739 51.2526 54.0816 49.2392 53.9711C46.2356 53.8031 43.2409 53.9358 40.2462 53.8518C37.9654 53.7877 35.6713 53.7125 33.4015 53.8827C31.7107 54.0087 30.5504 53.4341 29.5691 52.1566C28.7072 51.0361 27.8055 49.9421 26.8617 48.8901C26.0329 47.964 25.6616 46.9628 25.6771 45.6942C25.7346 41.1325 25.6948 36.5708 25.7014 32.0092C25.7014 31.1826 25.2506 30.3096 26.0086 29.5471C26.4042 29.1493 26.749 28.6984 27.359 28.7006C27.9624 28.7028 28.2364 28.3868 28.3005 27.8453C28.3823 27.1778 28.7448 26.696 29.2465 26.2938C34.9884 26.2872 40.728 26.2783 46.4699 26.2717C46.7594 26.5457 47.0578 26.5789 47.3672 26.3026C50.015 26.2894 52.6627 26.2761 55.3104 26.2628C55.6662 26.643 56.2585 26.7424 56.4354 27.3679C56.5503 27.7812 56.9238 27.7923 57.1161 27.3502C57.3724 26.7645 57.9603 26.5944 58.4046 26.243C61.0611 26.2474 63.7155 26.254 66.372 26.2584C66.6461 26.5192 66.9334 26.612 67.2495 26.3225C70.0453 26.3071 72.8389 26.2916 75.6347 26.2761C76.7132 26.9723 76.9165 28.0243 76.943 29.2156C76.9585 29.925 76.5541 30.7693 77.363 31.3373C77.3762 32.0268 77.3895 32.7164 77.4028 33.406V33.4104C77.1022 33.5673 77.1884 33.8524 77.1884 34.0933C77.1795 36.3299 77.1729 38.5666 77.1884 40.8032C77.1884 41.0463 77.0049 41.4574 77.447 41.495C77.9951 41.5414 77.8359 41.0684 77.8359 40.7855C77.8359 37.4129 77.8249 34.0403 77.8138 30.6676L77.8183 30.6632ZM58.1968 41.7403C58.5637 41.7447 58.9284 41.7469 59.2952 41.7514C59.0543 43.7957 59.103 45.8511 59.0963 47.9043C59.0963 48.479 59.3859 48.5519 59.8566 48.5475C61.5827 48.5298 63.311 48.5276 65.0371 48.5453C65.5211 48.5497 65.7864 48.4392 65.7797 47.8844C65.751 45.5373 65.751 43.1902 65.74 40.843C65.7532 36.7985 65.7576 32.754 65.7952 28.7095C65.8018 28.0928 65.5587 27.989 65.015 28C63.3597 28.0309 61.6999 28.0508 60.0445 27.9956C59.3107 27.9713 59.0809 28.1923 59.0963 28.9172C59.1361 30.829 59.0875 32.7429 59.1206 34.6547C59.1317 35.2381 58.946 35.415 58.3714 35.3906C57.3061 35.3464 56.2342 35.3288 55.169 35.3796C54.4882 35.4105 54.2849 35.2028 54.3048 34.5132C54.3623 32.6015 54.3446 30.6875 54.3512 28.7758C54.3512 28.5039 54.4949 28.0685 54.0794 28.0575C52.8329 28.0221 51.5488 27.9072 50.3575 28.1746C49.9575 28.2652 49.7652 28.4155 49.3652 28.1724C48.6071 27.7105 47.7231 28.0066 47.712 28.6962C47.6744 31.3063 47.6766 33.9187 47.6678 36.5311C47.6678 36.8515 47.7032 37.1499 48.1585 36.9687C48.2292 37.0438 48.2999 37.1212 48.3684 37.1963C47.8336 37.4571 47.5529 37.8107 47.6324 38.4782C47.7208 39.234 47.6612 40.0076 47.6634 40.7723C47.6634 43.0841 47.6811 45.3936 47.6479 47.7054C47.6369 48.3928 47.8822 48.5873 48.5452 48.5585C49.6812 48.5077 50.8216 48.5718 51.9599 48.5364C52.8284 48.5099 53.96 48.932 54.4971 48.3707C55.0231 47.8181 54.601 46.6954 54.665 45.8246C54.7645 44.4499 54.4264 43.0531 54.8728 41.6961C55.1645 41.7138 55.4563 41.7315 55.7502 41.7492C55.8121 42.5802 56.0464 43.3935 55.9734 44.24C55.9248 44.8124 56.0663 45.2213 56.7868 45.2434C57.4653 45.2655 57.8277 44.9936 57.9073 44.346C58.0156 43.4819 58.0996 42.6133 58.1924 41.7492L58.1968 41.7403ZM85.3526 45.9108C84.9061 46.5296 85.063 49.1133 85.578 49.6282C85.7813 49.8316 86.0333 49.8603 86.2919 49.7962C86.6587 49.7078 86.6963 49.3984 86.6897 49.1C86.6654 48.0038 86.8223 46.8943 86.4443 45.8268C86.4576 40.2838 86.4731 34.7387 86.4841 29.1957C86.4841 28.1282 85.5758 27.5116 84.7028 28.084C84.2497 28.3801 83.8585 28.8487 83.7856 29.5714C83.6088 31.2975 83.8917 33.2004 82.2783 34.5066C81.834 34.8668 82.2628 35.163 82.4065 35.4525C83.2772 37.1985 84.5878 38.7589 84.6696 40.8364C84.6586 42.3393 84.6608 43.8443 84.6276 45.3472C84.6144 45.9174 84.9901 45.8799 85.3548 45.9086L85.3526 45.9108ZM100.624 45.4599C101.27 45.3185 101.599 45.5329 101.577 46.2357C101.562 46.7838 101.626 47.3363 101.621 47.8867C101.617 48.3287 101.745 48.5497 102.247 48.5431C104.046 48.521 105.845 48.5298 107.646 48.5475C108.064 48.5519 108.241 48.4193 108.232 47.9861C108.19 45.6058 108.347 43.2233 108.165 40.843C108.174 36.8361 108.179 32.8313 108.196 28.8244C108.199 28.2409 108.037 27.9779 107.379 27.9978C105.761 28.0442 104.139 28.042 102.519 27.9978C101.84 27.9779 101.615 28.2078 101.621 28.8708C101.639 30.7825 101.61 32.6965 101.599 34.6083C101.597 35.0039 101.703 35.4503 101.047 35.4393C100.379 35.4282 100.607 34.9221 100.64 34.6458C100.739 33.8303 100.487 33.585 99.6321 33.6181C98.0983 33.6778 98.2132 33.9806 98.2044 32.1506C98.1955 30.7361 98.2022 30.6919 96.7501 30.7185C96.0517 30.7317 95.8153 30.5107 95.9037 29.8455C95.9368 29.5935 95.8793 29.3283 95.9147 29.0741C96.023 28.2763 95.749 27.958 94.8914 27.9912C93.236 28.053 91.5785 28.0442 89.9231 27.9912C89.1761 27.9669 88.8954 28.1459 88.9175 28.9504C88.9749 30.8975 88.9816 32.8512 88.9153 34.7983C88.8887 35.5675 89.1783 35.6492 89.7794 35.5034C89.8104 35.5409 89.8435 35.5785 89.8767 35.6161C89.0147 36.2239 88.849 37.0792 88.9241 38.0715C88.9926 38.9688 88.9506 39.875 88.9573 40.7789C88.9484 43.0951 88.9573 45.4135 88.9219 47.7297C88.9131 48.3375 89.0788 48.5696 89.722 48.5563C91.5254 48.5188 93.3311 48.5276 95.1345 48.5541C95.6782 48.563 95.9368 48.437 95.928 47.8292C95.8948 45.4754 95.9014 43.1238 95.8948 40.7701C96.2308 40.412 96.5512 40.4187 96.8584 40.8076C96.8496 40.9535 96.8341 41.0994 96.8341 41.2452C96.8186 43.1084 96.8164 43.1526 98.6221 43.2344C99.4111 43.2697 99.2299 43.7471 99.2807 44.1935C99.3382 44.6908 98.916 45.4555 99.9349 45.471C99.4531 45.8511 99.2807 47.8889 99.7227 48.2933C100.056 48.5983 100.417 48.5895 100.58 48.1209C100.733 47.6767 100.786 47.1993 100.894 46.7396C101.005 46.2711 101.363 45.7539 100.624 45.4666V45.4599ZM132.563 46.8435C132.883 47.08 133.259 47.27 133.515 47.564C134.285 48.4458 135.233 48.5917 136.349 48.5563C138.572 48.4878 140.798 48.5475 143.023 48.5563C142.674 48.8481 142.254 48.7619 141.859 48.7619C139.909 48.7685 137.96 48.7818 136.011 48.7574C135.155 48.7464 134.307 48.658 134.278 49.9686C133.933 49.6835 133.608 49.542 133.502 49.3033C133.08 48.3552 132.136 48.6182 131.732 48.8834C130.945 49.3962 131.067 50.4239 131.137 51.2858C131.195 51.9953 131.818 51.8317 132.262 51.8317C136.199 51.8428 140.141 51.7035 144.067 51.898C145.89 51.9886 146.739 51.098 147.552 49.8249C148.001 49.1221 147.899 48.7795 146.977 48.7486C146.036 48.7177 145.068 48.9807 144.153 48.563C145.145 48.5541 146.137 48.5276 147.128 48.5453C147.647 48.5563 147.945 48.4679 147.919 47.838C147.864 46.5186 147.875 45.1969 147.857 43.8775C147.576 43.5173 147.178 43.6985 146.845 43.6963C143.881 43.6742 140.915 43.6764 137.951 43.6697C137.96 43.0885 137.967 42.5072 137.975 41.926C138.292 42.4608 138.771 42.589 139.37 42.5824C141.419 42.5558 143.468 42.5713 145.516 42.5691C147.152 42.5669 147.212 42.5028 147.234 40.8165C147.251 39.4639 147.231 38.1091 147.304 36.7587C147.342 36.0603 147.108 35.9078 146.447 35.9189C144.175 35.9586 141.901 35.9299 139.629 35.9299C138.31 35.9299 137.693 35.2772 137.777 33.9717C137.938 34.0425 138.225 34.0955 138.241 34.1905C138.398 35.1674 139.114 35.0746 139.812 35.0702C141.563 35.0591 143.315 35.0746 145.066 35.0613C146.277 35.0525 147.128 34.3541 147.459 33.1253C147.959 33.1253 147.914 32.7761 147.914 32.4401C147.91 31.229 147.883 30.0156 147.925 28.8045C147.948 28.1658 147.709 27.9956 147.097 27.9978C142.097 28.0155 137.098 28.0133 132.099 27.9978C131.568 27.9978 131.299 28.0928 131.31 28.7183C131.343 30.8488 131.343 32.9794 131.308 35.1077C131.294 35.8216 131.586 35.773 132.103 35.6249C132.634 35.4724 133.051 34.9354 133.796 35.1497C133.473 35.4415 133.219 35.8747 132.936 35.8945C131.151 36.0183 131.217 37.2074 131.31 38.4848C131.365 39.2517 131.332 40.0253 131.338 40.7966C131.336 43.0708 131.323 45.3428 131.341 47.617C131.343 47.9309 131.129 48.4237 131.697 48.4989C132.2 48.5652 132.839 48.6491 133.138 48.2226C133.42 47.8204 132.804 47.5971 132.578 47.2988C132.512 47.2104 132.446 47.1264 132.379 47.038C132.439 46.9739 132.501 46.9076 132.561 46.8435H132.563ZM45.1571 33.0855C45.1792 31.6931 45.1439 30.2963 45.2433 28.9084C45.2986 28.126 45.0223 27.9934 44.3261 27.9978C39.8771 28.0221 35.4282 28.0309 30.9814 27.9912C30.1327 27.9823 29.9161 28.2873 29.9051 29.0675C29.883 30.6919 29.8498 30.6941 28.2453 30.6367C28.011 30.6278 27.7767 30.6102 27.4828 30.5925C27.4828 32.0246 27.4938 33.4192 27.4739 34.8116C27.4695 35.1608 27.6043 35.3442 27.9005 35.4879C29.2553 36.1443 30.577 36.6482 32.1749 36.2261C34.0093 35.7421 34.0756 35.8481 34.0491 33.9585C34.038 33.2004 34.2811 32.9661 34.9839 33.1209C35.1873 34.5132 36.1796 35.5321 36.71 36.7698C36.9465 37.3179 37.3222 37.5168 37.9101 37.5101C40.2948 37.488 42.6796 37.4858 45.0621 37.5057C45.7583 37.5124 46.0014 37.2538 46.0677 36.551C46.1892 35.2625 45.5328 34.2193 45.1549 33.0855H45.1571ZM34.0623 40.7811V36.6217C31.7572 37.3112 29.5691 37.4372 27.5115 35.7796V40.7855C27.5115 42.3282 27.5226 43.8709 27.5027 45.4135C27.4938 46.0412 27.6795 46.4412 28.3801 46.3153C29.5846 46.0987 29.8476 46.7042 29.6885 47.7297C29.5935 48.3309 29.8255 48.5541 30.4664 48.5497C35.1364 48.5254 39.8042 48.5254 44.4742 48.5497C45.051 48.5519 45.2367 48.3884 45.219 47.8093C45.1814 46.5982 45.1615 45.3826 45.2367 44.1737C45.2853 43.4001 44.9781 43.2388 44.293 43.2454C41.7933 43.2697 39.2937 43.2675 36.7918 43.2454C35.9542 43.2388 34.9287 43.5836 34.3253 43.0907C33.7352 42.6089 34.2347 41.5613 34.0645 40.7789L34.0623 40.7811ZM67.9987 40.7657C67.9876 42.2707 68.0274 43.778 67.9457 45.2809C67.897 46.1804 68.2241 46.4854 69.0662 46.3352C69.9679 46.1716 70.326 46.4788 70.1779 47.4358C70.1072 47.8911 69.8707 48.563 70.852 48.5563C74.9694 48.5254 79.0846 48.5409 83.2021 48.5563C83.664 48.5563 83.8298 48.437 83.8364 47.9397C83.8651 45.555 83.9403 43.1703 84 40.7855C84.2762 38.5953 82.6208 37.1764 81.7434 35.479C81.4451 34.9022 81.4672 34.6878 81.7125 34.2569C82.1457 33.4988 82.9767 32.9529 83.0717 32.0335C83.2087 30.7052 83.359 29.3813 83.6154 28.0111C82.5015 28.0111 81.4738 28.0398 80.4505 28C79.8405 27.9757 79.6195 28.1569 79.6239 28.7979C79.6571 32.796 79.6504 36.7941 79.6571 40.7922C79.5731 42.4424 78.7134 43.269 77.0779 43.2719C75.7032 43.2749 74.9819 42.5816 74.9142 41.1922C74.9075 41.0485 74.8744 40.9049 74.8523 40.759C74.8633 38.0737 74.8368 35.3884 74.9097 32.7053C74.9318 31.8346 74.3749 31.9075 73.8688 31.8036C73.2897 31.6843 72.8875 31.7926 72.8035 32.5086C72.7549 32.9175 72.8322 33.596 72.399 33.669C71.6697 33.7927 70.8696 33.9099 70.0342 33.5806C70.3326 33.1982 70.6508 33.2756 70.9028 33.3198C71.8266 33.4745 72.3128 33.1407 72.4852 32.1948C72.5957 31.587 72.8433 30.9129 73.7008 31.0986C74.8235 31.3417 75.0026 30.7737 74.8943 29.8565C74.8501 29.494 74.8567 29.1205 74.8876 28.7537C74.9363 28.1591 74.6556 27.9978 74.103 28.0044C72.3349 28.0243 70.5669 28.0398 68.801 27.9934C68.0871 27.9757 67.928 28.2453 67.9611 28.8995C68.012 29.9648 67.981 31.0323 67.9788 32.0998C67.9759 33.5732 68.6757 34.357 70.0784 34.4513C69.8795 35.1519 69.2054 35.0039 68.7921 35.0216C68.1026 35.0525 67.9302 35.2448 67.9567 35.9166C68.0186 37.5322 67.9965 39.1523 68.0075 40.7701L67.9987 40.7657ZM121.614 46.5849C121.682 46.702 121.797 46.8125 121.811 46.9341C121.976 48.3022 122.228 48.532 123.638 48.5364C125.179 48.5409 126.719 48.5099 128.258 48.5497C128.872 48.5652 129.104 48.3928 129.082 47.7585C129.044 46.6976 129.007 45.6279 129.108 44.5737C129.21 43.5084 128.865 43.0841 127.793 43.2609C126.996 43.3913 126.547 43.1592 126.673 42.2155C126.797 41.2828 126.257 41.0353 125.451 41.2939C124.876 41.4795 124.363 41.6453 124.24 40.7966C124.293 39.192 124.293 39.1744 122.659 39.1788C122.224 39.1788 122.032 39.1103 121.979 38.6152C121.848 37.4129 122.644 37.7068 123.296 37.7312C122.931 37.9212 122.323 37.8417 122.348 38.697C122.783 38.3323 123.349 38.361 123.367 37.7267C123.873 37.7466 124.167 37.698 124.217 37.004C124.348 35.2448 124.412 35.2492 126.244 35.3906C126.313 35.3951 126.379 35.4371 126.448 35.4614C126.523 35.8526 126.593 36.2437 126.675 36.6327C126.73 36.8957 126.642 37.2847 127.062 37.2891C127.349 37.2936 127.438 36.9952 127.55 36.7653C128.149 35.5255 128.622 34.2436 128.903 32.8932C129.131 31.5075 128.927 30.1107 129.013 28.7227C129.058 28.0177 128.766 27.8608 128.116 27.874C126.35 27.9094 124.582 27.9271 122.818 27.8563C121.952 27.821 121.775 28.1326 121.8 28.9305C121.859 30.7361 121.992 30.6963 120.204 30.6234C119.508 30.5947 119.291 30.798 119.366 31.4743C119.424 31.9804 119.391 32.6015 118.789 32.7164C118.21 32.8269 118.016 33.28 117.607 33.7706C117.607 32.0401 117.581 30.4974 117.62 28.957C117.638 28.2851 117.512 27.9624 116.73 27.989C114.966 28.0464 113.198 28.0287 111.432 27.989C110.765 27.9757 110.532 28.1702 110.555 28.8642C110.605 30.5549 110.574 32.2456 110.574 33.9386C110.574 35.0923 111.123 35.5586 112.221 35.3376C112.099 35.7973 111.761 35.941 111.344 35.9874C110.72 36.0581 110.53 36.3896 110.563 37.0261C110.632 38.2726 110.599 39.5236 110.605 40.7745C110.601 43.0841 110.621 45.3936 110.577 47.701C110.563 48.4016 110.813 48.5607 111.463 48.5475C113.222 48.5099 114.986 48.5055 116.745 48.5519C117.426 48.5696 117.634 48.3574 117.618 47.6855C117.578 45.944 117.605 44.2024 117.605 42.1536C118.029 43.0089 118.241 43.6587 119.03 43.7338C119.36 43.7648 119.393 44.0388 119.391 44.3151C119.384 44.7925 119.437 45.2743 119.377 45.7428C119.285 46.4766 119.649 46.6379 120.266 46.5716C119.857 46.8081 119.234 46.87 119.444 47.6038C119.563 48.0193 119.62 48.4591 120.202 48.5121C120.882 48.574 121.161 48.1541 121.402 47.6303C121.557 47.2921 121.61 46.9429 121.618 46.5783L121.614 46.5849ZM150.138 40.7855C150.131 41.9238 150.153 43.062 150.102 44.198C150.074 44.8212 150.27 45.0223 150.902 45.0223C151.495 45.0223 152.153 44.7549 152.96 45.376C151.871 45.3229 151.026 45.3318 150.416 45.9661C149.724 46.6866 150.399 47.6634 149.959 48.4591C150.131 48.4922 150.239 48.5276 150.346 48.5276C155.086 48.532 159.825 48.5121 164.565 48.5497C165.456 48.5563 165.562 48.0966 165.447 47.4535C165.246 46.3263 165.69 45.9197 166.784 46.1186C167.62 46.2711 167.854 45.9042 167.812 45.0909C167.739 43.6631 167.777 42.2288 167.768 40.7966C167.777 37.6715 167.775 34.5464 167.805 31.4191C167.812 30.7936 167.675 30.4864 166.966 30.4621C165.494 30.4135 165.456 30.3759 165.463 28.8509C165.465 28.1658 165.248 27.9867 164.579 27.9912C160.05 28.0177 155.524 28.0155 150.995 27.9934C150.332 27.9912 150.087 28.1812 150.094 28.8686C150.129 32.8402 150.127 36.8117 150.136 40.7833L150.138 40.7855ZM37.5742 48.7641C35.7022 48.7641 33.8302 48.7442 31.9583 48.7751C31.3571 48.7862 30.5151 48.4613 30.2167 48.9762C29.9382 49.4558 30.7737 49.8957 30.9902 50.4371C31.4234 51.5068 32.2014 51.898 33.4081 51.8671C36.8935 51.7831 40.3833 51.8384 43.8708 51.8361C46.0832 51.8361 46.0257 51.8516 45.3538 49.7719C45.082 48.9276 44.662 48.7287 43.8531 48.7464C41.7624 48.795 39.6694 48.7619 37.5764 48.7619L37.5742 48.7641ZM157.281 48.7641C155.442 48.7641 153.601 48.8039 151.762 48.7486C150.748 48.7177 149.934 48.7795 149.806 50.057C149.778 50.3333 149.426 50.5742 149.229 50.8394C149.044 51.0913 148.597 51.2593 148.765 51.6284C148.927 51.9842 149.358 51.8317 149.669 51.8317C153.018 51.8406 156.373 51.7256 159.712 51.8803C161.588 51.9665 163.003 51.5599 163.929 49.8669C164.079 49.5907 164.508 49.4006 164.344 49.0381C164.157 48.6226 163.699 48.7751 163.352 48.7729C161.328 48.7597 159.305 48.7663 157.281 48.7641ZM77.1464 48.7641C75.2368 48.7641 73.3295 48.7574 71.42 48.7729C71.1194 48.7751 70.7326 48.616 70.5514 49.0315C70.1182 50.0261 71.2675 51.8339 72.3438 51.8361C75.5374 51.8428 78.7288 51.8384 81.9224 51.8384C83.9491 51.8384 83.8983 51.8384 83.8452 49.8492C83.8209 48.9453 83.4651 48.7331 82.6496 48.753C80.8152 48.795 78.9808 48.7663 77.1442 48.7663L77.1464 48.7641ZM92.4028 48.7641C91.5564 48.7641 90.7099 48.7906 89.8656 48.7552C89.1451 48.7243 88.8512 49.0293 88.9042 49.7321C88.9285 50.0614 88.9263 50.3951 88.9042 50.7245C88.8534 51.5179 89.2026 51.8671 90.0093 51.845C91.1497 51.814 92.2901 51.8384 93.4305 51.8384C95.7489 51.8384 95.7246 51.8384 95.8175 49.4802C95.8396 48.9188 95.6738 48.753 95.1633 48.7619C94.2439 48.7751 93.3244 48.7663 92.405 48.7663L92.4028 48.7641ZM51.2681 48.7641C50.7178 48.7641 50.1675 48.7729 49.6171 48.7641C47.6744 48.7265 47.4822 48.742 48.6447 50.4791C48.764 50.6604 48.8392 50.8747 48.9143 51.0803C49.1022 51.5908 49.4624 51.8361 50.0039 51.8361C51.509 51.8339 53.0141 51.8361 54.5192 51.8361C54.9192 51.8361 55.2132 51.7411 55.306 51.2637C55.5624 49.9642 54.6518 48.7707 53.3589 48.7663C52.6605 48.7641 51.9643 48.7663 51.2659 48.7663L51.2681 48.7641ZM125.674 48.7641C125.197 48.7641 124.721 48.7641 124.244 48.7641C122.217 48.7641 122.226 48.7663 121.528 50.6736C121.236 51.4693 121.439 51.8582 122.334 51.8428C123.727 51.8207 125.121 51.8251 126.514 51.8428C127.13 51.8516 127.561 51.6284 127.851 51.0781C128.072 50.6581 128.35 50.2692 128.6 49.8647C128.766 49.5973 129.155 49.3807 128.976 49.0182C128.775 48.6072 128.326 48.7773 127.981 48.7663C127.212 48.7442 126.441 48.7597 125.672 48.7619L125.674 48.7641ZM114.047 48.7619C113.607 48.7619 113.165 48.7619 112.725 48.7619C110.614 48.7619 110.678 48.7619 110.639 50.8239C110.623 51.6704 110.939 51.8494 111.644 51.8406C112.599 51.8273 113.554 51.8384 114.511 51.8384C116.48 51.8384 116.871 51.4759 117.176 49.489C117.258 48.9608 117.143 48.7376 116.582 48.7552C115.737 48.7818 114.891 48.7619 114.047 48.7619ZM62.7939 48.7619V48.7663C62.0225 48.7663 61.2512 48.7619 60.4799 48.7685C60.1881 48.7707 59.8787 48.7597 59.6798 49.0359C59.2754 49.6039 60.2566 51.7919 60.9683 51.8118C62.5463 51.856 64.1266 51.8317 65.7046 51.8229C66.2372 51.8207 66.3853 51.5068 66.3212 51.014C66.0295 48.7884 65.9963 48.7552 63.6735 48.7597C63.3795 48.7597 63.0856 48.7597 62.7917 48.7597L62.7939 48.7619ZM104.835 48.7641C104.468 48.7641 104.099 48.7641 103.732 48.7641C101.566 48.7641 101.586 48.7641 101.699 50.9189C101.732 51.5643 101.957 51.8516 102.618 51.8428C104.015 51.8229 105.412 51.8339 106.808 51.8428C107.31 51.845 107.617 51.708 107.706 51.1267C108.139 48.3464 108.528 48.8149 105.827 48.7663C105.496 48.7597 105.166 48.7663 104.835 48.7663V48.7641ZM42.2795 41.6541C42.2795 41.6541 42.2795 41.6519 42.2795 41.6497C43.1989 41.6497 44.1228 41.5967 45.0356 41.6652C45.8312 41.7271 45.8069 41.285 45.8356 40.7259C45.8688 40.1181 45.6986 39.8904 45.0532 39.9037C43.1415 39.9413 41.2275 39.9479 39.318 39.8971C38.6063 39.8772 38.5643 40.2131 38.5732 40.7568C38.582 41.2784 38.571 41.6983 39.3025 41.6652C40.2926 41.6188 41.2872 41.6541 42.2795 41.6541ZM98.8321 44.3527C98.9293 43.5902 98.4895 43.3957 97.8397 43.4532C97.4397 43.4885 96.843 43.3228 96.9711 44.0587C97.064 44.5936 97.0043 45.2765 97.9104 45.2389C98.5315 45.2146 98.905 45.0511 98.8321 44.3527ZM125.891 36.036C125.769 35.6735 125.455 35.7376 125.188 35.731C124.768 35.7222 124.483 35.8769 124.507 36.3543C124.522 36.6615 124.613 36.9974 124.982 36.92C125.422 36.8294 125.687 36.4625 125.891 36.036ZM128.72 41.4132C128.941 40.9403 129.272 40.4717 128.938 39.9965C128.843 39.8595 128.397 39.8374 128.247 40.0871C127.904 40.6485 128.512 40.9579 128.72 41.4154V41.4132ZM46.45 51.2438C46.439 51.1819 46.4279 51.1179 46.4169 51.056C46.3727 51.0781 46.2997 51.0957 46.2931 51.1245C46.2821 51.1842 46.3064 51.2505 46.3174 51.3123C46.3616 51.2902 46.4036 51.2681 46.45 51.2438Z" fill="black"/>
<path d="M88.9593 40.7764C88.9527 39.8747 88.9925 38.9685 88.9262 38.069C88.8511 37.0767 89.019 36.2214 89.8788 35.6136C89.8876 35.5495 89.8987 35.4854 89.9097 35.4213C89.8677 35.4478 89.8257 35.4743 89.7837 35.5009C89.1826 35.6489 88.893 35.5649 88.9196 34.7958C88.9859 32.8487 88.9792 30.8972 88.9218 28.9479C88.8975 28.1434 89.1804 27.9643 89.9274 27.9887C91.5828 28.0417 93.2426 28.0505 94.8957 27.9887C95.7533 27.9555 96.0295 28.2738 95.919 29.0716C95.8837 29.3236 95.9411 29.5888 95.908 29.843C95.8173 30.5082 96.056 30.7292 96.7544 30.7159C98.2065 30.6872 98.1999 30.7314 98.2087 32.1481C98.2197 33.9759 98.1026 33.6753 99.6364 33.6156C100.492 33.5825 100.744 33.8278 100.644 34.6433C100.611 34.9196 100.383 35.4279 101.051 35.4368C101.705 35.4456 101.601 35.0014 101.603 34.6058C101.614 32.694 101.645 30.78 101.626 28.8683C101.619 28.203 101.844 27.9754 102.523 27.9953C104.141 28.0395 105.763 28.0417 107.383 27.9953C108.042 27.9754 108.203 28.2384 108.201 28.8219C108.181 32.8288 108.179 36.8336 108.17 40.8405C104.401 40.8272 100.635 40.8162 96.8672 40.8029C96.5599 40.414 96.2373 40.4095 95.9035 40.7654C93.5918 40.8714 91.2778 40.8714 88.966 40.7742L88.9593 40.7764Z" fill="#BFBFBF"/>
<path d="M47.6677 40.7647C47.6633 40 47.7252 39.2265 47.6368 38.4706C47.5594 37.8032 47.8379 37.4496 48.3727 37.1888C48.4899 37.0694 48.8612 37.0716 48.6645 36.8108C48.523 36.6208 48.3241 36.8749 48.1606 36.9633C47.7053 37.1446 47.6699 36.8484 47.6699 36.5257C47.6788 33.9134 47.6765 31.3032 47.7141 28.6909C47.723 28.0013 48.607 27.7074 49.3673 28.1671C49.7673 28.4102 49.9574 28.2599 50.3596 28.1693C51.5509 27.9019 52.835 28.0168 54.0815 28.0521C54.497 28.0632 54.3533 28.4986 54.3533 28.7704C54.3489 30.6822 54.3644 32.5961 54.3069 34.5079C54.287 35.1952 54.4926 35.4052 55.1711 35.3743C56.2363 35.3256 57.306 35.3411 58.3735 35.3853C58.9459 35.4096 59.1316 35.2328 59.1228 34.6494C59.0896 32.7376 59.1382 30.8236 59.0984 28.9119C59.083 28.1848 59.3128 27.9637 60.0466 27.9903C61.702 28.0455 63.3596 28.0256 65.0171 27.9947C65.5608 27.9836 65.8039 28.0875 65.7973 28.7041C65.7597 32.7486 65.7575 36.7932 65.7421 40.8377C65.0437 40.8355 64.3453 40.8333 63.6491 40.8288C58.3227 40.8067 52.9963 40.7846 47.6699 40.7647H47.6677Z" fill="#BFBFBF"/>
<path d="M110.603 40.7783C110.594 39.5296 110.629 38.2764 110.561 37.0299C110.525 36.3934 110.718 36.0619 111.341 35.9912C111.759 35.9447 112.097 35.8011 112.218 35.3414C111.118 35.5624 110.569 35.0961 110.572 33.9424C110.572 32.2516 110.603 30.5587 110.552 28.8679C110.532 28.174 110.764 27.9773 111.429 27.9927C113.195 28.0303 114.963 28.048 116.727 27.9927C117.512 27.9684 117.635 28.2889 117.618 28.9608C117.578 30.5012 117.604 32.0461 117.604 33.7744C118.013 33.2815 118.208 32.8307 118.787 32.7202C119.388 32.6052 119.419 31.9842 119.364 31.4781C119.289 30.8018 119.505 30.5985 120.201 30.6272C121.989 30.7001 121.854 30.7399 121.797 28.9342C121.771 28.1342 121.95 27.8248 122.816 27.8601C124.58 27.9308 126.348 27.911 128.114 27.8778C128.763 27.8645 129.055 28.0215 129.011 28.7265C128.925 30.1144 129.128 31.5112 128.9 32.897C128.186 32.897 127.47 32.897 126.734 32.897C126.485 33.6816 127.046 34.6408 126.445 35.4651C126.376 35.4408 126.31 35.3988 126.242 35.3944C124.409 35.253 124.345 35.2486 124.215 37.0078C124.164 37.7018 123.87 37.7504 123.364 37.7305L123.293 37.7349C122.644 37.7084 121.848 37.4145 121.976 38.619C122.029 39.114 122.224 39.1826 122.657 39.1826C124.288 39.1804 124.288 39.1958 124.237 40.8004C119.693 40.7937 115.147 40.7893 110.603 40.7827V40.7783Z" fill="#BFBFBF"/>
<path d="M150.137 40.7844C150.126 36.8129 150.128 32.8413 150.095 28.8697C150.089 28.1823 150.334 27.9901 150.997 27.9945C155.526 28.0166 160.052 28.0188 164.58 27.9923C165.25 27.9878 165.467 28.1669 165.465 28.852C165.458 30.377 165.495 30.4146 166.967 30.4632C167.677 30.4875 167.814 30.7947 167.807 31.4202C167.776 34.5453 167.779 37.6704 167.77 40.7977C165.721 40.7955 163.672 40.7933 161.623 40.7889C161.614 39.7236 161.676 38.6517 161.575 37.5952C161.48 36.6095 161.683 35.9376 162.717 35.6393C162.936 35.5774 163.243 35.3586 163.089 34.8878C162.598 34.8878 162.085 34.8414 161.586 34.8989C160.832 34.9851 160.613 34.6359 160.693 33.9662C160.693 33.743 160.693 33.5176 160.693 33.2943C160.719 33.1374 160.635 33.0999 160.501 33.1153C159.243 33.1153 157.983 33.1197 156.726 33.122C156.598 33.1021 156.525 33.1418 156.562 33.2877C156.562 34.5453 156.558 35.8028 156.556 37.0604C156.536 38.3047 156.518 39.5512 156.498 40.7955C154.379 40.7933 152.259 40.7889 150.142 40.7866L150.137 40.7844Z" fill="#BFBFBF"/>
<path d="M137.779 33.9718C137.695 35.2772 138.312 35.9299 139.631 35.9299C141.903 35.9299 144.177 35.9565 146.449 35.9189C147.11 35.9078 147.344 36.0603 147.307 36.7587C147.231 38.1091 147.254 39.4639 147.236 40.8165C144.151 40.8253 141.067 40.8342 137.982 40.843C135.768 40.8276 133.553 40.8121 131.341 40.7988C131.334 40.0275 131.369 39.2539 131.312 38.487C131.219 37.2096 131.153 36.0205 132.939 35.8968C133.222 35.8769 133.473 35.4459 133.798 35.152C133.054 34.9376 132.636 35.4769 132.105 35.6271C131.588 35.7752 131.297 35.8238 131.31 35.11C131.345 32.9816 131.345 30.8489 131.312 28.7205C131.303 28.0973 131.573 28 132.101 28C137.1 28.0133 142.1 28.0177 147.099 28C147.711 27.9978 147.95 28.168 147.928 28.8067C147.886 30.0179 147.912 31.2312 147.917 32.4424C147.917 32.7783 147.961 33.1297 147.461 33.1275H139.273C138.78 33.2778 138.084 32.6457 137.779 33.5165C137.779 33.669 137.779 33.8215 137.779 33.974V33.9718Z" fill="#BFBFBF"/>
<path d="M110.603 40.7783C115.147 40.785 119.693 40.7894 124.237 40.796C124.361 41.6447 124.872 41.4789 125.448 41.2933C126.255 41.0347 126.794 41.2822 126.671 42.2149C126.545 43.1586 126.995 43.3907 127.791 43.2603C128.863 43.0835 129.208 43.5078 129.106 44.5731C129.004 45.6251 129.042 46.697 129.08 47.7579C129.102 48.3922 128.867 48.5646 128.255 48.5491C126.717 48.5093 125.177 48.538 123.636 48.5358C122.226 48.5336 121.974 48.3016 121.808 46.9335C121.793 46.8097 121.68 46.6992 121.612 46.5843C121.161 46.5821 120.71 46.5799 120.259 46.5755C119.642 46.6418 119.278 46.4782 119.371 45.7467C119.43 45.2781 119.379 44.7941 119.384 44.3189C119.386 44.0449 119.353 43.7708 119.024 43.7377C118.235 43.6625 118.022 43.015 117.598 42.1574C117.598 44.2062 117.571 45.9478 117.611 47.6894C117.627 48.3612 117.419 48.5734 116.738 48.5557C114.979 48.5093 113.215 48.5137 111.456 48.5513C110.806 48.5646 110.557 48.4054 110.57 47.7048C110.614 45.3975 110.594 43.0879 110.599 40.7783H110.603Z" fill="#9A9A9A"/>
<path d="M161.621 40.7903C163.67 40.7925 165.719 40.7947 167.768 40.7991C167.776 42.2313 167.741 43.6635 167.812 45.0934C167.854 45.9067 167.62 46.2736 166.784 46.1211C165.69 45.9222 165.246 46.3289 165.447 47.456C165.562 48.0992 165.454 48.5589 164.565 48.5522C159.824 48.5147 155.086 48.5346 150.345 48.5301C150.239 48.5301 150.131 48.4926 149.958 48.4616C150.398 47.666 149.724 46.6913 150.416 45.9686C151.026 45.3343 151.87 45.3255 152.96 45.3785C152.153 44.7552 151.495 45.0227 150.902 45.0249C150.27 45.0249 150.076 44.8238 150.102 44.2005C150.153 43.0645 150.129 41.9263 150.138 40.7881C152.257 40.7903 154.377 40.7947 156.494 40.7969C156.5 41.4158 156.503 42.0346 156.514 42.6534C156.518 42.9054 156.505 43.2192 156.856 43.2281C157.913 43.2568 158.969 43.2656 160.023 43.2546C160.697 43.2479 160.282 42.4921 160.66 42.2667C160.722 42.2313 160.766 42.1252 160.819 42.123C161.805 42.1075 161.562 41.3583 161.621 40.7925V40.7903Z" fill="#9A9A9A"/>
<path d="M47.6672 40.7661C52.9936 40.7882 58.32 40.8103 63.6464 40.8302C64.3448 40.8324 65.0432 40.8347 65.7393 40.8391C65.7504 43.1862 65.7504 45.5334 65.7791 47.8805C65.7858 48.4375 65.5183 48.5458 65.0365 48.5413C63.3104 48.5259 61.5821 48.5281 59.856 48.5435C59.3852 48.548 59.0935 48.475 59.0957 47.9004C59.1024 45.8472 59.0537 43.794 59.2946 41.7474C57.8271 41.2789 56.3552 41.3297 54.8766 41.6855C54.4302 43.0426 54.7705 44.4394 54.6689 45.8141C54.6048 46.6826 55.0291 47.8076 54.5009 48.3601C53.9638 48.9215 52.8322 48.4993 51.9637 48.5259C50.8255 48.5612 49.685 48.4993 48.549 48.548C47.8838 48.5767 47.6407 48.3822 47.6517 47.6949C47.6849 45.3853 47.6672 43.0735 47.6672 40.7617V40.7661Z" fill="#9A9A9A"/>
<path d="M83.9955 40.7807C83.9358 43.1654 83.8629 45.5501 83.832 47.9348C83.8253 48.4343 83.6596 48.5537 83.1977 48.5515C79.0802 48.5382 74.9628 48.5227 70.8475 48.5515C69.8662 48.5581 70.1049 47.8862 70.1734 47.4309C70.3215 46.4717 69.9635 46.1667 69.0617 46.3303C68.2197 46.4828 67.8926 46.1778 67.9412 45.2761C68.023 43.7754 67.9832 42.2659 67.9942 40.7608C70.2773 40.8514 72.5604 40.889 74.8434 40.752C74.8655 40.8956 74.8987 41.0393 74.9053 41.1851C74.9731 42.5746 75.6943 43.2678 77.069 43.2649C78.7045 43.2604 79.5642 42.4339 79.6482 40.7851C81.0958 40.7829 82.5435 40.7807 83.9911 40.7785L83.9955 40.7807Z" fill="#9A9A9A"/>
<path d="M34.062 40.7812C34.2322 41.5636 33.7327 42.6112 34.3228 43.093C34.9262 43.5837 35.9495 43.2411 36.7893 43.2477C39.2889 43.2676 41.7886 43.2721 44.2904 43.2477C44.9778 43.2411 45.2828 43.4025 45.2342 44.176C45.159 45.3827 45.1811 46.6005 45.2165 47.8116C45.2342 48.3907 45.0485 48.5542 44.4717 48.552C39.8017 48.5299 35.1339 48.5299 30.4639 48.552C29.823 48.5564 29.5909 48.3332 29.686 47.7321C29.8473 46.7066 29.5821 46.101 28.3776 46.3176C27.6792 46.4436 27.4935 46.0435 27.5002 45.4159C27.5201 43.8732 27.509 42.3305 27.509 40.7879C29.6926 40.7879 31.8762 40.7835 34.0598 40.7835L34.062 40.7812Z" fill="#9A9A9A"/>
<path d="M34.9857 33.1181C34.2829 32.9634 34.0397 33.1976 34.0508 33.9557C34.0795 35.8454 34.011 35.7393 32.1766 36.2233C30.5787 36.6454 29.2548 36.1393 27.9022 35.4851C27.6061 35.3415 27.4713 35.158 27.4757 34.8088C27.4956 33.4164 27.4845 32.0219 27.4845 30.5897C27.7785 30.6074 28.0105 30.6251 28.247 30.6339C29.8516 30.6914 29.8847 30.6892 29.9068 29.0647C29.9179 28.2868 30.1345 27.9818 30.9832 27.9884C35.4321 28.0304 39.8811 28.0215 44.3279 27.995C45.024 27.9906 45.3003 28.1232 45.245 28.9056C45.1456 30.2935 45.1787 31.6903 45.1589 33.0827C41.7685 33.0938 38.3782 33.1048 34.9879 33.1159L34.9857 33.1181Z" fill="#BFBFBF"/>
<path d="M131.341 40.7957C133.555 40.8112 135.77 40.8266 137.982 40.8399C137.982 41.2001 137.978 41.5626 137.975 41.9229C137.967 42.5041 137.96 43.0854 137.951 43.6666C138.327 44.0026 138.782 43.8633 139.206 43.8633C142.091 43.8744 144.973 43.8722 147.857 43.8722C147.875 45.1938 147.864 46.5155 147.919 47.8327C147.945 48.4626 147.647 48.551 147.128 48.5399C146.135 48.5201 145.143 48.5488 144.153 48.5576C144.084 48.5422 144.013 48.5311 143.943 48.5223C143.837 48.1797 143.731 47.8371 143.616 47.468C143.194 47.7841 143.315 48.1885 143.213 48.5178C143.147 48.5178 143.083 48.5289 143.021 48.5488C140.796 48.5422 138.57 48.4803 136.347 48.5488C135.23 48.5842 134.28 48.4361 133.513 47.5564C133.257 47.2625 132.881 47.0724 132.561 46.8359C132.386 46.6879 132.227 46.321 131.977 46.6216C131.869 46.752 132.192 46.931 132.379 47.0304C132.446 47.1166 132.514 47.2028 132.578 47.2912C132.804 47.5896 133.418 47.8128 133.137 48.2151C132.839 48.6394 132.2 48.5576 131.696 48.4913C131.128 48.4162 131.345 47.9233 131.341 47.6095C131.323 45.3353 131.336 43.0633 131.338 40.7891L131.341 40.7957Z" fill="#9A9A9A"/>
<path d="M74.8498 40.756C72.5667 40.893 70.2837 40.8554 68.0006 40.7648C67.9896 39.147 68.0139 37.527 67.9498 35.9114C67.9233 35.2395 68.0979 35.0472 68.7852 35.0163C69.2007 34.9986 69.8726 35.1445 70.0715 34.4461C68.6674 34.3518 67.9675 33.5679 67.9719 32.0945C67.9741 31.027 68.0051 29.9595 67.9542 28.8943C67.9233 28.2401 68.0824 27.9704 68.7941 27.9881C70.56 28.0345 72.3281 28.0191 74.0961 27.9992C74.6487 27.9925 74.9294 28.1539 74.8807 28.7484C74.8498 29.1131 74.8432 29.4888 74.8874 29.8512C74.9979 30.7684 74.8166 31.3364 73.6939 31.0933C72.8386 30.9077 72.5888 31.5818 72.4783 32.1896C72.3059 33.1355 71.8197 33.4714 70.8959 33.3145C70.6439 33.2725 70.3235 33.1952 70.0273 33.5753C70.8627 33.9046 71.6628 33.7875 72.3921 33.6637C72.8253 33.5908 72.748 32.9123 72.7966 32.5034C72.8806 31.7873 73.2806 31.679 73.8619 31.7984C74.368 31.9022 74.9271 31.8315 74.9028 32.7001C74.8321 35.3832 74.8586 38.0685 74.8454 40.7538L74.8498 40.756Z" fill="#BFBFBF"/>
<path d="M96.8606 40.8023C100.629 40.8155 104.395 40.8266 108.163 40.8398C108.344 43.2201 108.187 45.6027 108.229 47.983C108.236 48.4183 108.062 48.5487 107.644 48.5443C105.845 48.5266 104.044 48.52 102.244 48.5399C101.743 48.5465 101.617 48.3255 101.619 47.8835C101.623 47.3332 101.559 46.7829 101.575 46.2325C101.595 45.5297 101.268 45.3131 100.622 45.4568C100.392 45.4568 100.165 45.459 99.9349 45.4612C98.9182 45.4479 99.3382 44.6832 99.2807 44.1838C99.2299 43.7373 99.4111 43.2599 98.6221 43.2246C96.8164 43.1428 96.8186 43.0986 96.8341 41.2355C96.8341 41.0896 96.8496 40.9437 96.8584 40.7979L96.8606 40.8023Z" fill="#9A9A9A"/>
<path d="M88.9592 40.7774C91.271 40.8724 93.585 40.8746 95.8968 40.7686C95.9034 43.1223 95.8968 45.4761 95.9299 47.8277C95.9388 48.4355 95.6802 48.5592 95.1365 48.5526C93.333 48.5261 91.5274 48.5172 89.7239 48.5548C89.0808 48.5681 88.9128 48.336 88.9238 47.7282C88.9592 45.412 88.9526 43.0936 88.9592 40.7774Z" fill="#9A9A9A"/>
<path d="M143.945 48.5247C144.016 48.5335 144.084 48.5446 144.155 48.56C145.07 48.98 146.038 48.7147 146.979 48.7457C147.899 48.7766 148.001 49.1192 147.554 49.822C146.741 51.095 145.892 51.9857 144.069 51.8951C140.144 51.7006 136.201 51.8398 132.265 51.8288C131.82 51.8288 131.197 51.9923 131.14 51.2829C131.069 50.421 130.945 49.3932 131.734 48.8805C132.141 48.6153 133.084 48.3523 133.504 49.3004C133.61 49.5391 133.935 49.6806 134.28 49.9657C134.309 48.6551 135.158 48.7435 136.013 48.7545C137.962 48.7788 139.912 48.7656 141.861 48.7589C142.259 48.7589 142.676 48.8429 143.026 48.5534C143.087 48.5335 143.152 48.5225 143.218 48.5225C143.461 48.5225 143.704 48.5247 143.947 48.5269L143.945 48.5247Z" fill="#282828"/>
<path d="M37.5742 48.765C39.6672 48.765 41.7602 48.7981 43.851 48.7495C44.6599 48.7318 45.0798 48.9307 45.3516 49.775C46.0235 51.8547 46.081 51.8392 43.8686 51.8392C40.3811 51.8392 36.8913 51.7862 33.4059 51.8702C32.1992 51.8989 31.419 51.5077 30.9881 50.4402C30.7693 49.8987 29.9361 49.4589 30.2145 48.9793C30.5151 48.4622 31.3572 48.7871 31.9561 48.7782C33.8281 48.7473 35.7 48.7672 37.572 48.7672L37.5742 48.765Z" fill="#282828"/>
<path d="M34.9863 33.1181C38.3767 33.1071 41.767 33.096 45.1573 33.085C45.5352 34.2188 46.1916 35.2597 46.0701 36.5504C46.0038 37.2555 45.7607 37.5118 45.0645 37.5052C42.6798 37.4831 40.295 37.4875 37.9125 37.5096C37.3246 37.514 36.9467 37.3173 36.7124 36.7692C36.182 35.5338 35.1897 34.5127 34.9863 33.1203V33.1181Z" fill="#282828"/>
<path d="M157.281 48.7633C159.305 48.7633 161.327 48.7589 163.352 48.7699C163.699 48.7721 164.159 48.6196 164.344 49.0351C164.508 49.3976 164.079 49.5877 163.929 49.8639C163.003 51.5591 161.588 51.9635 159.712 51.8774C156.37 51.7249 153.017 51.8398 149.669 51.8287C149.357 51.8287 148.926 51.9812 148.765 51.6254C148.597 51.2541 149.044 51.0861 149.229 50.8364C149.424 50.5734 149.777 50.3303 149.806 50.054C149.934 48.7766 150.748 48.7147 151.762 48.7456C153.601 48.8009 155.442 48.7611 157.281 48.7633Z" fill="#282828"/>
<path d="M83.9957 40.7798C82.5481 40.782 81.1005 40.7843 79.6528 40.7865C79.6462 36.7884 79.6528 32.7903 79.6197 28.7921C79.6153 28.1512 79.8341 27.97 80.4463 27.9943C81.4718 28.0363 82.4973 28.0053 83.6112 28.0053C83.3548 29.3756 83.2045 30.7017 83.0675 32.0278C82.9724 32.9472 82.1414 33.4931 81.7083 34.2511C81.4629 34.6821 81.4408 34.8943 81.7392 35.4733C82.6166 37.1707 84.272 38.5896 83.9957 40.7798Z" fill="#BFBFBF"/>
<path d="M77.1461 48.7627C78.9805 48.7627 80.8171 48.7914 82.6515 48.7495C83.467 48.7318 83.8229 48.9439 83.8472 49.8457C83.9002 51.837 83.9511 51.8348 81.9244 51.8348C78.7308 51.8348 75.5393 51.8392 72.3457 51.8326C71.2672 51.8304 70.1201 50.0225 70.5533 49.0279C70.7345 48.6124 71.1235 48.7716 71.4219 48.7693C73.3292 48.7539 75.2388 48.7605 77.1483 48.7627H77.1461Z" fill="#282828"/>
<path d="M84.6696 40.8386C84.5879 38.761 83.2773 37.2007 82.4065 35.4547C82.2628 35.1652 81.8341 34.869 82.2783 34.5088C83.8917 33.2026 83.6088 31.2997 83.7856 29.5736C83.8585 28.8509 84.2497 28.3823 84.7028 28.0862C85.578 27.5137 86.4864 28.1326 86.4841 29.1979C86.4731 34.7408 86.4576 40.286 86.4444 45.829C86.3803 45.8445 86.3162 45.8445 86.2521 45.829C86.2609 44.6709 86.2786 43.5128 86.2786 42.3547C86.2786 40.7369 86.2742 40.7369 84.6674 40.8386H84.6696Z" fill="#BFBFBF"/>
<path d="M34.0625 40.7808C31.8789 40.7808 29.6953 40.7852 27.5117 40.7852C27.5117 39.2116 27.5117 37.6402 27.5117 35.7793C29.5693 37.4369 31.7551 37.3109 34.0625 36.6214V40.7808Z" fill="#BFBFBF"/>
<path d="M92.4024 48.7642C93.3219 48.7642 94.2413 48.773 95.1607 48.7597C95.6712 48.7531 95.837 48.9167 95.8149 49.478C95.722 51.8362 95.7464 51.8362 93.4279 51.8362C92.2875 51.8362 91.1471 51.8119 90.0067 51.8429C89.2 51.865 88.8508 51.518 88.9016 50.7223C88.9215 50.393 88.9259 50.0593 88.9016 49.73C88.8508 49.0272 89.1425 48.7222 89.863 48.7531C90.7073 48.7885 91.5538 48.7619 92.4002 48.7619L92.4024 48.7642Z" fill="#282828"/>
<path d="M51.2685 48.7646C51.9669 48.7646 52.663 48.7623 53.3614 48.7646C54.6521 48.769 55.5649 49.9624 55.3086 51.262C55.2135 51.7394 54.9196 51.8344 54.5217 51.8344C53.0167 51.8344 51.5116 51.8344 50.0065 51.8344C49.465 51.8344 49.1047 51.5891 48.9169 51.0786C48.8417 50.873 48.7666 50.6586 48.6473 50.4774C47.4847 48.738 47.677 48.7248 49.6197 48.7623C50.17 48.7734 50.7203 48.7623 51.2707 48.7623L51.2685 48.7646Z" fill="#282828"/>
<path d="M125.674 48.7612C126.443 48.7612 127.215 48.7457 127.984 48.7678C128.328 48.7767 128.777 48.6087 128.978 49.0198C129.155 49.3823 128.768 49.5989 128.602 49.8663C128.351 50.2707 128.074 50.6597 127.853 51.0796C127.561 51.6322 127.133 51.8532 126.516 51.8443C125.124 51.8244 123.729 51.8222 122.337 51.8443C121.442 51.8576 121.241 51.4686 121.53 50.6752C122.228 48.7678 122.22 48.7656 124.246 48.7656C124.724 48.7656 125.199 48.7656 125.676 48.7656L125.674 48.7612Z" fill="#282828"/>
<path d="M114.046 48.7615C114.891 48.7615 115.737 48.7814 116.581 48.7549C117.143 48.7372 117.258 48.9604 117.176 49.4886C116.871 51.4755 116.477 51.838 114.51 51.838C113.556 51.838 112.599 51.8269 111.644 51.8402C110.939 51.849 110.623 51.6722 110.638 50.8235C110.676 48.7615 110.614 48.7615 112.725 48.7615C113.164 48.7615 113.606 48.7615 114.046 48.7615Z" fill="#282828"/>
<path d="M62.7938 48.761C63.0877 48.761 63.3816 48.761 63.6756 48.761C65.9984 48.7566 66.0316 48.7875 66.3233 51.0153C66.3874 51.506 66.2393 51.8198 65.7067 51.8242C64.1287 51.8331 62.5484 51.8574 60.9704 51.8132C60.2587 51.7933 59.2775 49.603 59.6819 49.0373C59.8808 48.7588 60.1902 48.772 60.482 48.7698C61.2533 48.7632 62.0246 48.7676 62.796 48.7676V48.7632L62.7938 48.761Z" fill="#282828"/>
<path d="M104.834 48.7637C105.166 48.7637 105.495 48.7593 105.827 48.7637C108.527 48.8123 108.136 48.3437 107.705 51.1241C107.615 51.7031 107.31 51.8424 106.808 51.8402C105.411 51.8335 104.014 51.8225 102.618 51.8402C101.957 51.849 101.731 51.5639 101.698 50.9163C101.588 48.7592 101.566 48.7615 103.732 48.7615C104.098 48.7615 104.467 48.7615 104.834 48.7615V48.7637Z" fill="#282828"/>
<path d="M139.273 33.1223H147.461C147.13 34.3512 146.279 35.0518 145.068 35.0584C143.317 35.0694 141.565 35.0562 139.814 35.0672C139.116 35.0717 138.4 35.1667 138.243 34.1876C138.227 34.0926 137.94 34.0417 137.779 33.9688C137.779 33.8163 137.779 33.6638 137.779 33.5113C138.278 33.3875 138.91 33.7699 139.273 33.1201V33.1223Z" fill="#282828"/>
<path d="M137.978 41.9239C137.978 41.5637 137.982 41.2012 137.984 40.841C141.069 40.8321 144.153 40.8233 147.238 40.8145C147.216 42.5008 147.156 42.5627 145.521 42.5671C143.472 42.5715 141.423 42.5538 139.374 42.5803C138.775 42.5892 138.296 42.461 137.98 41.9239H137.978Z" fill="#282828"/>
<path d="M84.6693 40.8383C86.276 40.7389 86.2805 40.7389 86.2805 42.3545C86.2805 43.5126 86.2628 44.6707 86.2539 45.8288V45.9349C86.1876 45.9061 86.1169 45.9017 86.0462 45.9172C85.8163 45.9172 85.5843 45.9128 85.3544 45.9106C84.992 45.8818 84.614 45.9172 84.6273 45.3492C84.6604 43.8463 84.6582 42.3412 84.6693 40.8383Z" fill="#9A9A9A"/>
<path d="M58.1971 41.7402C58.102 42.6066 58.0203 43.473 57.912 44.3371C57.8302 44.9847 57.4677 45.2543 56.7914 45.2344C56.0709 45.2123 55.9295 44.8035 55.9781 44.231C56.051 43.3846 55.8146 42.5712 55.7549 41.7402C56.5704 41.7402 57.3837 41.7402 58.1993 41.7402H58.1971Z" fill="#282828"/>
<path d="M126.445 35.4627C127.046 34.6383 126.485 33.6791 126.735 32.8945C127.471 32.8945 128.185 32.8945 128.901 32.8945C128.62 34.2449 128.147 35.529 127.548 36.7667C127.438 36.9965 127.347 37.2927 127.06 37.2905C126.64 37.286 126.728 36.8948 126.673 36.6341C126.591 36.2451 126.52 35.8539 126.445 35.4627Z" fill="#282828"/>
<path d="M85.3527 45.9099C85.5825 45.9099 85.8146 45.9143 86.0444 45.9165C86.1129 45.9232 86.1814 45.9276 86.2522 45.9342V45.8281C86.3163 45.8436 86.3804 45.8414 86.4445 45.8281C86.8224 46.8978 86.6655 48.0073 86.6898 49.1013C86.6964 49.3997 86.6588 49.7091 86.292 49.7975C86.0312 49.8616 85.7814 49.8329 85.5781 49.6295C85.0631 49.1146 84.9062 46.5309 85.3527 45.9121V45.9099Z" fill="#282828"/>
<path d="M99.9367 45.4634C100.167 45.4634 100.394 45.4612 100.624 45.459C101.362 45.7463 101.004 46.2613 100.894 46.732C100.785 47.1917 100.732 47.6691 100.58 48.1133C100.419 48.5819 100.056 48.5929 99.7223 48.2857C99.2825 47.8813 99.4527 45.8435 99.9345 45.4634H99.9367Z" fill="#282828"/>
<path d="M120.262 46.5752C120.713 46.5774 121.163 46.5796 121.614 46.584C121.605 46.9465 121.555 47.2957 121.398 47.6361C121.157 48.1599 120.878 48.5798 120.198 48.5179C119.619 48.4648 119.559 48.025 119.44 47.6095C119.23 46.8758 119.853 46.8161 120.262 46.5774V46.5752Z" fill="#282828"/>
<path d="M98.8317 44.3512C98.9069 45.0496 98.5312 45.2132 97.9101 45.2375C97.004 45.2729 97.0636 44.5921 96.9708 44.0573C96.8426 43.3191 97.4394 43.4849 97.8394 43.4517C98.4892 43.3943 98.929 43.591 98.8317 44.3512Z" fill="#282828"/>
<path d="M147.859 43.875C144.975 43.875 142.093 43.875 139.208 43.8662C138.784 43.8662 138.327 44.0054 137.953 43.6695C140.917 43.6739 143.883 43.6717 146.847 43.696C147.183 43.6982 147.578 43.517 147.859 43.8772V43.875Z" fill="#BFBFBF"/>
<path d="M125.89 36.0361C125.687 36.4648 125.422 36.8295 124.982 36.9201C124.613 36.9975 124.522 36.6615 124.507 36.3543C124.483 35.8791 124.768 35.7222 125.188 35.7311C125.457 35.7377 125.771 35.6736 125.89 36.0361Z" fill="#282828"/>
<path d="M58.1963 41.7404C57.3808 41.7404 56.5675 41.7404 55.7519 41.7404C55.4602 41.7228 55.1685 41.7051 54.8745 41.6874C56.3531 41.3316 57.8272 41.2807 59.2925 41.7493C58.9257 41.7449 58.561 41.7426 58.1941 41.7382L58.1963 41.7404Z" fill="#BFBFBF"/>
<path d="M123.293 37.731L123.364 37.7266C123.346 38.3609 122.78 38.3321 122.345 38.6968C122.321 37.8415 122.928 37.9211 123.293 37.731Z" fill="#282828"/>
<path d="M46.45 51.2435C46.4058 51.2656 46.3616 51.2899 46.3196 51.312C46.3086 51.2479 46.2842 51.1816 46.2953 51.1242C46.3019 51.0932 46.3749 51.0778 46.4191 51.0557C46.4301 51.1175 46.4412 51.1816 46.45 51.2457V51.2435Z" fill="#282828"/>
<path d="M89.7815 35.5014C89.8235 35.4749 89.8655 35.4484 89.9075 35.4219C89.8964 35.486 89.8876 35.5501 89.8765 35.6142C89.8434 35.5766 89.8124 35.539 89.7793 35.5014H89.7815Z" fill="black"/>
<path d="M48.1606 36.9626C48.3242 36.8742 48.5231 36.6223 48.6646 36.8101C48.8613 37.0709 48.49 37.0687 48.3728 37.1881C48.3021 37.1129 48.2314 37.0356 48.1629 36.9604L48.1606 36.9626Z" fill="black"/>
<path d="M161.622 40.7894C161.562 41.3574 161.807 42.1045 160.819 42.1199C160.766 42.1199 160.722 42.226 160.66 42.2636C160.282 42.4912 160.698 43.2449 160.024 43.2515C158.967 43.2626 157.911 43.2515 156.857 43.225C156.505 43.2161 156.518 42.9023 156.514 42.6504C156.501 42.0315 156.501 41.4127 156.494 40.7939C156.514 39.5496 156.532 38.3031 156.552 37.0588C157.456 37.4102 157.957 36.8576 158.463 36.2454C159.142 35.4255 159.577 34.3624 160.689 33.9668C160.609 34.6365 160.826 34.9879 161.582 34.8995C162.081 34.842 162.592 34.8884 163.085 34.8884C163.242 35.357 162.932 35.5758 162.713 35.6399C161.679 35.9382 161.476 36.6123 161.571 37.5958C161.672 38.6522 161.611 39.7242 161.619 40.7894H161.622Z" fill="black"/>
<path d="M160.691 33.9664C159.577 34.3642 159.142 35.4251 158.465 36.245C157.959 36.8572 157.458 37.412 156.554 37.0583C156.554 35.8008 156.558 34.5432 156.56 33.2857C156.616 33.2304 156.671 33.1752 156.724 33.1199C157.981 33.1199 159.241 33.1155 160.499 33.1133C160.563 33.173 160.627 33.2326 160.691 33.2923C160.691 33.5155 160.691 33.741 160.691 33.9642V33.9664Z" fill="#282828"/>
<path d="M160.691 33.2955C160.627 33.2358 160.563 33.1762 160.499 33.1165C160.634 33.101 160.718 33.1386 160.691 33.2955Z" fill="black"/>
<path d="M156.724 33.1232C156.669 33.1784 156.614 33.2337 156.561 33.2889C156.525 33.1431 156.596 33.1055 156.724 33.1232Z" fill="black"/>
<path d="M139.273 33.123C138.91 33.7706 138.278 33.3904 137.779 33.5142C138.082 32.6412 138.78 33.2733 139.273 33.123Z" fill="black"/>
<path d="M143.945 48.5249C143.702 48.5249 143.458 48.5227 143.215 48.5205C143.317 48.189 143.195 47.7845 143.618 47.4707C143.733 47.8398 143.839 48.1824 143.945 48.5249Z" fill="black"/>
<path d="M132.382 47.0375C132.196 46.9381 131.871 46.759 131.98 46.6286C132.227 46.3281 132.386 46.695 132.563 46.843C132.503 46.9071 132.442 46.9734 132.382 47.0375Z" fill="black"/>
<path d="M86.2517 45.9347C86.1832 45.928 86.1147 45.9236 86.0439 45.917C86.1147 45.8993 86.1832 45.9059 86.2517 45.9347Z" fill="black"/>
</g>
<defs>
<clipPath id="clip0_2859_5834">
<rect width="144.853" height="28" fill="white" transform="translate(25.5732 26)"/>
</clipPath>
</defs>
</svg>
