<svg width="196" height="80" viewBox="0 0 196 80" fill="none" xmlns="http://www.w3.org/2000/svg">
<g clip-path="url(#clip0_3176_141)">
<path d="M167.287 43.5019C167.165 43.4819 167.033 43.575 166.924 43.5621C166.514 43.5131 164.937 41.4276 164.423 41.0082C164.289 40.8989 164.158 40.7452 163.964 40.7622L168.034 47.8628C167.787 48.0797 167.488 47.8694 167.204 47.9027C166.923 51.2998 167.334 54.7609 167.037 58.1585C166.881 59.9522 166.479 61.7339 166.253 63.5193C166.085 63.9886 165.604 64.2604 165.462 63.637C165.277 62.8215 165.311 61.6113 165.21 60.734C164.678 56.1669 164.009 51.1045 160.643 47.6953L161.886 47.2809C161.356 46.0499 161.028 44.742 160.514 43.5039C160.271 42.92 159.237 41.1437 159.409 40.6504C159.466 40.4862 159.911 40.3449 159.893 40.3046C158.355 38.8276 158.306 36.5359 157.464 34.6782L155.99 31.2117C155.969 31.3924 155.915 31.5637 155.903 31.7478C155.7 34.7144 155.713 38.0579 155.653 41.0486C155.627 42.3398 155.437 45.5383 155.928 46.5935C156.169 47.1114 156.536 47.2456 156.984 47.5295C156.044 48.2929 155.194 49.1029 154.459 50.0692C152.825 52.2183 151.939 54.8387 150.381 57.0364C150.095 56.841 150.165 56.575 150.197 56.2717C150.467 53.7194 151.557 51.3621 151.672 48.6125C151.835 44.7495 151.638 40.7015 151.665 36.8131C151.694 32.648 151.702 28.4487 151.748 24.2736C151.752 23.8829 151.872 23.5484 151.834 23.1153C151.709 21.7272 150.218 19.0777 149.221 18.0873C148.917 17.7848 147.905 17.1759 147.759 16.9756C147.597 16.7533 147.677 16.3643 147.955 16.3651L155.903 18.3434L155.61 19.6671L162.039 36.0925C162.146 36.4873 161.581 36.5837 161.556 36.9412L162.266 36.9312L162.76 38.0217L162.969 19.2926C162.886 18.6077 161.99 17.9631 161.557 17.4677C162.948 16.2749 165.038 16.6253 166.746 16.4283C167.362 16.3572 168.051 16.0692 168.573 16.0118C169.228 15.9399 170.172 16.2209 170.859 16.181L169.487 17.1747C168.255 18.3492 167.499 19.9364 167.298 21.6304L167.288 29.4665C167.581 29.4728 167.904 29.5264 168.185 29.6103C168.297 29.6436 168.403 29.5825 168.367 29.7571L166.956 31.0866L168.457 32.2436L168.534 32.9555H167.288V43.5023L167.287 43.5019Z" fill="black"/>
<path d="M71.2492 44.872C71.2953 45.3279 71.5206 46.108 71.8269 46.4538C71.9208 46.5598 72.3435 46.7725 72.2458 46.9055C71.418 47.2634 70.5552 47.5235 69.7518 47.9429C68.6446 48.521 67.6152 49.5363 66.3476 49.6464C67.1119 48.8206 67.4178 47.7816 67.5832 46.6886C68.1347 43.0429 67.87 39.3432 67.9223 35.6581C67.3251 34.4071 66.688 34.1952 65.8152 35.3709C65.1577 36.257 65.3892 38.2037 65.3543 39.3116C65.2566 42.4266 65.1586 45.5503 65.1328 48.6781C65.127 49.3651 65.2791 49.9253 65.1748 50.6755C65.1291 51.005 65.0218 51.3226 64.9341 51.6405C64.4308 51.4339 64.2039 50.9057 63.8137 50.5628C62.7925 51.9356 61.9597 51.4535 60.6967 50.7702C57.6332 49.1132 54.4431 46.2638 53.2424 42.9415C52.1269 39.8553 52.0671 34.708 52.3044 31.416C52.513 28.5268 54.941 23.9585 57.6781 22.7532C59.4062 21.9923 60.2324 22.3443 61.8346 23.0587C62.3258 23.2777 65.2487 24.7706 65.3925 25.0656C65.4765 25.2385 65.4378 25.4891 65.4225 25.6786C65.2795 27.452 64.6137 29.3738 64.4338 31.1671L64.1441 31.4593C63.9317 31.5154 64.0327 30.9227 64.0111 30.7648C63.6977 28.4811 61.8653 25.4081 59.1843 26.0028C56.2098 26.6624 55.7443 31.4547 55.793 33.9138C55.8536 36.966 55.906 39.9051 56.9579 42.7973C57.5173 44.3355 58.5027 46.5689 60.515 45.9347C61.6679 45.5715 61.8479 44.5025 62.0166 43.4494C62.3271 41.5089 62.1467 39.5261 62.1916 37.5657C62.1218 37.2021 61.2581 37.0965 60.9161 36.9307C59.7379 36.3596 59.5583 35.161 58.789 34.2421C58.868 34.1212 58.9482 34.1274 59.0741 34.1133C60.9473 33.9076 63.1416 34.3988 64.9774 34.201C65.8293 34.1091 66.8289 33.5406 67.7602 33.6196C67.9069 32.1986 67.8114 30.7673 67.8392 29.3389C67.8633 28.0966 68.1796 25.3395 67.7474 24.2889C67.6077 23.9497 67.2283 23.4182 66.9698 23.1559C66.8085 22.9926 66.4818 22.8538 66.3476 22.658C68.3591 22.4024 70.3964 22.7191 72.4112 22.8235C72.4594 23.0155 72.3738 22.9602 72.3065 23.013C72.0364 23.2245 71.6415 23.345 71.4803 23.6775C71.2376 24.1779 71.3012 24.9048 71.1661 25.4397L71.4146 32.9542H76.3994V23.9439C76.3994 23.9231 76.1504 23.7706 76.0806 23.6813C75.7893 23.3089 75.5478 22.9033 75.3196 22.4914L80.5529 22.6572C80.3995 23.0479 80.0525 23.3197 79.9457 23.7515C79.8767 24.0304 79.8343 24.4755 79.8065 24.7751C79.6186 26.8116 79.6859 28.8792 79.6427 30.9231C79.6361 31.2352 79.4224 32.8416 79.6045 32.9637L80.7195 33.2455L79.9719 33.8265L79.7612 34.1972L79.8019 47.1162C79.9436 47.5792 79.8405 48.0617 79.8971 48.5156C79.9469 48.9158 80.5812 50.6921 80.3027 50.8908C80.1597 50.9277 80.1365 50.8317 80.0538 50.7673C79.4885 50.3293 78.9811 49.6028 78.4782 49.1037C77.5402 48.1719 76.576 47.2505 75.4023 46.6134C75.3479 46.3881 76.2277 46.1346 76.3989 46.0747V36.3588H71.248V44.8707L71.2492 44.872Z" fill="black"/>
<path d="M28.2154 20.8725C27.4112 19.1673 26.1715 17.743 25.1416 16.1816C26.9299 16.0262 28.6044 16.4692 30.3479 16.7481C31.0993 16.8682 31.9217 16.8931 32.6507 17.0207C33.0189 17.0851 33.2172 17.1599 33.4478 17.4679C33.0085 17.9055 32.6029 18.4076 32.4026 19.0019L39.5751 37.0091L39.7629 37.1903C39.7837 34.5749 39.7384 31.9558 39.76 29.3396C39.7849 26.3423 39.8369 23.2863 39.9287 20.2903C39.9391 19.9524 39.974 19.4379 39.935 19.1232C39.9013 18.8539 39.3693 18.4666 39.1836 18.2152C39.967 17.337 41.1012 17.5918 42.1206 17.4987C43.1434 17.4051 44.1134 16.9172 45.1321 16.7722C45.8187 16.6741 46.5522 16.6363 47.2413 16.7215C47.2421 17.1076 45.7551 18.0568 45.4118 18.3806C44.608 19.1382 44.0686 20.6115 43.9971 21.7004C43.9418 22.5491 44.172 23.3079 43.9804 24.1749C43.7589 25.1765 42.8596 25.3864 42.2574 26.105C42.2553 26.2167 43.5474 26.3938 43.7136 26.398C43.9775 26.405 44.1849 26.3468 44.4152 26.2292C44.4239 26.5318 44.1338 26.7475 44.0877 27.0222C43.9326 27.944 44.2527 29.1413 43.9971 30.0873C44.4542 37.9172 43.239 46.4271 44.0922 54.1644C44.2065 55.2017 44.7759 56.3267 44.581 57.4534C44.4563 57.4343 44.4264 57.2967 44.3724 57.2061C42.8803 54.7071 41.885 51.5444 40.4964 48.956L32.5364 30.7136C32.5547 31.1928 32.5102 31.6728 32.4313 32.1453C31.9051 35.2985 32.2035 38.2755 32.2895 41.464C32.4171 43.1447 32.1678 45.2306 32.3673 46.8672C32.4371 47.4407 32.9599 47.942 33.4487 48.1938C31.6873 49.8209 31.0357 52.1025 30.4817 54.363C29.8196 57.0648 29.7174 59.75 29.2831 62.4656C29.2482 62.6834 29.2515 63.0815 29.0466 63.1833C28.2092 59.0169 28.3405 54.7524 28.2117 50.5158L29.2955 47.4062C28.54 46.8842 27.3239 48.9785 26.9274 48.9814C26.8094 48.9032 26.8102 48.8209 26.7974 48.6946C26.7018 47.7807 28.087 46.1777 28.2158 45.2044C28.1863 41.7757 28.4972 38.3199 28.2993 34.9057C28.2333 33.762 28.3343 32.755 27.469 31.8336C27.8567 31.4762 28.3725 31.3395 28.8795 31.253C28.2657 30.5943 27.198 29.916 26.6748 29.222C26.6045 29.1289 26.5202 29.0732 26.5542 28.9302C26.6631 28.5637 27.9631 28.9984 28.2154 29.1355V20.8725Z" fill="black"/>
<path d="M151.086 22.4922L151.064 23.1754C149.769 30.3521 147.954 37.4676 146.71 44.6496C146.253 47.2874 145.933 49.9515 146.018 52.6371C144.918 51.7552 144.64 50.19 144.123 48.9274C143.895 48.3718 143.537 47.8888 143.337 47.3045C142.853 45.8877 142.545 44.0146 142.223 42.5217C141.675 39.9799 141.223 37.4131 140.701 34.8663L140.348 35.7158C138.907 40.7055 138.592 46.1986 135.981 50.7831C135.868 50.9809 135.706 51.2847 135.576 51.453C135.522 51.5224 135.577 51.6043 135.386 51.5578C134.906 48.7429 134.718 45.8806 134.294 43.0579C133.992 41.0463 133.608 38.4513 133.118 36.51C132.948 35.8384 132.526 34.7462 132.098 34.2076C131.773 33.7982 131.318 33.7035 130.983 33.3286C130.917 33.1657 131.314 33.1545 131.38 33.1462C131.612 33.1183 132.27 33.1715 132.358 33.0443C132.575 32.0677 132.125 31.2261 131.937 30.2993C131.375 27.5301 131.215 24.662 129.154 22.4934L135.801 22.6597C135.488 23.1517 134.707 23.4306 134.494 23.968C134.331 24.3745 134.376 24.9147 134.389 25.3569C134.48 28.3788 135.453 31.3445 136.093 34.2841C136.302 35.2445 136.538 36.2158 136.633 37.1916L136.81 36.9132L139.536 24.8478C139.573 24.1596 138.284 23.1143 137.961 22.493H143.361C143.296 22.9302 142.829 23.0354 142.596 23.4306C142.498 23.596 142.115 24.618 142.119 24.7668L144.814 37.0266L147.267 24.8553C147.292 24.1779 146.426 23.2349 146.021 22.7008C146.02 22.646 146.423 22.493 146.476 22.493H151.087L151.086 22.4922Z" fill="black"/>
<path d="M92.2681 38.1875C92.4281 38.2158 92.4065 38.3604 92.438 38.4747C92.591 39.0287 92.5931 39.7655 92.7099 40.3619C93.3495 43.6282 94.7006 46.6159 96.639 49.3061C96.8659 49.6207 97.8916 51.0163 98.121 51.1464C98.3641 51.2844 98.7062 51.2337 98.98 51.2067C100.456 48.8934 102.996 46.3699 102.644 43.3863C102.559 42.6685 101.507 40.1807 100.905 39.81C100.624 39.6371 100.386 39.746 100.154 39.564C99.83 39.3105 99.8329 38.6492 99.4563 38.3508C99.1405 38.1006 98.685 38.111 98.3566 37.9556C98.0599 37.8151 97.7037 37.4207 97.3737 37.2728C97.1734 36.9557 98.1734 36.0164 98.1663 35.6128C96.927 35.6453 95.7126 34.2094 94.9288 33.3266C89.752 27.4961 94.536 23.956 97.6194 18.9135C98.0661 18.1833 98.3936 17.4111 98.813 16.7013C98.8425 16.6514 98.8151 16.5384 98.9547 16.5961C99.0229 16.6244 99.4077 17.04 99.4933 17.1377C101.047 18.9035 102.075 21.6054 104.205 22.8917C105.269 23.5346 105.812 23.1747 105.726 24.7743L104.729 32.7053C104.538 32.7531 104.592 32.6695 104.539 32.601C103.694 31.5163 103.61 29.713 103.131 28.4491C102.68 27.2588 100.827 24.3164 99.7726 23.668C98.7955 23.0666 98.2349 23.6842 97.737 24.5125C97.3131 25.2174 96.577 27.2235 96.5874 28.0156C96.5986 28.8522 98.0291 29.774 96.8372 30.6294C97.1668 30.7175 97.5192 30.7823 97.8326 30.9224C98.564 31.2494 100.631 33.5614 101.283 34.2829C102.887 36.058 105.786 39.2926 106.269 41.5892C107.613 47.9724 101.905 50.4976 100.242 55.9587C99.9866 55.9375 99.9725 55.2193 99.7876 55.2949C99.6832 55.3377 99.2884 55.9246 99.2298 56.0663C98.8013 57.1066 99.8807 56.787 99.8262 57.4843C99.7892 57.9581 99.2053 59.2128 99.0212 59.761C98.7847 60.4655 98.7598 61.3731 98.2079 61.8544C97.4785 59.6226 97.269 57.0135 96.1627 54.9309C95.5222 53.7252 92.2681 49.7753 92.2681 48.7754V38.1875Z" fill="black"/>
<path d="M128.157 22.6582C127.567 23.1025 127.225 23.6108 127.17 24.3717C127.092 25.429 128.01 28.1762 128.283 29.3839C128.803 31.6847 129.169 34.1949 129.983 36.4038C130.061 36.6141 130.229 37.1503 130.355 37.2774C130.694 37.6182 131.421 37.5646 131.812 37.8152C131.873 38.1066 130.391 38.6315 130.406 39.2977C131.04 41.6093 131.319 44.2209 132.019 46.4926C132.242 47.2132 132.652 47.8109 132.932 48.4862C133.074 48.8262 133.233 49.2825 133.265 49.6483C131.579 48.5319 129.808 47.5303 127.908 46.8226C127.842 46.7328 128.318 46.1007 128.367 45.9132C128.494 45.4199 127.86 41.7701 127.719 40.9921C127.699 40.8815 127.656 40.6023 127.58 40.5495L124.119 40.2718C123.552 40.3878 122.949 40.2486 122.669 40.8811C122.399 41.4908 121.723 44.9657 121.754 45.6211C121.784 46.2765 122.284 46.2449 122.674 46.6567L117.856 49.2318L119.768 40.3068C119.105 39.9439 117.664 40.6496 117.777 39.4847C117.901 38.2009 119.691 38.3472 120.088 37.72C120.986 34.9642 121.691 32.1377 122.301 29.3029C122.583 27.995 123.067 26.2299 123.171 24.9407C123.265 23.7753 122.942 23.4437 122.175 22.6582H128.157ZM126.911 37.6058L125.167 30.7138C124.849 32.9996 124.29 35.2468 123.588 37.4395L126.911 37.6058Z" fill="black"/>
<path d="M114.657 22.6582C116.558 22.9778 118.801 25.2981 119.497 27.0378C121.053 30.922 120.147 35.2098 116.519 37.4744C115.172 38.3156 113.48 39.0915 111.873 39.1003C111.859 39.5271 111.895 39.9597 111.873 40.387C111.802 41.7876 111.359 44.6968 112.038 45.8708C112.237 46.2141 112.59 46.5258 112.918 46.7395C113.077 46.993 112.039 47.4185 111.88 47.5349C111.049 48.1413 110.124 49.1425 109.468 49.9404C108.929 50.5942 108.487 51.3373 107.927 51.9723C107.834 51.9923 107.759 51.915 107.734 51.8347C107.574 51.3364 108.41 48.9812 108.471 48.197L108.473 36.1482C108.414 35.7065 107.222 34.8191 107.016 34.3657C106.943 34.2057 106.973 34.0362 106.973 33.8695L108.468 34.2843V24.8588C107.954 24.1668 107.338 23.4861 107.056 22.6582H114.657ZM111.874 25.897V36.0697C112.244 36.3107 113.093 36.1869 113.52 36.0547C115.345 35.4903 116.657 31.4864 116.525 29.7596C116.4 28.1342 115.193 25.8966 113.328 25.8966H111.874V25.897Z" fill="black"/>
<path d="M93.3477 22.4922C92.243 24.0283 91.9866 25.834 91.6021 27.6411C91.4101 27.6889 91.4654 27.6024 91.413 27.5359C91.2451 27.3236 91.1354 27.0688 90.9401 26.8502C90.2618 26.0896 89.5025 25.8926 88.5287 25.731V52.305C88.35 52.3262 88.2249 52.0594 88.1165 51.9276C86.7703 50.2893 85.6844 48.4358 84.0456 47.026L85.0456 46.204L84.9961 34.5351L84.3719 33.8277C84.3719 33.5335 85.0393 33.3353 85.0393 33.2463V25.731C84.3266 25.9641 83.3749 25.8407 82.7082 26.1827C82.0861 26.5015 81.8504 27.2521 81.3018 27.6411L81.1348 22.4922H93.3472H93.3477Z" fill="black"/>
<path d="M51.6433 22.6582C51.4588 23.1615 50.8504 23.3581 50.5628 23.7787C50.1326 24.4066 50.2486 26.5262 50.2345 27.3537C50.1742 30.9038 50.2827 34.5041 50.3176 38.0596C50.3442 40.7785 50.1626 43.6831 50.3109 46.3708C50.328 46.6788 50.3782 47.3745 50.4614 47.6322C50.4971 47.7431 50.6035 47.9023 50.6845 47.9904C50.7465 48.1375 51.2951 48.2913 51.2277 48.4422C51.1816 48.5457 50.062 48.9484 49.7765 49.1512C48.6215 49.9699 47.7321 51.2832 46.785 52.306C46.6648 52.4357 46.1761 52.9627 46.0788 53.0126C45.9508 53.0778 45.8781 53.0354 45.8399 52.9145C45.6986 52.4681 46.829 49.3956 46.9071 48.5253L46.8656 34.1201C46.7492 34.0041 45.704 32.9892 45.8291 32.8733L46.9088 32.7898V24.6099L45.4966 22.6582H51.6442H51.6433Z" fill="black"/>
</g>
<defs>
<clipPath id="clip0_3176_141">
<rect width="145.717" height="48" fill="white" transform="translate(25.1416 16)"/>
</clipPath>
</defs>
</svg>
