<svg width="140" height="66" viewBox="0 0 140 66" fill="none" xmlns="http://www.w3.org/2000/svg">
<g clip-path="url(#clip0_3570_1481)">
<path d="M0.426758 54.6977L11.5026 54.642L10.5015 58.2578L18.8003 57.8355L19.9626 53.6409L5.82548 50.1353L9.55377 38.4737L9.51201 38.2463L7.2175 33.8916L30.0954 38.9249L28.1929 46.1228L22.3372 45.6762L22.249 45.595L22.9682 43.0151L16.4327 42.2982L15.2901 46.0718L27.2313 49.7432L23.8545 62.6473L1.09493 64.8223L3.18876 58.2276L0.426758 54.7534V54.6977Z" fill="black"/>
<path d="M68.9973 0.900391H69.053C70.6759 2.16597 72.2709 3.48259 73.5898 5.07181C74.1188 5.70866 74.6803 6.44643 75.0178 7.20508C76.5084 10.5541 74.6478 11.7129 72.1097 13.33C68.3744 15.708 64.3097 17.6835 60.3993 19.76C60.3413 19.7228 60.3262 19.6857 60.3146 19.6196C60.2578 19.2983 60.2206 18.7844 60.2032 18.4515C59.919 12.8694 62.9003 7.58325 67.8269 4.98829C68.6331 4.56373 69.4903 4.27372 70.3313 3.9292L68.9973 0.900391Z" fill="black"/>
<path d="M134.787 36.2275L131.38 39.8596L127.261 55.1579L127.108 55.3945L124.768 57.2552L137.791 57.5347L136.475 61.9034L139.573 64.8776L118.144 62.8198L124.612 37.7414L134.787 36.2275Z" fill="black"/>
<path d="M33.2168 54.9268L31.5429 61.9043L25.8623 62.4287L31.9002 39.2852L44.9562 41.0913C45.0908 41.1829 44.9562 41.5542 44.9504 41.7038C44.8286 45.6374 44.0363 49.6302 42.1791 53.1207C42.0132 53.4339 41.468 54.4466 41.2534 54.6438C41.1838 54.7076 41.1409 54.7633 41.0307 54.7551C39.4357 54.7389 37.8302 54.8363 36.2433 54.8653C35.8489 54.8723 33.3328 54.8097 33.2157 54.9268H33.2168ZM34.2678 50.0234L38.5297 50.1394C39.4542 48.6941 39.7918 46.9332 39.866 45.236L35.4371 44.7952L34.2678 50.0234Z" fill="black"/>
<path d="M75.6211 37.0061L75.5109 31.9438C69.603 32.373 63.847 28.944 61.4805 23.5452L52.1343 25.1577C55.8556 23.5418 59.5665 21.8841 63.3226 20.3471C65.8956 19.2949 68.733 18.0618 71.3488 17.1872C73.67 16.4111 76.4366 16.4251 77.4853 19.0386C78.5339 21.6521 77.7231 27.4939 77.2823 30.3499C76.9273 32.6479 76.316 34.7986 75.6211 37.0072V37.0061Z" fill="black"/>
<path d="M113.469 39.2871L109.35 56.3649L117.977 56.7558L116.482 62.564L103.281 61.3472L108.181 40.1061L113.469 39.2871Z" fill="black"/>
<path d="M102.393 40.8447L101.892 61.2622L98.0189 60.8759L98.2185 57.1453L94.4879 57.0049L93.1156 60.4293L89.813 60.0929L96.7986 41.6788L102.392 40.8447H102.393ZM98.4412 52.8613L98.8031 45.2946L96.7093 51.0459L94.4345 52.8613H98.4424H98.4412Z" fill="black"/>
<path d="M53.3512 42.2967L53.0543 59.8745L49.5719 60.2051L49.739 56.4211L46.7148 56.4744L44.9492 60.618L40.8335 61.0368L48.1892 41.6309L53.3501 42.2956L53.3512 42.2967ZM51.0765 52.6383L50.022 51.1059C49.993 49.3856 50.1972 47.5933 50.131 45.8788C50.1287 45.8116 50.1728 45.6724 50.0765 45.6851L47.7936 52.6939L51.0776 52.6383H51.0765Z" fill="black"/>
<path d="M92.2073 42.2355C92.198 42.5035 92.22 42.7738 92.2073 43.0417C92.1643 43.9152 92.0449 45.0022 91.9219 45.8722C91.6423 47.8349 90.922 49.9253 89.429 51.2837C89.4 51.453 90.1158 52.0052 90.2074 52.163C90.3373 52.3892 90.1297 53.3369 90.0751 53.6501C89.6935 55.8425 89.0091 58.0002 87.8955 59.927L80.5259 59.3087L79.7046 56.1801L81.5316 47.0577C82.3297 46.0183 83.1719 44.4523 84.0825 43.5429C84.1417 43.4849 84.1869 43.4222 84.2727 43.399L92.2084 42.2344L92.2073 42.2355ZM88.3664 46.4081L84.6961 46.8002L84.1057 50.0796C84.1834 50.1979 84.4189 50.0796 84.5511 50.0761C85.2854 50.0622 86.0499 50.0865 86.7795 50.0216C87.3271 49.9729 87.3943 49.851 87.653 49.3917C88.1542 48.5031 88.305 47.4127 88.3664 46.4058V46.4081ZM86.5313 53.5283L83.4665 53.497L82.8575 56.5327L85.9211 56.6754C86.2947 55.6743 86.5789 54.6083 86.5313 53.5283Z" fill="black"/>
<path d="M62.4305 54.3629L63.6555 58.9241L60.2624 59.2582L59.2323 54.5288L58.2359 54.4708L57.2835 59.5378L54.1387 59.8707L56.8902 42.75L65.1275 44.0179C66.2713 47.4342 65.7736 51.4583 63.6276 54.3629H62.4305ZM61.9792 47.0803L59.2578 46.7973L58.5897 50.9687L61.5976 50.9989C62.1451 49.7832 62.2368 48.3796 61.9792 47.0803Z" fill="black"/>
<path d="M81.0757 65.1007C79.2881 62.9814 77.5898 60.753 75.9658 58.4979C74.9485 57.085 73.8267 55.563 72.9266 54.0805C72.3651 53.1548 72.1969 52.6224 72.8952 51.6665L79.1837 45.0173L71.8883 50.6597C70.2655 51.6584 68.892 49.575 67.8387 48.6482L68.7203 44.0452L66.7158 42.2356L73.1168 43.2367L72.1981 48.3547L88.9789 35.1143L76.301 50.6712L81.0757 65.0995V65.1007Z" fill="black"/>
<path d="M91.372 14.865L88.7248 15.8626C89.6261 22.6127 85.3956 29.2005 78.9609 31.2757C79.8936 27.878 80.3622 24.3736 81.0374 20.9179C81.2334 19.9122 81.4155 18.8589 81.6591 17.8683C82.1974 15.6793 82.8458 14.9729 85.1264 14.6028C87.2017 14.2664 89.3199 14.4845 91.372 14.865Z" fill="black"/>
<path d="M87.9778 12.8058C85.2912 12.2397 82.4237 11.6899 80.2962 9.83038C78.9657 8.66804 78.098 7.10666 76.9032 5.82252C76.0645 4.92119 75.0982 4.15673 74.1748 3.34936C80.2521 3.1452 85.9884 7.09274 87.9778 12.8058Z" fill="black"/>
<path d="M63.0422 60.7603L65.5176 59.4797C65.8135 58.5749 65.8459 57.5784 66.1858 56.698L69.7587 54.2608C69.9269 54.074 71.0973 54.0044 71.1124 54.1726L69.8596 60.7603H63.041H63.0422Z" fill="black"/>
<path d="M66.2717 56.1437L67.7449 49.2451C68.5291 50.5583 70.0278 51.8227 68.8295 53.3887C68.2518 54.1427 67.354 55.0382 66.6881 55.7551C66.5605 55.892 66.4213 56.0335 66.2705 56.1437H66.2717Z" fill="black"/>
</g>
<defs>
<clipPath id="clip0_3570_1481">
<rect width="139.146" height="64.2" fill="white" transform="translate(0.426758 0.900391)"/>
</clipPath>
</defs>
</svg>
