<svg width="68" height="64" viewBox="0 0 68 64" fill="none" xmlns="http://www.w3.org/2000/svg">
<g clip-path="url(#clip0_3577_1941)">
<path fill-rule="evenodd" clip-rule="evenodd" d="M10.8862 17.9336L10.5 19.2902L12.4003 20.6272L10.8862 17.9336Z" fill="black"/>
<path fill-rule="evenodd" clip-rule="evenodd" d="M48.7987 7.03643H57.1598C60.7776 7.03643 63.5577 6.6684 60.317 12.2815C58.8511 14.8639 57.419 17.3919 56.03 19.8498L56.0405 19.8546L55.6094 20.6212C58.0916 18.8751 60.6564 17.0707 63.3042 15.2076L66.4303 9.84895C68.418 5.7877 65.8413 3.54847 61.9075 3.55468C56.608 3.55468 51.3811 3.55611 46.0945 3.55611C47.138 4.59243 48.0483 5.76192 48.7991 7.03691M6.09349 3.55372C2.15922 3.54752 -0.417013 5.78674 1.57065 9.84799L4.69535 15.2062C7.35225 17.0755 9.92609 18.8865 12.4164 20.6384C10.8879 17.9337 9.3065 15.1408 7.68305 12.281C5.00515 7.64266 6.43861 7.08894 9.05923 7.03595H19.2014C19.9522 5.76097 20.863 4.59147 21.9065 3.55516H6.70306L6.09349 3.55372Z" fill="black"/>
<path d="M29.4008 11.5222C29.0247 11.5389 28.7177 11.6477 28.4796 11.8477C28.2414 12.0482 28.1225 12.3074 28.1225 12.6248C28.1225 12.9423 28.2437 13.222 28.4858 13.4392C28.7282 13.6564 29.0328 13.7652 29.4008 13.7652C29.7689 13.7652 30.0734 13.6564 30.3154 13.4392C30.5073 13.2721 30.6247 13.0735 30.6663 12.8439C30.7083 12.6143 30.6849 12.401 30.5975 12.2048C30.5097 12.0086 30.3574 11.8434 30.1402 11.7098C29.923 11.5761 29.6767 11.5136 29.4008 11.5217M30.2467 9.85528C30.4682 9.6548 30.5789 9.40419 30.5789 9.10346C30.5789 8.80274 30.4682 8.55213 30.2467 8.35165C30.0252 8.15116 29.7436 8.05092 29.4008 8.05092C29.0581 8.05092 28.7784 8.15116 28.5612 8.35165C28.344 8.55213 28.2352 8.80274 28.2352 9.10346C28.2352 9.40419 28.344 9.6548 28.5612 9.85528C28.7784 10.0558 29.0581 10.156 29.4008 10.156C29.7436 10.156 30.0252 10.0558 30.2467 9.85528ZM31.494 10.7078C32.4048 11.1589 32.8601 11.8439 32.8601 12.7628C32.8601 13.5733 32.5508 14.2187 31.9327 14.6989C31.3145 15.1791 30.4706 15.4197 29.4013 15.4197C28.3321 15.4197 27.5005 15.1815 26.8824 14.7056C26.2723 14.2211 25.9673 13.5738 25.9673 12.7633C25.9673 11.8444 26.4184 11.1594 27.3206 10.7083C26.6523 10.3073 26.3181 9.7307 26.3181 8.97888C26.3181 8.22706 26.6065 7.66284 27.1826 7.21175C27.7506 6.75206 28.4901 6.52246 29.4008 6.52246C30.3116 6.52246 31.0634 6.75206 31.6315 7.21175C32.2081 7.66284 32.4964 8.25188 32.4964 8.97888C32.4964 9.70587 32.1623 10.2906 31.494 10.7083V10.7078Z" fill="black"/>
<path fill-rule="evenodd" clip-rule="evenodd" d="M33.9999 0C25.3098 0 18.2651 7.04465 18.2651 15.7347C18.2651 24.4248 25.3098 31.4694 33.9999 31.4694C42.6899 31.4694 49.7346 24.4248 49.7346 15.7347C49.7346 7.04465 42.6899 0 33.9999 0ZM21.6123 23.6405C19.596 20.375 19.1883 16.3653 20.5063 12.7613C19.9053 21.0753 23.3508 26.6554 30.8436 29.5023C27.0311 29.0665 23.6286 26.906 21.6123 23.6405ZM29.4259 18.2962C25.3838 18.2962 22.1073 15.0197 22.1073 10.9775C22.1073 6.93534 25.3838 3.65885 29.4259 3.65885C33.4681 3.65885 36.7446 6.93534 36.7446 10.9775C36.7446 15.0197 33.4681 18.2962 29.4259 18.2962ZM32.6275 1.69219C36.3937 0.869722 40.329 1.82298 43.3019 4.27796C46.2743 6.73295 47.9546 10.4171 47.8591 14.2707C46.5965 6.88474 40.1189 1.53562 32.6275 1.69219Z" fill="black"/>
<path fill-rule="evenodd" clip-rule="evenodd" d="M3.71957 63.4861C2.87181 64.2356 1.57677 64.1563 0.826383 63.3091C0.0759966 62.4618 0.154281 61.1667 1.00109 60.4159C1.00109 60.4159 5.72442 57.0998 15.0322 50.5587C15.267 50.4957 15.5028 50.4332 15.7382 50.3721L1.3906 60.4598C1.26554 60.5481 1.23499 60.7223 1.32282 60.8479C1.41113 60.9734 1.58584 61.0035 1.7109 60.9156L17.2299 50.0045C19.2633 49.5572 21.3083 49.1563 23.3661 48.8369L3.71957 63.4866V63.4861Z" fill="black"/>
<path fill-rule="evenodd" clip-rule="evenodd" d="M42.2305 31.4375C49.308 26.4602 57.2792 20.8528 66.1364 14.6206C66.4018 14.3881 66.7755 14.3246 67.1025 14.4564C67.43 14.5881 67.6553 14.8927 67.6849 15.2445C67.7149 15.5958 67.545 15.9343 67.2448 16.1199C67.2448 16.1199 60.2517 21.3335 46.7013 31.4375H43.6377L66.0347 15.6903C66.1602 15.602 66.1908 15.4278 66.1025 15.3023C66.0142 15.1767 65.8399 15.1466 65.7144 15.2345L42.6691 31.4375H42.23H42.2305Z" fill="black"/>
<path fill-rule="evenodd" clip-rule="evenodd" d="M25.7694 31.437C18.6918 26.4597 10.7206 20.8523 1.86345 14.6196C1.59805 14.3872 1.22476 14.3237 0.897306 14.4554C0.569847 14.5872 0.34454 14.8917 0.314945 15.2435C0.284872 15.5948 0.454807 15.9333 0.755057 16.119C0.755057 16.119 7.74816 21.3325 21.2985 31.4365H24.3621L1.96513 15.6903C1.83958 15.602 1.80903 15.4278 1.89734 15.3022C1.98565 15.1767 2.15988 15.1466 2.28542 15.2344L25.3307 31.4374H25.7694V31.437Z" fill="black"/>
<path fill-rule="evenodd" clip-rule="evenodd" d="M64.2804 63.4865C65.1281 64.2359 66.4232 64.1567 67.1735 63.3094C67.9239 62.4621 67.8457 61.1671 66.9988 60.4162C66.9988 60.4162 62.1695 57.0257 52.6527 50.3376L52.2097 50.224L52.1291 50.1347L51.836 50.0731L66.6098 60.4601C66.7353 60.5485 66.7659 60.7227 66.6776 60.8482C66.5893 60.9738 66.415 61.0038 66.2895 60.916L50.456 49.7834C49.36 49.5566 48.2616 49.3409 47.1633 49.1246L46.6468 49.023L46.6014 49.0168C45.8959 48.9194 45.1909 48.822 44.4854 48.7256L64.2813 63.4865H64.2804Z" fill="black"/>
<path d="M10.6995 36.9958C10.7639 37.6398 10.7687 38.2913 10.7701 38.9405C10.7663 39.2351 10.7644 39.3821 10.7606 39.6761C10.741 40.6079 10.7496 41.5745 10.5391 42.4891C10.2565 43.8577 9.41446 45.1742 8.08505 45.6238C7.93278 45.6754 7.64733 45.7303 7.24445 45.7565C7.08119 45.7561 6.88166 45.7618 6.64586 45.7732C6.63726 47.4406 6.62915 49.108 6.62056 50.7753C5.96278 51.0245 5.30834 51.2828 4.65771 51.5505C4.65771 45.631 4.65771 39.7114 4.65771 33.7919C5.58329 33.7394 6.50934 33.6897 7.43538 33.643C7.73516 33.6396 7.88504 33.6377 8.18482 33.6344C9.42878 33.6067 10.194 34.5828 10.4875 35.697C10.5859 36.1032 10.6546 36.5381 10.7004 36.9958H10.6995ZM8.92518 38.8484C8.93568 38.2909 8.96002 37.6312 8.74522 37.1376C8.63591 36.886 8.4106 36.7285 8.13756 36.6817C7.83206 36.6292 7.3466 36.6793 6.69025 36.8564C6.68022 38.7935 6.67068 40.731 6.66065 42.6681C7.36283 42.6968 7.86261 42.6419 8.15236 42.5268C8.37623 42.438 8.54569 42.27 8.64641 42.0184C8.87458 41.4824 8.88222 40.8805 8.91086 40.3105C8.91658 39.7258 8.91945 39.4332 8.92518 38.8484Z" fill="black"/>
<path d="M16.6642 41.8161C16.6527 42.4333 16.6412 43.0501 16.6298 43.6673C16.6202 45.0869 16.3701 46.6831 15.3558 47.7509C14.9939 48.1199 14.4125 48.4302 13.9266 48.5596C12.7394 48.8765 11.8998 48.1829 11.642 47.0254C11.4535 46.3175 11.4119 45.5733 11.4258 44.8434C11.4372 44.0372 11.4487 43.231 11.4601 42.4252C11.4859 40.9521 11.6792 39.0938 12.99 38.1649C13.3705 37.9281 13.7228 37.7993 14.0469 37.773C14.1175 37.7673 14.1529 37.7644 14.223 37.7587C15.592 37.6303 16.3205 38.8026 16.5539 39.9979C16.6632 40.5984 16.6613 41.2075 16.6642 41.8152V41.8161ZM14.8693 41.9603C14.8841 41.1321 14.7605 40.6691 14.4999 40.5688C14.423 40.5025 14.308 40.4786 14.1548 40.4982C14.097 40.5053 14.0684 40.5091 14.0106 40.5168C13.6908 40.5578 13.4607 40.8237 13.3218 41.3168C13.2831 41.5235 13.2616 41.7536 13.2574 42.0071C13.243 42.8978 13.2282 43.788 13.2139 44.6788C13.1752 45.1251 13.2836 46.0674 13.9724 45.8864C13.9915 45.8821 14.0011 45.8802 14.0201 45.8759C14.435 45.7838 14.6985 45.4024 14.8097 44.7317C14.8135 44.6329 14.8154 44.5833 14.8192 44.484C14.8192 44.4716 14.8192 44.4587 14.8197 44.4463C14.8364 43.6176 14.8526 42.7894 14.8693 41.9608V41.9603Z" fill="black"/>
<path d="M22.5032 41.1589C22.4931 41.7293 22.4836 42.3002 22.4736 42.8706C22.4125 44.1805 22.2559 45.6612 21.1928 46.5763C20.8119 46.9047 20.2215 47.1505 19.7412 47.2379C18.5975 47.4455 17.7035 46.866 17.4204 45.7252C17.2233 45.0793 17.2185 44.4053 17.2065 43.7375C17.2204 43.0072 17.2342 42.2768 17.2476 41.5465C17.2767 40.1665 17.5264 38.5063 18.7985 37.7115C19.1813 37.5024 19.5355 37.3907 19.8615 37.3721C19.9327 37.3683 19.968 37.3659 20.0386 37.3621C21.3547 37.2714 22.1313 38.2877 22.3867 39.4739C22.495 40.0147 22.5218 40.6095 22.5032 41.1584V41.1589ZM20.6921 41.2295C20.706 40.4696 20.5814 40.0405 20.3179 39.9417C20.2401 39.8786 20.1241 39.8538 19.9699 39.8677C19.9117 39.8729 19.8825 39.8753 19.8248 39.8806C19.5021 39.9097 19.2706 40.1464 19.1298 40.5923C19.0901 40.7799 19.0687 40.989 19.0644 41.2205C19.0491 42.0324 19.0338 42.8444 19.0185 43.6564C18.9761 44.1294 19.1302 44.9251 19.7866 44.7929C19.8062 44.79 19.8157 44.7886 19.8353 44.7853C20.2558 44.7204 20.5227 44.3829 20.6344 43.7719C20.6382 43.6812 20.6401 43.6358 20.6439 43.5451C20.6439 43.5337 20.6439 43.5222 20.6444 43.5103C20.6601 42.7504 20.6759 41.9899 20.6916 41.23L20.6921 41.2295Z" fill="black"/>
<path d="M25.1335 42.7665C25.1245 43.3751 25.2495 43.7364 25.5087 43.8505C25.6419 43.8935 25.8319 43.9126 26.0787 43.9083C26.1221 43.9102 26.1656 43.9092 26.209 43.9054C26.3112 43.8968 26.3627 43.893 26.4649 43.8844C26.4548 44.6587 26.4448 45.4324 26.4348 46.2067C26.3217 46.2286 26.1708 46.2477 25.9866 46.2678C24.7121 46.4081 23.7917 45.6692 23.4757 44.4491C23.3774 44.0457 23.3225 43.6539 23.3053 43.281C23.3005 43.1756 23.2986 43.0261 23.302 42.8347C23.3531 39.7506 23.4041 36.667 23.4552 33.5828C24.0614 33.4148 24.6677 33.2492 25.2748 33.085C25.2276 36.3118 25.1803 39.5391 25.1335 42.766V42.7665Z" fill="black"/>
<path d="M32.2595 45.8288C30.5754 45.8737 28.8971 45.9648 27.2178 46.1028C27.2669 41.9241 27.3161 37.7459 27.3653 33.5673C28.0608 33.5649 28.7563 33.563 29.4513 33.5615C29.4231 36.8867 29.3954 40.2114 29.3677 43.5366C30.2771 43.4932 31.1874 43.4607 32.0977 43.4435C32.1511 44.2388 32.2051 45.034 32.2595 45.8293V45.8288Z" fill="black"/>
<path d="M38.4137 40.7548C38.4185 41.3802 38.4214 41.6928 38.4261 42.3177C37.3149 42.2718 36.2031 42.2427 35.0909 42.2322C35.0909 42.3377 35.0909 42.3902 35.0914 42.4957C35.0928 43.0862 35.217 43.4466 35.4652 43.5783C35.6585 43.6614 35.8771 43.7053 36.1215 43.7106C36.1807 43.712 36.2098 43.7125 36.269 43.7139C36.9774 43.6962 37.5894 43.6189 38.2825 43.4704C38.2868 43.4704 38.2891 43.4704 38.2934 43.4704C38.2992 44.206 38.3049 44.9411 38.3106 45.6767C38.3106 45.7035 37.9975 45.7736 37.3698 45.8963C36.9755 45.9436 36.5196 45.956 36.0098 45.9455C34.7592 45.9197 33.8031 45.1913 33.4594 43.9826C33.3123 43.4809 33.2388 42.9024 33.2484 42.3802C33.2493 41.6833 33.2503 40.9863 33.2512 40.2894C33.2431 39.1677 33.5085 37.843 34.5625 37.2325C34.9477 37.0473 35.3621 36.9585 35.7984 36.959C36.9645 36.9599 37.8538 37.6516 38.1865 38.7662C38.3722 39.4073 38.4123 40.0894 38.4137 40.7534V40.7548ZM36.5755 40.2971C36.5726 39.6889 36.4514 39.3309 36.3048 39.2125C36.1726 39.1056 36.0079 39.0087 35.8165 39.0063C35.3287 39.0011 35.0857 39.3381 35.0871 40.0135C35.0871 40.1763 35.0876 40.2579 35.0881 40.4207C35.6838 40.4255 35.9812 40.4298 36.5769 40.4412C36.5769 40.3835 36.5769 40.3548 36.576 40.2971H36.5755Z" fill="black"/>
<path d="M44.8701 46.3371C44.8672 46.3762 44.8639 46.4149 44.861 46.454C44.8639 46.6297 44.8653 46.7175 44.8682 46.8937C44.8424 47.3113 44.7823 47.7099 44.6868 48.088C44.367 49.3143 43.3994 49.9444 42.1531 49.7716C41.6485 49.7019 41.1969 49.6198 40.8117 49.5129C40.1792 49.2918 39.8632 49.1768 39.8628 49.1496C39.8551 48.4193 39.848 47.6894 39.8403 46.9591C39.8446 46.9529 39.847 46.95 39.8513 46.9438C40.5329 47.17 41.1559 47.3257 41.8652 47.4359C41.9244 47.4426 41.954 47.4455 42.0127 47.4522C42.2972 47.4841 42.5154 47.4631 42.6667 47.3877C42.9268 47.2646 43.0524 46.9128 43.0438 46.3314C43.0419 46.2087 43.0409 46.1471 43.0395 46.0239C42.9531 46.0693 42.8318 46.1137 42.6767 46.1571C42.3946 46.2254 42.0705 46.2373 41.7125 46.2044C40.8232 46.1232 40.0236 45.6831 39.731 44.8024C39.4341 44.0158 39.4981 43.0611 39.4818 42.2367C39.4785 41.8868 39.4766 41.7121 39.4732 41.3622C39.4751 40.4767 39.4494 39.5621 39.6689 38.6967C39.7153 38.5521 39.7382 38.48 39.784 38.3354C39.8437 38.1802 39.9086 38.0418 39.9792 37.9191C40.1702 37.5893 40.4122 37.3597 40.7053 37.2317C41.1487 37.0594 41.6055 37.0489 42.0686 37.1916C42.4361 37.3048 42.8003 37.5115 43.1497 37.8203C43.1474 37.6652 43.1598 37.5353 43.187 37.4308C43.1989 37.3549 43.2046 37.3167 43.2166 37.2403C43.818 37.2632 44.1183 37.2756 44.7193 37.3019C44.7694 40.3135 44.8195 43.325 44.8696 46.3366L44.8701 46.3371ZM42.9493 39.8867C42.902 39.8562 42.8509 39.8256 42.7965 39.7946C42.5769 39.7053 42.4671 39.6614 42.2476 39.5741C41.7411 39.4428 41.4428 39.6509 41.3468 40.1841C41.3139 40.3674 41.2972 40.5393 41.2991 40.6977C41.3081 41.408 41.3167 42.1183 41.3258 42.8281C41.333 43.4019 41.5148 43.7508 41.8719 43.8792C41.9306 43.8974 41.9602 43.9064 42.0194 43.9246C42.0628 43.9284 42.0848 43.9303 42.1282 43.9341C42.4146 43.9589 42.7068 43.8511 43.0037 43.6076C42.9855 42.3675 42.9669 41.1273 42.9488 39.8872L42.9493 39.8867Z" fill="black"/>
<path d="M50.9765 41.805C50.9874 42.3974 50.9989 42.9898 51.0099 43.5817C49.9158 43.4056 48.8189 43.2456 47.7195 43.1048C47.7215 43.2203 47.7229 43.2781 47.7248 43.3931C47.7367 44.0399 47.8666 44.4509 48.1134 44.6285C48.3057 44.7455 48.522 44.8233 48.7625 44.8619C48.8208 44.8715 48.8499 44.8758 48.9081 44.8853C49.6065 44.9598 50.1865 44.955 50.8843 44.8734C50.8886 44.8743 50.891 44.8743 50.8948 44.8753C50.9106 45.7102 50.9263 46.5446 50.9421 47.3795C50.9426 47.41 50.6375 47.4425 50.0242 47.4816C49.6385 47.4725 49.1931 47.4153 48.6905 47.3203C47.3668 47.0692 46.4837 46.0663 46.1381 44.7956C45.9839 44.2433 45.8985 43.6213 45.8966 43.0485C45.8832 42.3015 45.8703 41.5549 45.8574 40.8078C45.8832 39.6565 45.9863 38.2593 47.1014 37.6025C47.4813 37.4216 47.8914 37.3433 48.3262 37.3662C49.5926 37.433 50.4084 38.3567 50.7249 39.5314C50.9192 40.2761 50.9473 41.0403 50.976 41.805H50.9765ZM49.154 41.121C49.1411 40.4432 49.0146 40.0341 48.868 39.8918C48.7325 39.7601 48.5702 39.6431 48.3802 39.6264C47.8962 39.5839 47.6608 39.9343 47.6747 40.6747C47.678 40.8532 47.6794 40.942 47.6828 41.1205C48.2733 41.1816 48.5678 41.2136 49.1568 41.2814C49.1554 41.2169 49.1549 41.185 49.154 41.121Z" fill="black"/>
<path d="M57.206 42.8399C57.2347 45.0132 57.2633 47.1866 57.2919 49.3604C56.7 49.1771 56.1072 48.9986 55.5124 48.8248C55.4766 46.5221 55.4408 44.2199 55.405 41.9172C55.3945 41.246 55.2179 40.8164 54.8751 40.6336C54.7257 40.5878 54.6083 40.5653 54.5233 40.5672C54.3816 40.5873 54.267 40.614 54.1787 40.6474C54.0307 40.7052 53.8937 40.7959 53.7682 40.919C53.8111 43.4055 53.8536 45.8925 53.8966 48.379C53.3004 48.2243 52.7042 48.0744 52.1061 47.9293C52.0435 44.5354 51.981 41.1415 51.9189 37.748C52.5166 37.7929 52.8149 37.8158 53.4116 37.8645C53.4574 38.0321 53.4799 38.1161 53.5257 38.2841C53.5486 38.3815 53.5682 38.4755 53.5839 38.5662C53.5944 38.561 53.6173 38.5438 53.6522 38.5151C53.6942 38.477 53.7152 38.4579 53.7572 38.4197C53.866 38.3337 53.9749 38.2607 54.0842 38.1996C54.2388 38.1041 54.3968 38.0292 54.5553 37.9796C54.7515 37.918 54.9553 37.8922 55.1563 37.8946C55.562 37.9003 55.899 37.991 56.1406 38.182C56.5711 38.5213 56.7965 39.1028 56.9468 39.5787C57.2528 40.5496 57.186 41.7659 57.2074 42.8404L57.206 42.8399Z" fill="black"/>
<path d="M58.2111 43.0324C58.2059 41.9636 58.1854 40.7827 58.3906 39.7626C58.572 38.8609 59.3596 38.2389 60.2842 38.373C60.7072 38.4346 61.1368 38.637 61.5578 38.9707C61.5592 38.8236 61.5602 38.7506 61.5616 38.6036C61.5587 37.5296 61.5554 36.456 61.5525 35.382C61.5535 34.8431 61.5545 34.3046 61.5559 33.7657C62.1535 33.5509 62.7483 33.3323 63.3426 33.1084C63.3426 39.1439 63.3426 45.179 63.3426 51.2146C62.9006 51.1983 62.4967 51.164 62.1459 51.1038C61.7564 51.0375 61.384 50.9301 61.0404 50.8017C60.1052 50.4518 59.2637 49.7496 58.8555 48.8221C58.6493 48.3304 58.5233 47.9428 58.478 47.6517C58.1925 46.5337 58.2426 45.3098 58.224 44.1666C58.2188 43.7131 58.2164 43.4859 58.2111 43.0324ZM60.0102 45.7127C60.0126 45.9862 60.0284 46.2339 60.058 46.4573C60.1191 47.0125 60.406 47.5719 60.9711 47.7462C61.2222 47.8063 61.3478 47.8369 61.5984 47.8984C61.5898 46.0034 61.5812 44.1088 61.5726 42.2138C61.3086 41.8142 61.0341 41.5937 60.7496 41.5436C60.6465 41.534 60.595 41.5297 60.4919 41.5202C60.1487 41.5913 59.9797 42.0028 59.9859 42.7574C59.994 43.7422 60.0016 44.727 60.0098 45.7122L60.0102 45.7127Z" fill="black"/>
<g opacity="0.22">
<path d="M8.34185 42.4336C8.28409 42.4756 8.22108 42.5114 8.15234 42.5386C7.86307 42.6537 7.36282 42.7085 6.66064 42.6799C6.66064 42.5978 6.6616 42.5157 6.66207 42.4336H4.65723C4.65723 45.4767 4.65723 48.5193 4.65723 51.5623C5.30785 51.2945 5.96229 51.0363 6.62007 50.7871C6.62866 49.1198 6.63678 47.4524 6.64537 45.785C6.88118 45.7736 7.08071 45.7678 7.24396 45.7683C7.64684 45.7416 7.93277 45.6867 8.08456 45.6356C9.41397 45.186 10.2565 43.8694 10.5386 42.5009C10.5438 42.4785 10.5481 42.456 10.5529 42.4336H8.34137H8.34185Z" fill="black"/>
<path d="M14.8603 42.4341C14.8469 43.109 14.8336 43.7835 14.8202 44.4585C14.8202 44.4714 14.8202 44.4838 14.8197 44.4962C14.8159 44.595 14.814 44.6447 14.8102 44.7439C14.6989 45.4146 14.4354 45.7965 14.0206 45.8881C14.0015 45.8924 13.992 45.8943 13.9729 45.8986C13.2846 46.0796 13.1757 45.1373 13.2144 44.691C13.2268 43.9387 13.2387 43.1859 13.2512 42.4336H11.4606C11.4606 42.4336 11.4606 42.4365 11.4606 42.4379C11.4492 43.2441 11.4377 44.0504 11.4263 44.8561C11.4124 45.586 11.454 46.3297 11.6425 47.0381C11.8998 48.1956 12.7399 48.8892 13.9271 48.5722C14.413 48.4424 14.9944 48.1321 15.3562 47.7636C16.3706 46.6958 16.6207 45.0996 16.6303 43.6799C16.6379 43.2647 16.6456 42.8494 16.6537 42.4341H14.8608H14.8603Z" fill="black"/>
<path d="M20.6673 42.4341C20.6597 42.7969 20.652 43.1596 20.6449 43.5224C20.6449 43.5339 20.6449 43.5458 20.6444 43.5573C20.6406 43.648 20.6387 43.6933 20.6348 43.784C20.5231 44.395 20.2563 44.7325 19.8358 44.7974C19.8162 44.8003 19.8067 44.8017 19.7871 44.805C19.1307 44.9373 18.9761 44.1415 19.019 43.6685C19.0267 43.257 19.0348 42.8455 19.0424 42.4336H17.2319C17.2237 42.8723 17.2151 43.311 17.207 43.7501C17.219 44.4179 17.2233 45.0919 17.4209 45.7378C17.7039 46.8786 18.5975 47.4581 19.7417 47.2505C20.2219 47.1631 20.8124 46.9173 21.1933 46.5889C22.2564 45.6738 22.413 44.1931 22.4741 42.8833C22.4764 42.7334 22.4793 42.584 22.4817 42.4341H20.6678H20.6673Z" fill="black"/>
<path d="M26.0787 43.92C25.8319 43.9243 25.6424 43.9057 25.5087 43.8623C25.2496 43.7477 25.1245 43.3868 25.1336 42.7782C25.135 42.6632 25.1369 42.5486 25.1383 42.4336H23.3091C23.3068 42.5715 23.3044 42.7095 23.3025 42.847C23.2991 43.0384 23.301 43.1878 23.3058 43.2933C23.323 43.6661 23.3779 44.058 23.4762 44.4614C23.7922 45.6814 24.713 46.4199 25.987 46.28C26.1713 46.26 26.3221 46.2409 26.4353 46.2189C26.4453 45.4447 26.4553 44.6709 26.4654 43.8967C26.3627 43.9048 26.3116 43.9091 26.2095 43.9177C26.1661 43.9215 26.1226 43.9224 26.0792 43.9205L26.0787 43.92Z" fill="black"/>
<path d="M29.3677 43.5477C29.3711 43.1763 29.3739 42.805 29.3773 42.4336H27.2612C27.2469 43.6604 27.2326 44.8871 27.2178 46.1139C28.8966 45.976 30.5754 45.8853 32.2595 45.8399C32.2055 45.0447 32.1516 44.2494 32.0977 43.4542C31.1874 43.4713 30.2771 43.5038 29.3677 43.5472V43.5477Z" fill="black"/>
<path d="M38.2829 43.4828C37.5898 43.6313 36.9778 43.7086 36.2694 43.7262C36.2102 43.7248 36.1811 43.7243 36.1219 43.7229C35.878 43.7172 35.6589 43.6733 35.4656 43.5907C35.2174 43.4589 35.0928 43.0985 35.0918 42.5081C35.0918 42.4799 35.0918 42.456 35.0918 42.4336H33.2488C33.2435 42.9453 33.3166 43.5067 33.4598 43.9959C33.8035 45.2046 34.7596 45.933 36.0102 45.9588C36.52 45.9693 36.9759 45.9569 37.3702 45.9096C37.9979 45.7869 38.3115 45.7172 38.311 45.69C38.3053 44.9545 38.2996 44.2193 38.2939 43.4838C38.2896 43.4838 38.2872 43.4838 38.2829 43.4838V43.4828Z" fill="black"/>
<path d="M44.8053 42.4341H42.9871C42.9929 42.8293 42.9986 43.2246 43.0048 43.6198C42.7079 43.8632 42.4162 43.9711 42.1294 43.9463C42.0859 43.9425 42.064 43.9406 42.0205 43.9368C41.9613 43.9186 41.9322 43.9095 41.873 43.8914C41.516 43.763 41.3341 43.4141 41.3269 42.8403C41.325 42.7047 41.3236 42.5692 41.3217 42.4336H39.4849C39.4911 43.2136 39.4567 44.0862 39.7316 44.8146C40.0243 45.6953 40.8238 46.1354 41.7131 46.2166C42.0711 46.249 42.3952 46.2371 42.6773 46.1693C42.833 46.1259 42.9537 46.0815 43.0401 46.0361C43.042 46.1588 43.043 46.2204 43.0444 46.3435C43.053 46.9249 42.9275 47.2767 42.6673 47.3999C42.5155 47.4753 42.2979 47.4958 42.0134 47.4643C41.9542 47.4576 41.9246 47.4543 41.8659 47.4481C41.1565 47.3378 40.5341 47.1822 39.8519 46.956C39.8476 46.9622 39.8453 46.965 39.841 46.9712C39.8486 47.7016 39.8558 48.4314 39.8634 49.1618C39.8634 49.189 40.1799 49.304 40.8124 49.525C41.1981 49.632 41.6496 49.7141 42.1537 49.7838C43.4 49.9565 44.3676 49.3265 44.6874 48.1002C44.7824 47.7221 44.8431 47.324 44.8688 46.9058C44.866 46.7302 44.8645 46.6423 44.8617 46.4662C44.8645 46.4275 44.8674 46.3884 44.8707 46.3493C44.8493 45.0442 44.8273 43.7391 44.8053 42.4336V42.4341Z" fill="black"/>
<path d="M50.9881 42.4341H45.8862C45.89 42.6427 45.8934 42.8517 45.8972 43.0603C45.8991 43.6332 45.9841 44.2556 46.1387 44.8074C46.4843 46.0781 47.3674 47.081 48.6911 47.3321C49.1933 47.4276 49.6391 47.4849 50.0248 47.4934C50.6382 47.4543 50.9432 47.4218 50.9427 47.3913C50.927 46.5564 50.9112 45.722 50.8955 44.8871C50.8912 44.8862 50.8888 44.8862 50.885 44.8852C50.1871 44.9669 49.6071 44.9716 48.9088 44.8972C48.8505 44.8876 48.8214 44.8828 48.7632 44.8738C48.5226 44.8351 48.3059 44.7573 48.114 44.6404C47.8667 44.4628 47.7374 44.0523 47.7254 43.405C47.7231 43.2895 47.7221 43.2317 47.7202 43.1167C48.8195 43.2575 49.9165 43.4174 51.0105 43.5935C51.0034 43.2069 50.9962 42.8202 50.9886 42.4336L50.9881 42.4341Z" fill="black"/>
<path d="M57.2012 42.4341H55.4121C55.4455 44.5683 55.4785 46.703 55.5119 48.8372C56.1067 49.0109 56.6995 49.1895 57.2914 49.3728C57.2628 47.1994 57.2341 45.0261 57.2055 42.8522C57.2026 42.7148 57.2017 42.5749 57.2007 42.4336L57.2012 42.4341Z" fill="black"/>
<path d="M52.0034 42.4336C52.0373 44.2695 52.0712 46.1053 52.1046 47.9412C52.7027 48.0863 53.2994 48.2362 53.8951 48.3909C53.8608 46.4051 53.8269 44.4193 53.7925 42.4336H52.0029H52.0034Z" fill="black"/>
<path d="M61.5738 42.4336C61.5819 44.259 61.59 46.0848 61.5986 47.9106C61.348 47.8491 61.2225 47.8185 60.9714 47.7584C60.4062 47.5841 60.1188 47.0247 60.0582 46.4695C60.0286 46.2461 60.0129 45.9979 60.0105 45.7249C60.0024 44.7401 59.9947 43.7549 59.9866 42.7701C59.9857 42.6489 59.9895 42.5372 59.9976 42.4336H58.2085C58.2085 42.6398 58.2104 42.8441 58.2114 43.0441C58.2166 43.4976 58.219 43.7248 58.2242 44.1783C58.2433 45.3215 58.1932 46.5454 58.4782 47.6634C58.5231 47.9541 58.6491 48.3417 58.8558 48.8338C59.2639 49.7613 60.1055 50.464 61.0406 50.8134C61.3838 50.9418 61.7566 51.0492 62.1461 51.1155C62.497 51.1757 62.9003 51.2096 63.3428 51.2263C63.3428 48.2954 63.3428 45.3645 63.3428 42.4336H61.5738Z" fill="black"/>
</g>
</g>
<defs>
<clipPath id="clip0_3577_1941">
<rect width="67.3772" height="64" fill="white" transform="translate(0.311523)"/>
</clipPath>
</defs>
</svg>
