<svg width="88" height="76" viewBox="0 0 88 76" fill="none" xmlns="http://www.w3.org/2000/svg">
<path d="M29.3994 45.8118C28.9619 40.1561 29.8203 34.5315 29.7911 28.8849C29.7819 27.3109 29.9119 25.7221 30.1297 24.1609C30.6477 20.4252 32.65 17.9249 36.404 16.986C36.5505 16.9494 36.6914 16.889 36.8342 16.8395C37.0318 16.8176 37.2314 16.7938 37.4309 16.7718C38.5236 16.7499 39.6144 16.7261 40.7072 16.7041C40.9579 16.8377 41.216 16.8707 41.485 16.7682C42.0872 16.7737 42.6894 16.781 43.2916 16.7865C43.9029 16.9073 44.5179 16.8926 45.1329 16.8158C47.2195 16.8707 49.3079 16.6455 51.3926 16.8432C51.4969 16.856 51.6013 16.8688 51.7038 16.8816C51.766 16.9329 51.8264 16.9841 51.8886 17.0372C52.2748 17.2148 52.6555 17.4069 53.0491 17.5662C56.0508 18.7834 57.5114 21.0749 57.7603 24.2396C58.174 29.4944 58.2637 34.764 58.4687 40.028C58.487 40.4837 58.5236 40.9413 58.5876 41.3916C58.9629 44.0035 58.4284 46.414 57.0026 48.6306C55.8568 50.4115 54.1253 51.2864 52.1449 51.7641C51.0247 52.035 49.8844 52.1118 48.7295 52.1027C45.7442 52.0771 42.7571 52.0606 39.7719 52.1045C37.7988 52.1338 35.833 51.9087 34.0356 51.2077C32.2199 50.4993 30.9185 49.0241 30.0931 47.2084C29.9174 46.824 29.7545 46.436 29.5842 46.048C29.5238 45.9692 29.4616 45.8905 29.4012 45.8137L29.3994 45.8118ZM44.9279 34.1325C45.0231 32.8549 44.9627 31.581 44.8126 30.3126C44.7503 29.7873 44.5856 29.3279 43.9596 29.337C43.2861 29.3462 43.1268 29.8495 43.0921 30.4041C43.0518 31.0392 43.0335 31.678 43.0097 32.315C42.9548 33.7719 42.9017 35.2289 43.0536 36.684C43.1122 37.2386 43.352 37.5754 43.9834 37.5424C44.6112 37.5095 44.9334 37.2349 44.9297 36.5943C44.9242 35.7743 44.9297 34.9543 44.9297 34.1343L44.9279 34.1325ZM44.5417 42.7698C44.5161 42.3598 44.5197 41.9334 44.452 41.5179C44.4117 41.2726 44.2141 41.0768 43.9304 41.1061C43.6796 41.1317 43.5917 41.3532 43.5716 41.5691C43.5368 41.9608 43.4764 42.3617 43.5295 42.7442C43.6027 43.2713 43.136 44.203 44.0329 44.203C44.8309 44.203 44.4246 43.297 44.5399 42.7698H44.5417ZM51.0723 33.8763C51.5354 33.8763 51.8703 33.8982 52.2016 33.8689C52.489 33.8451 52.7617 33.717 52.7379 33.3766C52.7196 33.0929 52.4707 32.9849 52.2108 32.9739C51.8777 32.9593 51.5336 32.9227 51.2114 32.9849C50.7062 33.0819 49.7984 32.6536 49.8149 33.4772C49.8295 34.1819 50.7117 33.7701 51.0686 33.8763H51.0723ZM36.9293 33.8872C37.4327 33.739 38.3222 34.1435 38.3442 33.4882C38.3716 32.692 37.4675 33.0215 36.9568 32.9959C36.4608 32.9721 35.617 32.7689 35.639 33.4955C35.6609 34.1618 36.4937 33.7115 36.9275 33.8854L36.9293 33.8872ZM44.5673 24.3732C44.4593 24.0108 44.7266 23.5111 44.3166 23.1432C44.172 23.0132 43.9963 22.9327 43.8388 23.1084C43.6888 23.275 43.6741 23.6831 43.7492 23.7984C43.7492 24.5306 43.6576 24.6221 43.7492 25.3542C43.6302 25.5189 43.6796 25.6745 43.9066 25.8191C44.0841 25.9326 44.2616 25.8265 44.3825 25.6745C44.6753 25.2993 44.5234 24.8564 44.5691 24.375L44.5673 24.3732Z" fill="black"/>
<path d="M62.8976 50.9383C62.689 50.7516 62.7237 50.5009 62.7128 50.2593C62.4821 44.8269 62.1966 39.3999 61.7958 33.9767C61.6896 32.5545 61.7189 31.1213 61.5212 29.7047C61.5835 29.086 61.6274 28.4655 61.3638 27.8725C61.3547 27.4625 61.3455 27.0525 61.3364 26.6425V26.6206C61.2961 26.1666 61.2375 25.7146 61.2192 25.2588C61.1259 22.8592 61.1002 20.456 60.93 18.0619C60.866 17.1632 61.1131 16.9875 61.944 16.9985C67.2739 17.0699 72.6039 17.1504 77.932 17.101C79.5591 17.0864 80.9886 17.4524 82.3687 18.223C82.5792 18.3402 82.8043 18.428 83.0239 18.5287C83.11 18.5872 83.1978 18.644 83.282 18.7026C83.52 19.2809 84.1002 19.5592 84.4553 20.035C87.2008 23.7323 88.1086 27.792 86.864 32.2726C86.5308 33.1494 85.8189 33.779 85.3539 34.5697C84.9952 34.8772 84.6365 35.1847 84.2759 35.4922L84.2576 35.483C83.3058 35.6404 82.4565 36.1602 81.448 36.1584C79.5042 36.1566 77.5622 36.2518 75.6184 36.2774C75.0272 36.2847 74.7984 36.4604 74.9009 37.0901C75.0364 37.9265 75.0968 38.7758 75.1682 39.6196C75.4391 42.7989 75.9204 45.9617 76.0431 49.1538C76.0888 50.3416 75.6312 50.8175 74.4452 50.8706C73.2298 50.9255 72.0108 50.9255 70.7937 50.9511C68.1617 50.8761 65.5296 50.8523 62.8976 50.9383ZM75.8655 25.6889C75.8655 25.6688 75.8655 25.6468 75.8655 25.6267C75.3512 25.6267 74.835 25.6267 74.3207 25.6267C73.9455 25.6267 73.5062 25.6121 73.6289 26.1685C73.7332 26.6425 73.4733 27.3985 74.2823 27.4515C75.397 27.5266 76.5208 27.5797 77.6391 27.446C78.1296 27.3875 78.5598 27.2044 78.5836 26.6517C78.6092 26.0715 78.2083 25.753 77.6794 25.7017C77.079 25.645 76.4695 25.6889 75.8655 25.6889Z" fill="black"/>
<path d="M72.0567 9.24869V9.27432C70.8212 10.3066 70.0506 11.7782 68.7237 12.7336C67.792 13.4035 66.9501 14.1906 65.7805 14.4725C65.354 14.575 65.2039 14.423 64.8983 14.1558C64.1259 13.4804 63.7927 12.7648 63.8879 11.7141C63.9392 11.1541 63.9996 10.6196 64.0966 10.0632C64.2723 9.06017 64.88 8.17246 64.8196 7.12551C64.8452 7.00837 64.8726 6.89123 64.8983 6.77409C65.8775 6.08039 67.1953 3.81444 67.4442 2.39594L67.4388 2.40326C68.0208 2.57714 67.911 1.82487 68.4766 1.63086C68.0391 2.73638 68.0995 3.77235 67.8433 4.7534C67.7005 5.29701 67.8359 5.4892 68.3722 5.50018C69.0147 5.51482 69.6736 5.44893 70.2776 5.80767C69.2563 5.73446 68.6248 6.71003 67.6401 6.74114C67.4113 6.74846 67.2466 7.03765 67.177 7.27011C66.7945 8.54402 65.5535 9.36583 65.4071 10.799C65.3577 11.2932 64.7775 11.7892 65.3101 12.2706C65.8336 12.7428 66.4028 12.3163 66.9281 12.1278C67.113 12.0619 67.2502 11.8624 67.415 11.7306C68.0025 11.2621 68.5351 10.5446 69.1959 10.3926C70.0616 10.195 70.6803 9.76668 71.2971 9.23588C71.568 9.0016 71.8078 8.8991 72.0549 9.24869H72.0567Z" fill="black"/>
<path d="M46.6794 14.3041C46.5842 14.4523 46.4342 14.4871 46.2731 14.4926C45.8942 13.5335 46.3188 12.7227 46.8625 12.0198C47.8252 10.7752 48.4182 9.38599 48.7825 7.87963L48.777 7.88512C49.0698 7.94186 49.2236 7.72405 49.381 7.552C50.3675 6.47393 51.3596 5.39953 51.8263 3.96638C52.0734 3.20862 52.5987 2.70162 53.2832 2.30078C53.4773 2.7364 53.3052 3.07135 53.1258 3.38251C52.6554 4.19517 52.0112 4.94195 51.7055 5.80952C51.2022 7.24084 50.8782 8.71792 49.8697 9.93509C49.5915 10.27 49.4103 10.6489 49.0405 10.9564C48.0924 11.7471 47.1205 12.5689 46.9631 13.9307L46.965 13.927C46.7142 13.9325 46.63 14.068 46.6812 14.3023L46.6794 14.3041Z" fill="black"/>
<path d="M73.8471 59.1766C73.7867 59.0595 73.7263 58.9423 73.6641 58.8252C73.7245 58.9423 73.7849 59.0595 73.8471 59.1766Z" fill="black"/>
<path d="M5.67068 50.7388C2.86112 49.2873 1.24128 46.9811 0.58419 43.8989C0.0973217 41.6201 0.179687 39.3853 0.560396 37.1102C0.920971 34.9522 1.12963 32.7686 1.41882 30.5978C1.46824 30.2263 1.43346 29.873 1.36208 29.5161C1.38587 29.4704 1.39503 29.4209 1.3932 29.3697C1.8764 28.5515 1.81783 27.6107 1.9789 26.7212C2.16376 25.7035 2.21135 24.6511 2.48773 23.6609C3.36629 20.5017 5.46019 18.536 8.58639 17.5696C11.0628 16.8045 13.5923 17.0644 16.1054 17.0406C19.3359 17.0113 22.5665 17.0644 25.797 17.0406C26.573 17.0351 26.8567 17.0845 26.7396 18.0637C26.4175 20.7507 26.2765 23.4614 26.1173 26.1666C26.0496 27.3216 25.9654 28.4747 25.883 29.6296C25.8446 30.1696 25.7146 30.3837 25.1509 30.3782C23.3443 30.3599 21.5378 30.4221 19.7331 30.3745C18.6935 30.3471 18.1316 30.834 17.879 31.7619C17.7033 32.4007 17.5495 33.0505 17.4452 33.7039C17.2365 35.0181 17.8332 35.7612 19.1749 35.7813C21.0015 35.807 22.8319 35.7777 24.6585 35.7411C25.7878 35.7191 25.7402 35.6898 25.6487 36.8429C25.4675 39.1492 25.3449 41.459 25.193 43.7689C25.1326 44.6804 25.0539 45.5901 24.9843 46.4979C24.6603 47.3637 24.7171 48.2733 24.6512 49.1757C24.5926 49.9774 24.6896 50.8212 24.2211 51.5533C23.888 51.5423 23.5548 51.5222 23.2217 51.5203C20.738 51.5094 18.2542 51.502 15.7704 51.4929L15.743 51.4892C15.5124 51.4801 15.2817 51.4709 15.0511 51.4618C14.6942 51.2129 14.286 51.3263 13.8998 51.3099C11.1525 51.1982 8.36675 51.6466 5.67434 50.737L5.67068 50.7388Z" fill="black"/>
<path d="M38.4115 10.1661C38.3603 10.2301 38.309 10.296 38.2578 10.3601C38.0656 10.6127 37.9576 10.911 38.0015 11.2167C38.1443 12.2325 37.7416 13.0488 37.1175 13.7956C36.8539 14.1013 36.4128 14.2971 36.4641 14.8151C36.2902 14.385 36.3433 13.9768 36.5428 13.5705C36.8118 13.0196 37.0077 12.443 36.907 11.8225C36.8283 11.3283 37.2182 11.0629 37.3939 10.695C37.5458 10.3747 37.8643 10.1258 37.802 9.71764C37.8624 9.65541 37.9228 9.59318 37.9832 9.53095C38.0491 9.47787 38.234 9.51448 38.1333 9.3351C38.0857 9.40283 38.0363 9.46872 37.9887 9.53644C37.9265 9.59684 37.8643 9.65724 37.8039 9.71764C36.8997 10.5925 35.7832 11.2661 35.2103 12.4558C35.1718 12.5345 35.1005 12.6425 35.0309 12.6535C33.8833 12.8219 33.1823 13.8707 32.0749 14.1324C30.9657 14.3941 30.3709 13.9073 30.8065 12.853C31.211 11.8719 31.3574 10.8891 31.5002 9.87322C31.6228 9.00381 32.4282 8.40347 32.4813 7.47366C32.4941 7.24853 32.8034 6.9813 33.2994 6.95201C32.7741 8.04838 32.7833 9.21247 32.3989 10.285C32.2964 10.5706 32.1518 10.836 32.1719 11.1545C32.2232 11.9598 32.4538 12.0605 33.1695 11.7054C34.1432 11.2222 34.987 10.6127 35.5526 9.66456C36.314 9.2985 37.0516 8.90315 37.4927 8.13075C38.4555 8.14173 38.5872 7.14054 39.2022 6.72872C39.517 6.59693 39.6653 5.93618 40.0149 6.2089C40.348 6.46698 40.1558 7.01425 39.8703 7.34188C39.1492 8.16918 39.2443 9.40649 38.4097 10.1661H38.4115Z" fill="black"/>
<path d="M61.1167 11.0898C61.0673 11.1575 61.016 11.2253 60.9648 11.293C60.9044 11.4156 60.844 11.5382 60.7836 11.6609C60.401 11.886 60.0185 12.1093 59.6341 12.3344C59.5133 12.4607 59.3925 12.587 59.2717 12.7133C59.0246 13.019 58.8032 13.3503 58.525 13.6248C58.1699 13.9726 57.7489 14.1025 57.2895 13.7822C56.7001 13.3741 56.1016 13.3905 55.4884 13.7328C54.9888 14.011 54.6849 13.8866 54.5934 13.299C54.4689 12.4973 53.6032 12.0398 53.6874 11.0843C53.8155 9.65117 54.1852 8.20521 55.0437 7.19487C55.7429 6.37122 56.8081 5.56038 58.0601 5.39748C58.6348 5.32244 58.88 5.80016 58.9551 6.24676C59.0411 6.74827 59.1546 7.38156 58.9313 7.77142C58.5213 8.48342 58.2669 9.43153 57.2401 9.61273C57.1211 9.63287 57.0094 9.68778 56.896 9.73353C55.8765 10.1362 55.5122 11.0788 55.9954 12.0654C56.2663 12.6181 57.0186 12.6035 57.6903 12.0324C57.8056 11.908 57.9191 11.7835 58.0344 11.659C58.7666 11.487 59.6378 11.6151 60.046 10.7347C60.4377 10.5224 60.8257 10.3046 61.2192 10.0978C61.8525 9.76648 61.772 10.1801 61.7061 10.5718C61.5084 10.7439 61.3126 10.9178 61.1149 11.0916L61.1167 11.0898ZM56.8356 7.70553C56.0266 7.68906 55.8545 8.27659 55.7374 8.88975C55.7063 9.05265 55.7154 9.25765 55.9753 9.30158C56.744 9.4297 57.6885 8.50904 57.5348 7.78057C57.4945 7.59022 57.4396 7.41085 57.2346 7.37424C56.9875 7.33031 56.8154 7.42183 56.8301 7.71285L56.8356 7.70553Z" fill="black"/>
<path d="M20.8369 8.11085C20.8936 8.04679 20.9503 7.98456 21.0071 7.9205C21.4519 7.63497 21.5727 7.13529 21.8161 6.71614C22.2316 6.47271 22.6892 6.28784 23.0021 5.89615C23.7691 5.53741 24.6183 5.72227 25.4182 5.5246C25.9325 5.3983 25.9307 5.87602 25.9471 6.25673C25.96 6.57337 25.7476 7.01082 26.0972 7.18104C26.5036 7.38055 26.9245 7.11881 27.2705 6.87721C27.5688 6.67038 27.8544 6.47454 28.1966 6.32628C28.7713 6.07736 29.3699 6.12128 29.7176 6.51297C30.0636 6.90283 30.0013 7.58555 29.7304 8.03764C29.2253 8.88325 29.0276 9.90458 28.1692 10.5653C27.8214 10.8326 27.6768 11.3871 27.4846 11.8301C27.2467 12.3792 26.9154 12.8258 26.3773 13.1058C26.326 13.0582 26.2766 13.0125 26.2254 12.9649C26.7104 11.6763 27.1973 10.386 27.6823 9.0974C27.8983 8.88325 28.1161 8.6691 28.1088 8.33232C28.1051 8.12183 28.1326 7.88755 27.9514 7.74113C27.739 7.56907 27.5707 7.80702 27.3803 7.84362C26.1869 8.07059 25.5994 8.93999 25.0631 9.90458C24.8929 10.2121 24.5854 10.4427 24.3401 10.7099C24.2102 10.7429 23.985 11.0375 23.9997 10.6514C24.0107 10.3988 24.1553 10.1096 24.3273 9.91373C25.1272 9.00222 24.8965 7.99371 24.6073 7.00533C24.4243 6.38119 23.8825 6.56239 23.6062 6.84609C22.874 7.59653 21.8747 8.06875 21.4061 9.10838C20.8515 10.3329 19.8137 11.1071 18.5581 11.658C19.3744 10.5068 20.2548 9.40307 20.835 8.11451L20.8369 8.11085Z" fill="black"/>
<path d="M26.3753 13.1058C26.3222 13.1936 26.2673 13.3346 26.1502 13.2357C26.0513 13.1534 26.1465 13.0435 26.2252 12.9648C26.2765 13.0124 26.3259 13.0582 26.3771 13.1058H26.3753Z" fill="black"/>
<path d="M45.1911 8.1547C45.138 8.2151 45.0849 8.27367 45.0318 8.33224C44.587 8.81545 44.8836 9.52013 44.5212 10.0271C44.1459 10.179 43.7963 10.3694 43.5438 10.697C43.0313 11.0393 42.5682 11.431 42.2461 11.9673C41.7464 12.5383 41.2046 13.0582 40.2876 13.4974C41.2522 11.3999 42.8098 9.88436 43.6444 7.9735C44.5248 5.95464 46.2728 4.76676 47.7846 3.31348C47.1495 4.86377 47.0671 6.66664 45.601 7.81426C45.4638 7.92774 45.3283 8.04122 45.1929 8.15653L45.1911 8.1547Z" fill="black"/>
<path d="M63.423 69.4619C63.423 68.4259 63.4285 67.39 63.4193 66.354C63.4175 66.0666 63.5035 65.6676 63.0569 65.6493C62.689 65.6347 62.6908 66.0117 62.6359 66.2606C62.2021 68.2539 61.7958 70.2526 61.3565 72.2458C61.0838 73.4795 59.852 74.0578 58.6787 73.5399C58.2889 73.3678 58.2614 73.0585 58.3365 72.7016C59.226 68.4698 60.1137 64.2363 61.0033 60.0046C61.1442 59.3328 61.5798 59.0363 62.2479 59.0382C63.0093 59.0418 63.7726 59.0674 64.534 59.0308C65.3302 58.9924 65.6303 59.353 65.6194 60.1181C65.5956 61.7946 65.5992 63.4712 65.6065 65.146C65.6065 65.4022 65.4748 65.7848 65.7987 65.8763C66.2252 65.9952 66.2325 65.534 66.3369 65.2869C67.0543 63.5737 67.7663 61.8569 68.4436 60.129C68.7639 59.3109 69.3258 58.9302 70.186 58.9338C70.9182 58.9375 71.6503 58.9137 72.3806 58.9412C73.0487 58.9649 73.3928 59.2688 73.2335 60.0046C72.3403 64.11 71.4746 68.2228 70.5704 72.3264C70.294 73.5801 68.9524 74.1841 67.8066 73.6405C67.3307 73.4136 67.3911 72.9963 67.4698 72.6119C67.8633 70.7029 68.2788 68.7993 68.6907 66.8939C68.7291 66.7164 68.8023 66.5425 68.8298 66.3631C68.87 66.0996 68.9762 65.75 68.6248 65.6621C68.2733 65.5743 68.2239 65.9293 68.1159 66.1801C67.2209 68.2813 66.3167 70.3807 65.4144 72.4801C65.2698 72.8169 65.116 73.1518 64.8158 73.3843C64.4992 73.6296 64.1405 73.6588 63.778 73.5216C63.423 73.3879 63.4193 73.0585 63.4175 72.7528C63.412 71.6565 63.4156 70.5583 63.4156 69.4619C63.4193 69.4619 63.423 69.4619 63.4266 69.4619H63.423Z" fill="black"/>
<path d="M46.3171 66.5992C48.2206 66.5608 48.2756 66.6322 47.8436 68.4625C47.7393 68.9073 47.6295 69.352 47.5544 69.8023C46.9596 73.3916 43.9798 74.1548 41.5399 73.8565C39.4735 73.6039 38.7121 72.7638 38.8896 70.6809C39.1404 67.7633 39.9109 64.9318 40.6724 62.1131C40.9012 61.2638 41.4503 60.5463 42.1348 59.9423C43.5643 58.683 46.5111 58.3298 48.1767 59.2541C48.8448 59.6238 49.22 60.215 49.2877 60.9435C49.3829 61.9612 49.1065 62.944 48.735 63.8793C48.5172 64.4266 46.4031 64.7012 45.9803 64.2857C45.7808 64.0898 45.8156 63.8427 45.8522 63.5993C45.9016 63.268 45.9693 62.9404 46.0023 62.6073C46.0609 61.9923 45.8632 61.4963 45.2079 61.3608C44.5911 61.2327 44.1335 61.5457 43.8773 62.0893C43.6704 62.5286 43.5075 62.9935 43.3849 63.462C42.845 65.5248 42.3709 67.6059 42.0781 69.7181C41.992 70.3386 41.9152 71.0579 42.7425 71.3178C43.4197 71.5319 44.1006 71.0854 44.3971 70.2306C44.5948 69.6595 44.9663 69.0994 44.042 68.6565C43.5021 68.3966 44.2891 66.7328 45.0414 66.612C45.4568 66.5443 45.8906 66.5992 46.3171 66.5992Z" fill="black"/>
<path d="M57.9523 60.6099C57.6887 64.6476 57.4379 68.473 57.1908 72.2983C57.1524 72.884 56.9877 73.4148 56.3837 73.607C55.7101 73.8212 54.9853 73.8669 54.3355 73.5576C53.9072 73.3544 54.0225 72.8621 54.0774 72.4795C54.1818 71.7492 53.8834 71.4619 53.1678 71.5241C52.8658 71.5497 52.5583 71.5442 52.2544 71.5241C51.7548 71.4893 51.4949 71.6833 51.3356 72.1867C50.8945 73.5722 50.1184 73.9914 48.689 73.6931C47.8726 73.5228 48.0081 72.9719 48.2076 72.421C48.8555 70.6181 49.5126 68.8171 50.1679 67.016C50.9787 64.7848 51.8133 62.561 52.5949 60.3207C52.9097 59.4183 53.4295 58.9662 54.4161 59.0376C55.1427 59.0907 55.8767 59.0431 56.6088 59.0413C57.8882 59.0394 57.9706 59.1218 57.9523 60.3701C57.9504 60.522 57.9523 60.6739 57.9523 60.6135V60.6099ZM53.618 68.9653C54.0427 69.0239 54.5021 68.9488 54.5698 68.224C54.7583 66.1997 54.9725 64.1772 55.1702 62.1546C55.1921 61.924 55.2745 61.5982 54.9542 61.5452C54.6229 61.4884 54.6302 61.8453 54.5607 62.0576C53.92 63.9886 53.2867 65.9215 52.6571 67.8561C52.3386 68.8335 52.4411 68.9671 53.618 68.9671V68.9653Z" fill="black"/>
<path d="M75.0181 73.6051C74.3482 73.6051 73.6765 73.6142 73.0066 73.6033C72.0255 73.5886 71.8516 73.3946 72.0383 72.4611C72.5527 69.8932 73.0835 67.3271 73.6106 64.7609C73.9236 63.2381 74.2457 61.7189 74.5532 60.1961C74.7326 59.3047 75.2744 58.9094 76.1712 58.9222C77.2987 58.9386 78.428 58.9203 79.5555 58.9277C80.1009 58.9313 80.7086 58.8526 80.7965 59.6506C80.8862 60.4615 80.3169 61.4096 79.6434 61.4883C79.1309 61.5487 78.6092 61.5231 78.0912 61.5194C77.6282 61.5158 77.3353 61.697 77.2584 62.1747C77.22 62.4144 77.1468 62.6487 77.112 62.8903C77.0351 63.4303 76.6453 63.9904 76.8686 64.4864C77.1486 65.1087 77.857 64.6877 78.3603 64.8268C78.7831 64.9421 79.162 65.1014 79.1052 65.5882C79.0247 66.2801 78.9186 66.9994 78.1425 67.3161C78.0327 67.36 77.8991 67.3417 77.7819 67.3691C77.2145 67.5064 76.3927 67.0507 76.1035 67.7169C75.6935 68.654 75.58 69.7101 75.4922 70.7406C75.4647 71.0554 75.7448 71.1268 76.0028 71.136C76.4604 71.1524 76.918 71.136 77.3738 71.1653C77.8917 71.1982 78.5507 71.028 78.5799 71.8901C78.6111 72.8071 78.1462 73.53 77.3994 73.585C76.6105 73.6417 75.8161 73.5978 75.0236 73.5978C75.0236 73.5996 75.0236 73.6033 75.0236 73.6051H75.0181Z" fill="black"/>
<path d="M21.3547 73.7092C20.1741 73.7147 19.9984 73.5353 20.2071 72.3859C20.4359 71.1285 20.7305 69.8838 20.9667 68.6282C21.038 68.2512 21.3034 67.7735 20.628 67.5996C19.8044 67.3873 19.1162 67.6051 18.9679 68.2219C18.6476 69.5544 18.3658 70.8942 18.0802 72.234C17.8258 73.4274 16.292 74.1229 15.2579 73.5061C14.8314 73.2516 14.9979 72.8709 15.0675 72.525C15.5416 70.1987 16.0211 67.8741 16.5043 65.5496C16.8631 63.8309 17.2163 62.1123 17.5988 60.3972C17.8734 59.1636 19.3065 58.5266 20.4322 59.1014C20.9136 59.3466 20.8038 59.753 20.7232 60.1355C20.456 61.4167 20.1558 62.6925 19.8977 63.9755C19.8117 64.3965 19.6012 64.9017 20.3132 65.0573C21.1863 65.2458 21.7043 65.0097 21.8617 64.2812C22.1271 63.0622 22.3614 61.8359 22.6377 60.6187C22.9855 59.0812 23.5822 58.717 25.1984 58.9311C26.0001 59.0373 26.0037 59.5553 25.8866 60.1337C25.6065 61.5357 25.3045 62.9341 25.0044 64.3324C24.4406 66.9517 23.8879 69.5727 23.3003 72.1846C23.0002 73.5207 22.7311 73.7019 21.3547 73.7092Z" fill="black"/>
<path d="M27.6695 73.6527C26.9685 73.6527 26.2675 73.6363 25.5683 73.6564C24.8508 73.6765 24.5268 73.3544 24.6714 72.6497C25.5335 68.4436 26.4011 64.2375 27.287 60.0351C27.4444 59.2865 27.9551 58.9131 28.7458 58.9241C29.9336 58.9387 31.1234 58.9204 32.3131 58.9277C32.8695 58.9314 33.446 58.9021 33.4589 59.7331C33.4753 60.716 33.0965 61.406 32.3753 61.4847C31.8317 61.5433 31.2789 61.5195 30.7317 61.5158C30.2979 61.5122 30.0526 61.7117 29.9648 62.1345C29.8275 62.7897 29.6902 63.4468 29.5255 64.0966C29.4047 64.5743 29.5639 64.7921 30.0544 64.7921C30.2375 64.7921 30.4242 64.7976 30.5999 64.836C31.1124 64.9477 31.839 64.7244 31.7914 65.6853C31.7402 66.7323 31.3082 67.3051 30.415 67.3674C29.329 67.443 28.6671 68.0513 28.4291 69.1922C27.9917 71.2678 27.8288 71.1433 29.9465 71.1562C30.534 71.1598 31.2533 71.0061 31.2606 71.9707C31.2661 72.9975 30.7536 73.6381 29.8641 73.6692C29.1338 73.6948 28.4035 73.6747 27.6714 73.6747C27.6714 73.6674 27.6714 73.6601 27.6714 73.6527H27.6695Z" fill="black"/>
<path d="M12.7689 58.9282C13.6218 58.9282 14.4748 58.9154 15.3277 58.9337C15.7945 58.9428 16.3619 58.8111 16.5248 59.4755C16.6968 60.1673 16.2136 61.1941 15.6316 61.4119C15.4906 61.465 15.3369 61.4852 15.1868 61.5016C13.6072 61.6737 13.6164 61.6737 13.2851 63.2295C12.6445 66.2367 11.9965 69.2421 11.3449 72.2457C11.0868 73.4372 9.76718 74.0559 8.64152 73.5379C8.19492 73.3329 8.25349 72.9449 8.31755 72.5953C8.55184 71.3085 8.80991 70.0255 9.06982 68.7424C9.50544 66.5954 9.94472 64.4485 10.395 62.3051C10.5139 61.7432 10.3236 61.4888 9.7507 61.5199C9.6903 61.5236 9.62807 61.5254 9.56767 61.5199C9.02772 61.4705 8.3084 61.7194 8.23336 60.8299C8.14916 59.8342 8.71656 59.0051 9.57133 58.9575C10.6348 58.8989 11.7018 58.9428 12.7689 58.9428V58.9282Z" fill="black"/>
</svg>
