<svg width="42" height="56" viewBox="0 0 42 56" fill="none" xmlns="http://www.w3.org/2000/svg">
<g clip-path="url(#clip0_3570_1424)">
<path d="M17.5171 42.8298C17.2847 42.8518 17.0112 43.0746 16.5694 43.0593C10.9868 42.8604 7.86756 42.5486 4.06072 38.1709C-0.686112 32.7126 -1.35931 25.208 3.42481 19.5211C6.88453 15.4093 12.2415 11.0679 16.1449 7.24096C18.502 4.9297 20.6134 2.39372 23.0796 0.192431C23.2976 0.0805494 23.9374 -0.0753196 24.0751 0.0413431C24.5838 0.473569 24.2912 11.7028 24.2969 13.3791C18.0229 19.2142 12.0512 25.3533 5.96653 31.3844C5.59455 31.589 5.22639 32.6591 5.75807 32.6591H17.5171C17.4482 32.8675 17.7294 33.119 17.7294 33.1888V42.6175L33.3335 27.5001C33.6921 26.5228 36.4949 24.5807 36.5608 23.8348C36.58 23.6139 36.3638 23.3366 36.2682 23.3366H24.5092C24.1191 20.071 24.3084 16.6859 24.2969 13.3782C29.7399 12.4458 34.5537 13.5991 38.0574 17.9959C42.7201 23.8472 43.4439 31.175 38.1836 36.9106C34.4198 41.0148 29.431 45.4269 25.3574 49.3963C23.1609 51.5374 20.9013 53.6316 18.7966 55.8635C17.868 56.4085 17.5372 55.1817 17.518 54.4817C17.5056 54.038 17.7399 53.5905 17.7389 53.1133C17.7351 49.6851 17.7227 46.2541 17.7294 42.8288L17.6232 42.6213L17.5171 42.8288V42.8298Z" fill="black"/>
</g>
<defs>
<clipPath id="clip0_3570_1424">
<rect width="41.6964" height="56" fill="white" transform="translate(0.151855)"/>
</clipPath>
</defs>
</svg>
