<svg width="48" height="48" viewBox="0 0 48 48" fill="none" xmlns="http://www.w3.org/2000/svg">
<g clip-path="url(#clip0_3570_1446)">
<path d="M39.8241 5.92169C46.4611 11.7676 49.4512 21.1123 47.1397 29.7236L46.2349 26.5867C45.0723 23.9969 43.157 21.8924 41.361 19.7386C41.0415 20.0347 40.6014 18.5445 40.1559 18.8927C39.325 17.6423 37.5921 16.3289 36.2979 15.4117C33.4681 13.4032 28.5147 10.8628 24.9926 11.0753C20.8399 11.3262 19.3235 15.1992 23.076 17.5286C25.4903 19.0271 28.8424 19.463 31.4678 20.7902C44.6034 27.4326 40.0969 45.7245 25.9249 47.7892C11.6706 49.8622 -0.55181 36.5059 0.111753 22.6575C1.06323 2.80266 24.9515 -7.17683 39.8241 5.92169ZM24.6087 32.2407C23.2295 30.7834 18.383 29.193 16.3389 28.2402C13.2377 26.7951 8.18556 23.7611 4.94863 23.3155C3.71611 23.1455 3.15126 23.103 3.47481 24.5165C4.42354 28.6652 10.3271 34.119 14.0096 36.0535C16.6981 37.467 23.0979 39.4302 25.068 36.0686C25.8481 34.7373 25.6658 33.3567 24.6087 32.2394V32.2407Z" fill="black"/>
</g>
<defs>
<clipPath id="clip0_3570_1446">
<rect width="47.8286" height="48" fill="white" transform="translate(0.0854492)"/>
</clipPath>
</defs>
</svg>
