<svg width="196" height="80" viewBox="0 0 196 80" fill="none" xmlns="http://www.w3.org/2000/svg">
<g clip-path="url(#clip0_3604_369)">
<path d="M113.488 18.1909C107.618 12.7341 101.691 12.2316 93.9885 12.076C88.1564 11.9586 82.2927 12.0097 76.4519 12.0195C75.4197 12.0216 74.3843 12.0184 73.3521 12.0195L73.4043 26.8412C73.6457 36.6977 73.4902 46.5629 73.4586 56.4216C73.4467 60.2741 73.4739 64.1289 73.4608 67.9814L95.2981 67.9836C102.398 68.1881 108.539 66.5772 113.705 61.6185C125.652 50.1479 125.676 29.5234 113.488 18.192V18.1909ZM112.236 59.6052C109.808 61.9078 105.505 64.3116 102.188 64.9207C100.265 65.2742 98.2206 65.26 96.2726 65.3133C96.0877 65.3188 95.3938 65.4656 95.2926 65.3188C95.2154 65.2078 95.2774 62.977 95.2709 62.6213C95.1273 54.0157 95.0718 45.4317 95.1055 36.8184C95.1338 29.5071 95.2524 22.1903 95.2121 14.8724C95.1795 14.6505 95.5526 14.6418 95.7299 14.6288C97.8378 14.4613 100.836 14.842 102.895 15.3532C114.436 18.2214 120.957 30.4251 120.232 41.7945C119.821 48.2271 116.925 55.1632 112.239 59.6063L112.236 59.6052Z" fill="black"/>
<path d="M111.769 23.7722C109.679 21.0193 106.246 19.0321 103.019 17.8922C100.705 17.0743 97.1025 16.0987 97.3875 19.8805C97.5528 22.0754 99.2409 21.8579 100.843 22.0265C103.921 22.3506 107.03 23.0902 109.79 24.4999C110.514 24.8686 111.332 25.4907 112.054 25.7713C112.183 25.8214 112.488 25.9562 112.61 25.8801C112.683 25.8344 112.68 25.4255 112.666 25.321C112.612 24.9088 112.032 24.1203 111.768 23.7722H111.769Z" fill="black"/>
</g>
<defs>
<clipPath id="clip0_3604_369">
<rect width="49.2956" height="56" fill="white" transform="translate(73.3521 12)"/>
</clipPath>
</defs>
</svg>
