<svg width="196" height="80" viewBox="0 0 196 80" fill="none" xmlns="http://www.w3.org/2000/svg">
<g clip-path="url(#clip0_2197_5797)">
<path d="M31.5333 19C29.9547 19 28.4021 19.3364 26.927 19.9316C25.4778 20.5527 24.1581 21.4325 23.0453 22.5712C21.9326 23.7098 21.0527 25.0296 20.4575 26.5046C19.8623 27.9797 19.5518 29.5582 19.5777 31.1368V35.1479H29.2819V29.3253C29.2819 29.0407 29.3337 28.7819 29.4372 28.5231C29.5407 28.2643 29.696 28.0314 29.8771 27.8503C30.0583 27.6691 30.2912 27.5139 30.5499 27.4103C30.8087 27.3068 31.0675 27.2551 31.3522 27.2551H31.7144C31.9732 27.2551 32.2579 27.3068 32.5167 27.4103C32.7754 27.5139 33.0083 27.6691 33.1895 27.8503C33.3706 28.0314 33.5259 28.2643 33.6294 28.5231C33.7329 28.7819 33.7847 29.0407 33.7847 29.3253V44.9039C35.0527 44.9039 36.3207 44.6451 37.5111 44.1534C38.7015 43.6617 39.7625 42.9371 40.6682 42.0314C41.574 41.1257 42.2985 40.0388 42.7643 38.8743C43.256 37.6839 43.5148 36.4159 43.5148 35.1479V31.1368C43.5148 27.9279 42.2727 24.8225 40.0213 22.5453C38.9085 21.4067 37.5887 20.5268 36.1396 19.9057C34.6645 19.3105 33.1119 19 31.5333 19Z" fill="black"/>
<path d="M31.7144 52.7968H31.3522C31.0934 52.7968 30.8087 52.7451 30.5499 52.6416C30.2912 52.5381 30.0841 52.3828 29.8771 52.2017C29.696 52.0205 29.5407 51.7876 29.4372 51.5288C29.3337 51.27 29.2819 51.0113 29.2819 50.7266V35.1481C28.0139 35.1481 26.7459 35.4068 25.5555 35.8985C24.3651 36.3902 23.3041 37.1148 22.3984 38.0205C21.4926 38.9262 20.7681 40.0131 20.3023 41.1776C19.8106 42.368 19.5518 43.636 19.5518 44.9041V48.8634C19.5259 50.4419 19.8364 52.0205 20.4316 53.4956C21.0268 54.9706 21.9067 56.3162 23.0194 57.429C24.1322 58.5676 25.452 59.4475 26.9011 60.0686C28.3503 60.6896 29.9289 61.0002 31.5074 61.0002C33.086 61.0002 34.6645 60.6896 36.1137 60.0686C37.5629 59.4475 38.9085 58.5676 39.9954 57.429C41.1082 56.2904 41.988 54.9706 42.5832 53.4956C43.1784 52.0205 43.4631 50.4419 43.4631 48.8634V44.9041H33.7588V50.7266C33.7588 51.0113 33.707 51.27 33.6035 51.5288C33.5 51.7876 33.3448 52.0205 33.1636 52.2017C32.9825 52.3828 32.7496 52.5381 32.4908 52.6416C32.2579 52.7451 31.9991 52.7968 31.7144 52.7968ZM60.1026 31.3181H56.6867V48.6822H66.6756V45.3957H60.0767C60.1026 45.4216 60.1026 31.3181 60.1026 31.3181ZM77.5961 37.7617C77.1044 37.1665 76.5092 36.6749 75.8105 36.3643C75.1118 36.0538 74.3355 35.8985 73.585 35.9503C72.7828 35.9503 72.0065 36.1055 71.256 36.442C70.5314 36.7784 69.8845 37.2442 69.341 37.8652C68.2024 39.1333 67.5813 40.7895 67.5813 42.5233C67.5813 44.2312 68.2024 45.8874 69.341 47.1813C69.8586 47.7765 70.5314 48.2682 71.256 48.6046C71.9806 48.941 72.7828 49.0963 73.585 49.0963C75.3189 49.0963 76.6645 48.5011 77.5961 47.2848V48.7599H80.7791V36.3643H77.5961V37.7617ZM76.6386 45.0334C76.3281 45.344 75.9399 45.6028 75.5 45.7839C75.0859 45.9651 74.6202 46.0427 74.1802 46.0168C73.7403 46.0427 73.2745 45.9392 72.8604 45.7839C72.4464 45.6028 72.0582 45.3699 71.7477 45.0334C71.1266 44.3347 70.7902 43.4549 70.7902 42.5233C70.7902 41.5917 71.1266 40.6859 71.7477 40.0131C72.0582 39.7026 72.4464 39.4438 72.8604 39.2627C73.2745 39.0815 73.7403 39.0039 74.1802 39.0298C74.646 39.0039 75.0859 39.1074 75.5 39.2627C75.914 39.4438 76.3022 39.6767 76.6386 40.0131C77.2597 40.7118 77.622 41.5917 77.622 42.5233C77.5961 43.429 77.2597 44.3347 76.6386 45.0334ZM88.9824 44.6194L85.7736 36.2867H82.28L87.3262 48.2941C87.1192 49.0187 86.7052 49.6397 86.1359 50.1314C85.5407 50.5455 84.8161 50.7266 84.0915 50.6748V53.6508C85.4889 53.7802 86.9122 53.392 88.0508 52.5639C89.1118 51.7617 89.9658 50.4678 90.6128 48.7081L95.1155 36.2867H91.6996L88.9824 44.6194ZM102.025 35.9503C101.145 35.9244 100.291 36.0797 99.4889 36.3902C98.6867 36.7007 97.9621 37.1924 97.341 37.8135C96.1506 39.0815 95.5037 40.7636 95.5037 42.4974C95.5037 44.2312 96.1765 45.9133 97.3669 47.1813C98.609 48.4235 100.239 49.0445 102.284 49.0445C104.664 49.0445 106.45 48.1647 107.666 46.3791L105.104 44.8782C104.768 45.2922 104.354 45.6286 103.862 45.8357C103.371 46.0427 102.853 46.1462 102.335 46.1203C100.446 46.1203 99.2819 45.344 98.8678 43.7913H108.184C108.262 43.3514 108.313 42.9115 108.313 42.4715C108.365 40.7377 107.718 39.0556 106.554 37.8135C105.984 37.1924 105.286 36.7007 104.509 36.3902C103.681 36.0797 102.853 35.9244 102.025 35.9503ZM98.7902 41.3329C98.9196 40.6083 99.3336 39.9614 99.9029 39.4956C100.524 39.0298 101.274 38.7969 102.025 38.8486C102.724 38.8486 103.396 39.0556 103.966 39.4697C104.561 39.9355 104.975 40.6083 105.079 41.3588C105.079 41.3329 98.7902 41.3329 98.7902 41.3329ZM113.67 38.4346V36.3126H110.487V48.7081H113.67V42.7821C113.67 41.5917 114.058 40.7377 114.809 40.2201C115.585 39.7026 116.491 39.4956 117.422 39.625V36.0538C116.62 36.0538 115.844 36.2608 115.145 36.649C114.446 37.0372 113.929 37.6841 113.67 38.4346ZM132.923 34.0094V31.3181H121.615V34.6046H128.628L121.433 45.9651V48.7081H133.079V45.4216H125.755C125.729 45.4216 132.923 34.0094 132.923 34.0094ZM140.583 35.9503C139.703 35.9244 138.849 36.0797 138.047 36.3902C137.245 36.7007 136.52 37.1924 135.899 37.8135C134.709 39.0815 134.062 40.7636 134.062 42.4974C134.062 44.2312 134.735 45.9133 135.925 47.1813C137.167 48.4235 138.798 49.0445 140.842 49.0445C143.223 49.0445 145.008 48.1647 146.225 46.3791L143.663 44.8782C143.326 45.2922 142.912 45.6286 142.42 45.8357C141.929 46.0427 141.411 46.1462 140.894 46.1203C139.005 46.1203 137.84 45.344 137.426 43.7913H146.742C146.82 43.3514 146.871 42.9115 146.871 42.4715C146.923 40.7377 146.276 39.0556 145.112 37.8135C144.542 37.1924 143.844 36.7007 143.067 36.3902C142.265 36.0797 141.411 35.9244 140.583 35.9503ZM137.348 41.3329C137.478 40.6083 137.892 39.9614 138.461 39.4956C139.082 39.0298 139.833 38.7969 140.583 38.8486C141.282 38.8486 141.955 39.0556 142.524 39.4697C143.119 39.9355 143.533 40.6083 143.637 41.3588L137.348 41.3329ZM152.228 38.4346V36.3126H149.045V48.7081H152.228V42.7821C152.228 41.5917 152.616 40.7377 153.367 40.2201C154.143 39.7026 155.049 39.4956 155.981 39.625V36.0538C155.178 36.0538 154.402 36.2608 153.703 36.649C153.005 37.0372 152.487 37.6841 152.228 38.4346ZM163.252 35.9503C161.751 35.9762 160.328 36.4937 159.164 37.4771C158.025 38.4346 157.249 39.7802 156.964 41.2553C156.679 42.7303 156.912 44.2571 157.637 45.5769C158.361 46.8967 159.5 47.9318 160.871 48.5011C162.243 49.0704 163.796 49.1222 165.219 48.6822C166.642 48.2423 167.884 47.3107 168.713 46.0686C169.541 44.8264 169.903 43.3255 169.748 41.8246C169.592 40.3237 168.945 38.9262 167.884 37.8652C167.289 37.2442 166.565 36.7525 165.762 36.442C164.96 36.0797 164.106 35.9244 163.252 35.9503ZM165.633 44.9558C165.322 45.2664 164.96 45.5251 164.546 45.6804C164.132 45.8357 163.692 45.9392 163.252 45.9133C162.812 45.9133 162.372 45.8357 161.958 45.6804C161.544 45.5251 161.182 45.2664 160.871 44.9558C160.25 44.283 159.914 43.4031 159.914 42.4974C159.914 41.5917 160.25 40.7118 160.871 40.039C161.182 39.7285 161.544 39.4697 161.958 39.3144C162.372 39.1591 162.812 39.0556 163.252 39.0815C163.692 39.0815 164.132 39.1591 164.546 39.3144C164.96 39.4697 165.322 39.7285 165.633 40.039C166.254 40.7118 166.591 41.5917 166.591 42.4974C166.591 43.4031 166.254 44.283 165.633 44.9558ZM176.45 44.8782H172.568V48.7081H176.45V44.8782Z" fill="black"/>
</g>
<defs>
<clipPath id="clip0_2197_5797">
<rect width="156.9" height="42" fill="white" transform="translate(19.5503 19)"/>
</clipPath>
</defs>
</svg>
