<svg width="176" height="36" viewBox="0 0 176 36" fill="none" xmlns="http://www.w3.org/2000/svg">
<g id="MSquared" clip-path="url(#clip0_2875_1763)">
<path id="Vector" d="M13.2736 27.8212H9.99675C9.11209 27.8212 8.38993 27.099 8.38993 26.2053V22.9104C8.38993 21.105 6.92754 19.6336 5.13115 19.6336H0.951611C0.789124 19.6336 0.644691 19.7239 0.581501 19.8683C0.139174 20.753 0.139174 21.7911 0.581501 22.6757C0.653718 22.8202 0.798151 22.9104 0.951611 22.9104H5.13115V26.2324C5.13115 28.9134 7.29765 31.089 9.96064 31.089H13.2645V35.2866C13.2645 35.449 13.3548 35.5935 13.4993 35.6567C14.3749 36.099 15.413 36.099 16.2976 35.6567C16.4421 35.5845 16.5324 35.44 16.5324 35.2866V31.089C16.5324 29.2836 15.07 27.8121 13.2736 27.8121V27.8212ZM27.9155 22.9104V26.2053C27.9155 27.099 27.1933 27.8212 26.3087 27.8212H23.0318C22.6027 27.8223 22.178 27.908 21.782 28.0734C21.386 28.2387 21.0264 28.4804 20.7238 28.7847C20.4212 29.0889 20.1815 29.4498 20.0184 29.8468C19.8552 30.2437 19.7719 30.6689 19.7731 31.098H26.3358C29.0078 31.098 31.1743 28.9225 31.1743 26.2414V19.6517C30.7451 19.6528 30.3204 19.7385 29.9244 19.9039C29.5284 20.0692 29.1688 20.3109 28.8662 20.6152C28.5636 20.9194 28.3239 21.2803 28.1608 21.6773C27.9977 22.0742 27.9143 22.4993 27.9155 22.9285V22.9104ZM35.733 13.3237C35.6993 13.2539 35.6468 13.195 35.5814 13.1535C35.516 13.112 35.4403 13.0897 35.3628 13.089H31.1833V9.767C31.1833 7.08596 29.0168 4.91043 26.3448 4.91043H23.0409V0.703809C23.0409 0.541321 22.9506 0.396888 22.8062 0.333698C21.9305 -0.108629 20.8924 -0.108629 20.0078 0.333698C19.8633 0.405915 19.7731 0.550348 19.7731 0.703809V4.9014C19.7731 6.70682 21.2355 8.17823 23.0318 8.17823H26.3087C27.1933 8.17823 27.9155 8.9004 27.9155 9.79408V13.089C27.9155 14.8944 29.3779 16.3658 31.1743 16.3658H35.3538C35.5163 16.3658 35.6607 16.2755 35.7239 16.1311C36.1663 15.2464 36.1663 14.2083 35.7239 13.3237H35.733ZM8.3809 13.089V9.79408C8.3809 8.9004 9.10307 8.17823 9.98772 8.17823H13.2645C13.6937 8.17705 14.1184 8.09135 14.5144 7.92603C14.9104 7.76072 15.27 7.51902 15.5726 7.21474C15.8752 6.91045 16.1149 6.54955 16.278 6.15263C16.4412 5.7557 16.5245 5.33054 16.5233 4.9014H9.96064C7.28862 4.9014 5.13115 7.07693 5.13115 9.75797V16.3477C5.56028 16.3466 5.98498 16.2609 6.381 16.0955C6.77701 15.9302 7.13659 15.6885 7.4392 15.3842C7.7418 15.08 7.98151 14.7191 8.14464 14.3221C8.30776 13.9252 8.39111 13.5 8.38993 13.0709L8.3809 13.089ZM46.8272 9.50521C46.8272 8.75597 47.0349 8.16018 47.4501 7.71785C47.8654 7.27552 48.3889 7.05887 49.0389 7.05887C49.6076 7.05887 50.077 7.21234 50.4471 7.52828C50.8172 7.84423 51.1241 8.27753 51.3498 8.82818L56.8924 22.0438C57.1723 22.6848 57.4792 23.5423 57.8312 24.6256H57.9667C58.2916 23.5694 58.5895 22.7118 58.8603 22.0438L64.3759 8.82818C64.6016 8.28656 64.9085 7.86229 65.2876 7.53731C65.6668 7.22136 66.1362 7.05887 66.7049 7.05887C67.3458 7.05887 67.8784 7.27552 68.2846 7.71785C68.6908 8.16018 68.8984 8.74694 68.8984 9.50521V28.8051H65.8292V12.2133H65.6938C65.2876 13.4862 64.8994 14.5514 64.5293 15.418L59.3388 27.7941C59.1673 28.2274 58.9596 28.5343 58.7159 28.7329C58.4722 28.9315 58.1923 29.0218 57.8854 29.0218C57.5785 29.0218 57.2806 28.9225 57.0278 28.7239C56.7751 28.5253 56.5675 28.2184 56.3959 27.7941L51.1963 15.3728C50.8262 14.4882 50.4381 13.423 50.0319 12.1772H49.8964V28.7961H46.8272V9.50521ZM78.756 29.1752C77.1131 29.1752 75.7049 28.8954 74.5313 28.3267C73.3931 27.7982 72.44 26.9395 71.7961 25.8623C71.1462 24.779 70.7851 23.4882 70.6948 21.9626H74.0168C74.0619 22.8111 74.2696 23.5604 74.6216 24.2103C74.9737 24.8603 75.4972 25.3748 76.1833 25.754C76.8784 26.1331 77.745 26.3227 78.7831 26.3227C79.6858 26.3227 80.4621 26.1963 81.1121 25.9435C81.753 25.6908 82.2585 25.3116 82.6106 24.8061C82.9626 24.3006 83.1432 23.7048 83.1432 23.0007C83.1432 22.2515 82.9807 21.6376 82.6467 21.1682C82.3127 20.6898 81.8162 20.3197 81.1482 20.0398C80.4802 19.76 79.6046 19.5253 78.5123 19.3176C76.8964 19.0378 75.5695 18.6677 74.5404 18.2163C73.5113 17.765 72.735 17.1421 72.2024 16.3568C71.6698 15.5714 71.408 14.5694 71.408 13.3508C71.408 12.0147 71.6968 10.8593 72.2655 9.88435C72.8343 8.90943 73.6647 8.16018 74.748 7.62758C75.8312 7.09498 77.1311 6.8332 78.6567 6.8332C80.1823 6.8332 81.5634 7.10401 82.6738 7.65466C83.7841 8.20531 84.6326 8.98164 85.2375 9.98365C85.8423 10.9857 86.1943 12.1772 86.3027 13.5403H82.9807C82.9265 12.773 82.737 12.096 82.3939 11.5183C82.0509 10.9405 81.5544 10.4892 80.9135 10.1642C80.2635 9.83922 79.4872 9.67673 78.5755 9.67673C77.763 9.67673 77.0589 9.81213 76.4541 10.0829C75.8583 10.3538 75.407 10.7419 75.1 11.2474C74.7931 11.753 74.6397 12.3578 74.6397 13.0438C74.6397 13.6577 74.7841 14.1542 75.073 14.5514C75.3618 14.9485 75.8132 15.2735 76.4361 15.5263C77.0589 15.779 77.8984 16.0228 78.9636 16.2394C80.6788 16.5554 82.078 16.9526 83.1612 17.4129C84.2355 17.8733 85.0659 18.5233 85.6437 19.3628C86.2214 20.1933 86.5103 21.2946 86.5103 22.6667C86.5103 24.7249 86.2034 25.2394 85.5805 26.2143C84.9576 27.1893 84.073 27.9295 82.9085 28.426C81.753 28.9225 80.3809 29.1752 78.7831 29.1752H78.756ZM99.9787 34.6276V26.0248H99.7981C99.4371 26.7108 98.9947 27.2886 98.4712 27.758C97.9476 28.2184 97.3518 28.5704 96.6928 28.7961C96.0338 29.0218 95.3388 29.1391 94.6256 29.1391C93.3979 29.1391 92.2786 28.8141 91.2856 28.1732C90.2926 27.5323 89.5073 26.5935 88.9386 25.3748C88.3699 24.1471 88.081 22.7028 88.081 21.0238C88.081 19.3447 88.3608 17.9365 88.9115 16.6908C89.4712 15.4541 90.2385 14.4972 91.2314 13.8202C92.2244 13.1431 93.3528 12.8091 94.6347 12.8091C95.429 12.8091 96.1512 12.9355 96.8011 13.1883C97.4511 13.441 98.0288 13.8021 98.5343 14.2715C99.0399 14.7319 99.4551 15.2916 99.7981 15.9415H99.9787V13.1702H103.075V34.6276H99.9787ZM95.6367 26.422C96.5123 26.422 97.2796 26.2053 97.9386 25.763C98.5975 25.3207 99.1121 24.6978 99.4732 23.8763C99.8343 23.0549 100.015 22.107 100.015 21.0147C100.015 19.9225 99.8343 18.9836 99.4822 18.1712C99.1211 17.3497 98.6156 16.7179 97.9566 16.2575C97.2976 15.8061 96.5213 15.5714 95.6276 15.5714C94.734 15.5714 94.0118 15.7881 93.3348 16.2304C92.6667 16.6727 92.1432 17.2956 91.7821 18.108C91.412 18.9205 91.2314 19.8864 91.2314 20.9877C91.2314 22.089 91.421 23.0639 91.8001 23.8763C92.1793 24.6978 92.7029 25.3207 93.3618 25.754C94.0298 26.1873 94.7881 26.4039 95.6457 26.4039L95.6367 26.422ZM118.385 13.1612V28.8051H115.298V25.9887H115.117C114.738 26.9997 114.142 27.776 113.312 28.3267C112.481 28.8773 111.488 29.1481 110.315 29.1481C109.141 29.1481 108.184 28.8954 107.372 28.3899C106.559 27.8844 105.955 27.1712 105.548 26.2505C105.142 25.3297 104.935 24.2464 104.935 23.0007V13.1612H108.031V22.5132C108.031 23.759 108.329 24.7249 108.915 25.4019C109.502 26.0789 110.333 26.422 111.38 26.422C112.174 26.422 112.869 26.2324 113.456 25.8623C114.043 25.4922 114.503 24.9776 114.81 24.3457C115.126 23.7048 115.28 22.9917 115.28 22.2063V13.1702H118.367L118.385 13.1612ZM124.731 29.085C123.774 29.085 122.926 28.8954 122.185 28.5162C121.075 27.9475 120.867 27.5955 120.47 26.8914C120.073 26.1873 119.874 25.3748 119.874 24.4541C119.874 23.109 120.299 22.0619 121.147 21.3397C121.996 20.6085 123.187 20.1211 124.731 19.8683L128.333 19.3267C128.703 19.2906 128.983 19.2184 129.19 19.1281C129.389 19.0378 129.551 18.9024 129.651 18.7309C129.759 18.5594 129.804 18.3337 129.804 18.0629C129.804 17.5574 129.669 17.097 129.398 16.6998C129.127 16.3026 128.748 15.9867 128.261 15.761C127.773 15.5353 127.186 15.427 126.527 15.427C125.868 15.427 125.3 15.5353 124.812 15.761C124.325 15.9776 123.946 16.2936 123.666 16.6998C123.386 17.106 123.223 17.5845 123.178 18.1441H120.181C120.281 17.0519 120.597 16.113 121.12 15.3006C121.644 14.4972 122.375 13.8833 123.305 13.45C124.234 13.0167 125.327 12.8091 126.591 12.8091C127.854 12.8091 128.965 13.0258 129.894 13.4591C130.833 13.8924 131.546 14.5152 132.052 15.3187C132.557 16.1221 132.81 17.0609 132.81 18.1261V25.5734C132.81 25.7901 132.855 25.9435 132.946 26.0338C133.036 26.115 133.18 26.1602 133.379 26.1602H134.363V28.7961H132.828C131.799 28.7961 131.05 28.5614 130.553 28.101C130.066 27.6406 129.813 26.9726 129.813 26.115V25.9977H129.651C129.226 26.9726 128.585 27.7399 127.737 28.2725C126.888 28.8141 125.886 29.085 124.731 29.085ZM125.634 26.6115C126.518 26.6115 127.277 26.3949 127.908 25.9526C128.54 25.5102 129.019 24.9325 129.335 24.2013C129.651 23.4701 129.813 22.6848 129.813 21.8362V21.114C129.651 21.2224 129.461 21.3126 129.235 21.3939C129.01 21.4661 128.73 21.5383 128.396 21.5925L125.119 22.098C124.451 22.1973 123.918 22.423 123.521 22.784C123.124 23.1361 122.926 23.6416 122.926 24.3006C122.926 24.77 123.034 25.1762 123.25 25.5193C123.467 25.8623 123.783 26.1331 124.198 26.3227C124.614 26.5122 125.092 26.6115 125.634 26.6115ZM135.807 28.7961V13.1612H138.894V16.4109H139.075C139.373 15.3096 139.905 14.4972 140.682 13.9646C141.449 13.432 142.343 13.1702 143.354 13.1702H144.266V16.1943H143.354C142.46 16.1943 141.675 16.3748 141.007 16.7449C140.339 17.115 139.815 17.6386 139.445 18.3247C139.075 19.0107 138.894 19.8051 138.894 20.6988V28.7871H135.807V28.7961ZM152.264 29.1481C150.702 29.1481 149.357 28.8051 148.219 28.1191C147.091 27.433 146.224 26.4671 145.629 25.2304C145.033 23.9937 144.735 22.5764 144.735 20.9877C144.735 19.3989 145.051 17.9004 145.665 16.6637C146.288 15.427 147.163 14.4791 148.292 13.8202C149.429 13.1522 150.738 12.8272 152.227 12.8272C153.717 12.8272 154.917 13.1612 155.983 13.8202C157.048 14.4791 157.86 15.3909 158.42 16.5554C158.98 17.7199 159.26 19.0378 159.26 20.5002V21.1863C159.26 21.439 159.241 21.6827 159.205 21.9175H147.696C147.786 22.8924 148.021 23.7319 148.409 24.418C148.797 25.104 149.321 25.6276 149.98 25.9706C150.639 26.3136 151.424 26.4852 152.327 26.4852C152.968 26.4852 153.545 26.3859 154.06 26.1963C154.583 25.9977 155.017 25.7179 155.36 25.3387C155.712 24.9596 155.965 24.5082 156.118 23.9756H159.124C158.926 25.0318 158.51 25.9526 157.878 26.7289C157.246 27.5052 156.443 28.11 155.468 28.5253C154.493 28.9495 153.419 29.1572 152.236 29.1572L152.264 29.1481ZM156.244 19.4801C156.199 18.6316 156.01 17.8823 155.676 17.2324C155.351 16.5824 154.881 16.086 154.286 15.7429C153.681 15.3999 152.977 15.2284 152.173 15.2284C150.968 15.2284 150.711 15.3818 150.088 15.6797C149.465 15.9776 148.951 16.447 148.544 17.0789C148.138 17.7108 147.867 18.5142 147.732 19.4801H156.244ZM167.258 29.1481C166.048 29.1481 164.947 28.8232 163.954 28.1822C162.961 27.5413 162.184 26.6025 161.616 25.3839C161.047 24.1562 160.758 22.7118 160.758 21.0328C160.758 19.3538 161.038 17.9455 161.598 16.6998C162.157 15.4631 162.934 14.5062 163.908 13.8292C164.883 13.1522 166.012 12.8182 167.267 12.8182C168.034 12.8182 168.747 12.9445 169.424 13.1973C170.092 13.45 170.688 13.8111 171.211 14.2805C171.735 14.7409 172.15 15.2916 172.475 15.9054H172.656V7.25747H175.752V28.8051H172.656V26.0789H172.475C172.141 26.7379 171.699 27.2976 171.166 27.758C170.634 28.2184 170.02 28.5614 169.352 28.7961C168.675 29.0308 167.98 29.1481 167.267 29.1481H167.258ZM168.314 26.422C169.189 26.422 169.957 26.2053 170.616 25.763C171.275 25.3207 171.789 24.6978 172.15 23.8763C172.511 23.0549 172.692 22.107 172.692 21.0147C172.692 19.9225 172.511 18.9836 172.159 18.1712C171.798 17.3497 171.293 16.7179 170.634 16.2575C169.975 15.8061 169.198 15.5714 168.305 15.5714C167.411 15.5714 166.689 15.7881 166.021 16.2304C165.353 16.6727 164.829 17.2956 164.459 18.108C164.089 18.9205 163.908 19.8864 163.908 20.9877C163.908 22.089 164.098 23.0639 164.477 23.8763C164.856 24.6978 165.38 25.3207 166.039 25.754C166.707 26.1873 167.465 26.4039 168.323 26.4039L168.314 26.422Z" fill="black"/>
</g>
<defs>
<clipPath id="clip0_2875_1763">
<rect width="175.505" height="36" fill="white" transform="translate(0.247803)"/>
</clipPath>
</defs>
</svg>
