<svg width="104" height="40" viewBox="0 0 104 40" fill="none" xmlns="http://www.w3.org/2000/svg">
<g id="MML" clip-path="url(#clip0_2875_1766)">
<path id="Vector" d="M60.6666 11.1108V25.3331H72.6666V28.8886H57.111V11.1108H60.6666Z" fill="black"/>
<path id="Vector_2" d="M39.3333 11.1108L44.6667 18.3331L50 11.1108H53.5555V28.8886H50V17.1108L44.6667 24.222L39.3333 17.1108V28.8886H35.7778V11.1108H39.3333Z" fill="black"/>
<path id="Vector_3" d="M18 11.1108L23.3333 18.3331L28.6667 11.1108H32.2222V28.8886H28.6667V17.1108L23.3333 24.222L18 17.1108V28.8886H14.4445V11.1108H18Z" fill="black"/>
<path id="Vector_4" d="M11.396 2.44434L13.396 5.90845L5.0792 19.9478L13.0792 33.8041L11 37.3139L1 19.9935L11.396 2.44434Z" fill="black"/>
<path id="Vector_5" d="M86.3603 10.3642L88.3998 10.3413L89.3998 12.0734L79.0038 29.6224L76.9643 29.6453L75.9647 27.914L86.3603 10.3642Z" fill="black"/>
<path id="Vector_6" d="M93.0781 2.44434L95.0781 5.90845L103.078 19.7648L92.6821 37.3139L90.6821 33.8499L98.999 19.8106L90.999 5.95416L93.0781 2.44434Z" fill="black"/>
</g>
<defs>
<clipPath id="clip0_2875_1766">
<rect width="102.222" height="40" fill="white" transform="translate(0.888916)"/>
</clipPath>
</defs>
</svg>
