<svg width="174" height="28" viewBox="0 0 174 28" fill="none" xmlns="http://www.w3.org/2000/svg">
<g id="Thirdweb" clip-path="url(#clip0_2875_1774)">
<path id="Vector" fill-rule="evenodd" clip-rule="evenodd" d="M83.3223 2.68262C81.9475 2.68262 80.8202 3.79609 80.8202 5.21577C80.8202 6.60762 81.9475 7.72109 83.3223 7.72109C84.6972 7.72109 85.8248 6.60762 85.8248 5.21577C85.8248 3.79609 84.6972 2.68262 83.3223 2.68262ZM85.522 9.00151H81.1501V24.0056H85.522V9.00151ZM55.6334 3.2394H59.8952V9.00162H63.1673V13.0101H59.8952V18.2991C59.8952 19.0786 60.5004 19.691 61.2425 19.691H63.1398V23.95H61.2425C58.163 23.95 55.6334 21.4169 55.6334 18.2713V12.9823H53.6537V8.97379H55.6334V3.2394ZM73.5884 8.66758C71.6087 8.66758 70.0417 9.50268 69.4365 10.811V3.2394H65.0645V23.9778H69.4365V15.5711C69.4365 13.8174 70.5638 12.5926 72.1587 12.5926C73.781 12.5926 74.6886 13.6504 74.6886 15.4319V24.0057H79.0606V14.8752C79.0606 10.9781 77.0806 8.66758 73.5884 8.66758ZM91.7638 8.97372V11.0336C92.4236 9.53043 94.0184 8.66751 96.0256 8.63968C96.328 8.63968 96.7132 8.66751 97.1803 8.72317V12.8987C96.7406 12.8152 96.2456 12.7595 95.7231 12.7595C93.221 12.7595 91.7638 14.1792 91.7638 16.6567V23.9778H87.3919V8.97372H91.7638ZM109.471 10.9502C109.032 9.64187 107.299 8.72328 105.072 8.72328C102.982 8.72328 101.222 9.47485 99.8201 10.9781C98.4453 12.4534 97.7303 14.3185 97.7303 16.4898C97.7303 18.661 98.4453 20.4982 99.8201 22.0293C101.222 23.5046 102.982 24.2562 105.072 24.2562C107.299 24.2562 109.032 23.3376 109.471 22.0293V24.0057H113.843V3.2394H109.471V10.9502ZM108.592 19.1621C107.849 19.8858 106.942 20.2199 105.869 20.2199C104.824 20.2199 103.917 19.858 103.202 19.1621C102.46 18.4105 102.102 17.5197 102.102 16.4898C102.102 15.4598 102.46 14.569 103.202 13.8452C103.945 13.0936 104.824 12.7318 105.869 12.7318C106.969 12.7318 107.876 13.0936 108.592 13.8452C109.361 14.569 109.746 15.4598 109.746 16.4898C109.746 17.5197 109.361 18.4105 108.592 19.1621ZM126.465 9.05717L130.424 16.1834L133.091 9.00151H137.381L131.277 24.8685L126.465 16.2391L121.653 24.8685L115.576 9.00151H119.866L122.505 16.1834L126.465 9.05717ZM144.585 8.63968C142.33 8.63968 140.433 9.36341 138.948 10.8109C137.49 12.2306 136.748 14.1235 136.748 16.4618V16.601C136.748 18.9393 137.49 20.8322 138.948 22.2519C140.46 23.6437 142.385 24.3675 144.805 24.3675C147.059 24.3675 148.902 23.9221 150.304 23.0035V19.1341C148.929 20.1084 147.169 20.5817 145.052 20.5817C142.742 20.5817 141.23 19.4404 141.147 17.6588H152.009C152.064 17.2134 152.091 16.7124 152.091 16.2113C152.091 14.0678 151.376 12.2863 150.002 10.8388C148.627 9.36341 146.784 8.63968 144.585 8.63968ZM141.147 14.7916C141.175 14.0957 141.533 13.5111 142.192 13.0379C142.88 12.5646 143.65 12.3141 144.585 12.3141C146.317 12.3141 147.664 13.4554 147.664 14.7916H141.147ZM162.513 8.72324C164.602 8.72324 166.362 9.47485 167.737 10.9781C169.139 12.4812 169.854 14.2906 169.854 16.4619C169.854 18.6332 169.139 20.4704 167.737 22.0014C166.362 23.4768 164.602 24.2284 162.513 24.2284C160.285 24.2284 158.553 23.3098 158.113 22.0014V23.9778H153.741V3.2394H158.113V10.9502C158.553 9.64187 160.285 8.72324 162.513 8.72324ZM161.715 20.2199C162.76 20.2199 163.64 19.8858 164.382 19.1621C165.124 18.4105 165.482 17.5197 165.482 16.4898C165.482 15.4598 165.124 14.569 164.382 13.8452C163.667 13.0936 162.76 12.7318 161.715 12.7318C160.643 12.7318 159.735 13.0936 158.965 13.8452C158.223 14.569 157.838 15.4598 157.838 16.4898C157.838 17.5197 158.223 18.4105 158.965 19.1621C159.708 19.858 160.615 20.2199 161.715 20.2199Z" fill="black"/>
<path id="Vector_2" d="M24.3617 0.0854492C24.6377 0.14282 24.8982 0.258813 25.1257 0.42561C25.3804 0.627268 25.5755 0.894587 25.6901 1.1989C26.4134 3.00872 27.1368 4.81742 27.8601 6.62506C28.6606 8.63541 29.4651 10.6461 30.2736 12.6572C30.695 13.7116 31.1141 14.7671 31.542 15.8193C31.633 16.0345 31.6799 16.2658 31.6799 16.4996C31.6799 16.7333 31.633 16.9647 31.542 17.1799L27.8656 26.3511C27.6222 26.9581 27.1812 27.3355 26.5328 27.4339C25.7261 27.5553 25.0046 27.1572 24.7131 26.4495C24.0232 24.7531 23.3487 23.0512 22.6686 21.3504L19.2105 12.6987C18.1866 10.1313 17.1612 7.56461 16.1344 4.99865C15.7939 4.1466 15.4642 3.29018 15.1083 2.4447C15.0103 2.21481 14.964 1.96614 14.9726 1.71631C14.9812 1.46648 15.0444 1.22159 15.158 0.998992C15.2715 0.77639 15.4325 0.581522 15.6295 0.428192C15.8265 0.274859 16.0548 0.166811 16.2982 0.1117C16.3276 0.105137 16.356 0.0941994 16.3844 0.0854492H24.3617Z" fill="black"/>
<path id="Vector_3" d="M10.0342 0.0854492C10.1248 0.110606 10.2154 0.132481 10.3038 0.163107C10.534 0.235043 10.7452 0.357766 10.9218 0.522251C11.0985 0.68674 11.236 0.888806 11.3245 1.11359C12.114 3.07361 12.9 5.03509 13.6823 6.99806C14.474 8.97701 15.2658 10.9564 16.0575 12.9361C16.4447 13.9066 16.8336 14.8768 17.2244 15.8466C17.3119 16.0543 17.357 16.2774 17.357 16.5028C17.357 16.7283 17.3119 16.9514 17.2244 17.1591C16.7878 18.2485 16.3512 19.3375 15.9145 20.4262C15.114 22.419 14.3135 24.4119 13.5131 26.4047C13.3874 26.715 13.1725 26.9809 12.8958 27.1686C12.619 27.3563 12.2929 27.4574 11.9586 27.4591C11.6046 27.4653 11.2573 27.3619 10.9642 27.1627C10.6711 26.9636 10.4465 26.6786 10.3213 26.3467C9.5812 24.4687 8.82585 22.5962 8.07703 20.7215C7.0735 18.1832 6.06489 15.6468 5.05117 13.1122C4.01927 10.5324 2.98773 7.95215 1.95655 5.37162C1.56577 4.39489 1.17826 3.41596 0.782018 2.44032C0.608892 2.03381 0.600497 1.57573 0.758609 1.16312C0.91672 0.750512 1.22892 0.415776 1.62908 0.229826C1.77425 0.171039 1.92346 0.122789 2.07554 0.0854492H10.0342Z" fill="black"/>
<path id="Vector_4" d="M45.7288 16.7659C45.5106 17.5042 45.1833 18.2009 44.9046 18.9129C44.0994 20.9386 43.2893 22.9631 42.4748 24.9866C42.2882 25.4504 42.0982 25.913 41.9171 26.379C41.7895 26.6973 41.5694 26.9701 41.2856 27.1618C41.0017 27.3535 40.667 27.4555 40.3245 27.4544C39.982 27.4533 39.648 27.3493 39.3653 27.1558C39.0825 26.9624 38.8639 26.6883 38.7385 26.3691L35.2039 17.5293L32.1475 9.89374C31.1498 7.4007 30.1529 4.908 29.1566 2.41568C29.0619 2.18779 29.0182 1.94185 29.0287 1.69521C29.0391 1.44857 29.1035 1.20723 29.2171 0.988207C29.3308 0.769186 29.491 0.577818 29.6865 0.427594C29.882 0.27737 30.1081 0.171951 30.3486 0.11877C30.3814 0.111114 30.413 0.100176 30.4458 0.090332H38.4231C38.448 0.0979883 38.4721 0.107832 38.4973 0.113301C38.7771 0.171805 39.0376 0.300109 39.2547 0.48633C39.4718 0.672552 39.6387 0.910668 39.7393 1.17863C40.2039 2.34531 40.6688 3.50871 41.1345 4.66884C42.3535 7.71533 43.5713 10.7618 44.7881 13.8083C45.108 14.6112 45.4638 15.3998 45.7258 16.2245L45.7288 16.7659Z" fill="black"/>
</g>
<defs>
<clipPath id="clip0_2875_1774">
<rect width="172.919" height="28" fill="white" transform="translate(0.540527)"/>
</clipPath>
</defs>
</svg>
