<svg width="196" height="80" viewBox="0 0 196 80" fill="none" xmlns="http://www.w3.org/2000/svg">
<g clip-path="url(#clip0_2875_1687)">
<mask id="mask0_2875_1687" style="mask-type:luminance" maskUnits="userSpaceOnUse" x="13" y="24" width="40" height="32">
<path d="M52.9846 24H13.88V55.3696H52.9846V24Z" fill="white"/>
</mask>
<g mask="url(#mask0_2875_1687)">
<path d="M13.88 30.6661V48.7036C13.88 52.3851 16.8563 55.3697 20.5278 55.3697H46.3368C50.0083 55.3697 52.9846 52.3851 52.9846 48.7036V30.6661C52.9846 26.9845 50.0083 24 46.3368 24H20.5278C16.8563 24 13.88 26.9845 13.88 30.6661Z" fill="black"/>
<path d="M13.88 30.6661V48.7036C13.88 52.3851 16.8563 55.3697 20.5278 55.3697H46.3368C50.0083 55.3697 52.9846 52.3851 52.9846 48.7036V30.6661C52.9846 26.9845 50.0083 24 46.3368 24H20.5278C16.8563 24 13.88 26.9845 13.88 30.6661Z" fill="black"/>
<path d="M23.6561 31.8425C23.6561 30.7596 22.7807 29.8818 21.7008 29.8818C20.621 29.8818 19.7456 30.7596 19.7456 31.8425C19.7456 32.9253 20.621 33.8031 21.7008 33.8031C22.7807 33.8031 23.6561 32.9253 23.6561 31.8425Z" fill="#BFBFBF"/>
<path d="M23.6561 31.8425C23.6561 30.7596 22.7807 29.8818 21.7008 29.8818C20.621 29.8818 19.7456 30.7596 19.7456 31.8425C19.7456 32.9253 20.621 33.8031 21.7008 33.8031C22.7807 33.8031 23.6561 32.9253 23.6561 31.8425Z" fill="#BFBFBF"/>
<path d="M23.6561 31.8425C23.6561 30.7596 22.7807 29.8818 21.7008 29.8818C20.621 29.8818 19.7456 30.7596 19.7456 31.8425C19.7456 32.9253 20.621 33.8031 21.7008 33.8031C22.7807 33.8031 23.6561 32.9253 23.6561 31.8425Z" fill="#BFBFBF"/>
<path d="M23.6561 47.5154C23.6561 46.4325 22.7807 45.5547 21.7008 45.5547C20.621 45.5547 19.7456 46.4325 19.7456 47.5154C19.7456 48.5981 20.621 49.476 21.7008 49.476C22.7807 49.476 23.6561 48.5981 23.6561 47.5154Z" fill="#BFBFBF"/>
<path d="M47.119 39.6853C47.119 38.6024 46.2436 37.7246 45.1638 37.7246C44.0838 37.7246 43.2084 38.6024 43.2084 39.6853C43.2084 40.7681 44.0838 41.6459 45.1638 41.6459C46.2436 41.6459 47.119 40.7681 47.119 39.6853Z" fill="#BFBFBF"/>
<path d="M47.119 39.6853C47.119 38.6024 46.2436 37.7246 45.1638 37.7246C44.0838 37.7246 43.2084 38.6024 43.2084 39.6853C43.2084 40.7681 44.0838 41.6459 45.1638 41.6459C46.2436 41.6459 47.119 40.7681 47.119 39.6853Z" fill="#BFBFBF"/>
<path d="M45.1638 29.8818H29.5219C28.442 29.8818 27.5666 30.7596 27.5666 31.8425C27.5666 32.9253 28.442 33.8031 29.5219 33.8031H45.1638C46.2436 33.8031 47.119 32.9253 47.119 31.8425C47.119 30.7596 46.2436 29.8818 45.1638 29.8818Z" fill="#BFBFBF"/>
<path d="M45.1638 45.5547H29.5219C28.442 45.5547 27.5666 46.4325 27.5666 47.5154C27.5666 48.5981 28.442 49.476 29.5219 49.476H45.1638C46.2436 49.476 47.119 48.5981 47.119 47.5154C47.119 46.4325 46.2436 45.5547 45.1638 45.5547Z" fill="#BFBFBF"/>
<path d="M37.3426 37.7246H21.7008C20.621 37.7246 19.7456 38.6024 19.7456 39.6853C19.7456 40.7681 20.621 41.6459 21.7008 41.6459H37.3426C38.4226 41.6459 39.298 40.7681 39.298 39.6853C39.298 38.6024 38.4226 37.7246 37.3426 37.7246Z" fill="#BFBFBF"/>
</g>
</g>
<g clip-path="url(#clip1_2875_1687)">
<path d="M69.198 47.062C73.0083 47.062 75.6937 44.8881 75.6937 41.5605C75.7206 38.6895 73.995 37.025 71.1166 35.9788L69.143 35.2541C67.1426 34.5295 66.1827 33.9125 66.1827 32.5171C66.1827 31.1217 67.6079 30.317 69.2529 30.317C70.788 30.317 71.9665 30.934 72.9533 32.0879L75.1735 29.9678C73.7483 28.2771 71.693 27.3647 69.281 27.3647C65.6625 27.3647 62.9501 29.4047 62.9501 32.7324C62.9501 35.3355 64.4571 36.9987 67.5542 38.1L69.6926 38.8509C71.5562 39.5217 72.4611 40.3803 72.4611 41.7494C72.4611 43.1711 71.1459 44.1108 69.3091 44.1108C67.4174 44.1108 65.8005 43.1986 64.7869 41.6693L62.265 43.6278C63.4142 45.6928 66.0728 47.062 69.198 47.062ZM84.4219 47.0081C87.3004 47.0081 89.4376 45.8268 90.671 43.8957L88.369 42.2851C87.6289 43.4664 86.3955 44.325 84.4501 44.325C82.148 44.325 80.3662 42.9032 80.2294 40.6756H91.0007C91.0276 40.2463 91.0276 40.0047 91.0276 39.7094C91.0276 35.3893 88.0405 33.054 84.4219 33.054C80.2563 33.054 77.268 36.0864 77.268 40.0311C77.268 44.1361 80.2551 47.0081 84.4219 47.0081ZM80.3649 38.5281C80.8035 36.542 82.5303 35.5495 84.3121 35.5495C86.0658 35.5495 87.6558 36.5958 87.9843 38.5281H80.3649ZM106.69 52.3483V33.3219H103.675V35.1202C102.908 34.0465 101.263 33.054 99.2894 33.054C95.534 33.054 92.6837 36.194 92.6837 40.0311C92.6837 43.8682 95.534 47.0081 99.2894 47.0081C101.263 47.0081 102.908 46.0157 103.675 44.942V52.3483H106.69ZM99.8377 44.3237C97.4257 44.3237 95.7539 42.4453 95.7539 40.0298C95.7539 37.6145 97.4257 35.736 99.8377 35.736C102.25 35.736 103.921 37.6145 103.921 40.0298C103.921 42.4453 102.25 44.3237 99.8377 44.3237ZM114.491 47.0081C116.245 47.0081 117.698 46.2835 118.493 44.9144V46.7391H121.508V33.3219H118.493V39.9235C118.493 42.8219 117.123 44.325 115.15 44.325C113.396 44.325 112.409 43.0097 112.409 40.8634V33.3219H109.394V41.3464C109.394 44.7805 111.339 47.0081 114.491 47.0081ZM130.938 47.0081C133.816 47.0081 135.953 45.8268 137.187 43.8957L134.885 42.2851C134.145 43.4664 132.911 44.325 130.966 44.325C128.664 44.325 126.882 42.9032 126.745 40.6756H137.517C137.543 40.2463 137.543 40.0047 137.543 39.7094C137.543 35.3893 134.556 33.054 130.938 33.054C126.772 33.054 123.784 36.0864 123.784 40.0311C123.784 44.1361 126.771 47.0081 130.938 47.0081ZM126.881 38.5281C127.319 36.542 129.046 35.5495 130.828 35.5495C132.582 35.5495 134.172 36.5958 134.5 38.5281H126.881ZM139.82 46.7391H142.835V40.1375C142.835 37.2391 144.37 35.736 146.371 35.736C148.124 35.736 149.221 36.9975 149.221 39.1438V46.7379H152.236V38.6608C152.236 35.253 150.181 33.0516 147.001 33.0516C145.219 33.0516 143.684 33.7762 142.835 35.1453V33.3219H139.82V46.7391ZM161.52 47.0081C164.37 47.0081 166.727 45.5589 167.906 43.305L165.274 41.9095C164.616 43.2787 163.274 44.2711 161.519 44.2711C159.08 44.2711 157.353 42.4189 157.353 40.0311C157.353 37.6432 159.08 35.791 161.519 35.791C163.272 35.791 164.616 36.7835 165.274 38.1526L167.906 36.7572C166.727 34.5032 164.37 33.054 161.52 33.054C157.409 33.054 154.284 36.0601 154.284 40.0311C154.284 44.0021 157.409 47.0081 161.52 47.0081ZM176.034 47.0081C178.913 47.0081 181.05 45.8268 182.284 43.8957L179.981 42.2851C179.241 43.4664 178.008 44.325 176.062 44.325C173.759 44.325 171.979 42.9032 171.841 40.6756H182.613C182.64 40.2463 182.64 40.0047 182.64 39.7094C182.64 35.3893 179.653 33.054 176.034 33.054C171.868 33.054 168.88 36.0864 168.88 40.0311C168.88 44.1361 171.868 47.0081 176.034 47.0081ZM171.977 38.5281C172.416 36.542 174.143 35.5495 175.924 35.5495C177.678 35.5495 179.268 36.5958 179.597 38.5281H171.977Z" fill="black"/>
</g>
<defs>
<clipPath id="clip0_2875_1687">
<rect width="40" height="32" fill="white" transform="translate(13.36 24)"/>
</clipPath>
<clipPath id="clip1_2875_1687">
<rect width="121.6" height="26.88" fill="white" transform="translate(61.04 26.5601)"/>
</clipPath>
</defs>
</svg>
