<svg width="196" height="80" viewBox="0 0 196 80" fill="none" xmlns="http://www.w3.org/2000/svg">
<g clip-path="url(#clip0_2875_1701)">
<path d="M67.1687 30.2106L56.9922 24.8155C55.7426 24.1516 54.253 24.1516 53.0032 24.8099L42.7208 30.2273C41.1698 31.159 39.7192 32.2581 39.6578 35.4606V38.0436H43.6581V34.5121L55.0005 28.4643L66.2593 34.5121V38.0436H70.2595V35.4606C70.1926 32.2414 68.7308 31.1479 67.1687 30.2106Z" fill="black"/>
<path d="M66.2537 46.0892L56.9978 51.2721V47.0878C60.2506 46.3235 62.393 43.6733 62.393 40.1306C62.393 35.8346 59.4247 32.9502 55.0005 32.9502C50.5762 32.9502 47.6081 35.8346 47.6081 40.1306C47.6081 43.6789 49.745 46.3235 53.0032 47.0878V51.2777L43.6637 46.0892V42.2283H39.6578V44.8059C39.7248 48.0027 41.1698 49.1074 42.7208 50.0392L53.0032 55.4565C54.253 56.1149 55.7482 56.1149 56.9922 55.451L67.1631 50.0558C68.7252 49.1242 70.1926 48.0251 70.2539 44.8059V42.2283H66.2537V46.0892ZM51.3239 40.1306C51.3239 37.7761 52.6293 36.4818 55.0005 36.4818C57.3716 36.4818 58.6772 37.7761 58.6772 40.1306C58.6772 42.4124 57.3047 43.7794 55.0005 43.7794C52.6963 43.7794 51.3239 42.418 51.3239 40.1306Z" fill="black"/>
<path d="M140.222 31.4436H134.648L127.485 38.7857V27.8228H122.888V50.0222H127.485V44.4654L129.85 42.0441L136.088 50.0222H141.249L132.718 39.115L140.222 31.4436Z" fill="black"/>
<path d="M155.214 30.9585C150.8 30.9585 148.463 32.7661 147.592 33.6365V31.4271H142.923V31.4383V50.0225H147.592V35.1038L156.078 35.0703L156.062 30.9585C155.799 30.9585 155.515 30.9585 155.214 30.9585Z" fill="black"/>
<path d="M112.555 30.9531C109.029 30.9531 106.814 33.235 106.652 33.4135V31.4274H101.982V31.4329V50.0227H106.652V34.6912C107.093 34.6912 109.715 34.6912 110.122 34.6912C110.301 34.6912 110.474 34.6967 110.641 34.7023C111.808 34.7414 112.695 34.9311 113.353 35.277C113.571 35.3997 113.771 35.5392 113.955 35.6898C114.943 36.5713 115.205 38.0722 115.205 40.3094C115.205 42.0278 115.205 50.0283 115.205 50.0283H119.802V38.9202C119.797 34.3174 117.688 30.9531 112.555 30.9531Z" fill="black"/>
<path d="M94.0324 33.9711C93.4577 33.1621 92.7826 32.5261 91.9904 32.0463C90.6124 31.3377 89.0502 30.936 87.3932 30.936C81.8866 30.936 77.4176 35.338 77.4176 40.761C77.4176 44.856 79.9617 48.3653 83.5771 49.8382C84.7542 50.318 86.043 50.5859 87.3932 50.5859C88.2412 50.5859 89.0669 50.4799 89.8535 50.2846C89.8759 50.279 89.8983 50.2734 89.9205 50.2678C90.0042 50.2456 90.0824 50.2232 90.1604 50.2008C90.5064 50.0949 90.8355 49.9777 91.1423 49.8382C92.5203 49.2301 93.4967 48.3151 94.0324 47.2829V50.0167H98.7022V31.4214H94.0324V33.9711ZM88.2022 46.7586C84.5645 46.7586 82.2101 44.3037 82.2101 40.7666C82.2101 37.0117 84.4976 34.7745 88.2022 34.7745C91.466 34.7745 94.1942 36.9447 94.1942 40.7666C94.1942 44.5101 91.371 46.7586 88.2022 46.7586Z" fill="black"/>
</g>
<defs>
<clipPath id="clip0_2875_1701">
<rect width="116.727" height="32" fill="white" transform="translate(39.6364 24)"/>
</clipPath>
</defs>
</svg>
