<svg width="114" height="52" viewBox="0 0 114 52" fill="none" xmlns="http://www.w3.org/2000/svg">
<g id="Dream Builder" clip-path="url(#clip0_4880_9011)">
<path id="Vector" d="M9.8086 23.6529H0.743121C0.259936 23.6529 0.00683594 23.4228 0.00683594 22.9857C0.00683594 22.5485 0.12188 22.5025 0.351968 22.3644C0.950198 22.0423 1.31834 21.5361 1.43339 20.8458V2.78384C1.31834 2.09357 0.950198 1.58737 0.351968 1.26525C0.12188 1.10418 0.00683594 0.897101 0.00683594 0.644002C0.00683594 0.206833 0.236926 -0.000244141 0.720111 -0.000244141C1.2033 -0.000244141 3.41214 -0.000244141 7.36966 -0.000244141H10.0387C12.0405 -0.000244141 13.7891 0.344888 15.3077 1.01215C16.8033 1.6794 18.0688 2.57676 19.0582 3.70419C20.0475 4.83163 20.8068 6.07411 21.29 7.45464C21.7732 8.83518 22.0263 10.2617 22.0263 11.7343V12.9308C22.0263 13.6901 21.7732 14.7715 21.267 16.175C20.7608 17.5786 20.0015 18.844 18.9661 19.9715C17.9537 21.0989 16.6652 21.9963 15.1467 22.6635C13.6281 23.3308 11.8334 23.6759 9.8086 23.6759V23.6529ZM9.39444 22.6865C10.4529 22.6865 11.3962 22.3874 12.2245 21.7662C13.8121 20.5467 14.9626 18.5679 15.6298 15.8069C15.975 14.4033 16.136 12.9078 16.136 11.3201C16.136 8.58208 15.6068 6.25818 14.5484 4.32543C13.3059 2.04755 11.5113 0.920112 9.16436 0.920112H7.39267V22.6865H9.41745H9.39444Z" fill="black"/>
<path id="Vector_2" d="M27.3415 23.6532H23.6601C23.1769 23.6532 22.9468 23.4231 22.9468 22.9859C22.9468 22.5487 23.0618 22.5027 23.2919 22.3647C23.591 22.2036 23.8211 22.0195 23.9822 21.7894C24.1662 21.5594 24.2813 21.2372 24.3733 20.8461V11.1363C24.3733 10.17 24.2813 9.47969 24.1202 9.08854C23.9592 8.69738 23.6601 8.39827 23.2919 8.19119C23.0618 8.05314 22.9698 7.84605 22.9698 7.54694C22.9698 7.13278 23.1999 6.9257 23.637 6.9257C25.5238 6.9257 27.4105 6.62658 29.2742 6.02835C29.3662 5.98233 29.4583 5.98233 29.5733 5.98233C29.8494 5.98233 30.0565 6.05136 30.1715 6.18941C30.2866 6.32747 30.3556 6.62658 30.3556 7.04075V7.91508C31.276 6.32747 32.8176 5.54517 35.0034 5.54517C37.1892 5.54517 36.476 5.72923 36.9592 6.07437C37.6494 6.60357 37.9946 7.31685 37.9946 8.16818C37.9946 9.01951 37.9255 8.7434 37.8105 9.13455C37.6954 9.5257 37.4193 9.89385 37.0052 10.239C36.591 10.5841 36.0388 10.7682 35.3946 10.7682C34.7503 10.7682 33.945 10.377 33.5999 9.57172C33.3928 9.08854 33.1857 8.7204 32.9556 8.42128C32.7255 8.14517 32.4264 7.9841 32.0813 7.9841C31.7361 7.9841 31.253 8.26021 30.9769 8.78942C30.7008 9.34163 30.5397 9.84783 30.4707 10.331C30.4016 10.8142 30.3556 11.3664 30.3556 11.9186V20.8231C30.4477 21.2372 30.5627 21.5364 30.7468 21.7664C30.9308 21.9965 31.1609 22.1806 31.437 22.3417C31.6901 22.4797 31.8052 22.7098 31.8052 23.0089C31.8052 23.308 31.5521 23.6302 31.0689 23.6302H27.3875L27.3415 23.6532Z" fill="black"/>
<path id="Vector_3" d="M46.4618 24.113C44.8972 24.113 43.4477 23.7909 42.1362 23.1466C40.8247 22.5024 39.7433 21.49 38.8689 20.1555C37.9256 18.5448 37.4424 16.8192 37.4424 14.9785C37.4424 13.1377 37.4424 14.4722 37.4884 14.1961C37.7185 11.5501 38.6618 9.4333 40.3875 7.86869C42.0902 6.28108 44.253 5.49878 46.899 5.49878C49.545 5.49878 49.7061 5.75188 50.7645 6.23507C51.7999 6.71825 52.6282 7.3625 53.2034 8.1448C53.8707 9.06516 54.2158 10.0776 54.2158 11.182C54.2158 12.2864 54.0318 12.6315 53.6636 13.3908C53.2955 14.1501 52.6742 14.8174 51.7769 15.4156C50.8795 16.0139 49.7291 16.405 48.3256 16.5891C47.8654 16.6581 47.3822 16.7041 46.853 16.7041C45.7946 16.7041 44.6211 16.5661 43.3556 16.29C43.5857 17.1183 43.9309 17.8546 44.4141 18.5218C44.8742 19.1891 45.4955 19.6953 46.2318 20.0864C46.968 20.4776 47.8654 20.6616 48.8778 20.6616C50.3964 20.6616 51.7999 20.2475 53.1114 19.3962C53.2495 19.3041 53.3645 19.2811 53.5025 19.2811C53.6406 19.2811 53.6866 19.3041 53.7556 19.3731C53.8937 19.4882 53.9627 19.6262 53.9627 19.7873C53.9627 19.9484 53.9397 19.9484 53.8937 20.0404C53.0424 21.3059 51.961 22.3183 50.6725 23.0316C49.384 23.7679 47.9804 24.136 46.4618 24.136V24.113ZM43.1026 15.1855C45.4725 15.1855 47.1981 14.4722 48.2795 13.0457C48.9698 12.0563 49.3149 10.8829 49.3149 9.50233C49.3149 8.12179 48.5557 6.60321 47.0141 6.53418C46.0477 6.5802 45.2424 7.01737 44.5521 7.8917C43.8849 8.76604 43.4477 9.70941 43.2406 10.6988C43.0335 11.7112 42.9415 12.5625 42.9415 13.2988C42.9415 14.0351 42.9875 14.5643 43.1026 15.1855Z" fill="black"/>
<path id="Vector_4" d="M68.7572 23.6532C68.1589 23.6532 67.6067 23.5382 67.1005 23.3311C66.5943 23.124 66.1802 22.7789 65.858 22.3187C65.5359 21.8585 65.3749 21.2603 65.3518 20.501C64.0864 22.5948 62.3147 23.6302 59.9908 23.6302C57.6669 23.6302 58.1501 23.4231 57.4138 22.9859C56.6775 22.5488 56.1023 21.9966 55.6881 21.2833C55.274 20.593 55.0669 19.8337 55.0669 19.0054C55.0669 18.1771 55.32 16.9576 55.8262 16.2903C56.3324 15.6231 56.9996 15.1169 57.828 14.7488C58.6563 14.3806 59.5536 14.0585 60.543 13.8054C62.3837 13.3682 63.6722 12.9311 64.4545 12.4479C64.9147 12.1718 65.2368 11.8496 65.3748 11.4815C65.3748 10.9063 65.3748 10.308 65.3748 9.6868C65.3748 9.06556 65.3058 8.81246 65.1908 8.37529C65.0757 7.93812 64.8457 7.59298 64.5465 7.29386C64.2244 6.99475 63.7872 6.8567 63.212 6.8567C62.6368 6.8567 62.2687 6.99475 61.9235 7.27086C61.6014 7.54697 61.3483 7.91511 61.1872 8.35228C61.0262 8.78944 60.9572 9.27264 60.9572 9.80184C60.9572 10.5841 60.7501 11.1594 60.3129 11.5275C59.8987 11.8957 59.3926 12.0797 58.8634 12.0797C58.3341 12.0797 57.7819 11.8957 57.3678 11.5275C56.9536 11.1594 56.7465 10.6072 56.7465 9.87086C56.7465 9.13458 56.9996 8.60537 57.5058 8.00714C58.012 7.40891 58.7483 6.90271 59.7377 6.51156C60.7041 6.12041 61.9235 5.91333 63.3271 5.91333C65.4439 5.91333 67.2616 6.44254 68.7572 7.50095C70.4368 8.72042 71.2881 10.4001 71.2881 12.5629V20.1098C71.2881 20.57 71.3802 20.8691 71.5412 21.0532C71.7253 21.2143 71.9784 21.3523 72.3005 21.4674C72.5306 21.5594 72.6456 21.7435 72.6456 21.9966C72.6456 22.5028 72.0474 22.9399 70.874 23.3081C70.2067 23.5382 69.4934 23.6302 68.7572 23.6302V23.6532ZM62.5448 20.7771C63.6722 20.7771 64.5925 19.9258 65.3288 18.2461C65.3288 15.8762 65.3288 14.1275 65.3288 13.0001C64.8456 13.3682 64.3164 13.6673 63.7182 13.8744C62.7518 14.2886 62.0386 14.8638 61.5784 15.6001C61.0262 16.4514 60.7501 17.3257 60.7501 18.2231C60.7501 19.1204 60.8881 19.4656 61.1872 19.9948C61.4864 20.524 61.9235 20.7771 62.5217 20.7771H62.5448Z" fill="black"/>
<path id="Vector_5" d="M100.072 23.6532C99.4739 23.6532 98.8987 23.5381 98.3925 23.331C97.219 22.8479 96.6438 21.8815 96.6438 20.4089C96.6438 14.9328 96.6438 11.8496 96.5978 11.1363C96.5748 10.4231 96.5057 9.7788 96.3677 9.20358C96.0916 7.98411 95.4473 7.38588 94.458 7.38588C93.4686 7.38588 93.2615 7.73101 92.7553 8.42128C92.2721 9.11155 91.904 10.0319 91.6969 11.1593C91.7889 11.7116 91.835 12.2868 91.835 12.908V20.639C91.835 21.3523 92.2031 21.9045 92.9164 22.3187C93.1465 22.4567 93.2615 22.6638 93.2615 22.9399C93.2615 23.3771 93.0314 23.5841 92.5482 23.5841H88.8668H85.1854C84.7022 23.5841 84.4491 23.3771 84.4491 22.9629C84.4491 22.5487 84.5642 22.4337 84.8173 22.2956C85.2314 22.0656 85.5075 21.8125 85.6686 21.5133C85.8296 21.2142 85.8987 20.8461 85.8987 20.4089V12.6089C85.8987 11.7576 85.8527 10.9293 85.7836 10.1469C85.7146 9.34164 85.5305 8.69738 85.2314 8.16818C84.9323 7.63898 84.4261 7.38588 83.7128 7.38588C82.9996 7.38588 81.9181 8.19118 81.2969 9.82482V20.8461C81.3889 21.2602 81.504 21.5594 81.6881 21.7894C81.8721 22.0195 82.1022 22.2036 82.3783 22.3647C82.6314 22.5027 82.7465 22.7328 82.7465 23.0319C82.7465 23.3311 82.4934 23.6532 82.0102 23.6532H78.3288H74.6474C74.1642 23.6532 73.9341 23.4461 73.9341 23.0089C73.9341 22.5718 74.0491 22.5257 74.2792 22.3877C74.5783 22.2266 74.8084 22.0425 74.9695 21.8125C75.1536 21.5824 75.2686 21.2602 75.3606 20.8691V11.1593C75.3606 10.193 75.2686 9.5027 75.1075 9.11155C74.9465 8.7204 74.6474 8.42127 74.2792 8.21419C74.0491 8.07614 73.9571 7.86906 73.9571 7.56995C73.9571 7.15579 74.1872 6.9487 74.6474 6.9487C76.5111 6.9487 78.3978 6.64959 80.2385 6.07437C80.2385 6.07437 80.2615 6.07437 80.2845 6.07437C80.3535 6.02835 80.4456 6.02835 80.5606 6.02835C80.8367 6.02835 81.0208 6.09738 81.1358 6.23543C81.2509 6.37349 81.3199 6.6726 81.3199 7.08676V7.68499C82.3093 6.25844 83.8509 5.54517 85.9677 5.54517C88.0845 5.54517 90.3854 6.78764 91.2367 9.24959C92.0881 6.78764 93.9057 5.54517 96.6898 5.54517C99.4739 5.54517 102.534 8.19119 102.58 13.4602V20.2018C102.58 20.662 102.672 20.9611 102.879 21.1452C103.063 21.3293 103.339 21.4673 103.685 21.5594C103.915 21.6514 104.007 21.7895 104.007 21.9965C104.007 22.2036 104.007 22.0656 104.007 22.2036C104.007 22.3187 103.892 22.4797 103.708 22.6408C103.362 22.9169 102.856 23.17 102.189 23.3771C101.522 23.5841 100.808 23.6992 100.095 23.6992L100.072 23.6532Z" fill="black"/>
<path id="Vector_6" d="M13.421 51.5167H0.743122C0.259936 51.5167 0.00683594 51.2866 0.00683594 50.8494C0.00683594 50.4122 0.12188 50.3662 0.351968 50.2282C0.950198 49.9291 1.31834 49.4229 1.4564 48.7096V30.6476C1.31834 29.9343 0.950198 29.4281 0.351968 29.129C0.12188 28.968 0.00683594 28.7609 0.00683594 28.5078C0.00683594 28.0706 0.236926 27.8635 0.720111 27.8635C1.2033 27.8635 4.83869 27.8635 11.6263 27.8635C18.4139 27.8635 15.0316 28.1626 16.2051 28.7609C17.3785 29.3591 18.2298 30.0954 18.759 31.0157C19.2422 31.8211 19.4723 32.6724 19.4723 33.5467C19.4723 34.4211 19.4493 34.0069 19.4033 34.5591C19.3573 35.1343 19.0121 35.8476 18.3679 36.722C17.7236 37.5963 16.8033 38.2866 15.6298 38.7928C17.0334 38.9998 18.2068 39.437 19.1502 40.1043C20.0936 40.7945 20.7608 41.5998 21.198 42.5662C21.5661 43.3715 21.7502 44.2229 21.7502 45.0742C21.7502 45.9255 21.4051 47.191 20.7378 48.2494C20.0475 49.3078 19.1042 50.1131 17.9077 50.6884C16.7113 51.2636 15.2157 51.5397 13.421 51.5397V51.5167ZM10.2688 38.6087C11.1431 38.6087 11.8794 38.3786 12.4776 37.8954C13.0759 37.4122 13.513 36.814 13.8121 36.0547C14.1343 35.2494 14.2723 34.4211 14.2723 33.5697C14.2723 32.7184 14.1343 32.0281 13.8582 31.2918C13.5821 30.5556 13.1679 29.9573 12.5927 29.4972C12.0175 29.014 11.3042 28.7839 10.4298 28.7839H7.36966V38.6087H10.2688ZM10.798 50.5503C11.9484 50.5503 12.8918 50.2972 13.6741 49.745C14.4564 49.2158 15.0316 48.5255 15.4458 47.6972C15.8369 46.8689 16.044 45.9945 16.044 45.0512C16.044 44.1078 15.8369 43.2335 15.4228 42.3821C15.0086 41.5538 14.3644 40.8636 13.513 40.3344C12.6617 39.8052 11.5803 39.552 10.2918 39.552H7.36966V50.5273H10.798V50.5503Z" fill="black"/>
<path id="Vector_7" d="M36.8671 51.5165C36.0848 51.5165 35.3715 51.3325 34.7272 50.9413C34.083 50.5502 33.6918 49.9059 33.5078 49.0316C32.9095 49.8369 32.1272 50.4581 31.1379 50.8953C30.1485 51.3095 29.0901 51.5395 27.9626 51.5395C26.237 51.5395 25.0405 50.8953 24.3503 49.6068C23.798 48.5714 23.4989 47.1679 23.4759 45.3732V38.9997C23.4759 38.0333 23.3839 37.3431 23.1998 36.9519C23.0157 36.5608 22.7396 36.2616 22.3485 36.0546C22.1184 35.9165 22.0264 35.7094 22.0264 35.4333C22.0264 34.9961 22.2565 34.7891 22.7166 34.7891C24.5803 34.7891 26.4671 34.4899 28.3078 33.9147C28.4228 33.8687 28.5379 33.8457 28.6299 33.8457C28.906 33.8457 29.0901 33.9147 29.2051 34.0528C29.3202 34.1908 29.3892 34.4899 29.3892 34.9041V42.8882C29.3892 45.051 29.4122 46.4776 29.4812 47.1909C29.5503 47.9041 29.6883 48.4334 29.9184 48.8015C30.1485 49.1696 30.5626 49.3537 31.1149 49.3537C31.6671 49.3537 31.9662 49.1696 32.3113 48.7785C32.6564 48.3873 32.9326 47.9271 33.1166 47.3979C33.3237 46.8687 33.4157 46.3856 33.4157 45.9714V38.9997C33.4157 38.0333 33.3237 37.3431 33.1626 36.9519C32.9786 36.5608 32.7025 36.2616 32.3343 36.0546C32.1042 35.9165 32.0122 35.7094 32.0122 35.4103C32.0122 34.9961 32.2423 34.7891 32.7025 34.7891C34.5662 34.7891 36.4529 34.4899 38.2936 33.9147C38.4087 33.8687 38.5237 33.8457 38.6157 33.8457C38.8918 33.8457 39.0759 33.9147 39.191 34.0528C39.306 34.1908 39.375 34.4899 39.375 34.9041V48.0192C39.375 48.4794 39.4671 48.7785 39.6741 48.9626C39.8812 49.1466 40.1343 49.2847 40.4794 49.3767C40.6865 49.4688 40.8016 49.6068 40.8016 49.7909C40.8016 49.9749 40.8016 49.8829 40.8016 49.998C40.8016 50.136 40.6865 50.2741 40.5025 50.4581C40.1573 50.7342 39.6511 50.9873 38.9839 51.1944C38.3166 51.4015 37.6033 51.5165 36.8901 51.5165H36.8671Z" fill="black"/>
<path id="Vector_8" d="M46.5534 51.5165H42.872C42.3888 51.5165 42.1587 51.2864 42.1587 50.8493C42.1587 50.4121 42.2737 50.3661 42.5038 50.228C42.8029 50.067 43.033 49.8829 43.1941 49.6528C43.3782 49.4227 43.4932 49.1006 43.5852 48.7095V38.9997C43.5852 38.0333 43.4932 37.3431 43.3321 36.9519C43.1711 36.5608 42.872 36.2616 42.5038 36.0546C42.2737 35.9165 42.1817 35.7094 42.1817 35.4103C42.1817 34.9961 42.4118 34.7891 42.872 34.7891C44.7357 34.7891 46.6224 34.49 48.4861 33.8917C48.5782 33.8457 48.6702 33.8457 48.7852 33.8457C49.0613 33.8457 49.2684 33.9147 49.3835 34.0528C49.4985 34.1908 49.5675 34.4899 49.5675 34.9041V48.7325C49.6596 49.1466 49.7746 49.4457 49.9587 49.6758C50.1428 49.9059 50.3728 50.09 50.649 50.2511C50.902 50.3891 51.0171 50.6192 51.0171 50.9183C51.0171 51.2174 50.764 51.5395 50.2808 51.5395H46.5994L46.5534 51.5165Z" fill="black"/>
<path id="Vector_9" d="M56.2404 51.5169H52.559C52.0758 51.5169 51.8228 51.2868 51.8228 50.8956C51.8228 50.5045 51.9378 50.3664 52.1909 50.2284C52.7661 49.9063 53.1343 49.4 53.2723 48.7098V33.0177C53.2723 32.0513 53.1803 31.3611 52.9962 30.9699C52.8121 30.5788 52.536 30.2796 52.1449 30.0726C51.9148 29.9115 51.8228 29.7044 51.8228 29.4513C51.8228 29.0142 52.0528 28.8071 52.513 28.8071C54.3307 28.8071 56.2635 28.508 58.2882 27.8867H58.4493C58.7254 27.8867 58.9095 27.9327 59.0245 28.0938C59.1396 28.2319 59.2086 28.531 59.2086 28.9451V48.7558C59.3236 49.4461 59.6918 49.9523 60.29 50.2744C60.5201 50.4354 60.6351 50.6425 60.6351 50.8956C60.6351 51.3328 60.382 51.5399 59.8989 51.5399H56.2404V51.5169Z" fill="black"/>
<path id="Vector_10" d="M76.7412 51.5161C75.9589 51.5161 75.2686 51.332 74.6474 50.9639C74.0261 50.5957 73.612 49.9975 73.4279 49.1692C72.4385 50.7338 70.8279 51.5161 68.55 51.5161C66.2722 51.5161 65.9961 51.1939 65.0297 50.5497C64.0633 49.9055 63.304 49.0541 62.7288 48.0187C61.9005 46.5001 61.4863 44.7745 61.4863 42.8647C61.4863 40.955 61.5784 41.3461 61.7394 40.3798C61.9005 39.4134 62.2686 38.401 62.8669 37.3426C63.4651 36.3072 64.2244 35.4559 65.1677 34.8116C66.1111 34.1674 67.2385 33.8452 68.55 33.8452C70.7359 33.8452 72.3235 34.5815 73.3359 36.0541V33.0399C73.3359 32.0736 73.2439 31.3833 73.0598 30.9921C72.8757 30.601 72.5996 30.3019 72.2085 30.0948C71.9784 29.9337 71.8863 29.7266 71.8863 29.4735C71.8863 29.0364 72.1164 28.8293 72.5766 28.8293C74.3943 28.8293 76.327 28.5302 78.3518 27.9089H78.5129C78.789 27.9089 78.973 27.955 79.0881 28.116C79.2031 28.2541 79.2722 28.5532 79.2722 28.9673V48.0647C79.2722 48.5249 79.3642 48.824 79.5713 49.0081C79.7554 49.1922 80.0315 49.3302 80.3766 49.4223C80.6067 49.5143 80.6987 49.6524 80.6987 49.8594C80.6987 50.0665 80.6987 49.9285 80.6987 50.0665C80.6987 50.1816 80.5837 50.3426 80.3996 50.5037C80.0545 50.7798 79.5483 51.0329 78.881 51.24C78.2138 51.447 77.5005 51.5621 76.7872 51.5621L76.7412 51.5161ZM70.8049 49.5603C71.7023 49.5603 72.5306 48.732 73.3129 47.0523V38.355C72.9908 37.3886 72.5306 36.6523 71.9784 36.1691C71.5642 35.824 71.127 35.6399 70.6439 35.6399C69.7465 35.6399 68.9642 36.3072 68.32 37.6187C67.6987 38.9532 67.3766 40.6329 67.3766 42.6807C67.3766 44.7284 67.5607 45.6488 67.9518 46.8223C68.366 47.9727 68.9182 48.755 69.6085 49.1922C69.9996 49.4453 70.3907 49.5603 70.8049 49.5603Z" fill="black"/>
<path id="Vector_11" d="M90.4545 51.9768C88.8899 51.9768 87.4404 51.6546 86.1289 51.0104C84.8174 50.3661 83.7359 49.3537 82.8616 48.0192C81.9182 46.4086 81.4351 44.6829 81.4351 42.8422C81.4351 41.0015 81.4351 42.336 81.4811 42.0599C81.7112 39.4139 82.6545 37.2971 84.3802 35.7325C86.0828 34.1449 88.2457 33.3625 90.8917 33.3625C93.5377 33.3625 93.6988 33.6156 94.7572 34.0988C95.7926 34.582 96.6209 35.2263 97.1961 36.0086C97.8634 36.9289 98.2085 37.9413 98.2085 39.0458C98.2085 40.1502 98.0244 40.4953 97.6563 41.2546C97.2881 42.0139 96.6669 42.6812 95.7696 43.2794C94.8722 43.8776 93.7218 44.2688 92.3182 44.4528C91.8581 44.5219 91.3749 44.5679 90.8457 44.5679C89.7873 44.5679 88.6138 44.4298 87.3483 44.1537C87.5784 44.9821 87.9235 45.7183 88.4067 46.3856C88.8669 47.0529 89.4882 47.559 90.2244 47.9502C90.9607 48.3414 91.8581 48.5254 92.8705 48.5254C94.389 48.5254 95.7926 48.1113 97.1041 47.2599C97.2421 47.1679 97.3572 47.1449 97.4952 47.1449C97.6333 47.1449 97.6793 47.1679 97.7483 47.2369C97.8864 47.352 97.9554 47.49 97.9554 47.6511C97.9554 47.8122 97.9324 47.8121 97.8864 47.9042C97.035 49.1697 95.9536 50.1821 94.6651 50.8953C93.3766 51.6316 91.9731 51.9998 90.4545 51.9998V51.9768ZM87.0952 43.0493C89.4651 43.0493 91.1908 42.336 92.2722 40.9095C92.9625 39.9201 93.3076 38.7466 93.3076 37.3661C93.3076 35.9856 92.5483 34.467 91.0067 34.3979C90.0404 34.444 89.2351 34.8811 88.5448 35.7555C87.8775 36.6298 87.4404 37.5732 87.2333 38.5626C87.0262 39.575 86.9342 40.4263 86.9342 41.1626C86.9342 41.8989 86.9802 42.4281 87.0952 43.0493Z" fill="black"/>
<path id="Vector_12" d="M103.34 51.5169H99.6581C99.1749 51.5169 98.9448 51.2869 98.9448 50.8497C98.9448 50.4125 99.0599 50.3665 99.29 50.2285C99.5891 50.0674 99.8192 49.8833 99.9802 49.6532C100.164 49.4231 100.279 49.101 100.371 48.7099V39.0001C100.371 38.0337 100.279 37.3435 100.118 36.9523C99.9572 36.5612 99.6581 36.262 99.29 36.055C99.0599 35.9169 98.9678 35.7098 98.9678 35.4107C98.9678 34.9966 99.1979 34.7895 99.6351 34.7895C101.522 34.7895 103.409 34.4904 105.272 33.8921C105.364 33.8461 105.456 33.8461 105.571 33.8461C105.847 33.8461 106.055 33.9151 106.17 34.0532C106.285 34.1912 106.354 34.4904 106.354 34.9045V35.7789C107.274 34.1912 108.816 33.4089 111.001 33.4089C113.187 33.4089 112.474 33.593 112.957 33.9381C113.647 34.4673 113.993 35.1806 113.993 36.032C113.993 36.8833 113.924 36.6072 113.809 36.9983C113.693 37.3895 113.417 37.7576 113.003 38.1028C112.589 38.4479 112.037 38.632 111.393 38.632C110.748 38.632 109.943 38.2408 109.598 37.4355C109.391 36.9523 109.184 36.5842 108.954 36.285C108.724 36.0089 108.424 35.8479 108.079 35.8479C107.734 35.8479 107.251 36.124 106.975 36.6532C106.699 37.2054 106.538 37.7116 106.469 38.1948C106.4 38.678 106.354 39.2302 106.354 39.7824V48.6869C106.446 49.101 106.561 49.4001 106.745 49.6302C106.929 49.8603 107.159 50.0444 107.435 50.2054C107.688 50.3435 107.803 50.5736 107.803 50.8727C107.803 51.1718 107.55 51.4939 107.067 51.4939H103.386L103.34 51.5169Z" fill="black"/>
<path id="Vector_13" d="M14.6175 11.2276C13.9962 11.1586 13.467 10.9285 13.0299 10.4913C12.5927 10.0541 12.3396 9.52492 12.2936 8.90368C12.2476 8.28244 12.0865 8.4205 11.8334 8.39749C11.5803 8.37448 11.2122 8.58156 11.1892 8.90368C11.1431 9.54793 10.89 10.0771 10.4529 10.5143C10.0157 10.9515 9.50951 11.2046 8.86526 11.2506C8.22101 11.2966 8.35907 11.5037 8.33606 11.7798C8.31305 12.0559 8.54314 12.309 8.81925 12.355C9.4635 12.424 9.9927 12.6772 10.4299 13.1373C10.867 13.5745 11.0971 14.1037 11.1661 14.748C11.1892 15.0471 11.4422 15.2541 11.7184 15.2541C11.9945 15.2541 12.2476 15.001 12.2706 14.7249C12.3166 14.1037 12.5697 13.5745 13.0069 13.1373C13.467 12.6772 13.9962 12.424 14.6405 12.355C14.9166 12.332 15.1467 12.0789 15.1237 11.7798C15.1007 11.4807 14.8936 11.2736 14.5945 11.2506L14.6175 11.2276Z" fill="black"/>
<path id="Vector_14" d="M49.4528 28.9903C48.8085 28.9443 48.2793 28.6912 47.8422 28.254C47.405 27.8169 47.1519 27.2876 47.1059 26.6434C47.0829 26.3673 46.8528 26.1372 46.5537 26.1372C46.2546 26.1372 46.0245 26.3673 46.0015 26.6434C45.9555 27.2876 45.7024 27.8169 45.2652 28.254C44.828 28.6912 44.3218 28.9443 43.6776 28.9903C43.4015 29.0133 43.1714 29.2434 43.1714 29.5425C43.1714 29.8186 43.3785 30.0717 43.6546 30.0947C44.2988 30.1638 44.828 30.4169 45.2652 30.877C45.7024 31.3142 45.9324 31.8434 46.0015 32.4877C46.0245 32.7638 46.2546 32.9939 46.5537 32.9939C46.8298 32.9939 47.0829 32.7638 47.1059 32.4877C47.1519 31.8434 47.405 31.3142 47.8422 30.877C48.3024 30.4169 48.8316 30.1638 49.4758 30.0947C49.7519 30.0717 49.959 29.8186 49.959 29.5425C49.959 29.2664 49.7289 29.0133 49.4528 28.9903Z" fill="black"/>
</g>
<defs>
<clipPath id="clip0_4880_9011">
<rect width="113.986" height="52" fill="white" transform="translate(0.00683594)"/>
</clipPath>
</defs>
</svg>
